<svg width="175" height="142" viewBox="0 0 175 142" fill="none" xmlns="http://www.w3.org/2000/svg">
<path d="M104.345 50.488C102.384 50.488 100.966 51.9064 100.966 53.8501C100.966 55.8112 102.384 57.2296 104.328 57.2296C106.289 57.2296 107.69 55.8112 107.707 53.8676C107.707 51.9064 106.307 50.488 104.345 50.488Z" fill="#0B315E" fill-opacity="0.33"/>
<path d="M138.071 50.4887C136.11 50.4537 134.639 51.837 134.604 53.7807C134.569 55.7418 135.97 57.2127 137.896 57.2477C139.857 57.2828 141.311 55.8994 141.346 53.9558C141.398 51.9771 140.015 50.5237 138.071 50.4887Z" fill="#0B315E" fill-opacity="0.33"/>
<path d="M171.673 50.4882C169.712 50.4707 168.276 51.889 168.258 53.8327C168.241 55.7939 169.659 57.2297 171.603 57.2472C173.564 57.2648 174.982 55.8639 175 53.9027C175.017 51.9241 173.634 50.5057 171.673 50.4882Z" fill="#0B315E" fill-opacity="0.33"/>
<path d="M20.1903 74.075C22.1515 74.075 23.5698 72.6742 23.5698 70.713C23.5698 68.7518 22.169 67.3335 20.2078 67.3335C18.2466 67.3335 16.8283 68.7518 16.8283 70.6955C16.8108 72.6392 18.2466 74.0575 20.1903 74.075Z" fill="#0B315E" fill-opacity="0.33"/>
<path d="M53.793 74.0754C55.7542 74.0929 57.1901 72.7096 57.2251 70.7484C57.2426 68.7697 55.8593 67.3338 53.9156 67.3163C51.9544 67.2988 50.5011 68.6822 50.4835 70.6258C50.4485 72.587 51.8669 74.0404 53.793 74.0754Z" fill="#0B315E" fill-opacity="0.33"/>
<path d="M87.4653 67.3163C85.5216 67.3338 84.1033 68.7697 84.1208 70.7309C84.1383 72.6745 85.5916 74.0929 87.5353 74.0754C89.4965 74.0579 90.8798 72.622 90.8623 70.6608C90.8623 68.6997 89.4265 67.2988 87.4653 67.3163Z" fill="#0B315E" fill-opacity="0.33"/>
<path d="M121.295 67.3159C119.333 67.2634 117.845 68.6292 117.775 70.5554C117.722 72.5165 119.088 74.0049 121.014 74.075C122.976 74.1275 124.464 72.7617 124.516 70.8355C124.586 68.8393 123.238 67.3684 121.295 67.3159Z" fill="#0B315E" fill-opacity="0.33"/>
<path d="M154.881 67.3163C152.92 67.2988 151.466 68.6997 151.449 70.6258C151.431 72.587 152.832 74.0404 154.776 74.0579C156.737 74.0754 158.173 72.6745 158.19 70.7309C158.208 68.7697 156.825 67.3338 154.881 67.3163Z" fill="#0B315E" fill-opacity="0.33"/>
<path d="M37.0347 90.9036C38.9959 90.8861 40.3967 89.4677 40.3792 87.5065C40.3792 85.5454 38.9609 84.1445 36.9997 84.1445C35.0385 84.1445 33.6377 85.5804 33.6377 87.5416C33.6552 89.4852 35.0911 90.9036 37.0347 90.9036Z" fill="#0B315E" fill-opacity="0.33"/>
<path d="M67.31 87.2778C67.2049 89.2564 68.5357 90.7799 70.4444 90.9024C72.4056 91.0075 73.9465 89.6767 74.0515 87.7681C74.1566 85.7894 72.8433 84.266 70.9347 84.1609C68.9385 84.0383 67.4151 85.3691 67.31 87.2778Z" fill="#0B315E" fill-opacity="0.33"/>
<path d="M104.468 84.1443C102.507 84.0918 101.018 85.4401 100.966 87.3837C100.913 89.3449 102.279 90.8333 104.205 90.9034C106.166 90.9559 107.655 89.5901 107.707 87.6639C107.76 85.6677 106.411 84.1968 104.468 84.1443Z" fill="#0B315E" fill-opacity="0.33"/>
<path d="M137.931 84.143C135.987 84.1605 134.586 85.6139 134.621 87.575C134.639 89.5187 136.092 90.9196 138.053 90.902C139.997 90.867 141.38 89.4312 141.363 87.47C141.328 85.5088 139.892 84.1255 137.931 84.143Z" fill="#0B315E" fill-opacity="0.33"/>
<path d="M53.8449 107.73C55.8061 107.73 57.2069 106.329 57.2245 104.368C57.2245 102.406 55.8236 100.988 53.8624 100.988C51.9013 100.988 50.4829 102.406 50.4829 104.35C50.4829 106.294 51.9013 107.73 53.8449 107.73Z" fill="#0B315E" fill-opacity="0.33"/>
<path d="M87.4307 100.972C85.4871 101.007 84.0862 102.46 84.1212 104.421C84.1563 106.365 85.6096 107.766 87.5708 107.731C89.5145 107.696 90.8978 106.26 90.8628 104.281C90.8453 102.32 89.4094 100.937 87.4307 100.972Z" fill="#0B315E" fill-opacity="0.33"/>
<path d="M121.224 100.971C119.263 100.954 117.81 102.354 117.792 104.281C117.775 106.242 119.176 107.695 121.119 107.713C123.081 107.73 124.516 106.347 124.534 104.386C124.551 102.424 123.168 100.989 121.224 100.971Z" fill="#0B315E" fill-opacity="0.33"/>
<path d="M70.5496 124.557C72.5108 124.61 73.9992 123.244 74.0517 121.318C74.1042 119.339 72.7559 117.868 70.8298 117.816C68.8686 117.763 67.3802 119.129 67.3102 121.055C67.2401 122.999 68.6234 124.487 70.5496 124.557Z" fill="#0B315E" fill-opacity="0.33"/>
<path d="M104.415 117.798C102.454 117.763 100.983 119.146 100.948 121.09C100.913 123.051 102.313 124.522 104.24 124.557C106.201 124.592 107.654 123.209 107.689 121.265C107.742 119.286 106.358 117.833 104.415 117.798Z" fill="#0B315E" fill-opacity="0.33"/>
<path d="M87.4478 134.626C85.5042 134.661 84.1033 136.097 84.1383 138.058C84.1734 140.002 85.6267 141.403 87.5704 141.368C89.5141 141.333 90.8974 139.897 90.8799 137.936C90.8449 135.992 89.409 134.591 87.4478 134.626Z" fill="#0B315E" fill-opacity="0.33"/>
<path d="M53.8626 6.76418C55.8238 6.76418 57.2246 5.34583 57.2246 3.36714C57.2246 1.40597 55.8063 0.00512695 53.8451 0.00512695C51.8839 0.00512695 50.4656 1.44099 50.4831 3.38465C50.4831 5.34583 51.9189 6.76418 53.8626 6.76418Z" fill="#0B315E" fill-opacity="0.33"/>
<path d="M90.8624 3.61297C90.9675 1.63429 89.6542 0.110871 87.7455 0.00580837C85.7668 -0.0992546 84.2434 1.23155 84.1384 3.14019C84.0333 5.10137 85.3641 6.64229 87.2728 6.74735C89.2339 6.86993 90.7749 5.52162 90.8624 3.61297Z" fill="#0B315E" fill-opacity="0.33"/>
<path d="M121.224 0.0052893C119.263 -0.0122212 117.81 1.38862 117.792 3.31478C117.775 5.27595 119.176 6.72932 121.119 6.74683C123.081 6.76434 124.516 5.38101 124.534 3.41984C124.551 1.45866 123.168 0.0403103 121.224 0.0052893Z" fill="#0B315E" fill-opacity="0.33"/>
<path d="M37.0875 23.5925C39.0311 23.5575 40.4145 22.1217 40.397 20.1605C40.3795 18.2168 38.9436 16.816 36.9649 16.851C35.0212 16.886 33.6204 18.3219 33.6554 20.283C33.6729 22.2092 35.1263 23.61 37.0875 23.5925Z" fill="#0B315E" fill-opacity="0.33"/>
<path d="M70.7433 16.8334C68.7821 16.8159 67.3462 18.1992 67.3112 20.1429C67.2937 22.1041 68.677 23.5574 70.6207 23.575C72.5819 23.5925 74.0177 22.2091 74.0527 20.248C74.0703 18.3043 72.6869 16.8684 70.7433 16.8334Z" fill="#0B315E" fill-opacity="0.33"/>
<path d="M104.363 16.8334C102.402 16.8159 100.966 18.2167 100.966 20.1779C100.948 22.1391 102.367 23.575 104.31 23.5925C106.272 23.61 107.69 22.1916 107.708 20.248C107.708 18.2693 106.324 16.8509 104.363 16.8334Z" fill="#0B315E" fill-opacity="0.33"/>
<path d="M137.983 16.8333C136.021 16.8333 134.621 18.2516 134.621 20.2128C134.621 22.174 136.056 23.5923 138 23.5748C139.961 23.5748 141.362 22.1564 141.362 20.1778C141.345 18.2341 139.944 16.8333 137.983 16.8333Z" fill="#0B315E" fill-opacity="0.33"/>
<path d="M20.1538 40.4208C22.115 40.4383 23.5334 39.0375 23.5509 37.0763C23.5684 35.1152 22.1675 33.6793 20.2239 33.6618C18.2627 33.6443 16.8268 35.0626 16.8093 37.0063C16.8093 38.95 18.2277 40.4033 20.1538 40.4208Z" fill="#0B315E" fill-opacity="0.33"/>
<path d="M53.8103 40.4208C55.7715 40.4383 57.1899 39.0375 57.2074 37.0763C57.2249 35.1152 55.824 33.6793 53.8804 33.6618C51.9192 33.6443 50.4833 35.0626 50.4658 37.0063C50.4658 38.95 51.8842 40.4033 53.8103 40.4208Z" fill="#0B315E" fill-opacity="0.33"/>
<path d="M87.64 33.6614C85.6788 33.6088 84.1904 34.9747 84.1204 36.9008C84.0678 38.862 85.4336 40.3504 87.3598 40.4204C89.321 40.4905 90.8094 39.1071 90.8619 37.181C90.9319 35.1848 89.5836 33.7314 87.64 33.6614Z" fill="#0B315E" fill-opacity="0.33"/>
<path d="M121.173 33.6616C119.212 33.6616 117.794 35.08 117.794 37.0236C117.794 38.9848 119.212 40.4032 121.156 40.4207C123.117 40.4207 124.535 39.0198 124.535 37.0587C124.535 35.08 123.135 33.6616 121.173 33.6616Z" fill="#0B315E" fill-opacity="0.33"/>
<path d="M154.846 33.6618C152.885 33.6443 151.449 35.0626 151.432 37.0063C151.414 38.9675 152.833 40.4033 154.776 40.4208C156.737 40.4383 158.156 39.02 158.173 37.0763C158.191 35.0976 156.808 33.6793 154.846 33.6618Z" fill="#0B315E" fill-opacity="0.33"/>
<path d="M3.34467 57.2468C5.30584 57.2643 6.72419 55.846 6.7417 53.9023C6.75921 51.9411 5.35837 50.5053 3.41471 50.5053C1.45353 50.4878 0.0176709 51.9061 0.000160364 53.8498C-0.0173501 55.7759 1.401 57.2293 3.34467 57.2468Z" fill="#0B315E" fill-opacity="0.33"/>
<path d="M36.8951 57.2468C38.8562 57.3169 40.3446 55.9336 40.3972 54.0074C40.4497 52.0287 39.1014 50.5578 37.1752 50.4878C35.2141 50.4353 33.7257 51.8011 33.6556 53.7272C33.5856 55.6884 34.9689 57.1768 36.8951 57.2468Z" fill="#0B315E" fill-opacity="0.33"/>
</svg>
