<svg width="358" height="400" viewBox="0 0 358 519" fill="none" xmlns="http://www.w3.org/2000/svg">
<path d="M212.913 225.035C214.162 225.035 215.324 224.66 216.307 224.02C200.794 218.888 184.075 216.085 166.64 216.085C150.163 216.085 134.321 218.583 119.536 223.188C120.683 224.329 122.24 225.035 123.961 225.035H212.913Z" fill="#EFB1DA"/>
<path d="M46.4218 316.442H6.37917C2.85458 316.442 0 319.389 0 323.024V329.41C0.763263 328.62 1.58513 328.185 2.44297 328.185C6.43512 328.185 9.67199 337.515 9.67199 349.025C9.67199 360.535 6.43512 369.866 2.44297 369.866C1.58513 369.866 0.761931 369.433 0 368.64V375.666C0 379.301 2.85591 382.249 6.37917 382.249H46.4218C49.9451 382.249 52.801 379.301 52.801 375.666V323.021C52.8023 319.389 49.9451 316.442 46.4218 316.442Z" fill="#F9C7E6"/>
<path d="M9.67199 349.027C9.67199 337.517 6.43512 328.187 2.44297 328.187C1.58513 328.187 0.761931 328.62 0 329.411V368.643C0.763263 369.435 1.58513 369.869 2.44297 369.869C6.43512 369.868 9.67199 360.536 9.67199 349.027Z" fill="#EFB1DA"/>
<path d="M93.9284 274.491C93.9284 278.124 91.0725 281.071 87.5492 281.071H72.8901C69.3668 281.071 66.5122 278.123 66.5122 274.491V229.246C66.5122 225.611 69.3668 222.665 72.8901 222.665C72.8901 222.665 93.9284 232.193 93.9284 235.826V274.491Z" fill="#EFB1DA"/>
<path d="M205.904 203.756C205.805 226.128 188.143 244.183 166.459 244.077C144.773 243.974 127.272 225.753 127.375 203.379C127.475 181.006 145.135 162.953 166.824 163.056C188.507 163.161 206.006 181.382 205.904 203.756Z" fill="#FCCF76"/>
<path d="M196.988 203.713C196.91 221.006 183.259 234.959 166.498 234.879C149.737 234.798 136.212 220.714 136.291 203.422C136.368 186.132 150.019 172.177 166.78 172.257C183.541 172.337 197.065 186.42 196.988 203.713Z" fill="#FCCF76"/>
<path d="M199.573 203.724C199.532 213.069 196.27 221.054 189.791 227.676C183.31 234.3 175.543 237.589 166.487 237.545C157.429 237.503 149.69 234.138 143.272 227.454C136.853 220.769 133.664 212.753 133.705 203.411C133.746 194.067 137.007 186.082 143.486 179.459C149.965 172.835 157.732 169.545 166.79 169.588C175.847 169.632 183.586 172.996 190.007 179.681C196.426 186.367 199.615 194.381 199.573 203.724ZM195.182 203.703C195.216 195.588 192.458 188.637 186.904 182.854C181.348 177.07 174.639 174.157 166.77 174.12C158.902 174.083 152.164 176.929 146.561 182.66C140.954 188.391 138.133 195.315 138.095 203.431C138.059 211.55 140.818 218.5 146.373 224.283C151.925 230.069 158.637 232.98 166.505 233.017C174.372 233.054 181.111 230.208 186.718 224.476C192.322 218.746 195.144 211.824 195.182 203.703ZM168.907 187.722L168.844 201.312L170.354 201.32C173.554 201.335 176.295 202.46 178.572 204.687C180.85 206.918 181.982 209.588 181.968 212.702C181.954 215.816 180.798 218.48 178.503 220.687C176.203 222.894 173.453 223.991 170.255 223.974L168.744 223.967L168.735 226.233C168.732 226.894 168.525 227.434 168.11 227.858C167.696 228.281 167.17 228.493 166.528 228.49C165.887 228.487 165.362 228.273 164.953 227.845C164.543 227.418 164.341 226.874 164.345 226.214L164.354 223.948L162.843 223.941C159.641 223.926 156.901 222.805 154.625 220.574C152.347 218.346 151.216 215.673 151.229 212.558C151.233 211.9 151.441 211.357 151.855 210.933C152.27 210.51 152.795 210.301 153.435 210.304C154.076 210.307 154.602 210.521 155.012 210.947C155.423 211.375 155.625 211.92 155.622 212.58C155.614 214.468 156.314 216.075 157.728 217.402C159.139 218.732 160.852 219.4 162.865 219.409L164.375 219.416L164.437 205.825L162.926 205.817C159.724 205.803 156.983 204.68 154.707 202.451C152.43 200.224 151.299 197.551 151.313 194.435C151.328 191.321 152.482 188.66 154.781 186.452C157.076 184.247 159.826 183.149 163.03 183.165L164.539 183.171L164.55 180.907C164.553 180.247 164.76 179.703 165.173 179.281C165.588 178.858 166.112 178.649 166.754 178.653C167.395 178.654 167.919 178.868 168.33 179.295C168.74 179.722 168.943 180.266 168.94 180.927L168.93 183.192L170.44 183.2C173.641 183.214 176.381 184.338 178.659 186.566C180.935 188.798 182.068 191.467 182.054 194.582C182.052 195.243 181.844 195.783 181.43 196.208C181.015 196.63 180.488 196.84 179.847 196.836C179.206 196.835 178.683 196.619 178.271 196.193C177.864 195.765 177.66 195.223 177.663 194.562C177.672 192.675 176.97 191.067 175.557 189.736C174.143 188.409 172.432 187.74 170.42 187.73L168.907 187.722ZM164.515 187.701L163.006 187.694C160.992 187.685 159.274 188.337 157.851 189.651C156.426 190.968 155.71 192.57 155.702 194.456C155.694 196.344 156.392 197.953 157.808 199.279C159.22 200.608 160.932 201.276 162.946 201.286L164.455 201.293L164.515 187.701ZM168.826 205.844L168.764 219.435L170.272 219.442C172.285 219.451 174.005 218.801 175.429 217.485C176.853 216.171 177.569 214.571 177.577 212.68C177.585 210.793 176.882 209.187 175.471 207.856C174.058 206.53 172.345 205.861 170.335 205.85L168.826 205.844Z" fill="#EDBA5F"/>
<path opacity="0.6" d="M321.226 484.345C321.226 503.182 251.483 518.453 165.449 518.453C79.4156 518.453 9.67236 503.182 9.67236 484.345C9.67236 465.506 79.4156 450.235 165.449 450.235C251.481 450.233 321.226 465.506 321.226 484.345Z" fill="white"/>
<path d="M310.832 375.985L310.824 375.989C312.473 367.886 313.345 359.533 313.345 350.992C313.345 292.517 272.884 242.738 216.306 224.02C215.323 224.659 214.161 225.035 212.912 225.035H123.959C122.239 225.035 120.681 224.329 119.534 223.188C61.6166 241.234 19.9302 291.636 19.9302 350.992C19.9302 383.257 32.2529 412.869 52.7998 436.085V484.255C52.7998 487.889 55.6557 490.835 59.1776 490.835H90.6245C94.1478 490.835 97.0037 487.887 97.0037 484.255L100.303 471.349C120.225 480.65 142.762 485.9 166.636 485.9C190.519 485.9 213.064 480.648 232.991 471.338V484.254C232.991 487.887 235.847 490.834 239.37 490.834H270.818C274.339 490.834 277.196 487.886 277.196 484.254C277.202 484.254 314.355 375.985 310.832 375.985Z" fill="#FCDAEF"/>
<path d="M314.911 332.343C316.989 324.89 327.525 324.766 331.544 330.61C333.508 333.463 334.679 337.344 334.088 340.835C333.729 342.966 329.918 347.103 327.581 345.135C324.052 342.162 329.883 332.467 331.703 330.093C336.968 323.224 344.552 321.573 351.997 325.749C356.516 328.285 360.539 321.181 356.022 318.647C343.288 311.505 330.364 316.409 322.961 328.76C318.265 336.592 315.648 352.873 328.47 353.504C344.233 354.279 344.498 334.013 337.138 324.651C329.115 314.448 310.956 316.767 307.224 330.155C305.8 335.265 313.494 337.43 314.911 332.343Z" fill="#EBB8D5"/>
<path d="M69.1234 344.406C70.0972 322.04 101.812 322.041 102.786 344.406C102.949 348.165 108.623 348.181 108.459 344.406C107.891 331.355 98.6043 321.772 85.9538 321.186C73.3194 320.601 63.9804 332.233 63.4503 344.406C63.2864 348.181 68.9596 348.165 69.1234 344.406Z" fill="#5E5E5E"/>
<path d="M23.894 382.251C23.894 382.251 45.0163 467.727 133.394 482.415C221.77 497.103 305.31 442.26 311.913 369.868C311.913 369.868 274.926 457.617 150.538 453.228C26.1505 448.843 23.894 382.251 23.894 382.251Z" fill="#EFB1DA"/>
<path d="M102.542 133.133H146.844C146.844 133.133 155.702 134.077 162.788 122.265C169.873 110.454 174.598 98.2696 174.598 98.2696L124.403 95.2228L102.542 133.133Z" fill="#F09D7C"/>
<path d="M165.595 95.2228C165.595 95.2228 158.534 112.573 166.001 116.611L176.093 96.549L165.595 95.2228Z" fill="#FABDA7" stroke="#FABDA7" stroke-width="0.2956" stroke-miterlimit="10"/>
<path d="M141.71 99.7993C141.71 99.7993 140.923 113.069 144.86 117.943C144.86 117.943 136.724 111.716 136.985 93.3016L141.71 99.7993Z" fill="#D38D6E"/>
<path d="M129.374 101.531C129.374 101.531 121.762 106.91 118.875 114.187C118.875 114.187 123.862 95.4662 125.175 93.3003C126.487 91.1344 134.098 88.9671 129.374 100.341" fill="#D38D6E"/>
<path d="M214.813 110.779C214.813 110.779 238.955 112.239 238.365 139.782C238.365 139.782 239.545 146.944 221.879 161.266C204.213 175.588 201.86 193.662 206.57 200.049C211.281 206.436 217.791 208.65 238.382 189.916C258.975 171.182 290.185 152.874 290.185 129.526C290.185 106.179 290.185 6.07373e-05 290.185 6.07373e-05H223.056V38.9728C223.056 38.9728 224.234 52.1924 208.335 55.4976C192.436 58.8041 108.798 68.0488 102.92 75.2693C97.0439 82.4911 63.0143 138.128 66.4863 150.247C69.9557 162.366 112.943 211.29 126.486 200.049C140.029 188.807 121.153 167.873 121.153 167.873L99.3989 143.085C99.3989 143.085 115.821 126.949 121.153 110.778L214.813 110.779Z" fill="#FCB89A"/>
<path d="M94.8179 185.014C94.8179 185.014 117.825 186.661 118.876 201.857C118.876 201.857 108.557 200.634 94.8179 185.014Z" fill="#FABDA7" stroke="#FABDA7" stroke-width="0.2956" stroke-miterlimit="10"/>
<path d="M216.564 205.055C216.564 205.055 212.982 195.598 223.02 185.013L228.927 181.13L238.392 189.057C238.392 189.057 222.554 205.695 216.564 205.055Z" fill="#FABDA7" stroke="#FABDA7" stroke-width="0.2956" stroke-miterlimit="10"/>
<path d="M259.587 169.589C259.587 169.589 250.776 167.118 245.461 155.541C245.461 155.541 257.071 165.735 263.372 166.121L259.587 169.589Z" fill="#D38D6E"/>
<mask id="mask0_154_8168" style="mask-type:luminance" maskUnits="userSpaceOnUse" x="127" y="163" width="79" height="82">
<path d="M205.904 203.756C205.805 226.128 188.143 244.183 166.459 244.077C144.773 243.974 127.272 225.753 127.375 203.379C127.475 181.006 145.135 162.953 166.824 163.056C188.507 163.161 206.006 181.382 205.904 203.756Z" fill="white"/>
</mask>
<g mask="url(#mask0_154_8168)">
<path opacity="0.1" d="M205.905 216.084H123.96V225.035H205.905V216.084Z" fill="#F26F38"/>
</g>
<path d="M116.252 274.197V253.768C116.252 250.133 95.2133 240.606 95.2133 240.606C91.69 240.606 88.8354 243.551 88.8354 247.188V259.374C100.2 259.372 110.231 265.24 116.252 274.197Z" fill="#EFB1DA"/>
</svg>
