<svg width="291" height="261" viewBox="0 0 291 261" fill="none" xmlns="http://www.w3.org/2000/svg">
<path d="M135.167 260.342C209.818 260.342 270.334 249.969 270.334 237.175C270.334 224.38 209.818 214.008 135.167 214.008C60.5163 214.008 0 224.38 0 237.175C0 249.969 60.5163 260.342 135.167 260.342Z" fill="#F5F5FF"/>
<path d="M140.074 111.76C181.767 106.905 273.65 172.421 273.053 88.9398C272.575 22.0328 169.378 -7.58325 117.621 1.64775C61.5841 11.6408 9.52413 66.1777 14.3871 127.03C16.6871 155.816 37.2751 180.962 68.9731 171.9C104.324 161.794 98.2801 116.627 140.074 111.76Z" fill="#F5F5FF"/>
<path d="M227.188 216.987L72.425 229.145C65.523 229.687 59.433 224.484 58.891 217.582L51.279 120.681C50.737 113.779 55.94 107.689 62.842 107.147L217.605 94.9887C224.506 94.4467 230.597 99.6497 231.139 106.552L238.751 203.453C239.293 210.355 234.09 216.445 227.188 216.987Z" fill="url(#paint0_linear_152_9112)"/>
<path d="M209.671 161.13L82.771 180.152C80.002 180.567 77.421 178.659 77.006 175.89L66.691 107.081C66.276 104.312 68.184 101.731 70.953 101.316L197.853 82.2938C200.622 81.8788 203.203 83.7867 203.618 86.5557L213.932 155.366C214.348 158.134 212.44 160.715 209.671 161.13Z" fill="url(#paint1_linear_152_9112)"/>
<path d="M218.648 217.658L63.885 229.816C56.983 230.358 50.893 225.155 50.351 218.253L42.739 121.352C42.197 114.45 47.4 108.36 54.302 107.818L209.065 95.6598C215.967 95.1178 222.057 100.321 222.599 107.223L230.211 204.124C230.753 211.026 225.55 217.116 218.648 217.658Z" fill="url(#paint2_linear_152_9112)"/>
<path d="M66.4588 119.986L56.3188 120.782L56.1318 118.4L66.2718 117.604L66.4588 119.986Z" fill="url(#paint3_linear_152_9112)"/>
<path d="M86.347 118.423L76.207 119.22L76.02 116.838L86.16 116.041L86.347 118.423Z" fill="url(#paint4_linear_152_9112)"/>
<path d="M106.235 116.861L96.0952 117.657L95.9082 115.276L106.048 114.479L106.235 116.861Z" fill="url(#paint5_linear_152_9112)"/>
<path d="M126.124 115.299L115.983 116.095L115.796 113.713L125.936 112.917L126.124 115.299Z" fill="url(#paint6_linear_152_9112)"/>
<path d="M146.012 113.736L135.872 114.533L135.684 112.151L145.825 111.354L146.012 113.736Z" fill="url(#paint7_linear_152_9112)"/>
<path d="M165.9 112.174L155.76 112.97L155.573 110.588L165.713 109.792L165.9 112.174Z" fill="url(#paint8_linear_152_9112)"/>
<path d="M185.788 110.611L175.648 111.408L175.461 109.026L185.601 108.23L185.788 110.611Z" fill="url(#paint9_linear_152_9112)"/>
<path d="M205.676 109.049L195.536 109.846L195.349 107.464L205.489 106.667L205.676 109.049Z" fill="url(#paint10_linear_152_9112)"/>
<path d="M74.181 218.281L64.041 219.078L63.854 216.696L73.994 215.899L74.181 218.281Z" fill="url(#paint11_linear_152_9112)"/>
<path d="M94.0692 216.719L83.9292 217.515L83.7422 215.133L93.8822 214.337L94.0692 216.719Z" fill="url(#paint12_linear_152_9112)"/>
<path d="M113.957 215.156L103.817 215.953L103.63 213.571L113.77 212.774L113.957 215.156Z" fill="url(#paint13_linear_152_9112)"/>
<path d="M133.845 213.594L123.705 214.391L123.518 212.009L133.658 211.212L133.845 213.594Z" fill="url(#paint14_linear_152_9112)"/>
<path d="M153.733 212.032L143.593 212.828L143.406 210.446L153.546 209.65L153.733 212.032Z" fill="url(#paint15_linear_152_9112)"/>
<path d="M173.621 210.469L163.481 211.266L163.294 208.884L173.434 208.087L173.621 210.469Z" fill="url(#paint16_linear_152_9112)"/>
<path d="M193.51 208.907L183.369 209.704L183.182 207.322L193.322 206.525L193.51 208.907Z" fill="url(#paint17_linear_152_9112)"/>
<path d="M213.398 207.345L203.258 208.141L203.07 205.759L213.211 204.963L213.398 207.345Z" fill="url(#paint18_linear_152_9112)"/>
<path d="M227.247 179.555L204.67 181.329C191.58 182.357 180.028 172.488 179 159.398C177.972 146.308 187.841 134.756 200.931 133.728L223.508 131.955C236.598 130.927 248.15 140.795 249.178 153.886C250.206 166.975 240.337 178.527 227.247 179.555Z" fill="url(#paint19_linear_152_9112)"/>
<path d="M202.788 174.061C201.408 174.061 200.034 173.888 198.703 173.545L199.224 171.514C200.749 171.906 202.324 172.043 203.93 171.917L204.158 174.003L204.1 174.008C203.656 174.043 203.221 174.061 202.788 174.061ZM209.227 173.606L209.063 171.514L214.137 171.116L214.301 173.208L209.227 173.606ZM219.376 172.809L219.212 170.717L224.286 170.319L224.45 172.411L219.376 172.809ZM229.678 171.719L229.133 169.694C230.665 169.282 232.11 168.622 233.427 167.733L234.601 169.471C233.09 170.49 231.434 171.246 229.678 171.719ZM193.754 171.359C192.234 170.363 190.896 169.132 189.775 167.702L191.425 166.407C192.405 167.658 193.576 168.734 194.905 169.605L193.754 171.359ZM238.532 165.756L236.862 164.486C237.827 163.218 238.571 161.813 239.073 160.311L241.063 160.977C240.488 162.697 239.637 164.305 238.532 165.756ZM187.181 162.951C186.72 161.624 186.43 160.235 186.32 158.822C186.289 158.418 186.271 158.016 186.269 157.619L188.367 157.607C188.369 157.956 188.385 158.306 188.412 158.659C188.509 159.892 188.762 161.104 189.164 162.262L187.181 162.951ZM239.811 155.647C239.809 155.308 239.793 154.967 239.766 154.625C239.669 153.383 239.413 152.162 239.005 150.995L240.985 150.304C241.452 151.641 241.746 153.039 241.857 154.46C241.888 154.853 241.906 155.246 241.908 155.636L239.811 155.647ZM189.113 152.945L187.125 152.276C187.703 150.558 188.558 148.951 189.665 147.501L191.333 148.774C190.365 150.041 189.618 151.445 189.113 152.945ZM236.734 146.855C235.755 145.607 234.582 144.533 233.25 143.664L234.396 141.907C235.92 142.903 237.262 144.131 238.384 145.559L236.734 146.855ZM194.772 145.535L193.602 143.794C195.116 142.777 196.774 142.024 198.53 141.556L199.071 143.583C197.539 143.991 196.093 144.648 194.772 145.535ZM203.919 142.962L203.755 140.87L208.83 140.472L208.994 142.564L203.919 142.962ZM214.068 142.164L213.904 140.072L218.978 139.673L219.142 141.765L214.068 142.164ZM228.927 141.763C227.408 141.376 225.839 141.239 224.246 141.365L224.046 139.277L224.074 139.275C225.931 139.129 227.704 139.288 229.444 139.731L228.927 141.763Z" fill="url(#paint20_linear_152_9112)"/>
<path d="M146.358 244.818C146.358 249.023 141.974 251.316 130.724 252.996C122.515 254.222 111.64 254.897 100.101 254.897C88.5618 254.897 77.6868 254.222 69.4778 252.996C58.2268 251.316 53.8428 249.023 53.8428 244.818V235.014H146.358V244.818Z" fill="url(#paint21_linear_152_9112)"/>
<path d="M100.102 245.093C88.5627 245.093 77.6878 244.418 69.4788 243.192C58.2278 241.512 53.8438 239.219 53.8438 235.013C53.8438 230.808 58.2278 228.515 69.4778 226.834C77.6878 225.608 88.5637 224.932 100.102 224.932C111.64 224.932 122.516 225.607 130.725 226.834C141.975 228.514 146.359 230.807 146.359 235.013C146.359 239.218 141.975 241.511 130.725 243.192C122.516 244.418 111.641 245.093 100.102 245.093Z" fill="url(#paint22_linear_152_9112)"/>
<path d="M100.101 240.537C123.589 240.537 142.63 237.693 142.63 234.185C142.63 230.677 123.589 227.833 100.101 227.833C76.6127 227.833 57.5718 230.677 57.5718 234.185C57.5718 237.693 76.6127 240.537 100.101 240.537Z" fill="url(#paint23_linear_152_9112)"/>
<path d="M149.119 233.219C149.119 237.424 144.735 239.717 133.485 241.397C125.276 242.623 114.402 243.298 102.863 243.298C91.3235 243.298 80.4485 242.623 72.2395 241.397C60.9885 239.717 56.6045 237.424 56.6045 233.219V223.415H149.119V233.219Z" fill="url(#paint24_linear_152_9112)"/>
<path d="M102.863 233.494C91.3235 233.494 80.4485 232.819 72.2395 231.593C60.9885 229.913 56.6045 227.62 56.6045 223.414C56.6045 219.209 60.9875 216.916 72.2385 215.236C80.4485 214.01 91.3245 213.334 102.863 213.334C114.401 213.334 125.276 214.009 133.485 215.236C144.735 216.916 149.119 219.209 149.119 223.414C149.119 227.619 144.735 229.912 133.485 231.593C125.276 232.819 114.402 233.494 102.863 233.494Z" fill="url(#paint25_linear_152_9112)"/>
<path d="M102.863 228.938C126.351 228.938 145.391 226.094 145.391 222.586C145.391 219.078 126.351 216.234 102.863 216.234C79.3744 216.234 60.3335 219.078 60.3335 222.586C60.3335 226.094 79.3744 228.938 102.863 228.938Z" fill="url(#paint26_linear_152_9112)"/>
<path d="M145.53 221.62C145.53 225.825 141.146 228.118 129.896 229.798C121.687 231.024 110.812 231.699 99.2727 231.699C87.7337 231.699 76.8586 231.024 68.6496 229.798C57.3986 228.118 53.0146 225.825 53.0146 221.62V211.816H145.53V221.62Z" fill="url(#paint27_linear_152_9112)"/>
<path d="M99.2727 221.896C87.7337 221.896 76.8586 221.221 68.6496 219.995C57.3986 218.315 53.0146 216.022 53.0146 211.816C53.0146 207.61 57.3986 205.318 68.6486 203.638C76.8586 202.412 87.7357 201.736 99.2727 201.736C110.811 201.736 121.687 202.411 129.896 203.638C141.146 205.318 145.53 207.611 145.53 211.816C145.53 216.021 141.146 218.314 129.896 219.995C121.687 221.22 110.812 221.896 99.2727 221.896Z" fill="url(#paint28_linear_152_9112)"/>
<path d="M99.2727 217.339C122.761 217.339 141.802 214.495 141.802 210.987C141.802 207.479 122.761 204.635 99.2727 204.635C75.7845 204.635 56.7437 207.479 56.7437 210.987C56.7437 214.495 75.7845 217.339 99.2727 217.339Z" fill="url(#paint29_linear_152_9112)"/>
<path d="M148.29 210.021C148.29 214.226 143.906 216.519 132.656 218.2C124.447 219.426 113.572 220.101 102.033 220.101C90.4944 220.101 79.6194 219.426 71.4104 218.2C60.1594 216.52 55.7754 214.227 55.7754 210.021V200.217H148.29V210.021Z" fill="url(#paint30_linear_152_9112)"/>
<path d="M102.034 210.297C90.4954 210.297 79.6204 209.622 71.4114 208.396C60.1604 206.716 55.7764 204.423 55.7764 200.218C55.7764 196.013 60.1594 193.72 71.4104 192.04C79.6204 190.814 90.4974 190.138 102.034 190.138C113.572 190.138 124.448 190.813 132.657 192.04C143.907 193.72 148.291 196.013 148.291 200.218C148.291 204.423 143.907 206.716 132.657 208.396C124.448 209.621 113.573 210.297 102.034 210.297Z" fill="url(#paint31_linear_152_9112)"/>
<path d="M102.033 205.74C125.521 205.74 144.562 202.896 144.562 199.388C144.562 195.88 125.521 193.036 102.033 193.036C78.5453 193.036 59.5044 195.88 59.5044 199.388C59.5044 202.896 78.5453 205.74 102.033 205.74Z" fill="url(#paint32_linear_152_9112)"/>
<path d="M147.6 197.593C147.6 201.798 143.216 204.091 131.966 205.772C123.757 206.998 112.882 207.673 101.343 207.673C89.8044 207.673 78.9295 206.998 70.7205 205.772C59.4695 204.092 55.0854 201.799 55.0854 197.593V187.789H147.6V197.593Z" fill="url(#paint33_linear_152_9112)"/>
<path d="M101.343 197.869C89.8044 197.869 78.9295 197.194 70.7205 195.968C59.4695 194.288 55.0854 191.995 55.0854 187.789C55.0854 183.583 59.4685 181.291 70.7195 179.611C78.9295 178.385 89.8064 177.709 101.343 177.709C112.881 177.709 123.757 178.384 131.966 179.611C143.216 181.291 147.6 183.584 147.6 187.789C147.6 191.994 143.216 194.287 131.966 195.968C123.757 197.194 112.882 197.869 101.343 197.869Z" fill="url(#paint34_linear_152_9112)"/>
<path d="M101.343 193.313C124.832 193.313 143.872 190.469 143.872 186.961C143.872 183.453 124.832 180.609 101.343 180.609C77.8553 180.609 58.8145 183.453 58.8145 186.961C58.8145 190.469 77.8553 193.313 101.343 193.313Z" fill="url(#paint35_linear_152_9112)"/>
<path d="M150.363 185.994C150.363 190.199 145.979 192.492 134.729 194.173C126.52 195.399 115.645 196.074 104.106 196.074C92.5666 196.074 81.6917 195.399 73.4827 194.173C62.2317 192.493 57.8477 190.2 57.8477 185.994V176.19H150.363V185.994Z" fill="url(#paint36_linear_152_9112)"/>
<path d="M104.106 186.27C92.5666 186.27 81.6917 185.595 73.4827 184.369C62.2317 182.689 57.8477 180.396 57.8477 176.19C57.8477 171.984 62.2316 169.692 73.4816 168.012C81.6916 166.786 92.5676 166.11 104.106 166.11C115.644 166.11 126.52 166.785 134.729 168.012C145.979 169.692 150.363 171.985 150.363 176.19C150.363 180.395 145.979 182.688 134.729 184.369C126.52 185.595 115.645 186.27 104.106 186.27Z" fill="url(#paint37_linear_152_9112)"/>
<path d="M104.106 181.714C127.594 181.714 146.635 178.87 146.635 175.362C146.635 171.854 127.594 169.01 104.106 169.01C80.6175 169.01 61.5767 171.854 61.5767 175.362C61.5767 178.87 80.6175 181.714 104.106 181.714Z" fill="url(#paint38_linear_152_9112)"/>
<path d="M145.254 174.119C145.254 178.324 140.87 180.617 129.62 182.297C121.411 183.523 110.536 184.198 98.9968 184.198C87.4578 184.198 76.5828 183.523 68.3738 182.297C57.1228 180.617 52.7388 178.324 52.7388 174.119V164.315H145.254V174.119Z" fill="url(#paint39_linear_152_9112)"/>
<path d="M98.9968 174.395C87.4578 174.395 76.5828 173.72 68.3738 172.494C57.1228 170.814 52.7388 168.521 52.7388 164.315C52.7388 160.11 57.1218 157.817 68.3728 156.137C76.5828 154.911 87.4598 154.235 98.9968 154.235C110.535 154.235 121.411 154.91 129.62 156.137C140.87 157.817 145.254 160.11 145.254 164.315C145.254 168.52 140.87 170.813 129.62 172.494C121.411 173.72 110.536 174.395 98.9968 174.395Z" fill="url(#paint40_linear_152_9112)"/>
<path d="M98.9968 169.839C122.485 169.839 141.526 166.995 141.526 163.487C141.526 159.979 122.485 157.135 98.9968 157.135C75.5087 157.135 56.4678 159.979 56.4678 163.487C56.4678 166.995 75.5087 169.839 98.9968 169.839Z" fill="url(#paint41_linear_152_9112)"/>
<path d="M142.906 162.659C142.906 166.864 138.522 169.157 127.272 170.837C119.063 172.063 108.188 172.738 96.6486 172.738C85.1096 172.738 74.2346 172.063 66.0256 170.837C54.7746 169.157 50.3906 166.864 50.3906 162.659V152.855H142.906V162.659Z" fill="url(#paint42_linear_152_9112)"/>
<path d="M96.6486 162.934C85.1096 162.934 74.2346 162.259 66.0256 161.033C54.7746 159.353 50.3906 157.06 50.3906 152.854C50.3906 148.648 54.7736 146.356 66.0246 144.676C74.2346 143.45 85.1116 142.774 96.6486 142.774C108.187 142.774 119.063 143.449 127.272 144.676C138.522 146.356 142.906 148.649 142.906 152.854C142.906 157.059 138.522 159.352 127.272 161.033C119.064 162.259 108.188 162.934 96.6486 162.934Z" fill="url(#paint43_linear_152_9112)"/>
<path d="M96.6486 158.378C120.137 158.378 139.178 155.534 139.178 152.026C139.178 148.517 120.137 145.674 96.6486 145.674C73.1605 145.674 54.1196 148.517 54.1196 152.026C54.1196 155.534 73.1605 158.378 96.6486 158.378Z" fill="url(#paint44_linear_152_9112)"/>
<path d="M144.149 151.198C144.149 155.403 139.766 157.696 128.515 159.377C120.306 160.603 109.431 161.278 97.8918 161.278C86.3528 161.278 75.4778 160.603 67.2688 159.377C56.0178 157.697 51.6338 155.404 51.6338 151.198V141.394H144.149V151.198Z" fill="url(#paint45_linear_152_9112)"/>
<path d="M97.8918 151.474C86.3528 151.474 75.4778 150.799 67.2688 149.573C56.0178 147.893 51.6338 145.6 51.6338 141.394C51.6338 137.188 56.0178 134.896 67.2678 133.216C75.4778 131.99 86.3548 131.314 97.8918 131.314C109.43 131.314 120.306 131.989 128.515 133.216C139.765 134.896 144.149 137.189 144.149 141.394C144.149 145.599 139.766 147.892 128.515 149.573C120.306 150.798 109.431 151.474 97.8918 151.474Z" fill="url(#paint46_linear_152_9112)"/>
<path d="M140.421 140.565C140.421 144.073 121.38 146.917 97.8918 146.917C74.4038 146.917 55.3628 144.073 55.3628 140.565C55.3628 137.057 74.4038 134.213 97.8918 134.213C121.38 134.214 140.421 137.057 140.421 140.565Z" fill="url(#paint47_linear_152_9112)"/>
<path d="M148.153 138.287C148.153 142.492 143.77 144.785 132.519 146.466C124.31 147.692 113.435 148.367 101.896 148.367C90.3567 148.367 79.4817 147.692 71.2727 146.466C60.0217 144.786 55.6377 142.493 55.6377 138.287V128.483H148.153V138.287Z" fill="url(#paint48_linear_152_9112)"/>
<path d="M101.897 138.563C90.3577 138.563 79.4827 137.888 71.2737 136.662C60.0227 134.982 55.6387 132.689 55.6387 128.484C55.6387 124.279 60.0227 121.986 71.2727 120.306C79.4827 119.08 90.3597 118.404 101.897 118.404C113.435 118.404 124.311 119.079 132.52 120.306C143.77 121.986 148.154 124.279 148.154 128.484C148.154 132.689 143.771 134.982 132.52 136.662C124.311 137.888 113.436 138.563 101.897 138.563Z" fill="url(#paint49_linear_152_9112)"/>
<path d="M101.896 134.007C125.384 134.007 144.425 131.163 144.425 127.655C144.425 124.146 125.384 121.303 101.896 121.303C78.4076 121.303 59.3667 124.146 59.3667 127.655C59.3667 131.163 78.4076 134.007 101.896 134.007Z" fill="url(#paint50_linear_152_9112)"/>
<path d="M150.67 126.826C150.67 131.031 146.286 133.324 135.036 135.005C126.827 136.231 115.952 136.906 104.413 136.906C92.8738 136.906 81.9988 136.231 73.7898 135.005C62.5388 133.325 58.1548 131.032 58.1548 126.826V117.022H150.67V126.826Z" fill="url(#paint51_linear_152_9112)"/>
<path d="M104.413 127.102C92.8738 127.102 81.9988 126.427 73.7898 125.201C62.5388 123.521 58.1548 121.228 58.1548 117.023C58.1548 112.818 62.5378 110.525 73.7888 108.845C81.9988 107.619 92.8748 106.943 104.413 106.943C115.951 106.943 126.827 107.618 135.036 108.845C146.286 110.525 150.67 112.818 150.67 117.023C150.67 121.228 146.286 123.521 135.036 125.201C126.828 126.427 115.952 127.102 104.413 127.102Z" fill="url(#paint52_linear_152_9112)"/>
<path d="M146.942 116.194C146.942 119.702 127.901 122.546 104.413 122.546C80.9248 122.546 61.8838 119.702 61.8838 116.194C61.8838 112.686 80.9248 109.842 104.413 109.842C127.901 109.842 146.942 112.686 146.942 116.194Z" fill="url(#paint53_linear_152_9112)"/>
<path d="M147.049 115.366C147.049 119.571 142.665 121.864 131.415 123.544C123.206 124.77 112.331 125.445 100.792 125.445C89.2527 125.445 78.3777 124.77 70.1687 123.544C58.9177 121.864 54.5337 119.571 54.5337 115.366V105.562H147.049V115.366Z" fill="url(#paint54_linear_152_9112)"/>
<path d="M100.792 115.641C89.2527 115.641 78.3777 114.966 70.1687 113.74C58.9177 112.06 54.5337 109.767 54.5337 105.562C54.5337 101.357 58.9177 99.0637 70.1677 97.3827C78.3777 96.1567 89.2537 95.4807 100.792 95.4807C112.33 95.4807 123.206 96.1557 131.415 97.3827C142.665 99.0627 147.049 101.356 147.049 105.562C147.049 109.767 142.665 112.06 131.415 113.74C123.206 114.966 112.331 115.641 100.792 115.641Z" fill="url(#paint55_linear_152_9112)"/>
<path d="M143.321 104.733C143.321 108.241 124.28 111.085 100.792 111.085C77.3037 111.085 58.2627 108.241 58.2627 104.733C58.2627 101.225 77.3037 98.3807 100.792 98.3807C124.28 98.3807 143.321 101.225 143.321 104.733Z" fill="url(#paint56_linear_152_9112)"/>
<path d="M95.6115 112.842C85.6475 112.842 76.2565 112.26 69.1675 111.205C59.4515 109.758 55.6665 107.783 55.6665 104.162C55.6665 100.541 59.4515 98.5657 69.1665 97.1187C76.2565 96.0627 85.6485 95.4807 95.6115 95.4807C105.574 95.4807 114.966 96.0627 122.055 97.1187C131.77 98.5657 135.555 100.541 135.555 104.162C135.555 107.783 131.77 109.758 122.055 111.205C114.966 112.26 105.575 112.842 95.6115 112.842Z" fill="url(#paint57_linear_152_9112)"/>
<path d="M95.5692 62.6637C97.7152 66.1047 107.357 70.1187 115.433 65.4447C123.509 60.7707 140.868 47.1827 146.419 45.0407C151.971 42.8987 180.544 41.2187 191.589 45.2887C197.146 47.3357 201.665 44.4707 207.174 32.4317C212.683 20.3927 211.795 5.11167 202.457 7.64467C193.118 10.1777 155.261 17.3867 150.93 18.5867C146.599 19.7867 126.729 32.3917 114.058 43.7267C101.385 55.0607 93.9302 60.0347 95.5692 62.6637Z" fill="url(#paint58_linear_152_9112)"/>
<path d="M138.521 65.0457C140.328 68.8427 137.356 72.7967 127.92 79.1497C121.035 83.7847 111.505 89.0677 101.086 94.0277C90.667 98.9867 80.557 103.051 72.618 105.472C61.737 108.79 56.7929 108.604 54.9859 104.807L50.7729 95.9547L134.308 56.1947L138.521 65.0457Z" fill="url(#paint59_linear_152_9112)"/>
<path d="M96.8731 85.1747C86.4541 90.1337 76.3441 94.1977 68.4051 96.6187C57.5241 99.9367 52.5801 99.7507 50.7731 95.9537C48.9661 92.1567 51.9381 88.2027 61.3751 81.8497C68.2611 77.2137 77.7921 71.9297 88.2091 66.9707C98.6271 62.0117 108.738 57.9477 116.677 55.5267C127.557 52.2087 132.501 52.3957 134.308 56.1927C136.115 59.9897 133.143 63.9447 123.707 70.2967C116.821 74.9317 107.292 80.2147 96.8731 85.1747Z" fill="url(#paint60_linear_152_9112)"/>
<path d="M130.586 57.0467C132.094 60.2137 116.123 70.9647 94.9142 81.0597C73.7062 91.1537 55.2912 96.7697 53.7832 93.6017C52.2752 90.4347 68.2461 79.6837 89.4551 69.5887C110.663 59.4947 129.078 53.8797 130.586 57.0467Z" fill="url(#paint61_linear_152_9112)"/>
<path d="M247.4 38.3117C230.25 22.4697 213.536 -3.25424 194.061 2.84976C193.027 3.17376 192.031 3.54176 191.06 3.93476C176.895 7.08876 149.557 12.3448 145.916 13.3538C141.585 14.5538 121.716 27.1588 109.044 38.4948C96.3715 49.8298 88.9165 54.8037 90.5555 57.4328C92.7005 60.8737 102.344 64.8868 110.42 60.2138C111.765 59.4358 113.37 58.4067 115.132 57.2277C109.589 63.9387 113.483 75.4617 123.718 77.6267C135.046 80.0228 151.569 82.1027 159.728 84.5357C166.161 86.9517 200.046 94.1138 206.933 96.7418C207.896 97.4137 208.756 97.9557 209.468 98.3377C217.316 102.553 240.134 106.477 248.709 107.058C257.284 107.639 291.002 107.203 291.002 107.203V56.7707C291.002 56.7707 264.55 54.1537 247.4 38.3117ZM162.728 59.1708C155.075 58.1338 130.52 50.5388 119.853 53.9898C128.026 48.2848 137.555 41.2938 141.406 39.8088C146.958 37.6668 170.957 33.9468 176.711 35.3478C177.353 35.5038 178.104 35.6738 178.931 35.8348C185.775 41.1658 193.53 50.0978 187.533 58.3798C179.354 60.1528 167.785 59.5568 162.728 59.1708Z" fill="url(#paint62_linear_152_9112)"/>
<path d="M273.912 51.5368L270.495 115.952L288.825 122.477V49.3618L273.912 51.5368Z" fill="#EAEAF9"/>
<path d="M277.848 49.4658L274.844 119.473L291 130.106V48.4988L277.848 49.4658Z" fill="#37266A"/>
<defs>
<linearGradient id="paint0_linear_152_9112" x1="108.683" y1="161.069" x2="221.155" y2="164.159" gradientUnits="userSpaceOnUse">
<stop stop-color="#05A4F8"/>
<stop offset="1" stop-color="#37266A"/>
</linearGradient>
<linearGradient id="paint1_linear_152_9112" x1="95.6162" y1="146.464" x2="197.175" y2="111.833" gradientUnits="userSpaceOnUse">
<stop stop-color="#B00855"/>
<stop offset="1" stop-color="#E30B3E"/>
</linearGradient>
<linearGradient id="paint2_linear_152_9112" x1="163.845" y1="31.0534" x2="128.719" y2="200.054" gradientUnits="userSpaceOnUse">
<stop stop-color="#05A4F8"/>
<stop offset="1" stop-color="#37266A"/>
</linearGradient>
<linearGradient id="paint3_linear_152_9112" x1="60.0201" y1="78.0862" x2="63.5699" y2="192.495" gradientUnits="userSpaceOnUse">
<stop stop-color="#05A4F8"/>
<stop offset="1" stop-color="#37266A"/>
</linearGradient>
<linearGradient id="paint4_linear_152_9112" x1="79.9376" y1="77.4665" x2="83.4876" y2="191.88" gradientUnits="userSpaceOnUse">
<stop stop-color="#05A4F8"/>
<stop offset="1" stop-color="#37266A"/>
</linearGradient>
<linearGradient id="paint5_linear_152_9112" x1="99.8552" y1="76.8496" x2="103.405" y2="191.259" gradientUnits="userSpaceOnUse">
<stop stop-color="#05A4F8"/>
<stop offset="1" stop-color="#37266A"/>
</linearGradient>
<linearGradient id="paint6_linear_152_9112" x1="119.772" y1="76.2314" x2="123.322" y2="190.64" gradientUnits="userSpaceOnUse">
<stop stop-color="#05A4F8"/>
<stop offset="1" stop-color="#37266A"/>
</linearGradient>
<linearGradient id="paint7_linear_152_9112" x1="139.689" y1="75.6132" x2="143.239" y2="190.022" gradientUnits="userSpaceOnUse">
<stop stop-color="#05A4F8"/>
<stop offset="1" stop-color="#37266A"/>
</linearGradient>
<linearGradient id="paint8_linear_152_9112" x1="159.607" y1="74.995" x2="163.157" y2="189.404" gradientUnits="userSpaceOnUse">
<stop stop-color="#05A4F8"/>
<stop offset="1" stop-color="#37266A"/>
</linearGradient>
<linearGradient id="paint9_linear_152_9112" x1="179.524" y1="74.3753" x2="183.074" y2="188.789" gradientUnits="userSpaceOnUse">
<stop stop-color="#05A4F8"/>
<stop offset="1" stop-color="#37266A"/>
</linearGradient>
<linearGradient id="paint10_linear_152_9112" x1="199.442" y1="73.7586" x2="202.991" y2="188.168" gradientUnits="userSpaceOnUse">
<stop stop-color="#05A4F8"/>
<stop offset="1" stop-color="#37266A"/>
</linearGradient>
<linearGradient id="paint11_linear_152_9112" x1="67.742" y1="176.38" x2="71.292" y2="290.794" gradientUnits="userSpaceOnUse">
<stop stop-color="#05A4F8"/>
<stop offset="1" stop-color="#37266A"/>
</linearGradient>
<linearGradient id="paint12_linear_152_9112" x1="87.6596" y1="175.763" x2="91.2095" y2="290.173" gradientUnits="userSpaceOnUse">
<stop stop-color="#05A4F8"/>
<stop offset="1" stop-color="#37266A"/>
</linearGradient>
<linearGradient id="paint13_linear_152_9112" x1="107.577" y1="175.145" x2="111.127" y2="289.555" gradientUnits="userSpaceOnUse">
<stop stop-color="#05A4F8"/>
<stop offset="1" stop-color="#37266A"/>
</linearGradient>
<linearGradient id="paint14_linear_152_9112" x1="127.494" y1="174.526" x2="131.044" y2="288.936" gradientUnits="userSpaceOnUse">
<stop stop-color="#05A4F8"/>
<stop offset="1" stop-color="#37266A"/>
</linearGradient>
<linearGradient id="paint15_linear_152_9112" x1="147.412" y1="173.908" x2="150.962" y2="288.318" gradientUnits="userSpaceOnUse">
<stop stop-color="#05A4F8"/>
<stop offset="1" stop-color="#37266A"/>
</linearGradient>
<linearGradient id="paint16_linear_152_9112" x1="167.329" y1="173.289" x2="170.879" y2="287.703" gradientUnits="userSpaceOnUse">
<stop stop-color="#05A4F8"/>
<stop offset="1" stop-color="#37266A"/>
</linearGradient>
<linearGradient id="paint17_linear_152_9112" x1="187.246" y1="172.672" x2="190.796" y2="287.081" gradientUnits="userSpaceOnUse">
<stop stop-color="#05A4F8"/>
<stop offset="1" stop-color="#37266A"/>
</linearGradient>
<linearGradient id="paint18_linear_152_9112" x1="207.164" y1="172.053" x2="210.714" y2="286.466" gradientUnits="userSpaceOnUse">
<stop stop-color="#05A4F8"/>
<stop offset="1" stop-color="#37266A"/>
</linearGradient>
<linearGradient id="paint19_linear_152_9112" x1="141.007" y1="162.381" x2="266.856" y2="152.496" gradientUnits="userSpaceOnUse">
<stop stop-color="#05A4F8"/>
<stop offset="1" stop-color="#37266A"/>
</linearGradient>
<linearGradient id="paint20_linear_152_9112" x1="186.319" y1="158.822" x2="241.858" y2="154.459" gradientUnits="userSpaceOnUse">
<stop stop-color="#05A4F8"/>
<stop offset="1" stop-color="#37266A"/>
</linearGradient>
<linearGradient id="paint21_linear_152_9112" x1="53.8432" y1="244.955" x2="146.358" y2="244.955" gradientUnits="userSpaceOnUse">
<stop stop-color="#FFC100"/>
<stop offset="1" stop-color="#FE9402"/>
</linearGradient>
<linearGradient id="paint22_linear_152_9112" x1="53.8431" y1="235.013" x2="146.358" y2="235.013" gradientUnits="userSpaceOnUse">
<stop stop-color="#FFF07D"/>
<stop offset="1" stop-color="#FEE504"/>
</linearGradient>
<linearGradient id="paint23_linear_152_9112" x1="57.5719" y1="234.185" x2="142.63" y2="234.185" gradientUnits="userSpaceOnUse">
<stop stop-color="#FFC100"/>
<stop offset="1" stop-color="#FE9402"/>
</linearGradient>
<linearGradient id="paint24_linear_152_9112" x1="56.6046" y1="233.356" x2="149.119" y2="233.356" gradientUnits="userSpaceOnUse">
<stop stop-color="#FFC100"/>
<stop offset="1" stop-color="#FE9402"/>
</linearGradient>
<linearGradient id="paint25_linear_152_9112" x1="56.6046" y1="223.414" x2="149.119" y2="223.414" gradientUnits="userSpaceOnUse">
<stop stop-color="#FFF07D"/>
<stop offset="1" stop-color="#FEE504"/>
</linearGradient>
<linearGradient id="paint26_linear_152_9112" x1="60.3332" y1="222.586" x2="145.392" y2="222.586" gradientUnits="userSpaceOnUse">
<stop stop-color="#FFC100"/>
<stop offset="1" stop-color="#FE9402"/>
</linearGradient>
<linearGradient id="paint27_linear_152_9112" x1="53.0145" y1="221.757" x2="145.53" y2="221.757" gradientUnits="userSpaceOnUse">
<stop stop-color="#FFC100"/>
<stop offset="1" stop-color="#FE9402"/>
</linearGradient>
<linearGradient id="paint28_linear_152_9112" x1="53.0145" y1="211.815" x2="145.53" y2="211.815" gradientUnits="userSpaceOnUse">
<stop stop-color="#FFF07D"/>
<stop offset="1" stop-color="#FEE504"/>
</linearGradient>
<linearGradient id="paint29_linear_152_9112" x1="56.7433" y1="210.987" x2="141.802" y2="210.987" gradientUnits="userSpaceOnUse">
<stop stop-color="#FFC100"/>
<stop offset="1" stop-color="#FE9402"/>
</linearGradient>
<linearGradient id="paint30_linear_152_9112" x1="55.776" y1="210.158" x2="148.291" y2="210.158" gradientUnits="userSpaceOnUse">
<stop stop-color="#FFC100"/>
<stop offset="1" stop-color="#FE9402"/>
</linearGradient>
<linearGradient id="paint31_linear_152_9112" x1="55.776" y1="200.216" x2="148.291" y2="200.216" gradientUnits="userSpaceOnUse">
<stop stop-color="#FFF07D"/>
<stop offset="1" stop-color="#FEE504"/>
</linearGradient>
<linearGradient id="paint32_linear_152_9112" x1="59.5046" y1="199.388" x2="144.563" y2="199.388" gradientUnits="userSpaceOnUse">
<stop stop-color="#FFC100"/>
<stop offset="1" stop-color="#FE9402"/>
</linearGradient>
<linearGradient id="paint33_linear_152_9112" x1="55.0856" y1="197.731" x2="147.601" y2="197.731" gradientUnits="userSpaceOnUse">
<stop stop-color="#FFC100"/>
<stop offset="1" stop-color="#FE9402"/>
</linearGradient>
<linearGradient id="paint34_linear_152_9112" x1="55.0856" y1="187.789" x2="147.601" y2="187.789" gradientUnits="userSpaceOnUse">
<stop stop-color="#FFF07D"/>
<stop offset="1" stop-color="#FEE504"/>
</linearGradient>
<linearGradient id="paint35_linear_152_9112" x1="58.8143" y1="186.961" x2="143.873" y2="186.961" gradientUnits="userSpaceOnUse">
<stop stop-color="#FFC100"/>
<stop offset="1" stop-color="#FE9402"/>
</linearGradient>
<linearGradient id="paint36_linear_152_9112" x1="57.8475" y1="186.132" x2="150.362" y2="186.132" gradientUnits="userSpaceOnUse">
<stop stop-color="#FFC100"/>
<stop offset="1" stop-color="#FE9402"/>
</linearGradient>
<linearGradient id="paint37_linear_152_9112" x1="57.8475" y1="176.19" x2="150.362" y2="176.19" gradientUnits="userSpaceOnUse">
<stop stop-color="#FFF07D"/>
<stop offset="1" stop-color="#FEE504"/>
</linearGradient>
<linearGradient id="paint38_linear_152_9112" x1="61.5761" y1="175.362" x2="146.635" y2="175.362" gradientUnits="userSpaceOnUse">
<stop stop-color="#FFC100"/>
<stop offset="1" stop-color="#FE9402"/>
</linearGradient>
<linearGradient id="paint39_linear_152_9112" x1="52.7386" y1="174.257" x2="145.253" y2="174.257" gradientUnits="userSpaceOnUse">
<stop stop-color="#FFC100"/>
<stop offset="1" stop-color="#FE9402"/>
</linearGradient>
<linearGradient id="paint40_linear_152_9112" x1="52.7386" y1="164.315" x2="145.253" y2="164.315" gradientUnits="userSpaceOnUse">
<stop stop-color="#FFF07D"/>
<stop offset="1" stop-color="#FEE504"/>
</linearGradient>
<linearGradient id="paint41_linear_152_9112" x1="56.4672" y1="163.487" x2="141.526" y2="163.487" gradientUnits="userSpaceOnUse">
<stop stop-color="#FFC100"/>
<stop offset="1" stop-color="#FE9402"/>
</linearGradient>
<linearGradient id="paint42_linear_152_9112" x1="50.391" y1="162.796" x2="142.906" y2="162.796" gradientUnits="userSpaceOnUse">
<stop stop-color="#FFC100"/>
<stop offset="1" stop-color="#FE9402"/>
</linearGradient>
<linearGradient id="paint43_linear_152_9112" x1="50.391" y1="152.854" x2="142.906" y2="152.854" gradientUnits="userSpaceOnUse">
<stop stop-color="#FFF07D"/>
<stop offset="1" stop-color="#FEE504"/>
</linearGradient>
<linearGradient id="paint44_linear_152_9112" x1="54.1196" y1="152.026" x2="139.178" y2="152.026" gradientUnits="userSpaceOnUse">
<stop stop-color="#FFC100"/>
<stop offset="1" stop-color="#FE9402"/>
</linearGradient>
<linearGradient id="paint45_linear_152_9112" x1="51.6339" y1="151.335" x2="144.149" y2="151.335" gradientUnits="userSpaceOnUse">
<stop stop-color="#FFC100"/>
<stop offset="1" stop-color="#FE9402"/>
</linearGradient>
<linearGradient id="paint46_linear_152_9112" x1="51.6339" y1="141.393" x2="144.149" y2="141.393" gradientUnits="userSpaceOnUse">
<stop stop-color="#FFF07D"/>
<stop offset="1" stop-color="#FEE504"/>
</linearGradient>
<linearGradient id="paint47_linear_152_9112" x1="55.3625" y1="140.565" x2="140.421" y2="140.565" gradientUnits="userSpaceOnUse">
<stop stop-color="#FFC100"/>
<stop offset="1" stop-color="#FE9402"/>
</linearGradient>
<linearGradient id="paint48_linear_152_9112" x1="55.6382" y1="138.425" x2="148.153" y2="138.425" gradientUnits="userSpaceOnUse">
<stop stop-color="#FFC100"/>
<stop offset="1" stop-color="#FE9402"/>
</linearGradient>
<linearGradient id="paint49_linear_152_9112" x1="55.6382" y1="128.483" x2="148.153" y2="128.483" gradientUnits="userSpaceOnUse">
<stop stop-color="#FFF07D"/>
<stop offset="1" stop-color="#FEE504"/>
</linearGradient>
<linearGradient id="paint50_linear_152_9112" x1="59.3668" y1="127.654" x2="144.425" y2="127.654" gradientUnits="userSpaceOnUse">
<stop stop-color="#FFC100"/>
<stop offset="1" stop-color="#FE9402"/>
</linearGradient>
<linearGradient id="paint51_linear_152_9112" x1="58.1551" y1="126.964" x2="150.67" y2="126.964" gradientUnits="userSpaceOnUse">
<stop stop-color="#FFC100"/>
<stop offset="1" stop-color="#FE9402"/>
</linearGradient>
<linearGradient id="paint52_linear_152_9112" x1="58.1551" y1="117.022" x2="150.67" y2="117.022" gradientUnits="userSpaceOnUse">
<stop stop-color="#FFF07D"/>
<stop offset="1" stop-color="#FEE504"/>
</linearGradient>
<linearGradient id="paint53_linear_152_9112" x1="61.8837" y1="116.194" x2="146.942" y2="116.194" gradientUnits="userSpaceOnUse">
<stop stop-color="#FFC100"/>
<stop offset="1" stop-color="#FE9402"/>
</linearGradient>
<linearGradient id="paint54_linear_152_9112" x1="54.5335" y1="115.503" x2="147.049" y2="115.503" gradientUnits="userSpaceOnUse">
<stop stop-color="#FFC100"/>
<stop offset="1" stop-color="#FE9402"/>
</linearGradient>
<linearGradient id="paint55_linear_152_9112" x1="54.5335" y1="105.561" x2="147.049" y2="105.561" gradientUnits="userSpaceOnUse">
<stop stop-color="#FFF07D"/>
<stop offset="1" stop-color="#FEE504"/>
</linearGradient>
<linearGradient id="paint56_linear_152_9112" x1="58.2622" y1="104.733" x2="143.321" y2="104.733" gradientUnits="userSpaceOnUse">
<stop stop-color="#FFC100"/>
<stop offset="1" stop-color="#FE9402"/>
</linearGradient>
<linearGradient id="paint57_linear_152_9112" x1="101.486" y1="102.944" x2="58.886" y2="111.771" gradientUnits="userSpaceOnUse">
<stop stop-color="white"/>
<stop offset="1" stop-color="#DE9800"/>
</linearGradient>
<linearGradient id="paint58_linear_152_9112" x1="125.439" y1="78.6937" x2="168.797" y2="27.327" gradientUnits="userSpaceOnUse">
<stop stop-color="#FEB4AB"/>
<stop offset="1" stop-color="#FE90AB"/>
</linearGradient>
<linearGradient id="paint59_linear_152_9112" x1="55.0406" y1="104.916" x2="138.572" y2="65.153" gradientUnits="userSpaceOnUse">
<stop stop-color="#FFC100"/>
<stop offset="1" stop-color="#FE9402"/>
</linearGradient>
<linearGradient id="paint60_linear_152_9112" x1="50.7676" y1="95.9393" x2="134.299" y2="56.1764" gradientUnits="userSpaceOnUse">
<stop stop-color="#FFF07D"/>
<stop offset="1" stop-color="#FEE504"/>
</linearGradient>
<linearGradient id="paint61_linear_152_9112" x1="53.7782" y1="93.5889" x2="130.578" y2="57.0307" gradientUnits="userSpaceOnUse">
<stop stop-color="#FFC100"/>
<stop offset="1" stop-color="#FE9402"/>
</linearGradient>
<linearGradient id="paint62_linear_152_9112" x1="141.962" y1="29.2858" x2="257.962" y2="84.9526" gradientUnits="userSpaceOnUse">
<stop stop-color="#FEB4AB"/>
<stop offset="1" stop-color="#FE90AB"/>
</linearGradient>
</defs>
</svg>
