<svg width="331" height="290" viewBox="0 0 331 290" fill="none" xmlns="http://www.w3.org/2000/svg">
<path d="M125.392 168.268L137.028 175.147C140.42 177.153 144.664 176.439 147.238 173.661C147.171 172.241 146.743 170.82 145.906 169.546L137.048 156.057L123.302 165.084L125.392 168.268Z" fill="#F1C666"/>
<path d="M137.028 175.147L125.393 168.268L132.16 178.573C132.316 178.81 132.482 179.037 132.657 179.252C132.81 179.441 132.971 179.621 133.137 179.793C134.639 181.34 136.66 182.2 138.735 182.277C140.119 182.329 141.527 182.032 142.821 181.359C143.067 181.23 143.309 181.088 143.547 180.933C143.757 180.794 143.956 180.645 144.149 180.492C144.199 180.452 144.249 180.412 144.297 180.372C144.48 180.22 144.657 180.063 144.823 179.899C144.84 179.882 144.856 179.864 144.872 179.848C145.026 179.693 145.17 179.532 145.309 179.367C145.359 179.308 145.409 179.248 145.457 179.188C145.576 179.039 145.689 178.887 145.796 178.731C145.851 178.652 145.903 178.571 145.955 178.49C146.038 178.359 146.119 178.226 146.194 178.091C146.247 177.997 146.298 177.902 146.347 177.806C146.401 177.7 146.451 177.593 146.5 177.485C146.584 177.301 146.661 177.114 146.731 176.924C146.759 176.85 146.787 176.775 146.813 176.7C146.859 176.563 146.902 176.425 146.941 176.286C146.952 176.247 146.961 176.208 146.971 176.169C147.049 175.873 147.112 175.574 147.157 175.272C147.159 175.254 147.163 175.236 147.165 175.219C147.238 174.705 147.263 174.184 147.238 173.663V173.661C144.665 176.439 140.421 177.153 137.028 175.147Z" fill="#EBA55E"/>
<path d="M123.302 165.084L137.049 156.057L135.878 154.274C131.475 157.527 126.717 160.325 121.668 162.596L123.302 165.084Z" fill="#EBA55E"/>
<path d="M44.1223 154.274L34.0933 169.546C33.2566 170.82 32.8287 172.241 32.7612 173.66C35.335 176.439 39.579 177.153 42.9717 175.147L54.6071 168.267L56.6977 165.084L42.9513 156.057L44.1223 154.274Z" fill="#F1C666"/>
<path d="M32.7617 173.661H32.7616V173.663C32.737 174.184 32.7621 174.705 32.835 175.218C32.8374 175.236 32.8407 175.254 32.8434 175.272C32.8883 175.574 32.9511 175.873 33.0289 176.168C33.0392 176.207 33.0482 176.247 33.0589 176.285C33.0978 176.425 33.1414 176.563 33.1875 176.7C33.213 176.775 33.2413 176.849 33.2688 176.924C33.3387 177.114 33.4163 177.3 33.5003 177.485C33.5493 177.593 33.599 177.7 33.6527 177.805C33.7015 177.901 33.7529 177.996 33.8057 178.091C33.8815 178.226 33.9618 178.358 34.0454 178.49C34.0971 178.571 34.1494 178.652 34.2041 178.731C34.3112 178.887 34.4244 179.039 34.5429 179.187C34.5911 179.248 34.6406 179.308 34.6907 179.367C34.8298 179.532 34.9742 179.693 35.1277 179.847C35.1443 179.864 35.16 179.882 35.1769 179.898C35.3432 180.063 35.5204 180.219 35.7029 180.371C35.7516 180.412 35.801 180.452 35.8509 180.492C36.0443 180.645 36.2429 180.794 36.4534 180.932H36.4535C36.6907 181.088 36.9331 181.23 37.1795 181.358C38.4735 182.032 39.8813 182.328 41.265 182.277C42.8794 182.217 44.4608 181.683 45.7903 180.721C46.1699 180.447 46.5293 180.137 46.8629 179.793C47.0296 179.621 47.19 179.441 47.3432 179.252C47.5186 179.037 47.6845 178.81 47.8403 178.573L54.6078 168.267L42.9723 175.147C39.5794 177.153 35.3354 176.439 32.7617 173.661Z" fill="#EBA55E"/>
<path d="M42.9512 156.057L56.6976 165.084L58.3314 162.596C53.2832 160.325 48.5247 157.527 44.1221 154.274L42.9512 156.057Z" fill="#EBA55E"/>
<path d="M17.6129 3.06692C15.7471 1.17498 13.1561 0 10.2889 0C5.18644 0 0.963177 3.71803 0.151855 8.59016C2.01707 10.4769 4.6052 11.6474 7.4678 11.6474C12.5681 11.6474 16.7988 7.93573 17.6129 3.06692ZM5.50482 3.06487C5.50482 1.60108 7.64685 0.414491 10.289 0.414491C12.9314 0.414491 15.0733 1.60108 15.0733 3.06487C15.0733 4.52867 12.9314 5.71526 10.289 5.71526C7.64675 5.71526 5.50482 4.52867 5.50482 3.06487Z" fill="#ECA75F"/>
<path d="M20.0703 7.11082C20.0207 6.95792 19.963 6.80873 19.9064 6.65915C19.8624 6.54255 19.8261 6.42234 19.7779 6.30789C19.6905 6.10015 19.5882 5.90081 19.4879 5.7003C19.4406 5.60575 19.4002 5.5072 19.3501 5.41421C19.2392 5.20882 19.1143 5.01251 18.9902 4.8157C18.9393 4.73481 18.8944 4.64983 18.8413 4.5705C18.7092 4.3734 18.5639 4.18635 18.4189 3.9993C18.3634 3.92768 18.3136 3.85177 18.2563 3.78172C18.108 3.60052 17.9477 3.43006 17.7877 3.2595C17.7281 3.19589 17.6743 3.127 17.6132 3.06494C17.6131 3.06562 17.6129 3.06621 17.6128 3.06689C16.7986 7.9357 12.5678 11.6474 7.46777 11.6474C4.60507 11.6474 2.01703 10.4769 0.151824 8.59013C0.149092 8.58749 0.146165 8.58515 0.143433 8.58242C0.12343 8.70175 0.113576 8.8243 0.0976715 8.945C0.0803035 9.07594 0.0604959 9.20601 0.0480065 9.33842C0.0185394 9.65163 0 9.96796 0 10.289C0 12.4199 0.647692 14.3994 1.7571 16.0416C1.942 16.3153 2.13978 16.5795 2.34947 16.8337C2.76884 17.3419 3.23602 17.809 3.74418 18.2284C4.86276 19.1516 6.18429 19.8314 7.62613 20.2174C9.13315 17.3072 11.0644 14.5735 13.4802 12.1578C15.4846 10.1533 17.7096 8.48484 20.0703 7.11082Z" fill="#E4903B"/>
<path d="M63.1334 19.6009C62.6678 18.5283 62.0333 17.5694 61.2161 16.7522C54.8598 10.396 40.0495 14.9008 28.1364 26.814C16.2231 38.7272 11.7182 53.5375 18.0745 59.8938C18.4458 60.265 18.8486 60.5957 19.2752 60.8936C27.6775 41.868 43.5276 26.8712 63.1334 19.6009Z" fill="#E4903B"/>
<path d="M10.2886 5.71532C12.9309 5.71532 15.0728 4.5287 15.0728 3.06493C15.0728 1.60117 12.9309 0.414551 10.2886 0.414551C7.64636 0.414551 5.50439 1.60117 5.50439 3.06493C5.50439 4.5287 7.64636 5.71532 10.2886 5.71532Z" fill="#F1C666"/>
<path d="M49.1669 10.2889C47.8057 3.06488 27.7835 -1.84071 12.1692 16.6582C9.03188 20.3751 1.64402 37.8554 8.66061 35.795C15.6775 33.7345 25.3169 13.6813 49.1669 10.2889Z" fill="#F7DBA2"/>
<path d="M172.532 11.6474C175.395 11.6474 177.983 10.4769 179.848 8.59016C179.037 3.71793 174.813 0 169.711 0C166.843 0 164.253 1.17498 162.387 3.06692C163.201 7.93573 167.432 11.6474 172.532 11.6474ZM169.711 0.414491C172.353 0.414491 174.495 1.60108 174.495 3.06487C174.495 4.52867 172.353 5.71526 169.711 5.71526C167.069 5.71526 164.927 4.52867 164.927 3.06487C164.927 1.60118 167.069 0.414491 169.711 0.414491Z" fill="#ECA75F"/>
<path d="M180 10.2889C180 9.96776 179.981 9.65133 179.952 9.33803C179.94 9.20591 179.92 9.07614 179.902 8.94549C179.886 8.82469 179.876 8.70194 179.857 8.58242C179.854 8.58515 179.851 8.58739 179.848 8.59013C177.983 10.4769 175.395 11.6474 172.532 11.6474C167.432 11.6474 163.201 7.9357 162.387 3.06689C162.387 3.06621 162.387 3.06553 162.387 3.06494C162.326 3.127 162.272 3.19589 162.212 3.2595C162.052 3.43016 161.892 3.60052 161.744 3.78172C161.686 3.85177 161.636 3.92768 161.581 3.9993C161.436 4.18635 161.291 4.3735 161.159 4.5705C161.106 4.64982 161.061 4.73481 161.01 4.8157C160.886 5.0125 160.761 5.20882 160.65 5.41421C160.6 5.5071 160.559 5.60565 160.512 5.7003C160.412 5.90081 160.309 6.10015 160.222 6.30789C160.174 6.42234 160.138 6.54255 160.094 6.65915C160.037 6.80883 159.979 6.95792 159.93 7.11082C162.29 8.48484 164.515 10.1533 166.52 12.1579C168.936 14.5736 170.867 17.3073 172.374 20.2174C173.488 19.9192 174.533 19.4499 175.464 18.8208C178.201 16.9717 180 13.8404 180 10.2889Z" fill="#E4903B"/>
<path d="M159.93 7.1109C159.929 7.11061 159.929 7.11041 159.928 7.11022C146.107 -0.934113 127.494 1.42121 119.386 9.52886C116.871 12.0435 115.274 15.2178 114.526 18.7752C106.819 16.1981 98.5733 14.7995 90.0001 14.7995C81.4268 14.7995 73.1809 16.1982 65.4746 18.7752C64.7267 15.2178 63.1288 12.0435 60.6141 9.52886C52.5065 1.42121 33.8933 -0.934113 20.0716 7.11022C20.0712 7.11051 20.0707 7.1107 20.0704 7.1109C17.7097 8.48493 15.4846 10.1533 13.4801 12.158C11.0643 14.5737 9.133 17.3074 7.62599 20.2175C0.560802 33.8614 3.02697 51.4681 10.8509 59.292C12.8901 61.3312 15.3624 62.7693 18.1206 63.6407C14.6347 72.4434 12.7178 82.0385 12.7178 92.0815C12.7178 117.584 25.0735 140.199 44.1223 154.274C48.5249 157.527 53.2834 160.326 58.3316 162.596C67.9963 166.943 78.7152 169.364 89.9999 169.364C101.284 169.364 112.003 166.943 121.668 162.596C126.716 160.326 131.475 157.527 135.877 154.274C154.926 140.199 167.282 117.584 167.282 92.0815C167.282 82.0384 165.365 72.4433 161.879 63.6407C164.637 62.7693 167.11 61.3311 169.149 59.292C176.973 51.4681 179.439 33.8614 172.374 20.2175C170.867 17.3074 168.936 14.5737 166.52 12.158C164.515 10.1533 162.29 8.48493 159.93 7.1109ZM8.66075 35.795C1.64406 37.8555 9.03192 20.3751 12.1693 16.6582C27.7836 -1.84057 47.8059 3.06493 49.167 10.289C25.317 13.6814 15.6776 33.7345 8.66075 35.795ZM18.0744 59.8937C11.7181 53.5375 16.2231 38.7272 28.1363 26.814C40.0495 14.9008 54.8598 10.3959 61.2161 16.7522C62.0332 17.5694 62.6678 18.5283 63.1333 19.6009C43.5275 26.8711 27.6774 41.868 19.2752 60.8936C18.8485 60.5957 18.4457 60.265 18.0744 59.8937ZM163.425 90.841C163.425 95.4025 163.006 99.8656 162.21 104.197C160.318 105.003 158.353 105.775 156.325 106.516C149.707 137.064 122.529 159.95 90 159.95C57.4714 159.95 30.2925 137.064 23.6749 106.516C21.647 105.775 19.6816 105.003 17.79 104.197C16.9941 99.8655 16.5745 95.4024 16.5745 90.8409C16.5745 50.2891 49.4482 17.4154 90 17.4154C130.552 17.4154 163.425 50.2891 163.425 90.841ZM161.926 59.8937C161.554 60.265 161.152 60.5957 160.725 60.8936C152.323 41.8681 136.473 26.8711 116.867 19.6009C117.332 18.5283 117.967 17.5694 118.784 16.7522C125.14 10.396 139.951 14.9008 151.864 26.814C163.777 38.7272 168.282 53.5375 161.926 59.8937ZM171.339 35.795C164.323 33.7345 154.683 13.6814 130.833 10.289C132.194 3.06493 152.217 -1.84067 167.831 16.6582C170.968 20.3751 178.356 37.8555 171.339 35.795Z" fill="#F1C666"/>
<path d="M118.784 16.7521C117.967 17.5693 117.332 18.5283 116.867 19.6008C136.473 26.8711 152.323 41.8679 160.725 60.8935C161.152 60.5956 161.554 60.2649 161.926 59.8937C168.282 53.5375 163.777 38.7271 151.864 26.8139C139.95 14.9007 125.14 10.3958 118.784 16.7521Z" fill="#E4903B"/>
<path d="M169.711 5.71532C172.353 5.71532 174.495 4.5287 174.495 3.06493C174.495 1.60117 172.353 0.414551 169.711 0.414551C167.069 0.414551 164.927 1.60117 164.927 3.06493C164.927 4.5287 167.069 5.71532 169.711 5.71532Z" fill="#F1C666"/>
<path d="M130.833 10.2889C154.683 13.6813 164.322 33.7344 171.339 35.7949C178.356 37.8554 170.968 20.375 167.831 16.6582C152.216 -1.84065 132.194 3.06484 130.833 10.2889Z" fill="#F7DBA2"/>
<path d="M90.0002 17.4155C49.4484 17.4155 16.5747 50.2892 16.5747 90.841C16.5747 95.4025 16.9943 99.8656 17.7902 104.197C19.6817 105.003 21.6472 105.775 23.6751 106.517C22.6673 101.864 22.1315 97.0357 22.1315 92.0815C22.1315 54.5987 52.5173 24.2129 90.0002 24.2129C127.483 24.2129 157.869 54.5988 157.869 92.0815C157.869 97.0357 157.333 101.864 156.325 106.516C158.353 105.775 160.319 105.003 162.21 104.197C163.006 99.8656 163.426 95.4025 163.426 90.841C163.426 50.2891 130.552 17.4155 90.0002 17.4155Z" fill="#F7DBA2"/>
<path d="M90 24.2126C52.5171 24.2126 22.1313 54.5985 22.1313 92.0813C22.1313 97.0355 22.6671 101.864 23.675 106.516C30.2926 137.064 57.4714 159.95 90 159.95C122.529 159.95 149.707 137.064 156.325 106.516C157.333 101.864 157.869 97.0356 157.869 92.0814C157.869 54.5984 127.483 24.2126 90 24.2126ZM90 158.272C53.4438 158.272 23.8091 128.638 23.8091 92.0813C23.8091 55.5251 53.4438 25.8904 90 25.8904C126.556 25.8904 156.191 55.5251 156.191 92.0813C156.191 128.638 126.556 158.272 90 158.272Z" fill="#EBA55E"/>
<path d="M89.9995 25.8905C53.4433 25.8905 23.8086 55.5252 23.8086 92.0814C23.8086 128.638 53.4433 158.272 89.9995 158.272C126.556 158.272 156.19 128.638 156.19 92.0814C156.19 55.5252 126.556 25.8905 89.9995 25.8905ZM89.9995 154.52C55.5157 154.52 27.5612 126.565 27.5612 92.0814C27.5612 57.5975 55.5157 29.6431 89.9995 29.6431C124.483 29.6431 152.438 57.5976 152.438 92.0814C152.438 126.565 124.483 154.52 89.9995 154.52Z" fill="#E4903B"/>
<path d="M89.9998 29.6431C55.5161 29.6431 27.5615 57.5976 27.5615 92.0814C27.5615 126.565 55.5161 154.52 89.9998 154.52C124.484 154.52 152.438 126.565 152.438 92.0814C152.438 57.5975 124.484 29.6431 89.9998 29.6431ZM89.9998 151.836C56.9984 151.836 30.2454 125.083 30.2454 92.0814C30.2454 59.08 56.9984 32.327 89.9998 32.327C123.001 32.327 149.754 59.08 149.754 92.0814C149.754 125.083 123.001 151.836 89.9998 151.836Z" fill="#C9BFA8"/>
<path d="M90.0001 32.327C56.9986 32.327 30.2456 59.08 30.2456 92.0814C30.2456 125.083 56.9986 151.836 90.0001 151.836C123.001 151.836 149.754 125.083 149.754 92.0814C149.754 59.08 123.001 32.327 90.0001 32.327ZM90.0001 149.304C58.3967 149.304 32.7771 123.685 32.7771 92.0814C32.7771 60.478 58.3967 34.8585 90.0001 34.8585C121.603 34.8585 147.223 60.478 147.223 92.0814C147.223 123.685 121.603 149.304 90.0001 149.304Z" fill="#DED2B9"/>
<path d="M90.0003 34.8584C58.3969 34.8584 32.7773 60.4779 32.7773 92.0813C32.7773 123.685 58.3969 149.304 90.0003 149.304C121.604 149.304 147.223 123.685 147.223 92.0813C147.223 60.4779 121.604 34.8584 90.0003 34.8584Z" fill="#EAE2D2"/>
<path d="M94.9969 89.3342C96.3249 88.0648 97.3086 86.9462 98.3278 86.0057C95.8446 86.2078 93.2901 86.3209 90.682 86.3378C90.6482 86.4581 90.614 86.582 90.5801 86.7056C92.4062 86.9125 93.9916 87.9034 94.9969 89.3342Z" fill="#EAE2D2"/>
<path d="M130.506 69.2755C130.492 69.2504 130.477 69.2259 130.463 69.2007C124.056 73.4469 113.212 80.7232 111.9 82.1838C110.154 83.0143 109.53 82.5767 107.625 83.0336C107.039 83.6409 106.293 84.395 105.506 85.1488C122.173 82.4893 134.242 75.6652 135.104 67.5632L130.907 69.9864L130.506 69.2755Z" fill="#F2EDE2"/>
<path d="M89.6638 64.39C89.6638 64.39 88.6472 68.0117 88.7562 69.1332C88.8651 70.2548 89.3899 70.1463 89.6638 71.9855C89.9375 70.1463 90.4624 70.2548 90.5713 69.1332C90.6803 68.0117 89.6638 64.39 89.6638 64.39Z" fill="#F2EDE2"/>
<path d="M117.932 46.3391L114.378 52.4952L113.675 52.0782C113.387 51.9077 113.098 51.7399 112.806 51.5752L112.095 51.1743L115.593 45.1161C108.656 41.6886 100.318 39.3315 91.3185 39.1201V45.6166L90.3006 45.6052C90.1006 45.6016 89.8995 45.6016 89.6995 45.6052L88.6816 45.6166V39.1201C79.6821 39.3316 71.3437 41.6886 64.4071 45.1161L67.905 51.1747L67.1942 51.5754C66.9027 51.7398 66.6132 51.9077 66.3253 52.0782L65.6224 52.4952L62.0682 46.3391C52.6711 51.5466 46.2894 58.6702 45.0623 64.6142L50.4141 67.7038L49.9971 68.4067C49.8265 68.6945 49.6586 68.9841 49.4939 69.2757L49.093 69.986L44.8965 67.563C45.9875 77.82 65.0424 86.0281 88.6449 86.3319C88.1723 84.6502 87.7285 83.2725 87.5879 81.8242C87.4159 80.0538 88.4698 76.0342 89.1397 73.7118C88.5199 71.8081 87.7778 71.4848 87.5879 69.5297C88.7486 66.2273 89.6644 54.4891 89.6644 54.4891C89.6644 54.4891 90.8457 66.8171 91.7408 69.5297C91.551 71.4848 90.8088 71.8081 90.1889 73.7118C90.859 76.0342 91.9128 80.0538 91.7408 81.8242C91.6001 83.2741 91.1554 84.6535 90.6823 86.3378C93.2905 86.3209 95.845 86.2078 98.3281 86.0057C98.7147 85.649 99.1064 85.3166 99.5249 85.0128C100.944 83.9828 104.846 82.8121 107.13 82.1851C108.45 80.7258 108.374 79.9628 109.94 78.8253C112.268 78.322 123.564 72.362 130.22 68.7823C130.148 68.6573 130.077 68.5313 130.003 68.4071L129.586 67.7039L134.938 64.6141C133.711 58.6702 127.329 51.5465 117.932 46.3391Z" fill="#F2EDE2"/>
<path d="M115.274 77.918C115.274 77.918 111.726 78.9186 110.828 79.5712C109.929 80.2236 110.269 80.5934 108.84 81.7405C110.527 81.0363 110.683 81.5154 111.684 81.0389C112.686 80.5627 115.274 77.918 115.274 77.918Z" fill="#F2EDE2"/>
<path d="M89.699 138.558L88.6812 138.546V147.64L89.6818 147.651C89.7874 147.652 89.8934 147.654 89.9997 147.654C90.1059 147.654 90.2119 147.652 90.3176 147.651L91.3181 147.64V138.546L90.3002 138.558C90.1002 138.561 89.8991 138.561 89.699 138.558Z" fill="#725550"/>
<path d="M89.6991 45.6052C89.8992 45.6016 90.1003 45.6016 90.3003 45.6052L91.3182 45.6166V36.5227L90.3196 36.5125C90.1066 36.5089 89.8927 36.5089 89.6797 36.5125L88.6812 36.5227V45.6166L89.6991 45.6052Z" fill="#725550"/>
<path d="M66.3251 52.0782C66.613 51.9077 66.9025 51.7398 67.194 51.5754L67.9048 51.1747L64.4069 45.1161L63.3569 43.2971L62.6598 43.692C62.359 43.8623 62.0602 44.036 61.763 44.2117L61.0747 44.6186L62.068 46.339L65.6222 52.4951L66.3251 52.0782Z" fill="#725550"/>
<path d="M113.675 132.085C113.387 132.255 113.097 132.423 112.805 132.588L112.095 132.989L116.643 140.866L117.34 140.471C117.641 140.3 117.94 140.127 118.237 139.951L118.925 139.544L114.378 131.667L113.675 132.085Z" fill="#725550"/>
<path d="M49.4938 69.2758C49.6585 68.9841 49.8264 68.6946 49.997 68.4068L50.414 67.7039L45.0622 64.6142L42.5372 63.1565L42.1304 63.8446C41.9546 64.142 41.7809 64.4409 41.6106 64.7418L41.2163 65.4386L44.8963 67.5632L49.0928 69.9861L49.4938 69.2758Z" fill="#725550"/>
<path d="M130.506 114.887C130.342 115.179 130.174 115.468 130.003 115.756L129.586 116.459L137.463 121.006L137.87 120.318C138.046 120.021 138.219 119.722 138.39 119.421L138.785 118.724L130.907 114.177L130.506 114.887Z" fill="#725550"/>
<path d="M66.3252 132.085L65.6223 131.667L61.0747 139.544L61.763 139.951C62.0602 140.127 62.359 140.3 62.6598 140.471L63.3568 140.866L67.9046 132.989L67.1944 132.588C66.9029 132.423 66.6131 132.255 66.3252 132.085Z" fill="#725550"/>
<path d="M112.806 51.5753C113.098 51.7398 113.387 51.9076 113.675 52.0783L114.378 52.4952L117.932 46.3391L118.925 44.6187L118.237 44.2118C117.94 44.0362 117.641 43.8623 117.34 43.6921L116.643 43.2972L115.593 45.1162L112.095 51.1744L112.806 51.5753Z" fill="#725550"/>
<path d="M49.4936 114.887L49.0927 114.177L41.2158 118.724L41.6107 119.421C41.7809 119.722 41.9545 120.021 42.1302 120.318L42.5369 121.007L50.4139 116.459L49.9969 115.756C49.8262 115.468 49.6584 115.179 49.4936 114.887Z" fill="#725550"/>
<path d="M130.004 68.4072C130.077 68.5314 130.148 68.6574 130.221 68.7823C133.13 67.2177 135.156 66.1071 135.156 66.1071C135.156 66.1071 133.219 67.3738 130.463 69.2007C130.477 69.2259 130.492 69.2504 130.506 69.2756L130.907 69.9864L135.104 67.5633L138.785 65.4383L138.39 64.7413C138.219 64.4404 138.046 64.1417 137.87 63.8445L137.463 63.1564L134.938 64.6141L129.586 67.704L130.004 68.4072Z" fill="#725550"/>
<path d="M136.476 91.7774C136.478 91.8786 136.48 91.9798 136.48 92.0815C136.48 92.1831 136.478 92.2843 136.476 92.3855L136.465 93.4001H145.559L145.569 92.3995C145.571 92.2936 145.573 92.1877 145.573 92.0816C145.573 91.9753 145.571 91.8694 145.569 91.7636L145.559 90.7629H136.465L136.476 91.7774Z" fill="#725550"/>
<path d="M43.5236 92.3819C43.5219 92.2818 43.5202 92.1818 43.5202 92.0815C43.5202 91.9811 43.5219 91.8809 43.5236 91.7809L43.5351 90.7628H34.4412L34.4308 91.7634C34.429 91.8694 34.4272 91.9753 34.4272 92.0815C34.4272 92.1877 34.429 92.2935 34.4308 92.3994L34.4412 93.3999H43.5351L43.5236 92.3819Z" fill="#725550"/>
<path d="M90.58 86.7057C90.6141 86.5821 90.6481 86.4581 90.6819 86.3378C91.155 84.6535 91.5997 83.2742 91.7404 81.8243C91.9125 80.0538 90.8586 76.0343 90.1885 73.7119C90.8085 71.8082 91.5507 71.4848 91.7404 69.5298C90.8453 66.8171 89.664 54.4891 89.664 54.4891C89.664 54.4891 88.7483 66.2274 87.5875 69.5298C87.7773 71.4848 88.5195 71.8082 89.1393 73.7119C88.4694 76.0343 87.4156 80.0538 87.5875 81.8243C87.7281 83.2726 88.1719 84.6502 88.6445 86.332C88.6843 86.4737 88.7243 86.6191 88.7644 86.7653C89.1232 86.7015 89.4906 86.6624 89.8677 86.6624C90.1089 86.6625 90.3459 86.6791 90.58 86.7057ZM88.7565 69.1332C88.6475 68.0117 89.664 64.39 89.664 64.39C89.664 64.39 90.6805 68.0117 90.5715 69.1332C90.4626 70.2547 89.9378 70.1463 89.664 71.9855C89.3901 70.1463 88.8653 70.2547 88.7565 69.1332Z" fill="#F1C666"/>
<path d="M107.625 83.0337C109.53 82.5769 110.154 83.0143 111.9 82.1839C113.211 80.7234 124.056 73.447 130.463 69.2008C133.219 67.3739 135.155 66.1072 135.155 66.1072C135.155 66.1072 133.13 67.2178 130.22 68.7824C123.563 72.362 112.268 78.3222 109.94 78.8255C108.373 79.963 108.45 80.7259 107.13 82.1852C104.846 82.8122 100.944 83.9829 99.5248 85.013C99.1063 85.3168 98.7146 85.6492 98.3279 86.0059C97.3087 86.9464 96.325 88.065 94.9971 89.3343C95.2039 89.6288 95.3836 89.9428 95.538 90.2714C97.9464 89.5034 99.7878 89.1786 101.485 88.3714C102.505 87.8863 104.075 86.5181 105.506 85.1489C106.293 84.395 107.038 83.6409 107.625 83.0337ZM110.828 79.5711C111.726 78.9187 115.274 77.9179 115.274 77.9179C115.274 77.9179 112.686 80.5626 111.684 81.0389C110.683 81.5153 110.527 81.0363 108.84 81.7405C110.269 80.5934 109.929 80.2236 110.828 79.5711Z" fill="#F1C666"/>
<path d="M90.5803 86.7056C90.3462 86.679 90.1092 86.6624 89.8679 86.6624C89.4908 86.6624 89.1234 86.7015 88.7645 86.7653C85.8297 87.2874 83.5996 89.846 83.5996 92.9308C83.5996 96.3927 86.406 99.1993 89.8679 99.1993C93.3299 99.1993 96.1363 96.3927 96.1363 92.9308C96.1363 91.9786 95.9178 91.0796 95.5381 90.2713C95.3836 89.9426 95.204 89.6286 94.9972 89.3342C93.9919 87.9034 92.4064 86.9124 90.5803 86.7056Z" fill="#ECA95F"/>
<path d="M89.8676 87.4445C86.8376 87.4445 84.3813 89.9008 84.3813 92.9308C84.3813 95.9609 86.8376 98.4172 89.8676 98.4172C92.8977 98.4172 95.3541 95.9609 95.3541 92.9308C95.3541 89.9008 92.8977 87.4445 89.8676 87.4445Z" fill="#F1C666"/>
<path d="M89.868 90.0844C88.2593 90.0844 86.9551 91.3885 86.9551 92.9973C86.9551 94.6061 88.2593 95.9103 89.868 95.9103C91.4768 95.9103 92.781 94.606 92.781 92.9973C92.781 91.3885 91.4769 90.0844 89.868 90.0844Z" fill="#F7DBA2"/>
<g opacity="0.25">
<path d="M154.895 57.3972C154.895 57.3972 157.403 49.0242 163.768 49.0242C170.132 49.0242 174.058 53.4402 180.39 53.2122C186.721 52.9822 194.241 44.6712 201.76 45.8582C209.28 47.0462 217.59 51.5251 216.403 57.3981C215.213 63.2701 170.163 73.4892 154.895 57.3972Z" fill="#081228"/>
<path d="M291.072 203.365C285.117 140.838 228.188 120.259 214.93 107.594C204.401 97.5372 207.992 85.4912 209.917 80.9552C215.307 71.3342 227.877 69.2062 228.272 60.8942C228.668 52.5842 213.629 49.4182 207.693 56.5422C201.756 63.6652 194.633 54.5632 191.467 47.0442C188.301 39.5242 180.781 47.4392 178.407 54.5632C176.033 61.6872 171.284 64.8532 167.327 60.8942C163.37 56.9372 160.994 55.3552 150.705 58.5212C140.416 61.6872 142.79 72.3722 147.935 72.9722C153.079 73.5722 160.203 74.3512 163.69 83.8722C165.38 89.5302 166.366 99.2492 157.631 107.593C144.373 120.257 87.4443 140.836 81.4883 203.364C76.1023 259.904 115.758 285.924 176.319 289.092C176.319 289.173 176.319 289.261 176.319 289.342C179.691 289.424 183.011 289.446 186.279 289.409C189.547 289.446 192.869 289.424 196.239 289.342C196.239 289.261 196.239 289.173 196.239 289.092C256.801 285.925 296.459 259.905 291.072 203.365Z" fill="#081228"/>
<path fill-rule="evenodd" clip-rule="evenodd" d="M226.02 164.707V154.228H177.165H165.843H159.337V155.083V164.707H167.767H173.535H175.241C182.698 164.707 189.057 169.618 191.268 176.36H159.336V186.84H192.106V188.567C192.106 197.843 184.516 205.434 175.241 205.434H173.535H167.767H164.836L164.813 205.412L164.792 205.434H159.337V210.887V214.755V215.06C159.467 215.092 159.602 215.118 159.732 215.151L187.621 243.042L197.161 252.58H211.95L211.966 252.563L175.317 215.915H177.167C191.216 215.915 202.712 204.418 202.712 190.369V186.841H226.023V176.361H202.472C201.89 172.048 200.225 168.069 197.755 164.708H202.071L226.02 164.707Z" fill="#081228"/>
<path opacity="0.3" d="M291.073 203.365C290.393 196.229 289.045 189.645 287.177 183.552L287.176 183.549C287.176 183.549 277.345 160.733 245.883 166.713C214.421 172.693 186.189 221.523 154.894 226.195C123.613 230.865 95.0355 215.823 86.4575 242.449C98.9435 272.214 132.027 286.775 176.32 289.092C176.32 289.173 176.32 289.261 176.32 289.342C179.692 289.424 183.012 289.446 186.28 289.409C189.548 289.446 192.87 289.424 196.24 289.342C196.24 289.261 196.24 289.173 196.24 289.092C256.802 285.925 296.46 259.905 291.073 203.365Z" fill="#081228"/>
<path opacity="0.3" d="M208.249 86.3582C208.703 84.1032 209.376 82.2322 209.918 80.9562C215.308 71.3352 227.878 69.2072 228.273 60.8952C228.338 59.5112 227.968 58.2742 227.291 57.2002C227.291 57.2002 225.334 64.0612 216.514 66.0402C207.692 68.0202 199.434 71.9782 196.243 78.7052C193.051 85.4322 185.535 81.4752 184.345 78.7052C183.157 75.9342 174.268 71.5822 172.38 75.1432C170.493 78.7052 160.738 73.9552 155.128 71.9772C149.518 69.9982 145.801 72.0472 145.801 72.0472C146.425 72.5492 147.147 72.8812 147.935 72.9732C153.079 73.5732 160.203 74.3522 163.69 83.8732C163.927 84.6652 164.144 85.5452 164.329 86.4812L182.603 91.1832L208.249 86.3582Z" fill="#081228"/>
<path d="M208.041 97.3902C207.943 97.3902 207.845 97.3831 207.745 97.3701C182.824 94.2981 163.651 88.1411 163.461 88.0811C162.214 87.6771 161.53 86.3372 161.934 85.0902C162.338 83.8432 163.674 83.1612 164.924 83.5622C165.111 83.6252 183.879 89.6432 208.327 92.6592C209.627 92.8191 210.553 94.0041 210.393 95.3051C210.246 96.5081 209.222 97.3902 208.041 97.3902Z" fill="#081228"/>
<path d="M164.188 98.9932C163.022 98.9932 162.005 98.1341 161.84 96.9451C161.66 95.6451 162.566 94.4462 163.865 94.2662C191.032 90.4932 207.148 85.3642 207.308 85.3112C208.559 84.9092 209.895 85.5962 210.296 86.8432C210.697 88.0922 210.013 89.4291 208.764 89.8311C208.099 90.0461 192.138 95.1331 164.518 98.9691C164.408 98.9861 164.297 98.9932 164.188 98.9932Z" fill="#081228"/>
<path d="M115.879 207.718C114.603 207.718 113.549 206.705 113.507 205.421C112.678 180.108 138.089 148.159 153.271 129.069C168.036 110.505 179.722 86.7662 179.838 86.5282C180.415 85.3512 181.838 84.8642 183.014 85.4392C184.192 86.0162 184.681 87.4382 184.104 88.6152C183.985 88.8582 172.081 113.047 156.987 132.026C143.181 149.385 117.481 181.698 118.254 205.265C118.297 206.576 117.269 207.673 115.958 207.716C115.932 207.718 115.905 207.718 115.879 207.718Z" fill="#081228"/>
<path opacity="0.3" d="M164.739 89.3852C164.739 89.3852 169.05 91.4352 177.023 92.9522C184.997 94.4702 198.69 92.9522 198.69 92.9522C198.69 92.9522 206.7 92.3842 207.741 91.5052C207.773 90.1382 207.896 88.6152 207.896 88.6152C207.896 88.6152 192.664 92.6302 189.963 91.7762C187.262 90.9222 163.962 86.6202 163.962 86.6202L164.739 89.3852Z" fill="#081228"/>
<path opacity="0.3" d="M162.904 100.329C162.904 100.329 163.944 101.424 175.232 98.9932C186.52 96.5632 189.963 96.5132 189.963 96.5132C189.963 96.5132 205.414 98.9022 209.102 98.9932C209.102 98.9932 208.344 97.1062 208.485 96.1172C208.625 95.1282 188.305 93.6002 188.305 93.6002L163.867 97.7992L162.904 100.329Z" fill="#081228"/>
<path opacity="0.3" d="M181.351 97.0882C181.351 97.0882 175.129 114.376 157.137 134.999C139.144 155.624 123.004 181.895 121.223 193.471C119.442 205.047 120.927 207.124 117.068 209.202C113.21 211.28 113.248 202.31 113.867 198.666C114.486 195.02 127.753 164.087 144.672 143.311C161.59 122.535 174.301 102.413 179.967 93.6262C183.191 90.2942 181.351 97.0882 181.351 97.0882Z" fill="#081228"/>
<path d="M184.104 88.6152L185.244 88.7612C185.244 88.7612 181.672 95.0742 180.931 96.3372C179.966 96.5132 179.966 96.5132 179.966 96.5132C179.966 96.5132 182.972 90.6112 184.104 88.6152Z" fill="#081228"/>
<path d="M182.17 92.9521L189.964 94.5592L188.184 94.9312L181.352 93.9411L182.17 92.9521Z" fill="#081228"/>
<path d="M173.971 97.5423L175.232 95.2703L172.38 97.8003L173.971 97.5423Z" fill="#081228"/>
<path d="M189.963 89.6903L201.869 91.7763L202.522 91.6063L191.367 89.3853L189.963 89.6903Z" fill="#081228"/>
</g>
<path d="M154.895 53.3972C154.895 53.3972 157.403 45.0242 163.768 45.0242C170.132 45.0242 174.058 49.4402 180.39 49.2122C186.721 48.9822 194.241 40.6712 201.76 41.8582C209.28 43.0462 217.59 47.5252 216.403 53.3982C215.213 59.2702 170.163 69.4891 154.895 53.3972Z" fill="#6D0900"/>
<path d="M291.072 199.365C285.117 136.838 228.188 116.259 214.93 103.594C204.401 93.5372 207.992 81.4912 209.917 76.9552C215.307 67.3342 227.877 65.2062 228.272 56.8942C228.668 48.5842 213.629 45.4182 207.693 52.5422C201.756 59.6652 194.633 50.5632 191.467 43.0442C188.301 35.5242 180.781 43.4392 178.407 50.5632C176.033 57.6872 171.284 60.8532 167.327 56.8942C163.37 52.9372 160.994 51.3552 150.705 54.5212C140.416 57.6872 142.79 68.3722 147.935 68.9722C153.079 69.5722 160.203 70.3512 163.69 79.8722C165.38 85.5302 166.366 95.2492 157.631 103.593C144.373 116.257 87.4443 136.836 81.4883 199.364C76.1023 255.904 115.758 281.924 176.319 285.092C176.319 285.173 176.319 285.261 176.319 285.342C179.691 285.424 183.011 285.446 186.279 285.409C189.547 285.446 192.869 285.424 196.239 285.342C196.239 285.261 196.239 285.173 196.239 285.092C256.801 281.925 296.459 255.905 291.072 199.365Z" fill="#DEA842"/>
<path opacity="0.3" d="M291.073 199.365C290.393 192.229 289.045 185.645 287.177 179.552L287.176 179.549C287.176 179.549 277.345 156.733 245.883 162.713C214.421 168.693 186.189 217.523 154.894 222.195C123.613 226.865 95.0355 211.823 86.4575 238.449C98.9435 268.214 132.027 282.775 176.32 285.092C176.32 285.173 176.32 285.261 176.32 285.342C179.692 285.424 183.012 285.446 186.28 285.409C189.548 285.446 192.87 285.424 196.24 285.342C196.24 285.261 196.24 285.173 196.24 285.092C256.802 281.925 296.46 255.905 291.073 199.365Z" fill="#6D0900"/>
<path opacity="0.3" d="M208.249 82.3582C208.703 80.1032 209.376 78.2322 209.918 76.9562C215.308 67.3352 227.878 65.2072 228.273 56.8952C228.338 55.5112 227.968 54.2742 227.291 53.2002C227.291 53.2002 225.334 60.0612 216.514 62.0402C207.692 64.0202 199.434 67.9782 196.243 74.7052C193.051 81.4322 185.535 77.4752 184.345 74.7052C183.157 71.9342 174.268 67.5822 172.38 71.1432C170.493 74.7052 160.738 69.9552 155.128 67.9772C149.518 65.9982 145.801 68.0472 145.801 68.0472C146.425 68.5492 147.147 68.8812 147.935 68.9732C153.079 69.5732 160.203 70.3522 163.69 79.8732C163.927 80.6652 164.144 81.5452 164.329 82.4812L182.603 87.1832L208.249 82.3582Z" fill="#6D0900"/>
<path d="M208.04 93.3902C207.942 93.3902 207.845 93.3831 207.745 93.3701C182.824 90.2981 163.65 84.1411 163.46 84.0811C162.213 83.6771 161.529 82.3372 161.933 81.0902C162.337 79.8432 163.673 79.1612 164.923 79.5622C165.11 79.6252 183.879 85.6432 208.327 88.6592C209.627 88.8191 210.552 90.0041 210.392 91.3051C210.245 92.5081 209.221 93.3902 208.04 93.3902Z" fill="#6D0900"/>
<path d="M164.188 94.9932C163.022 94.9932 162.005 94.1341 161.84 92.9451C161.66 91.6451 162.566 90.4462 163.865 90.2662C191.032 86.4932 207.148 81.3642 207.308 81.3112C208.559 80.9092 209.895 81.5962 210.296 82.8432C210.697 84.0922 210.013 85.4291 208.764 85.8311C208.099 86.0461 192.138 91.1331 164.518 94.9691C164.408 94.9861 164.297 94.9932 164.188 94.9932Z" fill="#6D0900"/>
<path d="M115.879 203.718C114.603 203.718 113.549 202.705 113.507 201.421C112.678 176.108 138.089 144.159 153.271 125.069C168.036 106.505 179.722 82.7662 179.838 82.5282C180.415 81.3512 181.838 80.8642 183.014 81.4392C184.192 82.0162 184.681 83.4382 184.104 84.6152C183.985 84.8582 172.081 109.047 156.987 128.026C143.181 145.385 117.481 177.698 118.254 201.265C118.297 202.576 117.269 203.673 115.958 203.716C115.932 203.718 115.905 203.718 115.879 203.718Z" fill="#6D0900"/>
<path opacity="0.3" d="M164.739 85.3851C164.739 85.3851 169.05 87.4351 177.023 88.9521C184.997 90.4701 198.69 88.9521 198.69 88.9521C198.69 88.9521 206.7 88.3841 207.741 87.5051C207.773 86.1381 207.896 84.6151 207.896 84.6151C207.896 84.6151 192.664 88.6301 189.963 87.7761C187.262 86.9221 163.962 82.6201 163.962 82.6201L164.739 85.3851Z" fill="#6D0900"/>
<path opacity="0.3" d="M162.904 96.3291C162.904 96.3291 163.944 97.4241 175.232 94.9931C186.52 92.5631 189.963 92.5131 189.963 92.5131C189.963 92.5131 205.414 94.9021 209.102 94.9931C209.102 94.9931 208.344 93.1061 208.485 92.1171C208.625 91.1281 188.305 89.6001 188.305 89.6001L163.867 93.7991L162.904 96.3291Z" fill="#6D0900"/>
<path opacity="0.3" d="M181.351 93.0882C181.351 93.0882 175.129 110.376 157.137 130.999C139.144 151.624 123.004 177.895 121.223 189.471C119.442 201.047 120.927 203.124 117.068 205.202C113.21 207.28 113.248 198.31 113.867 194.666C114.486 191.02 127.753 160.087 144.672 139.311C161.59 118.535 174.301 98.4132 179.967 89.6262C183.191 86.2942 181.351 93.0882 181.351 93.0882Z" fill="#6D0900"/>
<path d="M184.104 84.6151L185.244 84.7611C185.244 84.7611 181.672 91.0741 180.931 92.3371C179.966 92.5131 179.966 92.5131 179.966 92.5131C179.966 92.5131 182.972 86.6111 184.104 84.6151Z" fill="#4F0703"/>
<path d="M182.169 88.9521L189.963 90.5592L188.183 90.9312L181.351 89.9411L182.169 88.9521Z" fill="#4F0703"/>
<path d="M173.971 93.5421L175.232 91.2701L172.38 93.8001L173.971 93.5421Z" fill="#4F0703"/>
<path d="M189.963 85.6901L201.869 87.7761L202.522 87.6061L191.367 85.3851L189.963 85.6901Z" fill="#4F0703"/>
<path d="M192.349 192.146C192.937 191.67 193.511 191.11 194.071 190.466C194.631 189.794 195.135 189.08 195.583 188.324C196.03 187.568 196.394 186.799 196.674 186.015C196.954 185.203 197.094 184.419 197.094 183.663C197.094 183.047 197.01 182.431 196.842 181.815C196.674 181.2 196.408 180.654 196.044 180.178C195.708 179.702 195.275 179.31 194.743 179.002C194.211 178.694 193.581 178.54 192.853 178.54C192.125 178.54 191.215 178.736 190.124 179.128C189.032 179.52 187.772 180.36 186.344 181.647V181.857C186.344 182.613 186.176 183.495 185.84 184.503C185.504 185.483 184.986 186.435 184.287 187.358C183.587 188.282 182.705 189.094 181.641 189.794C180.577 190.466 179.318 190.858 177.862 190.97C180.409 194.385 183.223 197.521 186.302 200.376C189.41 203.231 192.797 205.989 196.464 208.648L191.257 214.065C188.206 211.854 185.322 209.572 182.607 207.221C179.891 204.869 177.372 202.434 175.048 199.914C172.725 197.395 170.611 194.777 168.708 192.062C166.804 189.318 165.152 186.449 163.752 183.453L170.639 178.204C170.723 178.428 170.849 178.736 171.017 179.128C171.185 179.52 171.367 179.926 171.563 180.346C171.759 180.766 171.941 181.172 172.109 181.563C172.277 181.955 172.417 182.249 172.529 182.445C172.837 182.921 173.173 183.299 173.537 183.579C173.901 183.859 174.306 183.999 174.754 183.999C175.118 183.999 175.44 183.873 175.72 183.621C176 183.369 176.238 183.061 176.434 182.697C176.63 182.333 176.77 181.955 176.854 181.563C176.966 181.172 177.022 180.85 177.022 180.598V164.767H160.897V157.586H215.613V164.767H186.344V174.803C187.548 173.963 188.85 173.291 190.25 172.787C191.649 172.283 193.217 172.031 194.953 172.031C196.744 172.031 198.326 172.353 199.698 172.997C201.097 173.641 202.259 174.495 203.183 175.559C204.135 176.594 204.849 177.798 205.325 179.17C205.801 180.514 206.039 181.899 206.039 183.327C206.039 184.643 205.787 185.945 205.283 187.232C204.807 188.52 204.149 189.78 203.309 191.012C202.469 192.215 201.475 193.349 200.328 194.413C199.208 195.477 197.99 196.429 196.674 197.269L192.349 192.146Z" fill="black"/>
<path d="M325.967 274.337C325.967 278.542 321.583 280.835 310.333 282.515C302.124 283.741 291.249 284.416 279.71 284.416C268.171 284.416 257.296 283.741 249.087 282.515C237.836 280.835 233.452 278.542 233.452 274.337V264.533H325.967V274.337Z" fill="url(#paint0_linear_152_11370)"/>
<path d="M279.711 274.612C268.172 274.612 257.297 273.937 249.088 272.711C237.837 271.031 233.453 268.738 233.453 264.532C233.453 260.327 237.837 258.034 249.087 256.353C257.297 255.127 268.173 254.451 279.711 254.451C291.249 254.451 302.125 255.126 310.334 256.353C321.584 258.033 325.968 260.326 325.968 264.532C325.968 268.737 321.584 271.03 310.334 272.711C302.125 273.937 291.25 274.612 279.711 274.612Z" fill="url(#paint1_linear_152_11370)"/>
<path d="M279.71 270.056C303.198 270.056 322.239 267.212 322.239 263.704C322.239 260.196 303.198 257.352 279.71 257.352C256.222 257.352 237.181 260.196 237.181 263.704C237.181 267.212 256.222 270.056 279.71 270.056Z" fill="url(#paint2_linear_152_11370)"/>
<path d="M328.729 262.738C328.729 266.943 324.345 269.236 313.095 270.916C304.886 272.142 294.011 272.817 282.472 272.817C270.933 272.817 260.058 272.142 251.849 270.916C240.598 269.236 236.214 266.943 236.214 262.738V252.934H328.729V262.738Z" fill="url(#paint3_linear_152_11370)"/>
<path d="M282.472 263.013C270.933 263.013 260.058 262.338 251.849 261.112C240.598 259.432 236.214 257.139 236.214 252.933C236.214 248.728 240.597 246.435 251.848 244.755C260.058 243.529 270.934 242.853 282.472 242.853C294.01 242.853 304.886 243.528 313.095 244.755C324.345 246.435 328.729 248.728 328.729 252.933C328.729 257.138 324.345 259.431 313.095 261.112C304.886 262.338 294.011 263.013 282.472 263.013Z" fill="url(#paint4_linear_152_11370)"/>
<path d="M282.472 258.457C305.96 258.457 325.001 255.613 325.001 252.105C325.001 248.597 305.96 245.753 282.472 245.753C258.984 245.753 239.943 248.597 239.943 252.105C239.943 255.613 258.984 258.457 282.472 258.457Z" fill="url(#paint5_linear_152_11370)"/>
<path d="M325.139 251.139C325.139 255.344 320.755 257.637 309.505 259.317C301.296 260.543 290.421 261.218 278.882 261.218C267.343 261.218 256.468 260.543 248.259 259.317C237.008 257.637 232.624 255.344 232.624 251.139V241.335H325.139V251.139Z" fill="url(#paint6_linear_152_11370)"/>
<path d="M278.882 251.415C267.343 251.415 256.468 250.74 248.259 249.514C237.008 247.834 232.624 245.541 232.624 241.335C232.624 237.129 237.008 234.837 248.258 233.157C256.468 231.931 267.345 231.255 278.882 231.255C290.42 231.255 301.296 231.93 309.505 233.157C320.755 234.837 325.139 237.13 325.139 241.335C325.139 245.54 320.755 247.833 309.505 249.514C301.296 250.739 290.421 251.415 278.882 251.415Z" fill="url(#paint7_linear_152_11370)"/>
<path d="M278.882 246.858C302.37 246.858 321.411 244.014 321.411 240.506C321.411 236.998 302.37 234.154 278.882 234.154C255.394 234.154 236.353 236.998 236.353 240.506C236.353 244.014 255.394 246.858 278.882 246.858Z" fill="url(#paint8_linear_152_11370)"/>
<path d="M327.9 239.54C327.9 243.745 323.516 246.038 312.266 247.719C304.057 248.945 293.182 249.62 281.643 249.62C270.104 249.62 259.229 248.945 251.02 247.719C239.769 246.039 235.385 243.746 235.385 239.54V229.736H327.9V239.54Z" fill="url(#paint9_linear_152_11370)"/>
<path d="M281.644 239.816C270.105 239.816 259.23 239.141 251.021 237.915C239.77 236.235 235.386 233.942 235.386 229.737C235.386 225.532 239.769 223.239 251.02 221.559C259.23 220.333 270.107 219.657 281.644 219.657C293.182 219.657 304.058 220.332 312.267 221.559C323.517 223.239 327.901 225.532 327.901 229.737C327.901 233.942 323.517 236.235 312.267 237.915C304.058 239.14 293.183 239.816 281.644 239.816Z" fill="url(#paint10_linear_152_11370)"/>
<path d="M281.643 235.259C305.131 235.259 324.172 232.415 324.172 228.907C324.172 225.399 305.131 222.555 281.643 222.555C258.155 222.555 239.114 225.399 239.114 228.907C239.114 232.415 258.155 235.259 281.643 235.259Z" fill="url(#paint11_linear_152_11370)"/>
<path d="M327.21 227.112C327.21 231.317 322.826 233.61 311.576 235.291C303.367 236.517 292.492 237.192 280.953 237.192C269.414 237.192 258.539 236.517 250.33 235.291C239.079 233.611 234.695 231.318 234.695 227.112V217.308H327.21V227.112Z" fill="url(#paint12_linear_152_11370)"/>
<path d="M280.953 227.388C269.414 227.388 258.539 226.713 250.33 225.487C239.079 223.807 234.695 221.514 234.695 217.308C234.695 213.102 239.078 210.81 250.329 209.13C258.539 207.904 269.416 207.228 280.953 207.228C292.491 207.228 303.367 207.903 311.576 209.13C322.826 210.81 327.21 213.103 327.21 217.308C327.21 221.513 322.826 223.806 311.576 225.487C303.367 226.713 292.492 227.388 280.953 227.388Z" fill="url(#paint13_linear_152_11370)"/>
<path d="M280.953 222.832C304.441 222.832 323.482 219.988 323.482 216.48C323.482 212.972 304.441 210.128 280.953 210.128C257.465 210.128 238.424 212.972 238.424 216.48C238.424 219.988 257.465 222.832 280.953 222.832Z" fill="url(#paint14_linear_152_11370)"/>
<path d="M329.972 215.513C329.972 219.718 325.588 222.011 314.338 223.692C306.129 224.918 295.254 225.593 283.715 225.593C272.176 225.593 261.301 224.918 253.092 223.692C241.841 222.012 237.457 219.719 237.457 215.513V205.709H329.972V215.513Z" fill="url(#paint15_linear_152_11370)"/>
<path d="M283.715 215.789C272.176 215.789 261.301 215.114 253.092 213.888C241.841 212.208 237.457 209.915 237.457 205.709C237.457 201.503 241.841 199.211 253.091 197.531C261.301 196.305 272.177 195.629 283.715 195.629C295.253 195.629 306.129 196.304 314.338 197.531C325.588 199.211 329.972 201.504 329.972 205.709C329.972 209.914 325.588 212.207 314.338 213.888C306.129 215.114 295.254 215.789 283.715 215.789Z" fill="url(#paint16_linear_152_11370)"/>
<path d="M283.715 211.233C307.203 211.233 326.244 208.389 326.244 204.881C326.244 201.373 307.203 198.529 283.715 198.529C260.227 198.529 241.186 201.373 241.186 204.881C241.186 208.389 260.227 211.233 283.715 211.233Z" fill="url(#paint17_linear_152_11370)"/>
<path d="M324.863 203.638C324.863 207.843 320.479 210.136 309.229 211.816C301.02 213.042 290.145 213.717 278.606 213.717C267.067 213.717 256.192 213.042 247.983 211.816C236.732 210.136 232.348 207.843 232.348 203.638V193.834H324.863V203.638Z" fill="url(#paint18_linear_152_11370)"/>
<path d="M278.606 203.914C267.067 203.914 256.192 203.239 247.983 202.013C236.732 200.333 232.348 198.04 232.348 193.834C232.348 189.629 236.731 187.336 247.982 185.656C256.192 184.43 267.069 183.754 278.606 183.754C290.144 183.754 301.02 184.429 309.229 185.656C320.479 187.336 324.863 189.629 324.863 193.834C324.863 198.039 320.479 200.332 309.229 202.013C301.02 203.239 290.145 203.914 278.606 203.914Z" fill="url(#paint19_linear_152_11370)"/>
<path d="M278.606 199.358C302.094 199.358 321.135 196.514 321.135 193.006C321.135 189.498 302.094 186.654 278.606 186.654C255.118 186.654 236.077 189.498 236.077 193.006C236.077 196.514 255.118 199.358 278.606 199.358Z" fill="url(#paint20_linear_152_11370)"/>
<path d="M322.515 192.178C322.515 196.383 318.131 198.676 306.881 200.356C298.672 201.582 287.797 202.257 276.258 202.257C264.719 202.257 253.844 201.582 245.635 200.356C234.384 198.676 230 196.383 230 192.178V182.374H322.515V192.178Z" fill="url(#paint21_linear_152_11370)"/>
<path d="M276.258 192.453C264.719 192.453 253.844 191.778 245.635 190.552C234.384 188.872 230 186.579 230 182.373C230 178.167 234.383 175.875 245.634 174.195C253.844 172.969 264.721 172.293 276.258 172.293C287.796 172.293 298.672 172.968 306.881 174.195C318.131 175.875 322.515 178.168 322.515 182.373C322.515 186.578 318.131 188.871 306.881 190.552C298.673 191.778 287.797 192.453 276.258 192.453Z" fill="url(#paint22_linear_152_11370)"/>
<path d="M276.258 187.897C299.746 187.897 318.787 185.053 318.787 181.545C318.787 178.037 299.746 175.193 276.258 175.193C252.77 175.193 233.729 178.037 233.729 181.545C233.729 185.053 252.77 187.897 276.258 187.897Z" fill="url(#paint23_linear_152_11370)"/>
<path d="M323.758 180.717C323.758 184.922 319.375 187.215 308.124 188.896C299.915 190.122 289.04 190.797 277.501 190.797C265.962 190.797 255.087 190.122 246.878 188.896C235.627 187.216 231.243 184.923 231.243 180.717V170.913H323.758V180.717Z" fill="url(#paint24_linear_152_11370)"/>
<path d="M277.501 180.993C265.962 180.993 255.087 180.318 246.878 179.092C235.627 177.412 231.243 175.119 231.243 170.913C231.243 166.707 235.627 164.415 246.877 162.735C255.087 161.509 265.964 160.833 277.501 160.833C289.039 160.833 299.915 161.508 308.124 162.735C319.374 164.415 323.758 166.708 323.758 170.913C323.758 175.118 319.375 177.411 308.124 179.092C299.915 180.317 289.04 180.993 277.501 180.993Z" fill="url(#paint25_linear_152_11370)"/>
<path d="M320.03 170.084C320.03 173.592 300.989 176.436 277.501 176.436C254.013 176.436 234.972 173.592 234.972 170.084C234.972 166.576 254.013 163.732 277.501 163.732C300.989 163.733 320.03 166.576 320.03 170.084Z" fill="url(#paint26_linear_152_11370)"/>
<path d="M327.762 167.806C327.762 172.011 323.379 174.304 312.128 175.985C303.919 177.211 293.044 177.886 281.505 177.886C269.966 177.886 259.091 177.211 250.882 175.985C239.631 174.305 235.247 172.012 235.247 167.806V158.002H327.762V167.806Z" fill="url(#paint27_linear_152_11370)"/>
<path d="M281.506 168.082C269.967 168.082 259.092 167.407 250.883 166.181C239.632 164.501 235.248 162.208 235.248 158.003C235.248 153.798 239.632 151.505 250.882 149.825C259.092 148.599 269.969 147.923 281.506 147.923C293.044 147.923 303.92 148.598 312.129 149.825C323.379 151.505 327.763 153.798 327.763 158.003C327.763 162.208 323.38 164.501 312.129 166.181C303.92 167.407 293.045 168.082 281.506 168.082Z" fill="url(#paint28_linear_152_11370)"/>
<path d="M281.505 163.526C304.993 163.526 324.034 160.682 324.034 157.174C324.034 153.666 304.993 150.822 281.505 150.822C258.017 150.822 238.976 153.666 238.976 157.174C238.976 160.682 258.017 163.526 281.505 163.526Z" fill="url(#paint29_linear_152_11370)"/>
<path d="M330.279 156.345C330.279 160.55 325.895 162.843 314.645 164.524C306.436 165.75 295.561 166.425 284.022 166.425C272.483 166.425 261.608 165.75 253.399 164.524C242.148 162.844 237.764 160.551 237.764 156.345V146.541H330.279V156.345Z" fill="url(#paint30_linear_152_11370)"/>
<path d="M284.022 156.621C272.483 156.621 261.608 155.946 253.399 154.72C242.148 153.04 237.764 150.747 237.764 146.542C237.764 142.337 242.147 140.044 253.398 138.364C261.608 137.138 272.484 136.462 284.022 136.462C295.56 136.462 306.436 137.137 314.645 138.364C325.895 140.044 330.279 142.337 330.279 146.542C330.279 150.747 325.895 153.04 314.645 154.72C306.437 155.946 295.561 156.621 284.022 156.621Z" fill="url(#paint31_linear_152_11370)"/>
<path d="M326.551 145.713C326.551 149.221 307.51 152.065 284.022 152.065C260.534 152.065 241.493 149.221 241.493 145.713C241.493 142.205 260.534 139.361 284.022 139.361C307.51 139.361 326.551 142.205 326.551 145.713Z" fill="url(#paint32_linear_152_11370)"/>
<path d="M326.658 144.885C326.658 149.09 322.274 151.383 311.024 153.063C302.815 154.289 291.94 154.964 280.401 154.964C268.862 154.964 257.987 154.289 249.778 153.063C238.527 151.383 234.143 149.09 234.143 144.885V135.081H326.658V144.885Z" fill="url(#paint33_linear_152_11370)"/>
<path d="M280.401 145.16C268.862 145.16 257.987 144.485 249.778 143.259C238.527 141.579 234.143 139.286 234.143 135.081C234.143 130.876 238.527 128.583 249.777 126.902C257.987 125.676 268.863 125 280.401 125C291.939 125 302.815 125.675 311.024 126.902C322.274 128.582 326.658 130.875 326.658 135.081C326.658 139.286 322.274 141.579 311.024 143.259C302.815 144.485 291.94 145.16 280.401 145.16Z" fill="url(#paint34_linear_152_11370)"/>
<path d="M322.93 134.252C322.93 137.76 303.889 140.604 280.401 140.604C256.913 140.604 237.872 137.76 237.872 134.252C237.872 130.744 256.913 127.9 280.401 127.9C303.889 127.9 322.93 130.744 322.93 134.252Z" fill="url(#paint35_linear_152_11370)"/>
<path d="M275.221 142.361C265.257 142.361 255.866 141.779 248.777 140.724C239.061 139.277 235.276 137.302 235.276 133.681C235.276 130.06 239.061 128.085 248.776 126.638C255.866 125.582 265.258 125 275.221 125C285.184 125 294.576 125.582 301.665 126.638C311.38 128.085 315.165 130.06 315.165 133.681C315.165 137.302 311.38 139.277 301.665 140.724C294.576 141.779 285.185 142.361 275.221 142.361Z" fill="url(#paint36_linear_152_11370)"/>
<defs>
<linearGradient id="paint0_linear_152_11370" x1="233.453" y1="274.474" x2="325.968" y2="274.474" gradientUnits="userSpaceOnUse">
<stop stop-color="#FFC100"/>
<stop offset="1" stop-color="#FE9402"/>
</linearGradient>
<linearGradient id="paint1_linear_152_11370" x1="233.453" y1="264.532" x2="325.968" y2="264.532" gradientUnits="userSpaceOnUse">
<stop stop-color="#FFF07D"/>
<stop offset="1" stop-color="#FEE504"/>
</linearGradient>
<linearGradient id="paint2_linear_152_11370" x1="237.181" y1="263.704" x2="322.24" y2="263.704" gradientUnits="userSpaceOnUse">
<stop stop-color="#FFC100"/>
<stop offset="1" stop-color="#FE9402"/>
</linearGradient>
<linearGradient id="paint3_linear_152_11370" x1="236.214" y1="262.876" x2="328.729" y2="262.876" gradientUnits="userSpaceOnUse">
<stop stop-color="#FFC100"/>
<stop offset="1" stop-color="#FE9402"/>
</linearGradient>
<linearGradient id="paint4_linear_152_11370" x1="236.214" y1="252.934" x2="328.729" y2="252.934" gradientUnits="userSpaceOnUse">
<stop stop-color="#FFF07D"/>
<stop offset="1" stop-color="#FEE504"/>
</linearGradient>
<linearGradient id="paint5_linear_152_11370" x1="239.943" y1="252.105" x2="325.001" y2="252.105" gradientUnits="userSpaceOnUse">
<stop stop-color="#FFC100"/>
<stop offset="1" stop-color="#FE9402"/>
</linearGradient>
<linearGradient id="paint6_linear_152_11370" x1="232.624" y1="251.277" x2="325.139" y2="251.277" gradientUnits="userSpaceOnUse">
<stop stop-color="#FFC100"/>
<stop offset="1" stop-color="#FE9402"/>
</linearGradient>
<linearGradient id="paint7_linear_152_11370" x1="232.624" y1="241.335" x2="325.139" y2="241.335" gradientUnits="userSpaceOnUse">
<stop stop-color="#FFF07D"/>
<stop offset="1" stop-color="#FEE504"/>
</linearGradient>
<linearGradient id="paint8_linear_152_11370" x1="236.353" y1="240.506" x2="321.411" y2="240.506" gradientUnits="userSpaceOnUse">
<stop stop-color="#FFC100"/>
<stop offset="1" stop-color="#FE9402"/>
</linearGradient>
<linearGradient id="paint9_linear_152_11370" x1="235.385" y1="239.678" x2="327.9" y2="239.678" gradientUnits="userSpaceOnUse">
<stop stop-color="#FFC100"/>
<stop offset="1" stop-color="#FE9402"/>
</linearGradient>
<linearGradient id="paint10_linear_152_11370" x1="235.385" y1="229.736" x2="327.9" y2="229.736" gradientUnits="userSpaceOnUse">
<stop stop-color="#FFF07D"/>
<stop offset="1" stop-color="#FEE504"/>
</linearGradient>
<linearGradient id="paint11_linear_152_11370" x1="239.114" y1="228.907" x2="324.173" y2="228.907" gradientUnits="userSpaceOnUse">
<stop stop-color="#FFC100"/>
<stop offset="1" stop-color="#FE9402"/>
</linearGradient>
<linearGradient id="paint12_linear_152_11370" x1="234.695" y1="227.25" x2="327.21" y2="227.25" gradientUnits="userSpaceOnUse">
<stop stop-color="#FFC100"/>
<stop offset="1" stop-color="#FE9402"/>
</linearGradient>
<linearGradient id="paint13_linear_152_11370" x1="234.695" y1="217.308" x2="327.21" y2="217.308" gradientUnits="userSpaceOnUse">
<stop stop-color="#FFF07D"/>
<stop offset="1" stop-color="#FEE504"/>
</linearGradient>
<linearGradient id="paint14_linear_152_11370" x1="238.424" y1="216.48" x2="323.482" y2="216.48" gradientUnits="userSpaceOnUse">
<stop stop-color="#FFC100"/>
<stop offset="1" stop-color="#FE9402"/>
</linearGradient>
<linearGradient id="paint15_linear_152_11370" x1="237.457" y1="215.651" x2="329.972" y2="215.651" gradientUnits="userSpaceOnUse">
<stop stop-color="#FFC100"/>
<stop offset="1" stop-color="#FE9402"/>
</linearGradient>
<linearGradient id="paint16_linear_152_11370" x1="237.457" y1="205.709" x2="329.972" y2="205.709" gradientUnits="userSpaceOnUse">
<stop stop-color="#FFF07D"/>
<stop offset="1" stop-color="#FEE504"/>
</linearGradient>
<linearGradient id="paint17_linear_152_11370" x1="241.185" y1="204.881" x2="326.244" y2="204.881" gradientUnits="userSpaceOnUse">
<stop stop-color="#FFC100"/>
<stop offset="1" stop-color="#FE9402"/>
</linearGradient>
<linearGradient id="paint18_linear_152_11370" x1="232.348" y1="203.776" x2="324.863" y2="203.776" gradientUnits="userSpaceOnUse">
<stop stop-color="#FFC100"/>
<stop offset="1" stop-color="#FE9402"/>
</linearGradient>
<linearGradient id="paint19_linear_152_11370" x1="232.348" y1="193.834" x2="324.863" y2="193.834" gradientUnits="userSpaceOnUse">
<stop stop-color="#FFF07D"/>
<stop offset="1" stop-color="#FEE504"/>
</linearGradient>
<linearGradient id="paint20_linear_152_11370" x1="236.077" y1="193.006" x2="321.135" y2="193.006" gradientUnits="userSpaceOnUse">
<stop stop-color="#FFC100"/>
<stop offset="1" stop-color="#FE9402"/>
</linearGradient>
<linearGradient id="paint21_linear_152_11370" x1="230" y1="192.316" x2="322.515" y2="192.316" gradientUnits="userSpaceOnUse">
<stop stop-color="#FFC100"/>
<stop offset="1" stop-color="#FE9402"/>
</linearGradient>
<linearGradient id="paint22_linear_152_11370" x1="230" y1="182.373" x2="322.515" y2="182.373" gradientUnits="userSpaceOnUse">
<stop stop-color="#FFF07D"/>
<stop offset="1" stop-color="#FEE504"/>
</linearGradient>
<linearGradient id="paint23_linear_152_11370" x1="233.729" y1="181.545" x2="318.788" y2="181.545" gradientUnits="userSpaceOnUse">
<stop stop-color="#FFC100"/>
<stop offset="1" stop-color="#FE9402"/>
</linearGradient>
<linearGradient id="paint24_linear_152_11370" x1="231.243" y1="180.855" x2="323.758" y2="180.855" gradientUnits="userSpaceOnUse">
<stop stop-color="#FFC100"/>
<stop offset="1" stop-color="#FE9402"/>
</linearGradient>
<linearGradient id="paint25_linear_152_11370" x1="231.243" y1="170.913" x2="323.758" y2="170.913" gradientUnits="userSpaceOnUse">
<stop stop-color="#FFF07D"/>
<stop offset="1" stop-color="#FEE504"/>
</linearGradient>
<linearGradient id="paint26_linear_152_11370" x1="234.972" y1="170.084" x2="320.031" y2="170.084" gradientUnits="userSpaceOnUse">
<stop stop-color="#FFC100"/>
<stop offset="1" stop-color="#FE9402"/>
</linearGradient>
<linearGradient id="paint27_linear_152_11370" x1="235.248" y1="167.944" x2="327.762" y2="167.944" gradientUnits="userSpaceOnUse">
<stop stop-color="#FFC100"/>
<stop offset="1" stop-color="#FE9402"/>
</linearGradient>
<linearGradient id="paint28_linear_152_11370" x1="235.248" y1="158.002" x2="327.762" y2="158.002" gradientUnits="userSpaceOnUse">
<stop stop-color="#FFF07D"/>
<stop offset="1" stop-color="#FEE504"/>
</linearGradient>
<linearGradient id="paint29_linear_152_11370" x1="238.976" y1="157.174" x2="324.035" y2="157.174" gradientUnits="userSpaceOnUse">
<stop stop-color="#FFC100"/>
<stop offset="1" stop-color="#FE9402"/>
</linearGradient>
<linearGradient id="paint30_linear_152_11370" x1="237.764" y1="156.483" x2="330.279" y2="156.483" gradientUnits="userSpaceOnUse">
<stop stop-color="#FFC100"/>
<stop offset="1" stop-color="#FE9402"/>
</linearGradient>
<linearGradient id="paint31_linear_152_11370" x1="237.764" y1="146.541" x2="330.279" y2="146.541" gradientUnits="userSpaceOnUse">
<stop stop-color="#FFF07D"/>
<stop offset="1" stop-color="#FEE504"/>
</linearGradient>
<linearGradient id="paint32_linear_152_11370" x1="241.493" y1="145.713" x2="326.552" y2="145.713" gradientUnits="userSpaceOnUse">
<stop stop-color="#FFC100"/>
<stop offset="1" stop-color="#FE9402"/>
</linearGradient>
<linearGradient id="paint33_linear_152_11370" x1="234.143" y1="145.022" x2="326.658" y2="145.022" gradientUnits="userSpaceOnUse">
<stop stop-color="#FFC100"/>
<stop offset="1" stop-color="#FE9402"/>
</linearGradient>
<linearGradient id="paint34_linear_152_11370" x1="234.143" y1="135.08" x2="326.658" y2="135.08" gradientUnits="userSpaceOnUse">
<stop stop-color="#FFF07D"/>
<stop offset="1" stop-color="#FEE504"/>
</linearGradient>
<linearGradient id="paint35_linear_152_11370" x1="237.872" y1="134.252" x2="322.93" y2="134.252" gradientUnits="userSpaceOnUse">
<stop stop-color="#FFC100"/>
<stop offset="1" stop-color="#FE9402"/>
</linearGradient>
<linearGradient id="paint36_linear_152_11370" x1="281.095" y1="132.463" x2="238.495" y2="141.29" gradientUnits="userSpaceOnUse">
<stop stop-color="white"/>
<stop offset="1" stop-color="#DE9800"/>
</linearGradient>
</defs>
</svg>
