<svg width="380" height="284" viewBox="0 0 380 284" fill="none" xmlns="http://www.w3.org/2000/svg">
<g opacity="0.25">
<path d="M97.4858 17.3972C97.4858 17.3972 99.9938 9.02416 106.359 9.02416C112.723 9.02416 116.649 13.4402 122.981 13.2122C129.312 12.9822 136.832 4.67116 144.351 5.85816C151.871 7.04616 160.181 11.5251 158.994 17.3981C157.804 23.2701 112.754 33.4892 97.4858 17.3972Z" fill="#081228"/>
<path d="M233.664 163.365C227.709 100.838 170.78 80.2592 157.522 67.5942C146.993 57.5372 150.584 45.4912 152.509 40.9552C157.899 31.3342 170.469 29.2062 170.864 20.8942C171.26 12.5842 156.221 9.4182 150.285 16.5422C144.348 23.6652 137.225 14.5632 134.059 7.0442C130.893 -0.475796 123.373 7.43921 120.999 14.5632C118.625 21.6872 113.876 24.8532 109.919 20.8942C105.962 16.9372 103.586 15.3552 93.2966 18.5212C83.0076 21.6872 85.3816 32.3722 90.5266 32.9722C95.6706 33.5722 102.795 34.3512 106.282 43.8722C107.972 49.5302 108.958 59.2492 100.223 67.5932C86.9646 80.2572 30.0356 100.836 24.0796 163.364C18.6936 219.904 58.3496 245.924 118.911 249.092C118.911 249.173 118.911 249.261 118.911 249.342C122.283 249.424 125.603 249.446 128.871 249.409C132.139 249.446 135.461 249.424 138.831 249.342C138.831 249.261 138.831 249.173 138.831 249.092C199.393 245.925 239.051 219.905 233.664 163.365Z" fill="#081228"/>
<path fill-rule="evenodd" clip-rule="evenodd" d="M168.612 124.707V114.228H119.757H108.435H101.929V115.083V124.707H110.359H116.127H117.833C125.29 124.707 131.649 129.618 133.86 136.36H101.928V146.84H134.698V148.567C134.698 157.843 127.108 165.434 117.833 165.434H116.127H110.359H107.428L107.405 165.412L107.384 165.434H101.929V170.887V174.755V175.06C102.059 175.092 102.194 175.118 102.324 175.151L130.213 203.042L139.753 212.58H154.542L154.558 212.563L117.909 175.915H119.759C133.808 175.915 145.304 164.418 145.304 150.369V146.841H168.615V136.361H145.064C144.482 132.048 142.817 128.069 140.347 124.708H144.663L168.612 124.707Z" fill="#081228"/>
<path opacity="0.3" d="M233.664 163.365C232.984 156.229 231.636 149.645 229.768 143.552L229.767 143.549C229.767 143.549 219.936 120.733 188.474 126.713C157.012 132.693 128.78 181.523 97.4848 186.195C66.2038 190.865 37.6268 175.823 29.0488 202.449C41.5348 232.214 74.6178 246.775 118.911 249.092C118.911 249.173 118.911 249.261 118.911 249.342C122.283 249.424 125.603 249.446 128.871 249.409C132.139 249.446 135.461 249.424 138.831 249.342C138.831 249.261 138.831 249.173 138.831 249.092C199.393 245.925 239.051 219.905 233.664 163.365Z" fill="#081228"/>
<path opacity="0.3" d="M150.841 46.3582C151.295 44.1032 151.968 42.2322 152.51 40.9562C157.9 31.3352 170.47 29.2072 170.865 20.8952C170.93 19.5112 170.56 18.2742 169.883 17.2002C169.883 17.2002 167.926 24.0612 159.106 26.0402C150.284 28.0202 142.026 31.9782 138.835 38.7052C135.643 45.4322 128.127 41.4752 126.937 38.7052C125.749 35.9342 116.86 31.5822 114.972 35.1432C113.085 38.7052 103.33 33.9552 97.7196 31.9772C92.1096 29.9982 88.3926 32.0472 88.3926 32.0472C89.0166 32.5492 89.7386 32.8812 90.5266 32.9732C95.6706 33.5732 102.795 34.3522 106.282 43.8732C106.519 44.6652 106.736 45.5452 106.921 46.4812L125.195 51.1832L150.841 46.3582Z" fill="#081228"/>
<path d="M150.632 57.3902C150.534 57.3902 150.437 57.3831 150.337 57.3701C125.416 54.2981 106.242 48.1411 106.052 48.0811C104.805 47.6771 104.121 46.3372 104.525 45.0902C104.929 43.8432 106.265 43.1612 107.515 43.5622C107.702 43.6252 126.471 49.6432 150.919 52.6592C152.219 52.8191 153.144 54.0041 152.984 55.3051C152.837 56.5081 151.813 57.3902 150.632 57.3902Z" fill="#081228"/>
<path d="M106.779 58.9932C105.613 58.9932 104.596 58.1341 104.431 56.9451C104.251 55.6451 105.157 54.4462 106.456 54.2662C133.623 50.4932 149.739 45.3642 149.899 45.3112C151.15 44.9092 152.486 45.5962 152.887 46.8432C153.288 48.0922 152.604 49.4291 151.355 49.8311C150.69 50.0461 134.729 55.1331 107.109 58.9691C106.999 58.9861 106.888 58.9932 106.779 58.9932Z" fill="#081228"/>
<path d="M58.4704 167.718C57.1944 167.718 56.1404 166.705 56.0984 165.421C55.2694 140.108 80.6804 108.159 95.8624 89.0692C110.627 70.5052 122.313 46.7662 122.429 46.5282C123.006 45.3512 124.429 44.8642 125.605 45.4392C126.783 46.0162 127.272 47.4382 126.695 48.6152C126.576 48.8582 114.672 73.0472 99.5784 92.0262C85.7724 109.385 60.0724 141.698 60.8454 165.265C60.8884 166.576 59.8604 167.673 58.5494 167.716C58.5234 167.718 58.4964 167.718 58.4704 167.718Z" fill="#081228"/>
<path opacity="0.3" d="M107.331 49.3852C107.331 49.3852 111.642 51.4352 119.615 52.9522C127.589 54.4702 141.282 52.9522 141.282 52.9522C141.282 52.9522 149.292 52.3842 150.333 51.5052C150.365 50.1382 150.488 48.6152 150.488 48.6152C150.488 48.6152 135.256 52.6302 132.555 51.7762C129.854 50.9222 106.554 46.6202 106.554 46.6202L107.331 49.3852Z" fill="#081228"/>
<path opacity="0.3" d="M105.496 60.3292C105.496 60.3292 106.536 61.4242 117.824 58.9932C129.112 56.5632 132.555 56.5132 132.555 56.5132C132.555 56.5132 148.006 58.9022 151.694 58.9932C151.694 58.9932 150.936 57.1062 151.077 56.1172C151.217 55.1282 130.897 53.6002 130.897 53.6002L106.459 57.7992L105.496 60.3292Z" fill="#081228"/>
<path opacity="0.3" d="M123.943 57.0882C123.943 57.0882 117.721 74.3762 99.7286 94.9992C81.7356 115.624 65.5956 141.895 63.8146 153.471C62.0336 165.047 63.5186 167.124 59.6596 169.202C55.8016 171.28 55.8396 162.31 56.4586 158.666C57.0776 155.02 70.3446 124.087 87.2636 103.311C104.182 82.5352 116.893 62.4132 122.559 53.6262C125.783 50.2942 123.943 57.0882 123.943 57.0882Z" fill="#081228"/>
<path d="M126.696 48.6152L127.836 48.7612C127.836 48.7612 124.264 55.0742 123.523 56.3372C122.558 56.5132 122.558 56.5132 122.558 56.5132C122.558 56.5132 125.564 50.6112 126.696 48.6152Z" fill="#081228"/>
<path d="M124.76 52.9521L132.554 54.5592L130.774 54.9312L123.942 53.9411L124.76 52.9521Z" fill="#081228"/>
<path d="M116.563 57.5423L117.824 55.2703L114.972 57.8003L116.563 57.5423Z" fill="#081228"/>
<path d="M132.555 49.6903L144.461 51.7763L145.114 51.6063L133.959 49.3853L132.555 49.6903Z" fill="#081228"/>
</g>
<path d="M97.4858 13.3972C97.4858 13.3972 99.9938 5.02416 106.359 5.02416C112.723 5.02416 116.649 9.44015 122.981 9.21215C129.312 8.98215 136.832 0.671156 144.351 1.85816C151.871 3.04616 160.181 7.52516 158.994 13.3982C157.804 19.2702 112.754 29.4891 97.4858 13.3972Z" fill="#6D0900"/>
<path d="M233.664 159.365C227.709 96.8382 170.78 76.2592 157.522 63.5942C146.993 53.5372 150.584 41.4912 152.509 36.9552C157.899 27.3342 170.469 25.2062 170.864 16.8942C171.26 8.5842 156.221 5.41821 150.285 12.5422C144.348 19.6652 137.225 10.5632 134.059 3.04421C130.893 -4.47579 123.373 3.4392 120.999 10.5632C118.625 17.6872 113.876 20.8532 109.919 16.8942C105.962 12.9372 103.586 11.3552 93.2966 14.5212C83.0076 17.6872 85.3816 28.3722 90.5266 28.9722C95.6706 29.5722 102.795 30.3512 106.282 39.8722C107.972 45.5302 108.958 55.2492 100.223 63.5932C86.9646 76.2572 30.0356 96.8362 24.0796 159.364C18.6936 215.904 58.3496 241.924 118.911 245.092C118.911 245.173 118.911 245.261 118.911 245.342C122.283 245.424 125.603 245.446 128.871 245.409C132.139 245.446 135.461 245.424 138.831 245.342C138.831 245.261 138.831 245.173 138.831 245.092C199.393 241.925 239.051 215.905 233.664 159.365Z" fill="#DEA842"/>
<path opacity="0.3" d="M233.664 159.365C232.984 152.229 231.636 145.645 229.768 139.552L229.767 139.549C229.767 139.549 219.936 116.733 188.474 122.713C157.012 128.693 128.78 177.523 97.4848 182.195C66.2038 186.865 37.6268 171.823 29.0488 198.449C41.5348 228.214 74.6178 242.775 118.911 245.092C118.911 245.173 118.911 245.261 118.911 245.342C122.283 245.424 125.603 245.446 128.871 245.409C132.139 245.446 135.461 245.424 138.831 245.342C138.831 245.261 138.831 245.173 138.831 245.092C199.393 241.925 239.051 215.905 233.664 159.365Z" fill="#6D0900"/>
<path opacity="0.3" d="M150.841 42.3582C151.295 40.1032 151.968 38.2322 152.51 36.9562C157.9 27.3352 170.47 25.2072 170.865 16.8952C170.93 15.5112 170.56 14.2742 169.883 13.2002C169.883 13.2002 167.926 20.0612 159.106 22.0402C150.284 24.0202 142.026 27.9782 138.835 34.7052C135.643 41.4322 128.127 37.4752 126.937 34.7052C125.749 31.9342 116.86 27.5822 114.972 31.1432C113.085 34.7052 103.33 29.9552 97.7196 27.9772C92.1096 25.9982 88.3926 28.0472 88.3926 28.0472C89.0166 28.5492 89.7386 28.8812 90.5266 28.9732C95.6706 29.5732 102.795 30.3522 106.282 39.8732C106.519 40.6652 106.736 41.5452 106.921 42.4812L125.195 47.1832L150.841 42.3582Z" fill="#6D0900"/>
<path d="M150.631 53.3902C150.533 53.3902 150.436 53.3831 150.336 53.3701C125.415 50.2981 106.241 44.1411 106.051 44.0811C104.804 43.6771 104.12 42.3372 104.524 41.0902C104.928 39.8432 106.264 39.1612 107.514 39.5622C107.701 39.6252 126.47 45.6432 150.918 48.6592C152.218 48.8191 153.143 50.0041 152.983 51.3051C152.836 52.5081 151.812 53.3902 150.631 53.3902Z" fill="#6D0900"/>
<path d="M106.779 54.9932C105.613 54.9932 104.596 54.1341 104.431 52.9451C104.251 51.6451 105.157 50.4462 106.456 50.2662C133.623 46.4932 149.739 41.3642 149.899 41.3112C151.15 40.9092 152.486 41.5962 152.887 42.8432C153.288 44.0922 152.604 45.4291 151.355 45.8311C150.69 46.0461 134.729 51.1331 107.109 54.9691C106.999 54.9861 106.888 54.9932 106.779 54.9932Z" fill="#6D0900"/>
<path d="M58.4704 163.718C57.1944 163.718 56.1404 162.705 56.0984 161.421C55.2694 136.108 80.6804 104.159 95.8624 85.0692C110.627 66.5052 122.313 42.7662 122.429 42.5282C123.006 41.3512 124.429 40.8642 125.605 41.4392C126.783 42.0162 127.272 43.4382 126.695 44.6152C126.576 44.8582 114.672 69.0472 99.5784 88.0262C85.7724 105.385 60.0724 137.698 60.8454 161.265C60.8884 162.576 59.8604 163.673 58.5494 163.716C58.5234 163.718 58.4964 163.718 58.4704 163.718Z" fill="#6D0900"/>
<path opacity="0.3" d="M107.33 45.3851C107.33 45.3851 111.641 47.4351 119.614 48.9521C127.588 50.4701 141.281 48.9521 141.281 48.9521C141.281 48.9521 149.291 48.3841 150.332 47.5051C150.364 46.1381 150.487 44.6151 150.487 44.6151C150.487 44.6151 135.255 48.6301 132.554 47.7761C129.853 46.9221 106.553 42.6201 106.553 42.6201L107.33 45.3851Z" fill="#6D0900"/>
<path opacity="0.3" d="M105.496 56.3291C105.496 56.3291 106.536 57.4241 117.824 54.9931C129.112 52.5631 132.555 52.5131 132.555 52.5131C132.555 52.5131 148.006 54.9021 151.694 54.9931C151.694 54.9931 150.936 53.1061 151.077 52.1171C151.217 51.1281 130.897 49.6001 130.897 49.6001L106.459 53.7991L105.496 56.3291Z" fill="#6D0900"/>
<path opacity="0.3" d="M123.943 53.0882C123.943 53.0882 117.721 70.3762 99.7286 90.9992C81.7356 111.624 65.5956 137.895 63.8146 149.471C62.0336 161.047 63.5186 163.124 59.6596 165.202C55.8016 167.28 55.8396 158.31 56.4586 154.666C57.0776 151.02 70.3446 120.087 87.2636 99.3112C104.182 78.5352 116.893 58.4132 122.559 49.6262C125.783 46.2942 123.943 53.0882 123.943 53.0882Z" fill="#6D0900"/>
<path d="M126.696 44.6151L127.836 44.7611C127.836 44.7611 124.264 51.0741 123.523 52.3371C122.558 52.5131 122.558 52.5131 122.558 52.5131C122.558 52.5131 125.564 46.6111 126.696 44.6151Z" fill="#4F0703"/>
<path d="M124.76 48.9521L132.554 50.5592L130.774 50.9312L123.942 49.9411L124.76 48.9521Z" fill="#4F0703"/>
<path d="M116.562 53.5421L117.823 51.2701L114.971 53.8001L116.562 53.5421Z" fill="#4F0703"/>
<path d="M132.554 45.6901L144.46 47.7761L145.113 47.6061L133.958 45.3851L132.554 45.6901Z" fill="#4F0703"/>
<g opacity="0.25">
<path d="M379.802 121.21C353.474 137.561 318.642 158.188 245.773 183.58C228.622 189.555 213.989 194.066 213.989 194.066C213.989 194.066 239.826 271.461 241.612 276.619C243.108 276.965 308.408 265.741 379.802 231.042V121.21Z" fill="#081228"/>
<path d="M251.013 258.693C257.65 256.262 260.091 266.817 254.493 268.149C248.415 269.595 244.447 261.099 251.013 258.693Z" fill="#081228"/>
<path d="M267.753 254.352C274.39 251.923 276.831 262.476 271.236 263.809C265.155 265.253 261.186 256.758 267.753 254.352Z" fill="#081228"/>
<path d="M219.681 226.187C219.681 226.187 205.817 218.007 184.275 221.458C162.733 224.909 149.892 228.951 131.512 226.187C116.138 223.874 99.2255 220.67 89.9065 227.104C80.5875 233.539 83.3495 236.696 83.3495 236.696C83.3495 236.696 70.2335 231.359 66.0915 228.653C61.9495 225.946 53.6665 215.587 39.5155 211.619C25.3645 207.652 12.9315 207.81 16.0375 216.093C10.8605 214.367 8.45147 212.831 2.92947 213.176C-2.59253 213.521 -1.90153 225.703 19.1525 236.697C40.2055 247.691 50.5605 254.939 58.8435 260.116C67.1275 265.294 88.8715 280.826 101.987 282.552C115.103 284.277 166.184 281.952 191.725 274.141C217.266 266.329 230.327 260.134 230.327 260.134L220.373 227.673" fill="#081228"/>
<path d="M16.0384 216.093C16.0384 216.093 20.5324 219.733 28.8164 224.565C37.1004 229.398 50.9054 238.027 54.7024 241.478C58.4994 244.929 71.6144 248.035 81.6234 254.593C91.6324 261.152 101.296 264.257 101.296 264.257C101.296 264.257 93.3574 264.257 85.7644 260.46C78.1714 256.663 71.6144 252.015 63.6754 248.989C55.7364 245.964 44.6924 236.99 39.5144 233.884C34.3374 230.777 17.4884 219.813 12.7974 214.941C16.0384 216.093 16.0384 216.093 16.0384 216.093Z" fill="#081228"/>
<path d="M89.9077 227.104C89.9077 227.104 99.9167 224.467 109.581 227.104C104.014 223.343 97.6037 224.038 97.6037 224.038C97.6037 224.038 94.8637 224.715 93.9807 225.036C92.1297 225.708 89.9077 227.104 89.9077 227.104Z" fill="#081228"/>
<path d="M83.3204 233.802C83.3204 233.802 85.9394 239.923 102.333 245.274H96.8104C99.5714 246.654 107.286 251.315 115.164 252.177C123.042 253.039 131.67 253.212 135.467 254.593C139.264 255.973 149.79 258.044 153.932 257.181C152.725 258.908 141.507 257.182 134.605 256.319C127.702 255.456 114.241 255.629 103.024 250.969C91.8074 246.309 83.3514 236.697 83.3514 236.697C83.3514 236.697 82.4114 235.382 83.3204 233.802Z" fill="#081228"/>
<path d="M170.5 263.049C170.5 263.049 169.723 270.556 158.333 271.851C163.51 274.697 175.159 272.368 170.5 263.049Z" fill="#081228"/>
<path opacity="0.5" d="M191.725 274.14C217.266 266.328 230.327 260.133 230.327 260.133L225.046 242.909C219.793 243.12 203.102 244.159 195.091 248.989C185.513 254.765 172.509 267.303 161.538 271.26C150.566 275.216 105.397 267.397 88.9075 260.244C88.9075 260.244 74.9205 253.839 68.4355 251.05C61.9515 248.262 47.6165 239.07 42.2385 235.656C36.8605 232.242 16.8585 216.727 16.8585 216.727C16.8585 216.727 16.3905 216.425 15.6015 215.944C10.7255 214.28 8.29147 212.84 2.92947 213.175C-2.59253 213.52 -1.90153 225.702 19.1525 236.696C40.2055 247.69 50.5605 254.938 58.8435 260.115C67.1275 265.293 88.8715 280.825 101.987 282.551C115.103 284.275 166.184 281.951 191.725 274.14Z" fill="#081228"/>
<path d="M216.047 200.229L199.085 204.876L220.234 274.969L239.875 271.431L216.047 200.229Z" fill="#081228"/>
<path d="M225.904 258.121C232.54 255.691 234.982 266.245 229.386 267.576C223.305 269.021 219.338 260.527 225.904 258.121Z" fill="#081228"/>
<path d="M379.803 170.377C379.803 170.377 305.521 244.965 233.351 251.937C239.875 271.431 241.613 276.62 241.613 276.62C241.613 276.62 315.233 265.305 379.803 231.043C379.803 196.78 379.803 170.377 379.803 170.377Z" fill="#081228"/>
<path opacity="0.2" d="M216.047 200.229L213.989 200.793C213.989 200.793 225.052 256.21 218.053 267.741C219.879 273.794 220.234 274.969 220.234 274.969L239.875 271.477L216.047 200.229Z" fill="#081228"/>
</g>
<path d="M379.802 116.375C353.474 132.726 318.642 153.354 245.773 178.745C228.622 184.72 213.989 189.231 213.989 189.231C213.989 189.231 239.826 266.626 241.612 271.784C243.108 272.13 308.408 260.906 379.802 226.207V116.375Z" fill="#063103"/>
<path d="M251.013 253.858C257.65 251.427 260.091 261.982 254.493 263.314C248.415 264.76 244.447 256.264 251.013 253.858Z" fill="white"/>
<path d="M267.753 249.517C274.39 247.088 276.831 257.641 271.236 258.974C265.155 260.418 261.186 251.923 267.753 249.517Z" fill="white"/>
<path d="M219.681 221.352C219.681 221.352 205.817 213.172 184.275 216.624C162.733 220.075 149.892 224.117 131.512 221.352C116.138 219.039 99.2255 215.835 89.9065 222.269C80.5875 228.704 83.3495 231.861 83.3495 231.861C83.3495 231.861 70.2335 226.524 66.0915 223.818C61.9495 221.111 53.6665 210.752 39.5155 206.784C25.3645 202.817 12.9315 202.974 16.0375 211.258C10.8605 209.532 8.45147 207.996 2.92947 208.341C-2.59253 208.686 -1.90153 220.868 19.1525 231.862C40.2055 242.856 50.5605 250.104 58.8435 255.281C67.1275 260.459 88.8715 275.991 101.987 277.716C115.103 279.441 166.184 277.116 191.725 269.305C217.266 261.494 230.327 255.298 230.327 255.298L220.373 222.837" fill="#E5A18F"/>
<path d="M16.0384 211.258C16.0384 211.258 20.5324 214.898 28.8164 219.73C37.1004 224.563 50.9054 233.192 54.7024 236.643C58.4994 240.094 71.6144 243.2 81.6234 249.758C91.6324 256.317 101.296 259.422 101.296 259.422C101.296 259.422 93.3574 259.422 85.7644 255.625C78.1714 251.828 71.6144 247.18 63.6754 244.154C55.7364 241.129 44.6924 232.155 39.5144 229.049C34.3374 225.943 17.4884 214.978 12.7974 210.106C16.0384 211.258 16.0384 211.258 16.0384 211.258Z" fill="#AF5E58"/>
<path d="M89.9077 222.269C89.9077 222.269 99.9167 219.632 109.581 222.269C104.014 218.508 97.6037 219.203 97.6037 219.203C97.6037 219.203 94.8637 219.88 93.9807 220.201C92.1297 220.873 89.9077 222.269 89.9077 222.269Z" fill="#AF5E58"/>
<path d="M83.3204 228.967C83.3204 228.967 85.9394 235.088 102.333 240.439H96.8104C99.5714 241.819 107.286 246.48 115.164 247.342C123.042 248.204 131.67 248.377 135.467 249.758C139.264 251.138 149.79 253.209 153.932 252.346C152.725 254.073 141.507 252.347 134.605 251.484C127.702 250.621 114.241 250.794 103.024 246.134C91.8074 241.474 83.3514 231.862 83.3514 231.862C83.3514 231.862 82.4114 230.547 83.3204 228.967Z" fill="#AF5E58"/>
<path d="M170.5 258.214C170.5 258.214 169.723 265.721 158.333 267.016C163.51 269.862 175.159 267.533 170.5 258.214Z" fill="#CC8A83"/>
<path opacity="0.5" d="M191.725 269.305C217.266 261.494 230.327 255.298 230.327 255.298L225.046 238.074C219.793 238.285 203.102 239.324 195.091 244.154C185.513 249.93 172.509 262.468 161.538 266.425C150.566 270.381 105.397 262.562 88.9075 255.409C88.9075 255.409 74.9205 249.004 68.4355 246.215C61.9515 243.427 47.6165 234.236 42.2385 230.822C36.8605 227.408 16.8585 211.893 16.8585 211.893C16.8585 211.893 16.3905 211.591 15.6015 211.11C10.7255 209.446 8.29147 208.006 2.92947 208.341C-2.59253 208.686 -1.90153 220.868 19.1525 231.862C40.2055 242.856 50.5605 250.104 58.8435 255.281C67.1275 260.459 88.8715 275.991 101.987 277.716C115.103 279.44 166.184 277.116 191.725 269.305Z" fill="#AF5E58"/>
<path d="M216.047 195.394L199.085 200.041L220.234 270.134L239.875 266.596L216.047 195.394Z" fill="white"/>
<path d="M225.904 253.286C232.54 250.856 234.982 261.41 229.386 262.741C223.305 264.186 219.338 255.692 225.904 253.286Z" fill="#111111"/>
<path d="M379.803 165.542C379.803 165.542 305.521 240.13 233.351 247.102C239.875 266.596 241.613 271.785 241.613 271.785C241.613 271.785 315.233 260.47 379.803 226.208C379.803 191.945 379.803 165.542 379.803 165.542Z" fill="#063103"/>
<path opacity="0.2" d="M216.047 195.394L213.989 195.957C213.989 195.957 225.052 251.374 218.053 262.905C219.879 268.958 220.234 270.133 220.234 270.133L239.875 266.641L216.047 195.394Z" fill="#111111"/>
<g opacity="0.25">
<path fill-rule="evenodd" clip-rule="evenodd" d="M79.4784 62.1362C79.2764 62.6482 78.9364 62.6532 78.7214 62.1462L75.5944 54.7862C75.3794 54.2802 74.7874 53.6932 74.2794 53.4832L67.0964 50.5092C66.5884 50.2992 66.5794 49.9342 67.0764 49.6982L74.2034 46.3232C74.7004 46.0872 75.2954 45.4862 75.5254 44.9862L78.6944 38.0942C78.9244 37.5942 79.2844 37.6012 79.4954 38.1092L82.5064 45.3772C82.7164 45.8852 83.3044 46.4742 83.8124 46.6862L91.1304 49.7402C91.6384 49.9522 91.6334 50.2872 91.1204 50.4862L83.7284 53.3452C83.2154 53.5442 82.6314 54.1252 82.4294 54.6362L79.4784 62.1362Z" fill="#081228"/>
<path fill-rule="evenodd" clip-rule="evenodd" d="M69.5595 76.3461C69.4295 76.6771 69.2095 76.6801 69.0705 76.3531L67.0505 71.5981C66.9115 71.2711 66.5295 70.8921 66.2005 70.7561L61.5595 68.8351C61.2315 68.6991 61.2255 68.4631 61.5465 68.3111L66.1515 66.1301C66.4725 65.9781 66.8565 65.5891 67.0055 65.2661L69.0535 60.8131C69.2015 60.4901 69.4345 60.4951 69.5705 60.8231L71.5155 65.5191C71.6515 65.8481 72.0315 66.2281 72.3595 66.3651L77.0875 68.3391C77.4155 68.4761 77.4125 68.6931 77.0815 68.8211L72.3055 70.6681C71.9745 70.7961 71.5975 71.1721 71.4665 71.5021L69.5595 76.3461Z" fill="#081228"/>
</g>
<path fill-rule="evenodd" clip-rule="evenodd" d="M79.4784 58.1362C79.2764 58.6482 78.9364 58.6532 78.7214 58.1462L75.5944 50.7862C75.3794 50.2802 74.7874 49.6932 74.2794 49.4832L67.0964 46.5092C66.5884 46.2992 66.5794 45.9342 67.0764 45.6982L74.2034 42.3232C74.7004 42.0872 75.2954 41.4862 75.5254 40.9862L78.6944 34.0942C78.9244 33.5942 79.2844 33.6012 79.4954 34.1092L82.5064 41.3772C82.7164 41.8852 83.3044 42.4742 83.8124 42.6862L91.1304 45.7402C91.6384 45.9522 91.6334 46.2872 91.1204 46.4862L83.7284 49.3452C83.2154 49.5442 82.6314 50.1252 82.4294 50.6362L79.4784 58.1362Z" fill="white"/>
<path fill-rule="evenodd" clip-rule="evenodd" d="M69.5595 72.3461C69.4295 72.6771 69.2095 72.6801 69.0705 72.3531L67.0505 67.5981C66.9115 67.2711 66.5295 66.8921 66.2005 66.7561L61.5595 64.8351C61.2315 64.6991 61.2255 64.4631 61.5465 64.3111L66.1515 62.1301C66.4725 61.9781 66.8565 61.5891 67.0055 61.2661L69.0535 56.8131C69.2015 56.4901 69.4345 56.4951 69.5705 56.8231L71.5155 61.5191C71.6515 61.8481 72.0315 62.2281 72.3595 62.3651L77.0875 64.3391C77.4155 64.4761 77.4125 64.6931 77.0815 64.8211L72.3055 66.6681C71.9745 66.7961 71.5975 67.1721 71.4665 67.5021L69.5595 72.3461Z" fill="white"/>
</svg>
