
<svg width="422" height="279" viewBox="0 0 422 279" fill="none" xmlns="http://www.w3.org/2000/svg">
<ellipse cx="211" cy="243.217" rx="211" ry="35.3935" fill="white"/>
<path d="M350.141 157.572C350.141 206.411 310.549 226.405 261.711 226.405C212.872 226.405 173.28 206.412 173.28 157.572C173.28 108.734 212.871 49.5437 261.711 49.5437C310.55 49.5437 350.141 108.734 350.141 157.572Z" fill="#C2913C"/>
<path d="M311.148 139.711C311.148 167.014 289.013 189.149 261.71 189.149C234.407 189.149 212.272 167.014 212.272 139.711C212.272 112.407 234.407 90.2735 261.71 90.2735C289.014 90.2735 311.148 112.407 311.148 139.711Z" fill="#F2B359"/>
<path d="M303.217 5.6067C299.721 2.8578 294.893 2.51294 290.877 4.42601L284.133 7.63775C280.567 9.33573 276.396 9.17964 272.966 7.22029L269.394 3.35966C265.25 -1.11989 258.169 -1.11989 254.025 3.35966L250.453 7.22029C247.024 9.17964 242.852 9.33573 239.286 7.63775L232.542 4.42601C228.525 2.51385 223.699 2.8578 220.201 5.6067C215.395 9.38564 214.409 16.1186 217.711 21.0719L244.978 61.9723L261.708 49.5446L278.439 61.9723L305.706 21.0719C309.01 16.1186 308.024 9.38473 303.217 5.6067Z" fill="#C2913C"/>
<path d="M289.316 57.1924H233.552C231.651 57.1924 230.096 55.6369 230.096 53.7356C230.096 51.8352 231.651 50.2797 233.552 50.2797H289.316C291.218 50.2797 292.773 51.8352 292.773 53.7356C292.772 55.6369 291.218 57.1924 289.316 57.1924Z" fill="#5E3F12"/>
<path d="M289.316 50.5102H233.552C231.651 50.5102 230.096 48.9547 230.096 47.0535C230.096 45.1522 231.651 43.5976 233.552 43.5976H289.316C291.218 43.5976 292.773 45.1522 292.773 47.0535C292.772 48.9547 291.218 50.5102 289.316 50.5102Z" fill="#5E3F12"/>
<path d="M281.266 108.205V52.4415C281.266 50.5402 282.822 48.9856 284.723 48.9856C286.624 48.9856 288.18 50.5402 288.18 52.4415V108.205C288.18 110.106 286.624 111.661 284.723 111.661C282.822 111.661 281.266 110.106 281.266 108.205Z" fill="#5E3F12"/>
<path d="M270.176 82.7329V50.2234C270.176 48.3222 271.731 46.7667 273.633 46.7667C275.534 46.7667 277.089 48.3222 277.089 50.2234V82.7329C277.089 84.6341 275.534 86.1896 273.633 86.1896C271.731 86.1896 270.176 84.6341 270.176 82.7329Z" fill="#5E3F12"/>
<path d="M41.2658 136.972C33.707 152.867 29.3735 170.139 29.3735 186.284C29.3735 235.122 68.9653 255.117 117.804 255.117C166.643 255.117 206.235 235.123 206.235 186.284C206.235 170.138 201.893 152.868 194.334 136.972H41.2658Z" fill="#C2913C"/>
<path d="M79.674 136.972C72.6162 145.519 68.3662 156.471 68.3662 168.422C68.3662 195.725 90.4999 217.859 117.804 217.859C145.107 217.859 167.241 195.725 167.241 168.422C167.241 156.471 162.992 145.519 155.933 136.972H79.674Z" fill="#F2B359"/>
<path d="M199.288 141.174C145.831 153.963 90.1064 153.963 36.6494 141.174C30.5971 139.728 26.9434 133.854 28.4844 128.351C28.5361 128.163 28.5869 127.975 28.6387 127.787C30.1815 122.278 36.006 119.045 41.6218 120.385C91.8098 132.392 144.127 132.392 194.314 120.385C199.931 119.045 205.754 122.278 207.298 127.787C207.35 127.975 207.401 128.163 207.452 128.351C208.995 133.854 205.341 139.728 199.288 141.174Z" fill="#EECA9B"/>
<path opacity="0.32" d="M73.2592 122.024H71.9877C69.3024 118.281 63.1021 115.66 55.8782 115.66C48.6543 115.66 42.4532 118.282 39.7678 122.024H38.4964L38.3457 126.177C38.3457 131.985 46.1949 136.694 55.8773 136.694C65.5597 136.694 73.4089 131.984 73.4089 126.177L73.2592 122.024Z" fill="#998329"/>
<path d="M72.809 119.324H71.5375C68.8522 115.58 62.6519 112.959 55.428 112.959C48.2041 112.959 42.003 115.581 39.3176 119.324H38.0462L37.8955 123.476C37.8955 129.285 45.7447 133.994 55.4271 133.994C65.1095 133.994 72.9587 129.285 72.9587 123.476L72.809 119.324Z" fill="#F1B633"/>
<path d="M55.4268 108.896C65.0266 108.896 72.8086 113.564 72.8086 119.324C72.8086 125.082 65.0266 129.75 55.4268 129.75C45.827 129.75 38.0449 125.082 38.0449 119.324C38.0449 113.564 45.827 108.896 55.4268 108.896Z" fill="#F1B633"/>
<path d="M55.4275 130.979C65.0363 130.979 72.8257 125.875 72.8257 119.579C72.8257 113.284 65.0363 108.18 55.4275 108.18C45.8187 108.18 38.0293 113.284 38.0293 119.579C38.0293 125.875 45.8187 130.979 55.4275 130.979Z" fill="#F2CD30"/>
<path d="M55.4271 128.105C62.9258 128.105 69.0046 124.195 69.0046 119.372C69.0046 114.548 62.9258 110.638 55.4271 110.638C47.9285 110.638 41.8496 114.548 41.8496 119.372C41.8496 124.195 47.9285 128.105 55.4271 128.105Z" fill="#EAA00E"/>
<path d="M56.2537 128.106C63.2957 128.106 69.0044 124.433 69.0044 119.903C69.0044 115.373 63.2957 111.701 56.2537 111.701C49.2116 111.701 43.5029 115.373 43.5029 119.903C43.5029 124.433 49.2116 128.106 56.2537 128.106Z" fill="#F1B633"/>
<path opacity="0.32" d="M124.904 113.238L123.691 113.741C119.434 110.716 112.334 110.307 105.448 113.168C98.5629 116.027 93.8419 121.347 92.9816 126.499L91.77 127.003L93.5107 131.599C96.147 137.944 105.765 139.981 114.994 136.147C124.222 132.313 129.567 124.061 126.93 117.715L124.904 113.238Z" fill="#998329"/>
<path d="M123.364 113.905L122.19 114.393C118.282 111.984 111.554 111.955 104.883 114.726C98.212 117.497 93.4856 122.285 92.4356 126.753L91.2612 127.242L92.7069 131.115C94.924 136.451 103.97 137.765 112.911 134.051C121.853 130.335 127.305 122.999 125.087 117.662L123.364 113.905Z" fill="#F1B633"/>
<path d="M103.333 110.993C112.198 107.311 121.166 108.614 123.364 113.905C125.562 119.195 120.157 126.469 111.293 130.152C102.427 133.836 93.4596 132.532 91.2616 127.242C89.0644 121.951 94.4688 114.676 103.333 110.993Z" fill="#F1B633"/>
<path d="M103.06 110.336C111.934 106.65 121.076 108.35 123.478 114.133C125.881 119.917 120.635 127.594 111.761 131.281C102.887 134.967 93.7454 133.267 91.3432 127.483C88.941 121.699 94.1874 114.023 103.06 110.336Z" fill="#F2CD30"/>
<path d="M103.998 112.594C110.924 109.717 118.03 110.977 119.87 115.408C121.711 119.84 117.59 125.764 110.665 128.641C103.741 131.518 96.6348 130.257 94.7934 125.827C92.952 121.395 97.0731 115.471 103.998 112.594Z" fill="#EAA00E"/>
<path d="M105.168 113.254C111.671 110.552 118.345 111.736 120.073 115.898C121.802 120.059 117.931 125.623 111.428 128.324C104.924 131.026 98.2504 129.843 96.5225 125.681C94.7946 121.519 98.6643 115.956 105.168 113.254Z" fill="#F1B633"/>
<path opacity="0.32" d="M145.647 95.2867L144.403 95.5508C141.005 92.4643 134.397 91.1974 127.33 92.6939C120.263 94.1895 114.736 98.0256 112.881 102.225L111.637 102.489L112.346 106.562C113.543 112.215 122.193 115.172 131.665 113.166C141.138 111.16 147.847 104.952 146.65 99.2989L145.647 95.2867Z" fill="#998329"/>
<path d="M144.879 93.7503L143.635 94.0135C140.237 90.927 133.63 89.66 126.563 91.1566C119.496 92.6522 113.969 96.4883 112.114 100.687L110.87 100.951L111.578 105.024C112.775 110.677 121.425 113.633 130.898 111.628C140.371 109.622 147.08 103.414 145.883 97.7606L144.879 93.7503Z" fill="#F1B633"/>
<path d="M125.725 87.2024C135.117 85.214 143.692 88.1462 144.878 93.7502C146.065 99.3551 139.414 105.51 130.022 107.498C120.63 109.487 112.055 106.555 110.868 100.951C109.682 95.3457 116.333 89.1908 125.725 87.2024Z" fill="#F1B633"/>
<path d="M125.577 86.5064C134.978 84.5162 143.65 87.8695 144.948 93.9971C146.245 100.124 139.676 106.704 130.276 108.695C120.876 110.685 112.203 107.331 110.905 101.205C109.609 95.0771 116.177 88.4966 125.577 86.5064Z" fill="#F2CD30"/>
<path d="M126.085 88.8977C133.421 87.3449 140.174 89.8914 141.168 94.5852C142.162 99.2798 137.021 104.344 129.685 105.898C122.349 107.451 115.596 104.905 114.601 100.21C113.608 95.5163 118.749 90.4514 126.085 88.8977Z" fill="#EAA00E"/>
<path d="M127.112 89.7617C134.002 88.3033 140.343 90.6937 141.276 95.1025C142.209 99.5113 137.381 104.268 130.492 105.726C123.603 107.184 117.261 104.793 116.327 100.384C115.394 95.9764 120.223 91.2201 127.112 89.7617Z" fill="#F1B633"/>
<path opacity="0.32" d="M87.2009 93.8483L86.0783 94.4046C81.9609 92.5115 75.2606 93.0751 68.8798 96.2351C62.4999 99.3951 58.2454 104.257 57.6192 108.499L56.4966 109.056L58.3007 112.526C61.0106 117.288 70.1394 117.714 78.692 113.478C87.2436 109.243 91.9809 101.949 89.271 97.188L87.2009 93.8483Z" fill="#998329"/>
<path d="M85.8504 92.0469L84.7277 92.6032C80.6103 90.7092 73.91 91.2727 67.5292 94.4327C61.1493 97.5928 56.8948 102.454 56.2686 106.697L55.146 107.253L56.9502 110.724C59.66 115.486 68.7888 115.911 77.3414 111.676C85.893 107.44 90.6303 100.147 87.9204 95.3856L85.8504 92.0469Z" fill="#F1B633"/>
<path d="M65.6339 91.103C74.1129 86.9039 83.1637 87.3268 85.8499 92.0468C88.5362 96.7678 83.8407 103.998 75.3617 108.197C66.8826 112.396 57.8319 111.974 55.1456 107.253C52.4593 102.533 57.1548 95.3031 65.6339 91.103Z" fill="#F1B633"/>
<path d="M65.3004 90.5167C73.7876 86.314 83.048 87.0899 85.9848 92.2501C88.9215 97.4103 84.422 105.002 75.9348 109.205C67.4476 113.408 58.1872 112.632 55.2505 107.471C52.3137 102.311 56.8132 94.7195 65.3004 90.5167Z" fill="#F2CD30"/>
<path d="M66.4476 92.5315C73.0707 89.2507 80.2638 89.7971 82.5135 93.7512C84.7633 97.7053 81.2185 103.57 74.5954 106.85C67.9722 110.13 60.7783 109.584 58.5285 105.631C56.2788 101.676 59.8236 95.8113 66.4476 92.5315Z" fill="#EAA00E"/>
<path d="M67.6735 93.0415C73.8927 89.9605 80.6484 90.4732 82.7611 94.1868C84.8738 97.8995 81.545 103.407 75.3248 106.487C69.1046 109.568 62.3499 109.056 60.2372 105.342C58.1236 101.629 61.4533 96.1217 67.6735 93.0415Z" fill="#F1B633"/>
<path opacity="0.32" d="M122.053 89.7517L120.8 89.7671C117.909 86.2759 111.626 83.8818 104.507 83.9653C97.3872 84.0488 91.4465 86.5872 89.0443 90.1401L87.791 90.1547L87.9135 94.0634C88.2929 99.5285 96.3363 103.868 105.879 103.756C115.422 103.643 122.851 99.1219 122.472 93.6568L122.053 89.7517Z" fill="#998329"/>
<path d="M121.603 87.9512L120.35 87.9666C117.459 84.4753 111.177 82.0813 104.057 82.1648C96.9375 82.2492 90.9968 84.7875 88.5946 88.3405L87.3413 88.355L87.4638 92.2646C87.8432 97.7298 95.8866 102.069 105.429 101.957C114.973 101.844 122.401 97.3232 122.022 91.8581L121.603 87.9512Z" fill="#F1B633"/>
<path d="M103.791 78.3423C113.252 78.2306 121.226 82.5332 121.602 87.9512C121.978 93.37 114.613 97.8523 105.152 97.9639C95.6911 98.0755 87.7166 93.773 87.3409 88.355C86.9652 82.9362 94.3298 78.4539 103.791 78.3423Z" fill="#F1B633"/>
<path d="M103.745 77.6689C113.215 77.5582 121.225 82.2692 121.636 88.1926C122.047 94.116 114.702 99.0076 105.232 99.1192C95.7621 99.2299 87.7514 94.519 87.3412 88.5955C86.93 82.673 94.2747 77.7805 103.745 77.6689Z" fill="#F2CD30"/>
<path d="M103.906 79.9813C111.296 79.8942 117.542 83.5025 117.858 88.041C118.173 92.5796 112.436 96.3286 105.046 96.4157C97.6554 96.5028 91.4098 92.8945 91.094 88.3559C90.7782 83.8174 96.5146 80.0684 103.906 79.9813Z" fill="#EAA00E"/>
<path d="M104.789 80.9723C111.73 80.8907 117.596 84.2794 117.892 88.5411C118.188 92.8029 112.801 96.3241 105.86 96.4066C98.9204 96.4883 93.0541 93.0987 92.7583 88.837C92.4615 84.5752 97.8486 81.054 104.789 80.9723Z" fill="#F1B633"/>
<path opacity="0.32" d="M200.942 120.52L199.85 119.985C199.34 115.188 195.27 110.009 189.063 106.967C182.856 103.925 176.269 103.883 172.166 106.419L171.073 105.884L168.95 109.889C166.162 115.579 170.646 123.497 178.965 127.574C187.285 131.651 196.289 130.343 199.077 124.652L200.942 120.52Z" fill="#998329"/>
<path d="M202.616 120.629L201.474 120.069C200.701 115.544 196.28 110.472 189.793 107.294C183.306 104.115 176.59 103.729 172.54 105.891L171.398 105.331L169.445 108.975C166.903 114.164 171.89 121.825 180.584 126.085C189.279 130.346 198.389 129.594 200.931 124.405L202.616 120.629Z" fill="#F1B633"/>
<path d="M191.572 103.666C200.193 107.89 205.137 115.485 202.616 120.629C200.095 125.773 191.063 126.519 182.443 122.295C173.823 118.071 168.879 110.476 171.399 105.332C173.92 100.187 182.952 99.4414 191.572 103.666Z" fill="#F1B633"/>
<path d="M191.885 103.026C200.513 107.254 205.274 115.24 202.519 120.864C199.762 126.488 190.533 127.619 181.905 123.392C173.276 119.164 168.516 111.177 171.271 105.553C174.028 99.9296 183.256 98.7979 191.885 103.026Z" fill="#F2CD30"/>
<path d="M190.809 105.221C197.542 108.521 201.289 114.69 199.178 118.998C197.066 123.307 189.896 124.124 183.162 120.824C176.428 117.525 172.681 111.357 174.793 107.048C176.905 102.74 184.075 101.922 190.809 105.221Z" fill="#EAA00E"/>
<path d="M191.087 106.535C197.411 109.635 200.93 115.427 198.946 119.473C196.963 123.52 190.229 124.289 183.906 121.189C177.582 118.09 174.063 112.297 176.046 108.252C178.029 104.205 184.762 103.437 191.087 106.535Z" fill="#F1B633"/>
<path d="M178.535 99.0875L177.265 99.122C174.479 95.4737 168.208 93.0361 160.987 93.2348C153.765 93.4327 147.639 96.2097 145.057 100.006L143.785 100.041L143.748 104.175C143.907 109.951 151.881 114.419 161.56 114.153C171.239 113.887 178.957 108.99 178.799 103.214L178.535 99.0875Z" fill="#F1B633"/>
<path d="M160.876 89.1954C170.472 88.9313 178.378 93.361 178.535 99.0875C178.692 104.815 171.041 109.67 161.445 109.933C151.848 110.197 143.942 105.768 143.785 100.041C143.628 94.3139 151.279 89.4586 160.876 89.1954Z" fill="#F1B633"/>
<path d="M160.856 88.4839C170.462 88.2207 178.387 93.0814 178.559 99.3425C178.731 105.603 171.084 110.892 161.479 111.155C151.874 111.418 143.948 106.557 143.776 100.296C143.604 94.0361 151.252 88.7471 160.856 88.4839Z" fill="#F2CD30"/>
<path d="M160.924 90.9278C168.42 90.7218 174.603 94.4436 174.735 99.2408C174.866 104.037 168.896 108.092 161.4 108.298C153.904 108.503 147.721 104.782 147.59 99.985C147.457 95.1887 153.428 91.1329 160.924 90.9278Z" fill="#EAA00E"/>
<path d="M161.778 91.9624C168.818 91.7691 174.625 95.2649 174.749 99.769C174.872 104.273 169.266 108.082 162.227 108.275C155.187 108.469 149.38 104.974 149.256 100.469C149.133 95.9637 154.739 92.1557 161.778 91.9624Z" fill="#F1B633"/>
<path opacity="0.32" d="M175.523 120.409L174.261 120.246C172.076 116.21 166.259 112.829 159.094 111.904C151.93 110.978 145.445 112.77 142.306 116.119L141.045 115.957L140.366 120.034C139.626 125.765 146.811 131.416 156.414 132.656C166.016 133.896 174.401 130.256 175.141 124.525L175.523 120.409Z" fill="#998329"/>
<path d="M175.523 117.708L174.261 117.545C172.076 113.508 166.259 110.128 159.094 109.202C151.93 108.276 145.445 110.069 142.306 113.418L141.045 113.256L140.366 117.333C139.626 123.064 146.811 128.715 156.414 129.955C166.016 131.195 174.401 127.555 175.141 121.824L175.523 117.708Z" fill="#F1B633"/>
<path d="M159.612 105.193C169.133 106.423 176.255 112.025 175.522 117.707C174.789 123.388 166.476 126.998 156.956 125.768C147.435 124.538 140.312 118.936 141.046 113.255C141.779 107.574 150.092 103.965 159.612 105.193Z" fill="#F1B633"/>
<path d="M159.704 104.488C169.234 105.719 176.309 111.751 175.507 117.963C174.705 124.174 166.329 128.212 156.8 126.981C147.27 125.751 140.195 119.717 140.998 113.506C141.799 107.294 150.174 103.258 159.704 104.488Z" fill="#F2CD30"/>
<path d="M159.391 106.913C166.828 107.873 172.359 112.51 171.744 117.269C171.13 122.028 164.602 125.107 157.166 124.147C149.729 123.187 144.198 118.55 144.813 113.791C145.427 109.031 151.954 105.952 159.391 106.913Z" fill="#EAA00E"/>
<path d="M160.076 108.067C167.06 108.97 172.254 113.324 171.676 117.792C171.099 122.261 164.97 125.153 157.986 124.251C151.001 123.349 145.807 118.995 146.385 114.526C146.962 110.058 153.091 107.165 160.076 108.067Z" fill="#F1B633"/>
<path opacity="0.32" d="M99.0477 125.439C99.0477 133.524 92.4936 140.078 84.4084 140.078C76.3233 140.078 69.77 133.524 69.77 125.439C69.77 117.354 76.3242 110.801 84.4084 110.801C92.4927 110.801 99.0477 117.354 99.0477 125.439Z" fill="#998329"/>
<path d="M96.9428 122.916C96.9428 131.002 90.3886 137.555 82.3035 137.555C74.2183 137.555 67.665 131.001 67.665 122.916C67.665 114.831 74.2192 108.277 82.3035 108.277C90.3877 108.277 96.9428 114.832 96.9428 122.916Z" fill="#F2CD30"/>
<path d="M93.7273 122.916C93.7273 129.226 88.6125 134.34 82.3033 134.34C75.9942 134.34 70.8794 129.226 70.8794 122.916C70.8794 116.607 75.9942 111.492 82.3033 111.492C88.6125 111.492 93.7273 116.607 93.7273 122.916Z" fill="#EAA00E"/>
<path d="M92.337 123.612C92.337 129.538 87.5334 134.341 81.6082 134.341C75.6829 134.341 70.8794 129.538 70.8794 123.612C70.8794 117.687 75.6829 112.884 81.6082 112.884C87.5334 112.884 92.337 117.687 92.337 123.612Z" fill="#F1B633"/>
<path opacity="0.32" d="M147.839 113.568C151.563 120.745 148.764 129.581 141.587 133.304C134.411 137.028 125.575 134.23 121.851 127.053C118.128 119.877 120.926 111.04 128.102 107.317C135.279 103.593 144.115 106.392 147.839 113.568Z" fill="#998329"/>
<path d="M144.809 112.298C148.532 119.475 145.734 128.311 138.557 132.034C131.381 135.758 122.545 132.959 118.821 125.782C115.097 118.607 117.896 109.77 125.072 106.046C132.249 102.323 141.084 105.122 144.809 112.298Z" fill="#F2CD30"/>
<path d="M141.955 113.779C144.861 119.38 142.676 126.275 137.076 129.181C131.476 132.087 124.579 129.903 121.673 124.303C118.767 118.703 120.952 111.806 126.552 108.901C132.153 105.995 139.049 108.179 141.955 113.779Z" fill="#EAA00E"/>
<path d="M141.041 115.037C143.77 120.296 141.719 126.772 136.46 129.501C131.201 132.23 124.724 130.178 121.995 124.919C119.267 119.66 121.318 113.184 126.577 110.455C131.836 107.727 138.312 109.778 141.041 115.037Z" fill="#F1B633"/>
<path opacity="0.32" d="M105.424 118.48C98.2314 122.172 89.4075 119.335 85.7148 112.143C82.022 104.951 84.8599 96.1271 92.052 92.4344C99.2442 88.7417 108.068 91.5795 111.761 98.7716C115.454 105.964 112.617 114.788 105.424 118.48Z" fill="#998329"/>
<path d="M104.523 116.23C97.331 119.922 88.5071 117.085 84.8144 109.892C81.1217 102.7 83.9595 93.8764 91.1516 90.1837C98.3438 86.491 107.168 89.3288 110.86 96.521C114.553 103.713 111.716 112.537 104.523 116.23Z" fill="#F2CD30"/>
<path d="M103.055 113.369C97.4417 116.251 90.5563 114.036 87.674 108.423C84.7926 102.81 87.0069 95.9247 92.62 93.0424C98.233 90.161 105.118 92.3754 108.001 97.9875C110.882 103.601 108.668 110.488 103.055 113.369Z" fill="#EAA00E"/>
<path d="M101.801 112.45C96.5299 115.156 90.0628 113.076 87.3566 107.805C84.6503 102.533 86.7295 96.0672 92.0013 93.361C97.2731 90.6547 103.739 92.7339 106.445 98.0057C109.152 103.277 107.073 109.744 101.801 112.45Z" fill="#F1B633"/>
<path d="M248.378 157.774L247.185 160.285H206.465V245.955L203.656 251.865L206.465 254.374H251.187V160.285L248.378 157.774Z" fill="#58A967"/>
<path d="M248.378 251.865L248.378 157.774H203.657V251.865H248.378Z" fill="#58C670"/>
<path d="M235.509 245.486C235.509 240.85 238.933 238.425 242.519 238.203V171.176H242C240.005 171.176 238.07 170.374 236.659 168.963C235.252 167.556 234.45 165.625 234.447 163.634H217.631C217.644 163.807 217.657 163.98 217.657 164.153C217.657 166.148 216.854 168.084 215.444 169.494C214.034 170.905 212.099 171.707 210.103 171.707H209.571C209.553 171.707 209.534 171.704 209.516 171.704V238.183C213.311 238.16 217.125 240.592 217.125 245.487C217.125 245.666 217.109 245.835 217.1 246.006H235.535C235.525 245.833 235.509 245.665 235.509 245.486Z" fill="#A4E894"/>
<path d="M226.018 218.67C233.331 218.67 239.26 212.741 239.26 205.428C239.26 198.114 233.331 192.185 226.018 192.185C218.704 192.185 212.775 198.114 212.775 205.428C212.775 212.741 218.704 218.67 226.018 218.67Z" fill="#58C670"/>
<path d="M234.166 211.624H234.381C234.851 211.624 235.231 211.244 235.231 210.775V199.819C235.231 199.495 234.967 199.231 234.643 199.231H232.794C232.405 199.231 232.091 199.547 232.091 199.935V200.081C232.091 201.347 231.905 202.281 231.533 202.884C231.317 203.236 231.012 203.482 230.622 203.629V200.081C230.622 199.611 230.241 199.231 229.773 199.231H229.432C228.962 199.231 228.583 199.612 228.583 200.081V203.596C228.225 203.448 227.934 203.22 227.713 202.903C227.3 202.312 227.092 201.397 227.092 200.157V200.081C227.092 199.611 226.712 199.231 226.242 199.231H224.753C224.284 199.231 223.903 199.612 223.903 200.081V200.979L217.204 205.146C216.956 205.302 216.804 205.575 216.804 205.868V208.136C216.804 208.818 217.567 209.223 218.13 208.839C219.598 207.841 221.843 206.33 224.865 204.308C225.346 205.404 226.011 206.253 226.858 206.852C227.386 207.224 227.961 207.481 228.582 207.622V210.775C228.582 211.245 228.962 211.624 229.432 211.624H229.772C230.241 211.624 230.621 211.244 230.621 210.775V207.698C231.712 207.573 232.61 207.203 233.316 206.589V210.774C233.317 211.244 233.697 211.624 234.166 211.624Z" fill="#DDFAD9"/>
<path d="M355.411 194.112H252.528V202.108H355.411V194.112Z" fill="#58C670"/>
<path d="M355.411 200.228H252.528V202.107H355.411V200.228Z" fill="#58A967"/>
<path d="M355.41 194.112H338.808V202.108H355.41V194.112Z" fill="#4DB761"/>
<path d="M355.41 200.228H338.808V202.107H355.41V200.228Z" fill="#4C9B57"/>
<path d="M355.411 201.558H252.528V209.554H355.411V201.558Z" fill="#58C670"/>
<path d="M355.411 207.674H252.528V209.553H355.411V207.674Z" fill="#58A967"/>
<path d="M355.41 201.558H338.808V209.554H355.41V201.558Z" fill="#4DB761"/>
<path d="M355.41 207.674H338.808V209.553H355.41V207.674Z" fill="#4C9B57"/>
<path d="M355.411 209.004H252.528V217.001H355.411V209.004Z" fill="#58C670"/>
<path d="M355.411 215.12H252.528V217H355.411V215.12Z" fill="#58A967"/>
<path d="M355.41 209.004H338.808V217.001H355.41V209.004Z" fill="#4DB761"/>
<path d="M355.41 215.12H338.808V217H355.41V215.12Z" fill="#4C9B57"/>
<path d="M355.411 216.451H252.528V224.447H355.411V216.451Z" fill="#58C670"/>
<path d="M355.411 222.566H252.528V224.446H355.411V222.566Z" fill="#58A967"/>
<path d="M355.41 216.451H338.808V224.447H355.41V216.451Z" fill="#4DB761"/>
<path d="M355.41 222.566H338.808V224.446H355.41V222.566Z" fill="#4C9B57"/>
<path d="M297.369 193.986H288.373V224.421H297.369V193.986Z" fill="#A4E894"/>
<path d="M268.065 232.42H370.948V224.424H268.065V232.42Z" fill="#5CD673"/>
<path d="M268.065 232.419H370.948V230.54H268.065V232.419Z" fill="#58A967"/>
<path d="M268.065 232.42H284.667V224.424H268.065V232.42Z" fill="#4AC65D"/>
<path d="M268.065 232.419H284.667V230.54H268.065V232.419Z" fill="#4C9B57"/>
<path d="M268.065 239.866H370.948V231.87H268.065V239.866Z" fill="#5CD673"/>
<path d="M268.065 239.866H370.948V237.987H268.065V239.866Z" fill="#58A967"/>
<path d="M268.065 239.866H284.667V231.87H268.065V239.866Z" fill="#4AC65D"/>
<path d="M268.065 239.866H284.667V237.987H268.065V239.866Z" fill="#4C9B57"/>
<path d="M268.065 247.312H370.948V239.315H268.065V247.312Z" fill="#5CD673"/>
<path d="M268.065 247.312H370.948V245.433H268.065V247.312Z" fill="#58A967"/>
<path d="M268.065 247.312H284.667V239.315H268.065V247.312Z" fill="#4AC65D"/>
<path d="M268.065 247.312H284.667V245.433H268.065V247.312Z" fill="#4C9B57"/>
<path d="M268.065 254.758H370.948V246.762H268.065V254.758Z" fill="#5CD673"/>
<path d="M268.065 254.758H370.948V252.88H268.065V254.758Z" fill="#58A967"/>
<path d="M268.065 254.758H284.667V246.762H268.065V254.758Z" fill="#4AC65D"/>
<path d="M268.065 254.758H284.667V252.88H268.065V254.758Z" fill="#4C9B57"/>
<path d="M326.106 254.733H335.103V224.298H326.106V254.733Z" fill="#A4E894"/>
<path d="M66.2653 232.42H169.148V224.424H66.2653V232.42Z" fill="#5CD673"/>
<path d="M66.2653 232.419H169.148V230.54H66.2653V232.419Z" fill="#58A967"/>
<path d="M66.2653 232.42H82.8667V224.424H66.2653V232.42Z" fill="#4AC65D"/>
<path d="M66.2653 232.419H82.8667V230.54H66.2653V232.419Z" fill="#4C9B57"/>
<path d="M66.2653 239.866H169.148V231.87H66.2653V239.866Z" fill="#5CD673"/>
<path d="M66.2653 239.866H169.148V237.987H66.2653V239.866Z" fill="#58A967"/>
<path d="M66.2653 239.866H82.8667V231.87H66.2653V239.866Z" fill="#4AC65D"/>
<path d="M66.2653 239.866H82.8667V237.987H66.2653V239.866Z" fill="#4C9B57"/>
<path d="M66.2653 247.312H169.148V239.315H66.2653V247.312Z" fill="#5CD673"/>
<path d="M66.2653 247.312H169.148V245.433H66.2653V247.312Z" fill="#58A967"/>
<path d="M66.2653 247.312H82.8667V239.315H66.2653V247.312Z" fill="#4AC65D"/>
<path d="M66.2653 247.312H82.8667V245.433H66.2653V247.312Z" fill="#4C9B57"/>
<path d="M66.2653 254.758H169.148V246.762H66.2653V254.758Z" fill="#5CD673"/>
<path d="M66.2653 254.758H169.148V252.88H66.2653V254.758Z" fill="#58A967"/>
<path d="M66.2653 254.758H82.8667V246.762H66.2653V254.758Z" fill="#4AC65D"/>
<path d="M66.2653 254.758H82.8667V252.88H66.2653V254.758Z" fill="#4C9B57"/>
<path d="M124.306 254.733H133.302V224.298H124.306V254.733Z" fill="#A4E894"/>
<path d="M202.583 254.758H167.279C166.303 254.758 165.512 253.968 165.512 252.992V249.607C165.512 248.632 166.302 247.841 167.279 247.841H202.583C203.559 247.841 204.349 248.632 204.349 249.607V252.992C204.349 253.968 203.559 254.758 202.583 254.758Z" fill="#F1B633"/>
<path d="M202.881 247.84H196.342V254.758H202.881C203.693 254.758 204.349 254.101 204.349 253.291V249.309C204.349 248.498 203.692 247.84 202.881 247.84Z" fill="#FAC55D"/>
<path d="M190.241 247.84H171.947V254.758H190.241V247.84Z" fill="#FAC55D"/>
<path d="M204.115 248.517C203.854 248.112 203.4 247.84 202.882 247.84H166.98C166.461 247.84 166.007 248.112 165.747 248.517H204.115Z" fill="#E0A022"/>
<path d="M165.749 254.069C166.006 254.481 166.457 254.758 166.979 254.758H202.881C203.403 254.758 203.854 254.481 204.112 254.069H165.749Z" fill="#E0A022"/>
<path d="M200.882 247.915H165.578C164.602 247.915 163.812 247.123 163.812 246.149V242.763C163.812 241.788 164.603 240.997 165.578 240.997H200.882C201.857 240.997 202.648 241.788 202.648 242.763V246.149C202.649 247.123 201.858 247.915 200.882 247.915Z" fill="#F1B633"/>
<path d="M201.18 240.996H194.642V247.915H201.18C201.991 247.915 202.649 247.257 202.649 246.446V242.464C202.649 241.653 201.991 240.996 201.18 240.996Z" fill="#FAC55D"/>
<path d="M188.54 240.996H170.247V247.915H188.54V240.996Z" fill="#FAC55D"/>
<path d="M202.414 241.673C202.153 241.267 201.7 240.996 201.181 240.996H165.28C164.761 240.996 164.307 241.267 164.046 241.673H202.414Z" fill="#E0A022"/>
<path d="M164.048 247.226C164.306 247.637 164.757 247.915 165.28 247.915H201.181C201.703 247.915 202.154 247.637 202.411 247.226H164.048Z" fill="#E0A022"/>
<path d="M202.394 241.07H167.089C166.113 241.07 165.323 240.28 165.323 239.304V235.92C165.323 234.944 166.114 234.153 167.089 234.153H202.393C203.369 234.153 204.159 234.944 204.159 235.92V239.304C204.16 240.28 203.37 241.07 202.394 241.07Z" fill="#F1B633"/>
<path d="M202.692 234.152H196.153V241.07H202.692C203.503 241.07 204.16 240.413 204.16 239.603V235.62C204.16 234.81 203.502 234.152 202.692 234.152Z" fill="#FAC55D"/>
<path d="M190.051 234.152H171.758V241.07H190.051V234.152Z" fill="#FAC55D"/>
<path d="M203.925 234.83C203.665 234.423 203.211 234.152 202.693 234.152H166.791C166.272 234.152 165.818 234.423 165.558 234.83H203.925Z" fill="#E0A022"/>
<path d="M165.56 240.381C165.817 240.793 166.268 241.07 166.79 241.07H202.692C203.214 241.07 203.664 240.793 203.923 240.381H165.56Z" fill="#E0A022"/>
<path d="M204.094 234.226H168.789C167.813 234.226 167.023 233.436 167.023 232.46V229.075C167.023 228.1 167.813 227.309 168.789 227.309H204.094C205.069 227.309 205.86 228.1 205.86 229.075V232.46C205.86 233.436 205.069 234.226 204.094 234.226Z" fill="#F1B633"/>
<path d="M204.392 227.308H197.852V234.226H204.392C205.203 234.226 205.859 233.568 205.859 232.759V228.776C205.859 227.966 205.202 227.308 204.392 227.308Z" fill="#FAC55D"/>
<path d="M191.751 227.308H173.458V234.226H191.751V227.308Z" fill="#FAC55D"/>
<path d="M205.625 227.985C205.364 227.58 204.91 227.308 204.392 227.308H168.49C167.971 227.308 167.518 227.58 167.257 227.985H205.625Z" fill="#E0A022"/>
<path d="M167.26 233.537C167.518 233.949 167.968 234.226 168.49 234.226H204.392C204.914 234.226 205.365 233.949 205.624 233.537H167.26Z" fill="#E0A022"/>
<path d="M200.694 227.383H165.39C164.414 227.383 163.624 226.591 163.624 225.616V222.232C163.624 221.256 164.414 220.466 165.39 220.466H200.694C201.669 220.466 202.46 221.256 202.46 222.232V225.616C202.46 226.591 201.669 227.383 200.694 227.383Z" fill="#F1B633"/>
<path d="M200.992 220.465H194.453V227.383H200.992C201.803 227.383 202.46 226.725 202.46 225.914V221.932C202.46 221.122 201.802 220.465 200.992 220.465Z" fill="#FAC55D"/>
<path d="M188.351 220.465H170.058V227.383H188.351V220.465Z" fill="#FAC55D"/>
<path d="M202.225 221.142C201.965 220.735 201.511 220.465 200.992 220.465H165.09C164.571 220.465 164.118 220.735 163.857 221.142H202.225Z" fill="#E0A022"/>
<path d="M163.859 226.693C164.118 227.105 164.568 227.383 165.091 227.383H200.993C201.515 227.383 201.966 227.105 202.223 226.693H163.859Z" fill="#E0A022"/>
<path d="M203.149 220.538H167.846C166.87 220.538 166.079 219.748 166.079 218.772V215.387C166.079 214.412 166.87 213.621 167.846 213.621H203.149C204.125 213.621 204.916 214.412 204.916 215.387V218.772C204.916 219.748 204.125 220.538 203.149 220.538Z" fill="#F1B633"/>
<path d="M203.448 213.62H196.908V220.538H203.448C204.259 220.538 204.916 219.881 204.916 219.071V215.088C204.916 214.278 204.258 213.62 203.448 213.62Z" fill="#FAC55D"/>
<path d="M190.807 213.62H172.514V220.538H190.807V213.62Z" fill="#FAC55D"/>
<path d="M204.681 214.297C204.42 213.891 203.967 213.62 203.448 213.62H167.546C167.027 213.62 166.573 213.891 166.313 214.297H204.681Z" fill="#E0A022"/>
<path d="M166.315 219.849C166.573 220.26 167.024 220.538 167.546 220.538H203.448C203.971 220.538 204.421 220.26 204.678 219.849H166.315Z" fill="#E0A022"/>
<path d="M205.794 213.694H170.489C169.514 213.694 168.723 212.903 168.723 211.928V208.543C168.723 207.568 169.515 206.777 170.489 206.777H205.794C206.769 206.777 207.561 207.568 207.561 208.543V211.928C207.561 212.903 206.769 213.694 205.794 213.694Z" fill="#F1B633"/>
<path d="M206.092 206.776H199.553V213.694H206.092C206.903 213.694 207.56 213.036 207.56 212.226V208.244C207.56 207.433 206.903 206.776 206.092 206.776Z" fill="#FAC55D"/>
<path d="M193.451 206.776H175.158V213.694H193.451V206.776Z" fill="#FAC55D"/>
<path d="M207.326 207.453C207.065 207.047 206.612 206.776 206.093 206.776H170.191C169.672 206.776 169.218 207.047 168.958 207.453H207.326Z" fill="#E0A022"/>
<path d="M168.96 213.006C169.218 213.417 169.669 213.694 170.191 213.694H206.092C206.615 213.694 207.065 213.417 207.323 213.006H168.96Z" fill="#E0A022"/>
<path d="M204.661 206.851H169.357C168.382 206.851 167.59 206.059 167.59 205.084V201.7C167.59 200.724 168.382 199.933 169.357 199.933H204.661C205.637 199.933 206.428 200.724 206.428 201.7V205.084C206.428 206.059 205.637 206.851 204.661 206.851Z" fill="#F1B633"/>
<path d="M204.959 199.932H198.419V206.851H204.959C205.77 206.851 206.427 206.193 206.427 205.382V201.4C206.427 200.59 205.769 199.932 204.959 199.932Z" fill="#FAC55D"/>
<path d="M192.318 199.932H174.025V206.851H192.318V199.932Z" fill="#FAC55D"/>
<path d="M206.193 200.61C205.932 200.203 205.478 199.932 204.959 199.932H169.058C168.538 199.932 168.086 200.203 167.824 200.61H206.193Z" fill="#E0A022"/>
<path d="M167.827 206.161C168.086 206.573 168.536 206.851 169.059 206.851H204.96C205.483 206.851 205.933 206.573 206.191 206.161H167.827Z" fill="#E0A022"/>
<path d="M201.639 200.006H166.334C165.358 200.006 164.568 199.216 164.568 198.24V194.855C164.568 193.879 165.359 193.089 166.334 193.089H201.639C202.614 193.089 203.405 193.879 203.405 194.855V198.24C203.405 199.216 202.614 200.006 201.639 200.006Z" fill="#F1B633"/>
<path d="M201.937 193.088H195.397V200.006H201.937C202.748 200.006 203.404 199.348 203.404 198.539V194.556C203.404 193.746 202.747 193.088 201.937 193.088Z" fill="#FAC55D"/>
<path d="M189.296 193.088H171.003V200.006H189.296V193.088Z" fill="#FAC55D"/>
<path d="M203.17 193.765C202.909 193.359 202.456 193.088 201.937 193.088H166.035C165.516 193.088 165.062 193.359 164.802 193.765H203.17Z" fill="#E0A022"/>
<path d="M164.804 199.317C165.062 199.728 165.513 200.006 166.035 200.006H201.937C202.459 200.006 202.909 199.728 203.167 199.317H164.804Z" fill="#E0A022"/>
<path d="M204.661 192.918H169.357C168.382 192.918 167.59 192.128 167.59 191.152V187.768C167.59 186.793 168.382 186.001 169.357 186.001H204.661C205.637 186.001 206.428 186.793 206.428 187.768V191.152C206.428 192.128 205.637 192.918 204.661 192.918Z" fill="#F1B633"/>
<path d="M204.959 186H198.419V192.918H204.959C205.77 192.918 206.427 192.261 206.427 191.451V187.469C206.427 186.657 205.769 186 204.959 186Z" fill="#FAC55D"/>
<path d="M192.318 186H174.025V192.918H192.318V186Z" fill="#FAC55D"/>
<path d="M206.193 186.678C205.932 186.272 205.478 186 204.959 186H169.058C168.538 186 168.086 186.272 167.824 186.678H206.193Z" fill="#E0A022"/>
<path d="M167.827 192.23C168.086 192.642 168.536 192.918 169.059 192.918H204.96C205.483 192.918 205.933 192.642 206.191 192.23H167.827Z" fill="#E0A022"/>
<path d="M201.639 186.075H166.334C165.358 186.075 164.568 185.284 164.568 184.309V180.924C164.568 179.948 165.359 179.158 166.334 179.158H201.639C202.614 179.158 203.405 179.948 203.405 180.924V184.309C203.405 185.283 202.614 186.075 201.639 186.075Z" fill="#F1B633"/>
<path d="M201.937 179.157H195.397V186.075H201.937C202.748 186.075 203.404 185.417 203.404 184.607V180.624C203.404 179.814 202.747 179.157 201.937 179.157Z" fill="#FAC55D"/>
<path d="M189.296 179.157H171.003V186.075H189.296V179.157Z" fill="#FAC55D"/>
<path d="M203.17 179.834C202.909 179.428 202.456 179.157 201.937 179.157H166.035C165.516 179.157 165.062 179.428 164.802 179.834H203.17Z" fill="#E0A022"/>
<path d="M164.804 185.386C165.062 185.797 165.513 186.075 166.035 186.075H201.937C202.459 186.075 202.909 185.797 203.167 185.386H164.804Z" fill="#E0A022"/>
<path d="M288.264 254.758H252.958C251.984 254.758 251.192 253.968 251.192 252.992V249.607C251.192 248.632 251.984 247.841 252.958 247.841H288.263C289.239 247.841 290.029 248.632 290.029 249.607V252.992C290.03 253.968 289.24 254.758 288.264 254.758Z" fill="#F1B633"/>
<path d="M288.563 247.84H282.023V254.758H288.563C289.374 254.758 290.03 254.101 290.03 253.291V249.308C290.03 248.498 289.373 247.84 288.563 247.84Z" fill="#FAC55D"/>
<path d="M275.921 247.84H257.628V254.758H275.921V247.84Z" fill="#FAC55D"/>
<path d="M289.796 248.517C289.535 248.111 289.081 247.84 288.563 247.84H252.661C252.142 247.84 251.688 248.111 251.428 248.517H289.796Z" fill="#E0A022"/>
<path d="M251.43 254.069C251.688 254.48 252.138 254.758 252.661 254.758H288.563C289.084 254.758 289.535 254.48 289.793 254.069H251.43Z" fill="#E0A022"/>
<path d="M286.565 247.915H251.26C250.285 247.915 249.494 247.123 249.494 246.149V242.763C249.494 241.788 250.285 240.997 251.26 240.997H286.565C287.54 240.997 288.331 241.788 288.331 242.763V246.149C288.331 247.123 287.54 247.915 286.565 247.915Z" fill="#F1B633"/>
<path d="M286.862 240.996H280.323V247.915H286.862C287.672 247.915 288.33 247.257 288.33 246.446V242.464C288.33 241.653 287.672 240.996 286.862 240.996Z" fill="#FAC55D"/>
<path d="M274.222 240.996H255.928V247.915H274.222V240.996Z" fill="#FAC55D"/>
<path d="M288.095 241.673C287.835 241.267 287.381 240.996 286.862 240.996H250.96C250.442 240.996 249.988 241.267 249.727 241.673H288.095Z" fill="#E0A022"/>
<path d="M249.73 247.226C249.989 247.637 250.439 247.915 250.961 247.915H286.862C287.385 247.915 287.835 247.637 288.093 247.226H249.73Z" fill="#E0A022"/>
<path d="M288.076 241.07H252.771C251.795 241.07 251.005 240.279 251.005 239.304V235.92C251.005 234.944 251.795 234.153 252.771 234.153H288.076C289.051 234.153 289.842 234.944 289.842 235.92V239.304C289.842 240.279 289.051 241.07 288.076 241.07Z" fill="#F1B633"/>
<path d="M288.374 234.152H281.834V241.07H288.374C289.184 241.07 289.841 240.413 289.841 239.602V235.62C289.841 234.81 289.183 234.152 288.374 234.152Z" fill="#FAC55D"/>
<path d="M275.733 234.152H257.44V241.07H275.733V234.152Z" fill="#FAC55D"/>
<path d="M289.607 234.83C289.346 234.423 288.892 234.152 288.374 234.152H252.471C251.953 234.152 251.499 234.423 251.239 234.83H289.607Z" fill="#E0A022"/>
<path d="M251.24 240.381C251.499 240.793 251.949 241.07 252.471 241.07H288.374C288.895 241.07 289.345 240.793 289.604 240.381H251.24Z" fill="#E0A022"/>
<path d="M289.776 234.226H254.471C253.496 234.226 252.705 233.436 252.705 232.46V229.075C252.705 228.1 253.496 227.309 254.471 227.309H289.776C290.751 227.309 291.542 228.1 291.542 229.075V232.46C291.542 233.436 290.751 234.226 289.776 234.226Z" fill="#F1B633"/>
<path d="M290.074 227.308H283.534V234.226H290.074C290.885 234.226 291.541 233.568 291.541 232.759V228.776C291.541 227.966 290.884 227.308 290.074 227.308Z" fill="#FAC55D"/>
<path d="M277.433 227.308H259.14V234.226H277.433V227.308Z" fill="#FAC55D"/>
<path d="M291.307 227.985C291.046 227.58 290.592 227.308 290.074 227.308H254.172C253.653 227.308 253.199 227.58 252.939 227.985H291.307Z" fill="#E0A022"/>
<path d="M252.942 233.537C253.2 233.949 253.65 234.226 254.173 234.226H290.075C290.597 234.226 291.048 233.949 291.306 233.537H252.942Z" fill="#E0A022"/>
<path d="M286.375 227.383H251.071C250.095 227.383 249.305 226.591 249.305 225.616V222.232C249.305 221.256 250.095 220.465 251.071 220.465H286.375C287.35 220.465 288.141 221.256 288.141 222.232V225.616C288.141 226.591 287.35 227.383 286.375 227.383Z" fill="#F1B633"/>
<path d="M286.673 220.465H280.134V227.383H286.673C287.483 227.383 288.141 226.725 288.141 225.914V221.932C288.141 221.122 287.483 220.465 286.673 220.465Z" fill="#FAC55D"/>
<path d="M274.032 220.465H255.739V227.383H274.032V220.465Z" fill="#FAC55D"/>
<path d="M287.906 221.142C287.646 220.735 287.192 220.465 286.673 220.465H250.771C250.253 220.465 249.799 220.735 249.538 221.142H287.906Z" fill="#E0A022"/>
<path d="M249.541 226.693C249.798 227.105 250.249 227.383 250.771 227.383H286.673C287.196 227.383 287.646 227.105 287.904 226.693H249.541Z" fill="#E0A022"/>
<path d="M288.83 220.538H253.527C252.551 220.538 251.761 219.748 251.761 218.772V215.387C251.761 214.412 252.551 213.621 253.527 213.621H288.83C289.806 213.621 290.597 214.412 290.597 215.387V218.772C290.597 219.748 289.806 220.538 288.83 220.538Z" fill="#F1B633"/>
<path d="M289.129 213.62H282.59V220.538H289.129C289.94 220.538 290.597 219.881 290.597 219.071V215.088C290.597 214.278 289.939 213.62 289.129 213.62Z" fill="#FAC55D"/>
<path d="M276.488 213.62H258.195V220.538H276.488V213.62Z" fill="#FAC55D"/>
<path d="M290.362 214.297C290.101 213.891 289.648 213.62 289.129 213.62H253.227C252.708 213.62 252.255 213.891 251.994 214.297H290.362Z" fill="#E0A022"/>
<path d="M251.997 219.849C252.254 220.26 252.705 220.538 253.227 220.538H289.129C289.652 220.538 290.102 220.26 290.36 219.849H251.997Z" fill="#E0A022"/>
<path opacity="0.32" d="M312.66 226.608C319.356 232.441 320.055 242.598 314.221 249.295C308.388 255.991 298.231 256.689 291.534 250.856C284.838 245.022 284.14 234.865 289.973 228.169C295.807 221.472 305.965 220.773 312.66 226.608Z" fill="#998329"/>
<path d="M310.894 226.816C317.722 232.765 318.435 243.124 312.486 249.952C306.537 256.78 296.178 257.494 289.35 251.544C282.521 245.594 281.808 235.236 287.757 228.407C293.707 221.579 304.066 220.866 310.894 226.816Z" fill="#F2CD30"/>
<path d="M308.529 229.531C313.858 234.173 314.413 242.256 309.771 247.586C305.129 252.916 297.045 253.471 291.716 248.829C286.387 244.186 285.831 236.103 290.474 230.773C295.116 225.444 303.2 224.888 308.529 229.531Z" fill="#EAA00E"/>
<path d="M308.092 231.218C313.097 235.578 313.619 243.169 309.258 248.174C304.898 253.179 297.307 253.702 292.302 249.341C287.297 244.98 286.774 237.389 291.135 232.384C295.496 227.379 303.088 226.857 308.092 231.218Z" fill="#F1B633"/>
<path d="M305.127 234.45V234.279C305.127 233.905 304.824 233.603 304.451 233.603H295.736C295.479 233.603 295.268 233.812 295.268 234.07V235.541C295.268 235.852 295.519 236.102 295.829 236.102H295.944C296.951 236.102 297.695 236.249 298.174 236.544C298.454 236.717 298.65 236.96 298.767 237.27H295.944C295.571 237.27 295.268 237.572 295.268 237.946V238.217C295.268 238.59 295.571 238.893 295.944 238.893H298.74C298.623 239.177 298.441 239.408 298.189 239.585C297.719 239.914 296.992 240.078 296.006 240.078H295.945C295.572 240.078 295.269 240.381 295.269 240.754V241.939C295.269 242.312 295.572 242.615 295.945 242.615H296.66L299.975 247.944C300.099 248.142 300.315 248.263 300.549 248.263H302.352C302.896 248.263 303.218 247.657 302.912 247.208C302.118 246.041 300.917 244.254 299.307 241.851C300.18 241.468 300.854 240.94 301.329 240.266C301.626 239.846 301.831 239.387 301.943 238.894H304.451C304.824 238.894 305.127 238.591 305.127 238.218V237.947C305.127 237.573 304.824 237.271 304.451 237.271H302.004C301.905 236.403 301.61 235.688 301.121 235.127H304.451C304.824 235.127 305.127 234.823 305.127 234.45Z" fill="#FFECCC"/>
<path d="M125.254 179.345C125.664 179.013 126.064 178.622 126.455 178.173C126.846 177.704 127.197 177.206 127.51 176.679C127.822 176.151 128.076 175.614 128.271 175.067C128.467 174.501 128.564 173.954 128.564 173.427C128.564 172.997 128.506 172.567 128.389 172.138C128.271 171.708 128.086 171.327 127.832 170.995C127.598 170.663 127.295 170.39 126.924 170.175C126.553 169.96 126.113 169.852 125.605 169.852C125.098 169.852 124.463 169.989 123.701 170.263C122.939 170.536 122.061 171.122 121.064 172.02V172.167C121.064 172.694 120.947 173.309 120.713 174.013C120.479 174.696 120.117 175.36 119.629 176.005C119.141 176.649 118.525 177.216 117.783 177.704C117.041 178.173 116.162 178.446 115.146 178.524C116.924 180.907 118.887 183.095 121.035 185.087C123.203 187.079 125.566 189.003 128.125 190.858L124.492 194.638C122.363 193.095 120.352 191.503 118.457 189.862C116.562 188.222 114.805 186.522 113.184 184.765C111.562 183.007 110.088 181.181 108.76 179.286C107.432 177.372 106.279 175.37 105.303 173.28L110.107 169.618C110.166 169.774 110.254 169.989 110.371 170.263C110.488 170.536 110.615 170.819 110.752 171.112C110.889 171.405 111.016 171.688 111.133 171.962C111.25 172.235 111.348 172.44 111.426 172.577C111.641 172.909 111.875 173.173 112.129 173.368C112.383 173.563 112.666 173.661 112.979 173.661C113.232 173.661 113.457 173.573 113.652 173.397C113.848 173.222 114.014 173.007 114.15 172.753C114.287 172.499 114.385 172.235 114.443 171.962C114.521 171.688 114.561 171.464 114.561 171.288V160.243H103.311V155.233H141.484V160.243H121.064V167.245C121.904 166.659 122.812 166.19 123.789 165.839C124.766 165.487 125.859 165.311 127.07 165.311C128.32 165.311 129.424 165.536 130.381 165.985C131.357 166.434 132.168 167.03 132.812 167.772C133.477 168.495 133.975 169.335 134.307 170.292C134.639 171.229 134.805 172.196 134.805 173.192C134.805 174.11 134.629 175.018 134.277 175.917C133.945 176.815 133.486 177.694 132.9 178.554C132.314 179.393 131.621 180.184 130.82 180.927C130.039 181.669 129.189 182.333 128.271 182.919L125.254 179.345Z" fill="#4D3707"/>
<path d="M267.735 146.674C268.146 146.342 268.546 145.951 268.937 145.502C269.327 145.033 269.679 144.535 269.991 144.008C270.304 143.48 270.558 142.943 270.753 142.396C270.948 141.83 271.046 141.283 271.046 140.756C271.046 140.326 270.987 139.896 270.87 139.467C270.753 139.037 270.567 138.656 270.313 138.324C270.079 137.992 269.776 137.719 269.405 137.504C269.034 137.289 268.595 137.181 268.087 137.181C267.579 137.181 266.944 137.318 266.183 137.592C265.421 137.865 264.542 138.451 263.546 139.349V139.496C263.546 140.023 263.429 140.638 263.194 141.342C262.96 142.025 262.599 142.689 262.11 143.334C261.622 143.978 261.007 144.545 260.265 145.033C259.522 145.502 258.644 145.775 257.628 145.853C259.405 148.236 261.368 150.424 263.517 152.416C265.685 154.408 268.048 156.332 270.606 158.187L266.974 161.967C264.845 160.424 262.833 158.832 260.938 157.191C259.044 155.551 257.286 153.851 255.665 152.094C254.044 150.336 252.569 148.51 251.241 146.615C249.913 144.701 248.761 142.699 247.784 140.609L252.589 136.947C252.647 137.103 252.735 137.318 252.853 137.592C252.97 137.865 253.097 138.148 253.233 138.441C253.37 138.734 253.497 139.017 253.614 139.291C253.731 139.564 253.829 139.769 253.907 139.906C254.122 140.238 254.356 140.502 254.61 140.697C254.864 140.892 255.147 140.99 255.46 140.99C255.714 140.99 255.938 140.902 256.134 140.726C256.329 140.551 256.495 140.336 256.632 140.082C256.769 139.828 256.866 139.564 256.925 139.291C257.003 139.017 257.042 138.793 257.042 138.617V127.572H245.792V122.562H283.966V127.572H263.546V134.574C264.386 133.988 265.294 133.519 266.271 133.168C267.247 132.816 268.341 132.64 269.552 132.64C270.802 132.64 271.905 132.865 272.862 133.314C273.839 133.763 274.649 134.359 275.294 135.101C275.958 135.824 276.456 136.664 276.788 137.621C277.12 138.558 277.286 139.525 277.286 140.521C277.286 141.439 277.11 142.347 276.759 143.246C276.427 144.144 275.968 145.023 275.382 145.883C274.796 146.722 274.103 147.513 273.302 148.256C272.521 148.998 271.671 149.662 270.753 150.248L267.735 146.674Z" fill="#645848"/>
</svg>
