
<svg width="378" height="378" viewBox="0 0 378 378" fill="none" xmlns="http://www.w3.org/2000/svg">
<path d="M189.003 334.086C269.131 334.086 334.088 269.129 334.088 189C334.088 108.871 269.131 43.9143 189.003 43.9143C108.874 43.9143 43.917 108.871 43.917 189C43.917 269.129 108.874 334.086 189.003 334.086Z" fill="#EAF4E9"/>
<path d="M283.5 283.5C335.691 231.309 335.691 146.691 283.5 94.5C231.309 42.3091 146.691 42.3091 94.5 94.5C42.3091 146.691 42.3091 231.309 94.5 283.5C146.691 335.691 231.309 335.691 283.5 283.5Z" fill="white"/>
<path d="M176.401 84.5525C142.231 84.5525 113.518 107.875 105.291 139.469H88.7529L114.851 174.351L140.949 139.469H127.736C135.214 119.872 154.175 105.95 176.4 105.95C185.346 105.95 193.754 108.22 201.105 112.195C204.276 105.857 207.767 99.6994 211.448 93.6489V93.4383C201.031 87.7726 189.093 84.5525 176.401 84.5525Z" fill="#389A34"/>
<path d="M206.705 281.983C240.874 281.983 269.587 258.66 277.815 227.067H294.352L268.254 192.184L242.156 227.067H255.369C247.891 246.664 228.93 260.586 206.705 260.586C197.759 260.586 189.351 258.316 182 254.341C178.829 260.679 175.339 266.836 171.657 272.887V273.098C182.075 278.762 194.013 281.983 206.705 281.983Z" fill="#389A34"/>
<path d="M263.674 180.082C284.808 171.328 294.844 147.099 286.089 125.965C277.335 104.831 253.106 94.7948 231.972 103.549C210.838 112.303 200.802 136.532 209.556 157.667C218.31 178.801 242.54 188.837 263.674 180.082Z" fill="#E6BB4E"/>
<path d="M279.873 147.018C282.746 129.316 270.725 112.638 253.023 109.765C235.322 106.892 218.643 118.913 215.771 136.614C212.898 154.316 224.919 170.995 242.62 173.867C260.321 176.74 277 164.719 279.873 147.018Z" fill="#C48649"/>
<path d="M275.623 146.328C278.115 130.974 267.688 116.507 252.334 114.015C236.98 111.523 222.514 121.95 220.022 137.304C217.53 152.659 227.957 167.126 243.31 169.618C258.664 172.109 273.131 161.682 275.623 146.328Z" fill="#E0954E"/>
<path d="M125.07 266.073C147.945 266.073 166.489 247.529 166.489 224.655C166.489 201.78 147.945 183.236 125.07 183.236C102.195 183.236 83.6514 201.78 83.6514 224.655C83.6514 247.529 102.195 266.073 125.07 266.073Z" fill="#E6BB4E"/>
<path d="M125.071 257.125C143.003 257.125 157.541 242.587 157.541 224.655C157.541 206.722 143.003 192.184 125.071 192.184C107.138 192.184 92.6006 206.722 92.6006 224.655C92.6006 242.587 107.138 257.125 125.071 257.125Z" fill="#C48649"/>
<path d="M125.071 252.818C140.625 252.818 153.235 240.209 153.235 224.654C153.235 209.1 140.625 196.491 125.071 196.491C109.516 196.491 96.9067 209.1 96.9067 224.654C96.9067 240.209 109.516 252.818 125.071 252.818Z" fill="#E0954E"/>
<path d="M129.418 238.913C129.828 238.581 130.229 238.19 130.619 237.741C131.01 237.272 131.361 236.774 131.674 236.247C131.986 235.72 132.24 235.182 132.436 234.636C132.631 234.069 132.729 233.522 132.729 232.995C132.729 232.565 132.67 232.136 132.553 231.706C132.436 231.276 132.25 230.895 131.996 230.563C131.762 230.231 131.459 229.958 131.088 229.743C130.717 229.528 130.277 229.421 129.77 229.421C129.262 229.421 128.627 229.557 127.865 229.831C127.104 230.104 126.225 230.69 125.229 231.589V231.735C125.229 232.263 125.111 232.878 124.877 233.581C124.643 234.265 124.281 234.929 123.793 235.573C123.305 236.218 122.689 236.784 121.947 237.272C121.205 237.741 120.326 238.015 119.311 238.093C121.088 240.475 123.051 242.663 125.199 244.655C127.367 246.647 129.73 248.571 132.289 250.427L128.656 254.206C126.527 252.663 124.516 251.071 122.621 249.431C120.727 247.79 118.969 246.091 117.348 244.333C115.727 242.575 114.252 240.749 112.924 238.854C111.596 236.94 110.443 234.938 109.467 232.849L114.271 229.186C114.33 229.343 114.418 229.557 114.535 229.831C114.652 230.104 114.779 230.388 114.916 230.681C115.053 230.974 115.18 231.257 115.297 231.53C115.414 231.804 115.512 232.009 115.59 232.145C115.805 232.477 116.039 232.741 116.293 232.936C116.547 233.132 116.83 233.229 117.143 233.229C117.396 233.229 117.621 233.141 117.816 232.966C118.012 232.79 118.178 232.575 118.314 232.321C118.451 232.067 118.549 231.804 118.607 231.53C118.686 231.257 118.725 231.032 118.725 230.856V219.811H107.475V214.802H145.648V219.811H125.229V226.813C126.068 226.227 126.977 225.759 127.953 225.407C128.93 225.056 130.023 224.88 131.234 224.88C132.484 224.88 133.588 225.104 134.545 225.554C135.521 226.003 136.332 226.599 136.977 227.341C137.641 228.063 138.139 228.903 138.471 229.86C138.803 230.798 138.969 231.765 138.969 232.761C138.969 233.679 138.793 234.587 138.441 235.485C138.109 236.384 137.65 237.263 137.064 238.122C136.479 238.962 135.785 239.753 134.984 240.495C134.203 241.237 133.354 241.901 132.436 242.487L129.418 238.913Z" fill="#FFDE98"/>
<path d="M252.226 156.088C252.636 155.756 253.037 155.366 253.427 154.916C253.818 154.448 254.169 153.95 254.482 153.422C254.794 152.895 255.048 152.358 255.244 151.811C255.439 151.245 255.537 150.698 255.537 150.17C255.537 149.741 255.478 149.311 255.361 148.881C255.244 148.452 255.058 148.071 254.804 147.739C254.57 147.407 254.267 147.133 253.896 146.918C253.525 146.703 253.085 146.596 252.578 146.596C252.07 146.596 251.435 146.733 250.673 147.006C249.912 147.28 249.033 147.866 248.037 148.764V148.911C248.037 149.438 247.919 150.053 247.685 150.756C247.451 151.44 247.089 152.104 246.601 152.748C246.113 153.393 245.498 153.959 244.755 154.448C244.013 154.916 243.134 155.19 242.119 155.268C243.896 157.651 245.859 159.838 248.007 161.83C250.175 163.823 252.539 165.746 255.097 167.602L251.464 171.381C249.335 169.838 247.324 168.246 245.429 166.606C243.535 164.965 241.777 163.266 240.156 161.508C238.535 159.75 237.06 157.924 235.732 156.03C234.404 154.116 233.251 152.114 232.275 150.024L237.08 146.362C237.138 146.518 237.226 146.733 237.343 147.006C237.46 147.28 237.587 147.563 237.724 147.856C237.861 148.149 237.988 148.432 238.105 148.705C238.222 148.979 238.32 149.184 238.398 149.321C238.613 149.653 238.847 149.916 239.101 150.112C239.355 150.307 239.638 150.405 239.951 150.405C240.205 150.405 240.429 150.317 240.625 150.141C240.82 149.965 240.986 149.75 241.123 149.496C241.259 149.243 241.357 148.979 241.416 148.705C241.494 148.432 241.533 148.207 241.533 148.032V136.987H230.283V131.977H268.457V136.987H248.037V143.989C248.876 143.403 249.785 142.934 250.761 142.582C251.738 142.231 252.832 142.055 254.042 142.055C255.292 142.055 256.396 142.28 257.353 142.729C258.33 143.178 259.14 143.774 259.785 144.516C260.449 145.239 260.947 146.078 261.279 147.036C261.611 147.973 261.777 148.94 261.777 149.936C261.777 150.854 261.601 151.762 261.25 152.661C260.917 153.559 260.458 154.438 259.873 155.297C259.287 156.137 258.593 156.928 257.792 157.67C257.011 158.412 256.162 159.077 255.244 159.662L252.226 156.088Z" fill="#FFDE98"/>
</svg>
