<svg width="188" height="150" viewBox="0 0 188 150" fill="none" xmlns="http://www.w3.org/2000/svg">
<g filter="url(#filter0_b_49_1329)">
<path d="M170.993 67.3823C169.169 65.1836 166.971 63.3451 164.567 61.8487C159.294 58.5138 153.106 57.096 146.937 57.7487C146.752 57.2681 146.472 56.7711 146.225 56.3055C145.983 55.8321 145.637 54.8284 145.248 54.1629L144.188 52.6036C143.677 51.7034 143.063 50.898 142.383 50.099C142.35 49.978 142.283 49.8256 142.174 49.6572L141.949 49.5173C140.156 47.3375 138.083 45.4651 135.726 43.8976L135.307 43.6367C134.24 42.9727 133.133 42.3847 131.969 41.8771L131.512 41.5925C130.28 41.0321 128.981 40.5941 127.649 40.2936C110.65 36.1737 96.3491 48.7012 92.5837 65.0876C90.8979 73.6096 91.0847 82.4084 93.1146 90.8092C96.2542 102.71 100.589 114.191 106.072 125.117L106.696 126.357L107.993 126.365C119.944 126.238 131.801 124.835 143.422 122.174C151.637 120.149 159.325 116.199 165.85 110.689C178.154 99.6167 182.32 80.7814 170.993 67.3823Z" fill="url(#paint0_linear_49_1329)"/>
</g>
<g opacity="0.5" filter="url(#filter1_f_49_1329)">
<path d="M146.028 73.1037C144.877 71.7162 143.491 70.556 141.974 69.6117C138.646 67.5073 134.741 66.6126 130.848 67.0244C130.731 66.7212 130.555 66.4075 130.399 66.1137C130.246 65.815 130.028 65.1816 129.782 64.7617L129.113 63.7777C128.791 63.2096 128.403 62.7014 127.974 62.1972C127.953 62.1209 127.911 62.0247 127.843 61.9184L127.701 61.8301C126.569 60.4546 125.261 59.273 123.773 58.2838L123.509 58.1192C122.836 57.7002 122.138 57.3291 121.403 57.0088L121.114 56.8293C120.337 56.4756 119.517 56.1992 118.676 56.0096C107.949 53.4098 98.9251 61.3152 96.549 71.6556C95.4852 77.0333 95.6031 82.5857 96.884 87.887C98.8652 95.397 101.601 102.642 105.061 109.537L105.454 110.319L106.273 110.324C113.814 110.244 121.297 109.359 128.63 107.679C133.814 106.402 138.666 103.909 142.783 100.432C150.547 93.4448 153.176 81.559 146.028 73.1037Z" fill="#EE2965"/>
</g>
<g filter="url(#filter2_b_49_1329)">
<path d="M160.345 27.18C159.904 26.7306 159.388 26.3674 158.832 26.0832C157.613 25.4482 156.227 25.2517 154.883 25.5101C154.833 25.4079 154.763 25.3038 154.7 25.2061C154.638 25.1065 154.544 24.8923 154.446 24.7533L154.185 24.4302C154.056 24.2418 153.907 24.0762 153.743 23.9132C153.733 23.8872 153.716 23.855 153.689 23.82L153.637 23.7934C153.203 23.3476 152.714 22.9746 152.167 22.6739L152.07 22.6243C151.824 22.4982 151.57 22.3895 151.305 22.2996L151.199 22.2456C150.918 22.1453 150.625 22.0732 150.326 22.032C146.515 21.4428 143.599 24.4631 143.069 28.1355C142.853 30.0404 143.054 31.9712 143.652 33.7803C144.559 36.3381 145.72 38.7813 147.123 41.0812L147.283 41.3422L147.568 41.3198C150.193 41.0692 152.774 40.5401 155.279 39.7386C157.048 39.1406 158.667 38.1291 160.001 36.7962C162.504 34.133 163.078 29.9147 160.345 27.18Z" fill="url(#paint1_linear_49_1329)"/>
</g>
<g filter="url(#filter3_b_49_1329)">
<mask id="path-4-outside-1_49_1329" maskUnits="userSpaceOnUse" x="-0.8121" y="-0.579334" width="150.12" height="148.119" fill="black">
<rect fill="white" x="-0.8121" y="-0.579334" width="150.12" height="148.119"/>
<path d="M99.3997 7.22832C95.3848 6.68733 91.3071 6.904 87.3285 7.69319C78.5523 9.36747 70.5912 14.0073 64.5913 20.8463C63.9421 20.5159 63.1763 20.262 62.4759 20.0083C61.7731 19.7419 60.4618 19.0106 59.4212 18.6847L56.8239 18.0688C55.4326 17.6129 54.0201 17.3608 52.5426 17.1815C52.394 17.0845 52.1799 16.9872 51.9052 16.9153L51.5332 16.9891C47.5688 16.4381 43.5923 16.495 39.5975 17.161L38.9039 17.2985C37.1384 17.6487 35.4017 18.1196 33.6785 18.7342L32.9219 18.8843C31.0765 19.5099 29.2741 20.3331 27.564 21.3377C5.48469 33.8413 1.89419 61.5004 13.2108 82.8093C19.3882 93.6202 27.832 102.864 37.8784 109.847C52.3935 119.476 67.7956 127.466 83.9098 133.718L85.7398 134.426L87.1374 133.144C99.8265 121.113 111.222 107.807 121.183 93.3892C128.092 83.0432 132.631 71.1578 134.461 58.7584C137.275 34.6467 124.093 10.3144 99.3997 7.22832Z"/>
</mask>
<path d="M99.3997 7.22832C95.3848 6.68733 91.3071 6.904 87.3285 7.69319C78.5523 9.36747 70.5912 14.0073 64.5913 20.8463C63.9421 20.5159 63.1763 20.262 62.4759 20.0083C61.7731 19.7419 60.4618 19.0106 59.4212 18.6847L56.8239 18.0688C55.4326 17.6129 54.0201 17.3608 52.5426 17.1815C52.394 17.0845 52.1799 16.9872 51.9052 16.9153L51.5332 16.9891C47.5688 16.4381 43.5923 16.495 39.5975 17.161L38.9039 17.2985C37.1384 17.6487 35.4017 18.1196 33.6785 18.7342L32.9219 18.8843C31.0765 19.5099 29.2741 20.3331 27.564 21.3377C5.48469 33.8413 1.89419 61.5004 13.2108 82.8093C19.3882 93.6202 27.832 102.864 37.8784 109.847C52.3935 119.476 67.7956 127.466 83.9098 133.718L85.7398 134.426L87.1374 133.144C99.8265 121.113 111.222 107.807 121.183 93.3892C128.092 83.0432 132.631 71.1578 134.461 58.7584C137.275 34.6467 124.093 10.3144 99.3997 7.22832Z" fill="#FF749F" fill-opacity="0.6"/>
<path d="M87.3285 7.69319L87.5076 8.67694L87.5148 8.67552L87.3285 7.69319ZM64.5913 20.8463L64.1338 21.74C64.5397 21.9466 65.0359 21.8495 65.3387 21.5044L64.5913 20.8463ZM62.4759 20.0083L62.1163 20.9454C62.1209 20.9471 62.1255 20.9488 62.1302 20.9505L62.4759 20.0083ZM59.4212 18.6847L59.7258 17.7286C59.7035 17.7216 59.681 17.7155 59.6583 17.7101L59.4212 18.6847ZM56.8239 18.0688L56.507 19.0209C56.5333 19.0295 56.5599 19.037 56.5868 19.0434L56.8239 18.0688ZM52.5426 17.1815L51.9934 18.0222C52.1202 18.1049 52.2643 18.1574 52.4148 18.1756L52.5426 17.1815ZM51.9052 16.9153L52.1647 15.9462C52.0193 15.9082 51.8669 15.9036 51.719 15.933L51.9052 16.9153ZM51.5332 16.9891L51.3884 17.9811C51.4984 17.9963 51.6103 17.9931 51.7195 17.9714L51.5332 16.9891ZM39.5975 17.161L39.4414 16.1731C39.4313 16.1748 39.4212 16.1766 39.4112 16.1786L39.5975 17.161ZM38.9039 17.2985L38.7176 16.3162L38.9039 17.2985ZM33.6785 18.7342L33.8648 19.7166C33.9129 19.707 33.9602 19.694 34.0065 19.6775L33.6785 18.7342ZM32.9219 18.8843L32.7356 17.902C32.6927 17.9105 32.6504 17.9218 32.6089 17.9359L32.9219 18.8843ZM27.564 21.3377L28.0497 22.2087C28.0544 22.2061 28.059 22.2035 28.0636 22.2008L27.564 21.3377ZM13.2108 82.8093L12.3286 83.2855C12.3334 83.2945 12.3383 83.3035 12.3434 83.3123L13.2108 82.8093ZM37.8784 109.847L37.3052 110.671C37.3111 110.675 37.3169 110.679 37.3229 110.683L37.8784 109.847ZM83.9098 133.718L83.5431 134.652L83.5439 134.652L83.9098 133.718ZM85.7398 134.426L85.3739 135.361C85.7274 135.497 86.1292 135.421 86.4106 135.163L85.7398 134.426ZM87.1374 133.144L87.8081 133.881C87.8123 133.877 87.8163 133.873 87.8204 133.869L87.1374 133.144ZM121.183 93.3892L122.002 93.9551C122.005 93.9507 122.008 93.9463 122.011 93.9419L121.183 93.3892ZM134.461 58.7584L135.449 58.8974C135.451 58.8873 135.452 58.8771 135.453 58.867L134.461 58.7584ZM99.5404 6.2358C95.4027 5.67826 91.2136 5.90328 87.1422 6.71087L87.5148 8.67552C91.4006 7.90473 95.367 7.6964 99.259 8.22084L99.5404 6.2358ZM87.1494 6.70947C78.1463 8.42703 69.9872 13.1856 63.8438 20.1881L65.3387 21.5044C71.1951 14.829 78.9583 10.3079 87.5076 8.67692L87.1494 6.70947ZM65.0487 19.9525C64.3292 19.5863 63.4801 19.3046 62.8216 19.0661L62.1302 20.9505C62.8725 21.2194 63.555 21.4455 64.1338 21.74L65.0487 19.9525ZM62.8355 19.0713C62.5318 18.9561 62.09 18.7368 61.5053 18.4616C60.9601 18.205 60.3174 17.9139 59.7258 17.7286L59.1167 19.6408C59.5656 19.7814 60.0989 20.0189 60.6451 20.276C61.152 20.5145 61.7173 20.7941 62.1163 20.9454L62.8355 19.0713ZM59.6583 17.7101L57.061 17.0942L56.5868 19.0434L59.1841 19.6593L59.6583 17.7101ZM57.1409 17.1167C55.6643 16.6328 54.1813 16.3707 52.6703 16.1873L52.4148 18.1756C53.8589 18.3509 55.201 18.593 56.507 19.0209L57.1409 17.1167ZM53.0917 16.3407C52.8396 16.1763 52.5241 16.0403 52.1647 15.9462L51.6458 17.8844C51.8358 17.9341 51.9483 17.9928 51.9934 18.0222L53.0917 16.3407ZM51.719 15.933L51.3469 16.0068L51.7195 17.9714L52.0915 17.8976L51.719 15.933ZM51.678 15.9971C47.6129 15.4322 43.535 15.4907 39.4414 16.1731L39.7536 18.1488C43.6497 17.4993 47.5247 17.4441 51.3884 17.9811L51.678 15.9971ZM39.4112 16.1786L38.7176 16.3162L39.0902 18.2809L39.7837 18.1433L39.4112 16.1786ZM38.7176 16.3162C36.9067 16.6754 35.1225 17.159 33.3505 17.791L34.0065 19.6775C35.681 19.0802 37.3702 18.622 39.0902 18.2809L38.7176 16.3162ZM33.4922 17.7519L32.7356 17.902L33.1081 19.8666L33.8648 19.7166L33.4922 17.7519ZM32.6089 17.9359C30.6984 18.5835 28.8335 19.4354 27.0643 20.4746L28.0636 22.2008C29.7146 21.2309 31.4545 20.4362 33.2349 19.8327L32.6089 17.9359ZM27.0782 20.4666C4.38723 33.3166 0.837584 61.6482 12.3286 83.2855L14.093 82.3331C2.9508 61.3526 6.58216 34.3659 28.0497 22.2087L27.0782 20.4666ZM12.3434 83.3123C18.5929 94.2495 27.1366 103.603 37.3052 110.671L38.4517 109.022C28.5274 102.124 20.1835 92.991 14.0782 82.3062L12.3434 83.3123ZM37.3229 110.683C51.8966 120.352 67.362 128.374 83.5431 134.652L84.2765 132.783C68.2293 126.558 52.8904 118.601 38.434 109.01L37.3229 110.683ZM83.5439 134.652L85.3739 135.361L86.1058 133.491L84.2758 132.783L83.5439 134.652ZM86.4106 135.163L87.8081 133.881L86.4666 132.408L85.0691 133.69L86.4106 135.163ZM87.8204 133.869C100.56 121.789 112.001 108.431 122.002 93.9551L120.364 92.8234C110.442 107.184 99.0926 120.436 86.4544 132.419L87.8204 133.869ZM122.011 93.9419C129.005 83.469 133.598 71.4417 135.449 58.8974L133.474 58.6195C131.665 70.8738 127.179 82.6175 120.355 92.8366L122.011 93.9419ZM135.453 58.867C138.308 34.3983 124.934 9.40935 99.5309 6.23458L99.2685 8.22207C123.253 11.2195 136.242 34.8952 133.47 58.6498L135.453 58.867Z" fill="url(#paint2_linear_49_1329)" mask="url(#path-4-outside-1_49_1329)"/>
</g>
<g filter="url(#filter4_bd_49_1329)">
<path d="M117.503 45.1894C117.777 47.9781 115.907 50.5272 113.303 51.0634C111.876 51.1751 110.426 50.7652 109.345 49.8113C108.264 48.8575 107.58 47.4896 107.448 45.9697L107.414 45.7669C106.642 41.1931 103.208 37.5501 98.8523 36.7056C96.0077 36.2063 94.0959 33.4455 94.5254 30.5388C95.0188 27.6208 97.6462 25.6652 100.418 26.1235C109.197 27.8678 116.016 35.2098 117.372 44.4108L117.503 45.1894Z" fill="url(#paint3_linear_49_1329)"/>
<path d="M107.647 45.9508L107.646 45.9427L107.645 45.9347L107.611 45.7319C106.826 41.0815 103.333 37.3702 98.8917 36.509L98.8917 36.5089L98.8883 36.5083C96.1548 36.0285 94.3095 33.3724 94.7227 30.5687C95.1995 27.7549 97.7271 25.8836 100.381 26.3206C109.073 28.049 115.83 35.3211 117.174 44.4416L117.174 44.4416L117.175 44.4457L117.305 45.2175C117.565 47.9003 115.767 50.345 113.276 50.8647C111.9 50.9694 110.511 50.5718 109.478 49.6605C108.436 48.7415 107.774 47.4215 107.647 45.9508Z" stroke="url(#paint4_linear_49_1329)" stroke-width="0.4"/>
</g>
<defs>
<filter id="filter0_b_49_1329" x="78.4428" y="26.5028" width="112.177" height="112.863" filterUnits="userSpaceOnUse" color-interpolation-filters="sRGB">
<feFlood flood-opacity="0" result="BackgroundImageFix"/>
<feGaussianBlur in="BackgroundImageFix" stdDeviation="6.5"/>
<feComposite in2="SourceAlpha" operator="in" result="effect1_backgroundBlur_49_1329"/>
<feBlend mode="normal" in="SourceGraphic" in2="effect1_backgroundBlur_49_1329" result="shape"/>
</filter>
<filter id="filter1_f_49_1329" x="77.829" y="37.5106" width="90.3812" height="90.8138" filterUnits="userSpaceOnUse" color-interpolation-filters="sRGB">
<feFlood flood-opacity="0" result="BackgroundImageFix"/>
<feBlend mode="normal" in="SourceGraphic" in2="BackgroundImageFix" result="shape"/>
<feGaussianBlur stdDeviation="9" result="effect1_foregroundBlur_49_1329"/>
</filter>
<filter id="filter2_b_49_1329" x="129.985" y="8.95813" width="45.1669" height="45.384" filterUnits="userSpaceOnUse" color-interpolation-filters="sRGB">
<feFlood flood-opacity="0" result="BackgroundImageFix"/>
<feGaussianBlur in="BackgroundImageFix" stdDeviation="6.5"/>
<feComposite in2="SourceAlpha" operator="in" result="effect1_backgroundBlur_49_1329"/>
<feBlend mode="normal" in="SourceGraphic" in2="effect1_backgroundBlur_49_1329" result="shape"/>
</filter>
<filter id="filter3_b_49_1329" x="-18.0433" y="-18.0718" width="177.876" height="177.499" filterUnits="userSpaceOnUse" color-interpolation-filters="sRGB">
<feFlood flood-opacity="0" result="BackgroundImageFix"/>
<feGaussianBlur in="BackgroundImageFix" stdDeviation="12"/>
<feComposite in2="SourceAlpha" operator="in" result="effect1_backgroundBlur_49_1329"/>
<feBlend mode="normal" in="SourceGraphic" in2="effect1_backgroundBlur_49_1329" result="shape"/>
</filter>
<filter id="filter4_bd_49_1329" x="79.4652" y="11.0569" width="53.0646" height="55.0244" filterUnits="userSpaceOnUse" color-interpolation-filters="sRGB">
<feFlood flood-opacity="0" result="BackgroundImageFix"/>
<feGaussianBlur in="BackgroundImageFix" stdDeviation="7.5"/>
<feComposite in2="SourceAlpha" operator="in" result="effect1_backgroundBlur_49_1329"/>
<feColorMatrix in="SourceAlpha" type="matrix" values="0 0 0 0 0 0 0 0 0 0 0 0 0 0 0 0 0 0 127 0" result="hardAlpha"/>
<feOffset dx="5" dy="5"/>
<feGaussianBlur stdDeviation="5"/>
<feColorMatrix type="matrix" values="0 0 0 0 1 0 0 0 0 0.321569 0 0 0 0 0.54902 0 0 0 0.5 0"/>
<feBlend mode="normal" in2="effect1_backgroundBlur_49_1329" result="effect2_dropShadow_49_1329"/>
<feBlend mode="normal" in="SourceGraphic" in2="effect2_dropShadow_49_1329" result="shape"/>
</filter>
<linearGradient id="paint0_linear_49_1329" x1="131.027" y1="97.8854" x2="45.1464" y2="92.5442" gradientUnits="userSpaceOnUse">
<stop stop-color="#FF759F"/>
<stop offset="1" stop-color="#FF196E"/>
</linearGradient>
<linearGradient id="paint1_linear_49_1329" x1="152.135" y1="34.6224" x2="133.148" y2="35.0748" gradientUnits="userSpaceOnUse">
<stop stop-color="#FF759F"/>
<stop offset="1" stop-color="#FF196E"/>
</linearGradient>
<linearGradient id="paint2_linear_49_1329" x1="22.8983" y1="33.851" x2="117.5" y2="119.294" gradientUnits="userSpaceOnUse">
<stop stop-color="white" stop-opacity="0.25"/>
<stop offset="1" stop-color="white" stop-opacity="0"/>
</linearGradient>
<linearGradient id="paint3_linear_49_1329" x1="113.223" y1="28.533" x2="90.7889" y2="32.8911" gradientUnits="userSpaceOnUse">
<stop stop-color="white"/>
<stop offset="1" stop-color="white" stop-opacity="0.2"/>
</linearGradient>
<linearGradient id="paint4_linear_49_1329" x1="97.3957" y1="29.5789" x2="117.509" y2="42.8083" gradientUnits="userSpaceOnUse">
<stop stop-color="white" stop-opacity="0.25"/>
<stop offset="1" stop-color="white" stop-opacity="0"/>
</linearGradient>
</defs>
</svg>
