<svg width="189" height="189" viewBox="0 0 189 189" fill="none" xmlns="http://www.w3.org/2000/svg">
<path d="M153.156 63.0154L147.386 57.2469C145.143 55.0036 143.861 51.9592 143.861 48.7625V40.5024C143.861 27.2029 133.042 16.3951 119.74 16.3951H111.486C108.281 16.3951 105.236 15.1052 102.992 12.8619L97.1425 7.02132C87.6867 -2.35242 72.3811 -2.35242 63.0054 7.09342L57.2358 12.8619C54.992 15.1052 51.9469 16.3951 48.7416 16.3951H40.4878C27.1856 16.3951 16.3675 27.2029 16.3675 40.5024V48.6744C16.3675 51.9592 15.0853 55.0036 12.8416 57.2469L6.99181 63.1035C-2.38386 72.5493 -2.30372 87.8598 7.07195 97.2255L12.8416 102.914C15.0853 105.237 16.3675 108.282 16.3675 111.494V119.738C16.3675 133.038 27.1856 143.862 40.4878 143.862H48.7416C51.9469 143.862 54.992 145.136 57.2358 147.379L63.0856 153.236C67.8135 157.882 73.9838 160.198 80.1541 160.198C86.3244 160.198 92.4947 157.882 97.2226 153.147L102.992 147.379C105.236 145.136 108.281 143.862 111.486 143.862H119.74C133.042 143.862 143.861 133.038 143.861 119.738V111.494C143.861 108.282 145.143 105.237 147.386 102.994L153.076 97.3056C153.156 97.2255 153.236 97.1534 153.316 97.0653C157.804 92.5066 160.288 86.4097 160.208 80.0003C160.208 73.5909 157.724 67.5019 153.156 63.0154Z" fill="url(#paint0_linear_49_1314)"/>
<g opacity="0.5" filter="url(#filter0_f_49_1314)">
<path d="M128.471 68.7881L124.651 64.9689C123.165 63.4837 122.316 61.468 122.316 59.3515V53.8826C122.316 45.0771 115.154 37.9214 106.346 37.9214H100.882C98.7595 37.9214 96.7434 37.0674 95.2579 35.5821L91.3848 31.7152C85.1242 25.509 74.9906 25.509 68.7831 31.7629L64.9631 35.5821C63.4775 37.0674 61.4614 37.9214 59.3392 37.9214H53.8744C45.0672 37.9214 37.9047 45.0771 37.9047 53.8826V59.2931C37.9047 61.468 37.0558 63.4837 35.5702 64.9689L31.6972 68.8465C25.4897 75.1004 25.5427 85.2373 31.7502 91.4382L35.5702 95.2044C37.0558 96.7427 37.9047 98.7584 37.9047 100.885V106.344C37.9047 115.149 45.0672 122.316 53.8744 122.316H59.3392C61.4614 122.316 63.4775 123.159 64.9631 124.644L68.8361 128.522C71.9664 131.598 76.0517 133.131 80.137 133.131C84.2223 133.131 88.3076 131.598 91.4378 128.463L95.2579 124.644C96.7434 123.159 98.7595 122.316 100.882 122.316H106.346C115.154 122.316 122.316 115.149 122.316 106.344V100.885C122.316 98.7584 123.165 96.7427 124.651 95.2574L128.418 91.4913C128.471 91.4382 128.524 91.3905 128.577 91.3321C131.548 88.3139 133.193 84.2772 133.14 80.0336C133.14 75.79 131.495 71.7586 128.471 68.7881Z" fill="#006D1A"/>
</g>
<g filter="url(#filter1_b_49_1314)">
<mask id="path-3-outside-1_49_1314" maskUnits="userSpaceOnUse" x="26.7902" y="26.8022" width="163" height="163" fill="black">
<rect fill="white" x="26.7902" y="26.8022" width="163" height="163"/>
<path d="M180.946 90.8176L175.177 85.0492C172.933 82.8059 171.651 79.7614 171.651 76.5647V68.3046C171.651 55.0051 160.833 44.1973 147.53 44.1973H139.277C136.071 44.1973 133.026 42.9074 130.782 40.6641L124.933 34.8236C115.477 25.4498 100.171 25.4498 90.7957 34.8957L85.026 40.6641C82.7823 42.9074 79.7372 44.1973 76.5318 44.1973H68.278C54.9758 44.1973 44.1577 55.0051 44.1577 68.3046V76.4766C44.1577 79.7614 42.8756 82.8059 40.6318 85.0492L34.782 90.9057C25.4064 100.352 25.4865 115.662 34.8622 125.028L40.6318 130.716C42.8756 133.039 44.1577 136.084 44.1577 139.297V147.541C44.1577 160.84 54.9758 171.664 68.278 171.664H76.5318C79.7372 171.664 82.7823 172.938 85.026 175.181L90.8758 181.038C95.6037 185.685 101.774 188 107.944 188C114.115 188 120.285 185.685 125.013 180.95L130.782 175.181C133.026 172.938 136.071 171.664 139.277 171.664H147.53C160.833 171.664 171.651 160.84 171.651 147.541V139.297C171.651 136.084 172.933 133.039 175.177 130.796L180.866 125.108C180.946 125.028 181.026 124.956 181.107 124.868C185.594 120.309 188.078 114.212 187.998 107.803C187.998 101.393 185.514 95.3042 180.946 90.8176Z"/>
</mask>
<path d="M180.946 90.8176L175.177 85.0492C172.933 82.8059 171.651 79.7614 171.651 76.5647V68.3046C171.651 55.0051 160.833 44.1973 147.53 44.1973H139.277C136.071 44.1973 133.026 42.9074 130.782 40.6641L124.933 34.8236C115.477 25.4498 100.171 25.4498 90.7957 34.8957L85.026 40.6641C82.7823 42.9074 79.7372 44.1973 76.5318 44.1973H68.278C54.9758 44.1973 44.1577 55.0051 44.1577 68.3046V76.4766C44.1577 79.7614 42.8756 82.8059 40.6318 85.0492L34.782 90.9057C25.4064 100.352 25.4865 115.662 34.8622 125.028L40.6318 130.716C42.8756 133.039 44.1577 136.084 44.1577 139.297V147.541C44.1577 160.84 54.9758 171.664 68.278 171.664H76.5318C79.7372 171.664 82.7823 172.938 85.026 175.181L90.8758 181.038C95.6037 185.685 101.774 188 107.944 188C114.115 188 120.285 185.685 125.013 180.95L130.782 175.181C133.026 172.938 136.071 171.664 139.277 171.664H147.53C160.833 171.664 171.651 160.84 171.651 147.541V139.297C171.651 136.084 172.933 133.039 175.177 130.796L180.866 125.108C180.946 125.028 181.026 124.956 181.107 124.868C185.594 120.309 188.078 114.212 187.998 107.803C187.998 101.393 185.514 95.3042 180.946 90.8176Z" fill="#6ED5B2" fill-opacity="0.28"/>
<path d="M175.177 85.0492L175.884 84.342L175.177 85.0492ZM130.782 40.6641L131.49 39.9569L131.489 39.9565L130.782 40.6641ZM124.933 34.8236L125.639 34.1159L125.637 34.1134L124.933 34.8236ZM90.7957 34.8957L91.5027 35.6029L91.5054 35.6001L90.7957 34.8957ZM85.026 40.6641L85.733 41.3713L85.026 40.6641ZM40.6318 85.0492L39.9248 84.342L39.9243 84.3425L40.6318 85.0492ZM34.782 90.9057L34.0745 90.199L34.0723 90.2013L34.782 90.9057ZM34.8622 125.028L34.1554 125.735L34.1601 125.74L34.8622 125.028ZM40.6318 130.716L41.3511 130.021C41.3455 130.016 41.3397 130.01 41.3339 130.004L40.6318 130.716ZM85.026 175.181L85.7335 174.475L85.733 174.474L85.026 175.181ZM90.8758 181.038L90.1682 181.745L90.1748 181.751L90.8758 181.038ZM125.013 180.95L124.306 180.243L124.305 180.243L125.013 180.95ZM130.782 175.181L131.49 175.888L130.782 175.181ZM175.177 130.796L175.884 131.503L175.177 130.796ZM180.866 125.108L180.159 124.401L180.866 125.108ZM181.107 124.868L180.394 124.166C180.385 124.175 180.376 124.185 180.367 124.195L181.107 124.868ZM187.998 107.803H186.998L186.998 107.815L187.998 107.803ZM181.653 90.1104L175.884 84.342L174.47 85.7563L180.239 91.5248L181.653 90.1104ZM175.884 84.342C173.825 82.2838 172.651 79.4928 172.651 76.5647H170.651C170.651 80.0301 172.041 83.3279 174.47 85.7563L175.884 84.342ZM172.651 76.5647V68.3046H170.651V76.5647H172.651ZM172.651 68.3046C172.651 54.4522 161.384 43.1973 147.53 43.1973V45.1973C160.281 45.1973 170.651 55.5581 170.651 68.3046H172.651ZM147.53 43.1973H139.277V45.1973H147.53V43.1973ZM139.277 43.1973C136.341 43.1973 133.549 42.0161 131.49 39.9569L130.075 41.3713C132.503 43.7987 135.801 45.1973 139.277 45.1973V43.1973ZM131.489 39.9565L125.639 34.1159L124.226 35.5312L130.076 41.3718L131.489 39.9565ZM125.637 34.1134C115.792 24.3544 99.8539 24.3501 90.0859 34.1912L91.5054 35.6001C100.489 26.5495 115.161 26.5452 124.229 35.5337L125.637 34.1134ZM90.0886 34.1885L84.319 39.9569L85.733 41.3713L91.5027 35.6028L90.0886 34.1885ZM84.319 39.9569C82.2594 42.0161 79.4673 43.1973 76.5318 43.1973V45.1973C80.007 45.1973 83.3051 43.7987 85.733 41.3713L84.319 39.9569ZM76.5318 43.1973H68.278V45.1973H76.5318V43.1973ZM68.278 43.1973C54.4241 43.1973 43.1577 54.4522 43.1577 68.3046H45.1577C45.1577 55.5581 55.5274 45.1973 68.278 45.1973V43.1973ZM43.1577 68.3046V76.4766H45.1577V68.3046H43.1577ZM43.1577 76.4766C43.1577 79.4967 41.9806 82.2866 39.9248 84.342L41.3388 85.7563C43.7705 83.3252 45.1577 80.0262 45.1577 76.4766H43.1577ZM39.9243 84.3425L34.0745 90.199L35.4896 91.6124L41.3393 85.7559L39.9243 84.3425ZM34.0723 90.2013C24.307 100.04 24.3914 115.982 34.1554 125.735L35.5689 124.32C26.5816 115.342 26.5058 100.663 35.4918 91.6102L34.0723 90.2013ZM34.1601 125.74L39.9297 131.428L41.3339 130.004L35.5642 124.316L34.1601 125.74ZM39.9125 131.411C41.9845 133.556 43.1577 136.355 43.1577 139.297H45.1577C45.1577 135.813 43.7667 132.523 41.3511 130.021L39.9125 131.411ZM43.1577 139.297V147.541H45.1577V139.297H43.1577ZM43.1577 147.541C43.1577 161.392 54.4233 172.664 68.278 172.664V170.664C55.5283 170.664 45.1577 160.288 45.1577 147.541H43.1577ZM68.278 172.664H76.5318V170.664H68.278V172.664ZM76.5318 172.664C79.4707 172.664 82.2619 173.832 84.319 175.888L85.733 174.474C83.3027 172.044 80.0036 170.664 76.5318 170.664V172.664ZM84.3185 175.888L90.1683 181.745L91.5833 180.331L85.7335 174.475L84.3185 175.888ZM90.1748 181.751C95.0984 186.59 101.524 189 107.944 189V187C102.024 187 96.109 184.779 91.5768 180.325L90.1748 181.751ZM107.944 189C114.366 189 120.795 186.589 125.72 181.656L124.305 180.243C119.775 184.78 113.864 187 107.944 187V189ZM125.72 181.657L131.49 175.888L130.075 174.474L124.306 180.243L125.72 181.657ZM131.49 175.888C133.547 173.832 136.338 172.664 139.277 172.664V170.664C135.805 170.664 132.506 172.044 130.075 174.474L131.49 175.888ZM139.277 172.664H147.53V170.664H139.277V172.664ZM147.53 172.664C161.385 172.664 172.651 161.392 172.651 147.541H170.651C170.651 160.288 160.28 170.664 147.53 170.664V172.664ZM172.651 147.541V139.297H170.651V147.541H172.651ZM172.651 139.297C172.651 136.352 173.826 133.561 175.884 131.503L174.47 130.089C172.04 132.518 170.651 135.816 170.651 139.297H172.651ZM175.884 131.503L181.573 125.815L180.159 124.401L174.47 130.089L175.884 131.503ZM181.573 125.815C181.604 125.784 181.748 125.649 181.846 125.54L180.367 124.195C180.305 124.263 180.289 124.271 180.159 124.401L181.573 125.815ZM181.819 125.569C186.492 120.822 189.082 114.469 188.998 107.79L186.998 107.815C187.075 113.955 184.696 119.795 180.394 124.166L181.819 125.569ZM188.998 107.803C188.998 101.132 186.412 94.7841 181.647 90.1042L180.246 91.531C184.616 95.8243 186.998 101.654 186.998 107.803H188.998Z" fill="url(#paint1_linear_49_1314)" mask="url(#path-3-outside-1_49_1314)"/>
</g>
<g filter="url(#filter2_bd_49_1314)">
<mask id="path-5-inside-2_49_1314" fill="white">
<path fill-rule="evenodd" clip-rule="evenodd" d="M92.2378 133.439C90.9557 134.801 89.1928 135.522 87.2695 135.522C85.4265 135.522 83.6635 134.801 82.3814 133.439C79.6568 130.715 79.6568 126.229 82.3814 123.505L123.57 82.3243C126.295 79.6084 130.702 79.6084 133.427 82.3243C136.151 85.0483 136.151 89.5429 133.427 92.2669L92.2378 133.439ZM128.538 135.523C124.612 135.523 121.487 132.398 121.487 128.472C121.487 124.635 124.612 121.502 128.538 121.502C132.385 121.502 135.51 124.635 135.51 128.472C135.51 132.398 132.385 135.523 128.538 135.523ZM94.3212 87.2921C94.3212 83.4464 91.1959 80.3218 87.3495 80.3218C83.5031 80.3218 80.2977 83.4464 80.2977 87.2921C80.2977 91.2258 83.5031 94.3424 87.3495 94.3424C91.1959 94.3424 94.3212 91.2258 94.3212 87.2921Z"/>
</mask>
<path fill-rule="evenodd" clip-rule="evenodd" d="M92.2378 133.439C90.9557 134.801 89.1928 135.522 87.2695 135.522C85.4265 135.522 83.6635 134.801 82.3814 133.439C79.6568 130.715 79.6568 126.229 82.3814 123.505L123.57 82.3243C126.295 79.6084 130.702 79.6084 133.427 82.3243C136.151 85.0483 136.151 89.5429 133.427 92.2669L92.2378 133.439ZM128.538 135.523C124.612 135.523 121.487 132.398 121.487 128.472C121.487 124.635 124.612 121.502 128.538 121.502C132.385 121.502 135.51 124.635 135.51 128.472C135.51 132.398 132.385 135.523 128.538 135.523ZM94.3212 87.2921C94.3212 83.4464 91.1959 80.3218 87.3495 80.3218C83.5031 80.3218 80.2977 83.4464 80.2977 87.2921C80.2977 91.2258 83.5031 94.3424 87.3495 94.3424C91.1959 94.3424 94.3212 91.2258 94.3212 87.2921Z" fill="url(#paint2_linear_49_1314)"/>
<path d="M92.2378 133.439L91.9549 133.156L91.9466 133.165L92.2378 133.439ZM82.3814 133.439L82.6728 133.165L82.6642 133.156L82.3814 133.439ZM82.3814 123.505L82.6642 123.788L82.3814 123.505ZM123.57 82.3243L123.288 82.0411L123.287 82.0415L123.57 82.3243ZM133.427 82.3243L133.71 82.0415L133.709 82.0411L133.427 82.3243ZM133.427 92.2669L133.709 92.5498L133.71 92.5498L133.427 92.2669ZM87.2695 135.922C89.2953 135.922 91.1662 135.161 92.5291 133.713L91.9466 133.165C90.7452 134.441 89.0902 135.122 87.2695 135.122V135.922ZM82.0901 133.713C83.4513 135.159 85.3214 135.922 87.2695 135.922V135.122C85.5316 135.122 83.8757 134.443 82.6726 133.165L82.0901 133.713ZM82.0986 123.222C79.2178 126.102 79.2178 130.842 82.0986 133.722L82.6642 133.156C80.0959 130.589 80.0959 126.355 82.6642 123.788L82.0986 123.222ZM123.287 82.0415L82.0986 123.222L82.6642 123.788L123.853 82.6072L123.287 82.0415ZM133.709 82.0411C130.828 79.1695 126.168 79.1695 123.288 82.0411L123.853 82.6076C126.421 80.0473 130.576 80.0473 133.144 82.6076L133.709 82.0411ZM133.71 92.5498C136.59 89.6696 136.59 84.9217 133.71 82.0415L133.144 82.6072C135.712 85.175 135.712 89.4163 133.144 91.984L133.71 92.5498ZM92.5206 133.722L133.709 92.5498L133.144 91.984L91.9551 133.156L92.5206 133.722ZM121.087 128.472C121.087 132.619 124.391 135.923 128.538 135.923V135.123C124.833 135.123 121.887 132.177 121.887 128.472H121.087ZM128.538 121.102C124.394 121.102 121.087 124.411 121.087 128.472H121.887C121.887 124.858 124.83 121.902 128.538 121.902V121.102ZM135.91 128.472C135.91 124.414 132.606 121.102 128.538 121.102V121.902C132.164 121.902 135.11 124.855 135.11 128.472H135.91ZM128.538 135.923C132.609 135.923 135.91 132.616 135.91 128.472H135.11C135.11 132.18 132.161 135.123 128.538 135.123V135.923ZM87.3495 80.7218C90.9751 80.7218 93.9212 83.6674 93.9212 87.2921H94.7212C94.7212 83.2254 91.4168 79.9218 87.3495 79.9218V80.7218ZM80.6977 87.2921C80.6977 83.6733 83.718 80.7218 87.3495 80.7218V79.9218C83.2882 79.9218 79.8977 83.2195 79.8977 87.2921H80.6977ZM87.3495 93.9424C83.7207 93.9424 80.6977 91.0016 80.6977 87.2921H79.8977C79.8977 91.4501 83.2855 94.7424 87.3495 94.7424V93.9424ZM93.9212 87.2921C93.9212 91.0075 90.9724 93.9424 87.3495 93.9424V94.7424C91.4195 94.7424 94.7212 91.4441 94.7212 87.2921H93.9212Z" fill="url(#paint3_linear_49_1314)" mask="url(#path-5-inside-2_49_1314)"/>
</g>
<defs>
<filter id="filter0_f_49_1314" x="4.06799" y="4.06647" width="152.073" height="152.065" filterUnits="userSpaceOnUse" color-interpolation-filters="sRGB">
<feFlood flood-opacity="0" result="BackgroundImageFix"/>
<feBlend mode="normal" in="SourceGraphic" in2="BackgroundImageFix" result="shape"/>
<feGaussianBlur stdDeviation="11.5" result="effect1_foregroundBlur_49_1314"/>
</filter>
<filter id="filter1_b_49_1314" x="2.79022" y="2.80225" width="210.21" height="210.198" filterUnits="userSpaceOnUse" color-interpolation-filters="sRGB">
<feFlood flood-opacity="0" result="BackgroundImageFix"/>
<feGaussianBlur in="BackgroundImageFix" stdDeviation="12"/>
<feComposite in2="SourceAlpha" operator="in" result="effect1_backgroundBlur_49_1314"/>
<feBlend mode="normal" in="SourceGraphic" in2="effect1_backgroundBlur_49_1314" result="shape"/>
</filter>
<filter id="filter2_bd_49_1314" x="65.2977" y="65.2874" width="85.2123" height="85.2352" filterUnits="userSpaceOnUse" color-interpolation-filters="sRGB">
<feFlood flood-opacity="0" result="BackgroundImageFix"/>
<feGaussianBlur in="BackgroundImageFix" stdDeviation="7.5"/>
<feComposite in2="SourceAlpha" operator="in" result="effect1_backgroundBlur_49_1314"/>
<feColorMatrix in="SourceAlpha" type="matrix" values="0 0 0 0 0 0 0 0 0 0 0 0 0 0 0 0 0 0 127 0" result="hardAlpha"/>
<feOffset dx="5" dy="5"/>
<feGaussianBlur stdDeviation="5"/>
<feColorMatrix type="matrix" values="0 0 0 0 0.00616551 0 0 0 0 0.298275 0 0 0 0 0.196037 0 0 0 1 0"/>
<feBlend mode="normal" in2="effect1_backgroundBlur_49_1314" result="effect2_dropShadow_49_1314"/>
<feBlend mode="normal" in="SourceGraphic" in2="effect2_dropShadow_49_1314" result="shape"/>
</filter>
<linearGradient id="paint0_linear_49_1314" x1="80.1049" y1="0" x2="80.1049" y2="160.198" gradientUnits="userSpaceOnUse">
<stop stop-color="#47B962"/>
<stop offset="1" stop-color="#37BA8C"/>
</linearGradient>
<linearGradient id="paint1_linear_49_1314" x1="27.3228" y1="26.7129" x2="155.372" y2="173.12" gradientUnits="userSpaceOnUse">
<stop stop-color="white" stop-opacity="0.4"/>
<stop offset="1" stop-color="white" stop-opacity="0"/>
</linearGradient>
<linearGradient id="paint2_linear_49_1314" x1="131.596" y1="90.2617" x2="70.0942" y2="92.2661" gradientUnits="userSpaceOnUse">
<stop stop-color="white"/>
<stop offset="1" stop-color="white" stop-opacity="0.2"/>
</linearGradient>
<linearGradient id="paint3_linear_49_1314" x1="89.0866" y1="86.7223" x2="124.324" y2="130.346" gradientUnits="userSpaceOnUse">
<stop stop-color="white" stop-opacity="0.83"/>
<stop offset="1" stop-color="white" stop-opacity="0"/>
</linearGradient>
</defs>
</svg>
