<svg width="185" height="177" viewBox="0 0 185 177" fill="none" xmlns="http://www.w3.org/2000/svg">
<path d="M15.8089 6.86339C13.874 6.86339 12.2859 5.33424 12.2859 3.4317C12.2859 1.54693 13.8557 0 15.8089 0C17.7621 0 19.332 1.52915 19.332 3.4317C19.332 5.31646 17.7439 6.86339 15.8089 6.86339Z" fill="#013D19" fill-opacity="0.79"/>
<path d="M48.9212 6.86351C46.9863 6.86351 45.3982 5.33436 45.3982 3.43182C45.3982 1.54705 46.968 0.00012207 48.9212 0.00012207C50.8562 0.00012207 52.4443 1.52927 52.4443 3.43182C52.426 5.31658 50.8562 6.86351 48.9212 6.86351Z" fill="#013D19" fill-opacity="0.79"/>
<path d="M82.0157 6.86351C80.0808 6.86351 78.4927 5.33436 78.4927 3.43182C78.4927 1.54705 80.0625 0.00012207 82.0157 0.00012207C83.9506 0.00012207 85.5387 1.52927 85.5387 3.43182C85.5387 5.31658 83.9689 6.86351 82.0157 6.86351Z" fill="#013D19" fill-opacity="0.79"/>
<path d="M115.13 6.86351C113.195 6.86351 111.607 5.33436 111.607 3.43182C111.607 1.54705 113.177 0.00012207 115.13 0.00012207C117.065 0.00012207 118.653 1.52927 118.653 3.43182C118.653 5.31658 117.065 6.86351 115.13 6.86351Z" fill="#013D19" fill-opacity="0.79"/>
<path d="M148.225 6.86351C146.29 6.86351 144.701 5.33436 144.701 3.43182C144.701 1.54705 146.271 0.00012207 148.225 0.00012207C150.159 0.00012207 151.748 1.52927 151.748 3.43182C151.748 5.31658 150.178 6.86351 148.225 6.86351Z" fill="#013D19" fill-opacity="0.79"/>
<path d="M181.337 6.86351C179.402 6.86351 177.814 5.33436 177.814 3.43182C177.814 1.54705 179.384 0.00012207 181.337 0.00012207C183.29 0.00012207 184.86 1.52927 184.86 3.43182C184.86 5.31658 183.272 6.86351 181.337 6.86351Z" fill="#013D19" fill-opacity="0.79"/>
<path d="M15.8089 36.2729C13.874 36.2729 12.2859 34.7438 12.2859 32.8412C12.2859 30.9565 13.8557 29.4095 15.8089 29.4095C17.7621 29.4095 19.332 30.9387 19.332 32.8412C19.332 34.726 17.7439 36.2729 15.8089 36.2729Z" fill="#013D19" fill-opacity="0.79"/>
<path d="M48.9212 36.2729C46.9863 36.2729 45.3982 34.7438 45.3982 32.8412C45.3982 30.9565 46.968 29.4095 48.9212 29.4095C50.8562 29.4095 52.4443 30.9387 52.4443 32.8412C52.426 34.726 50.8562 36.2729 48.9212 36.2729Z" fill="#013D19" fill-opacity="0.79"/>
<path d="M82.0157 36.2729C80.0808 36.2729 78.4927 34.7438 78.4927 32.8412C78.4927 30.9565 80.0625 29.4095 82.0157 29.4095C83.9506 29.4095 85.5387 30.9387 85.5387 32.8412C85.5387 34.726 83.9689 36.2729 82.0157 36.2729Z" fill="#013D19" fill-opacity="0.79"/>
<path d="M115.13 36.2729C113.195 36.2729 111.607 34.7438 111.607 32.8412C111.607 30.9565 113.177 29.4095 115.13 29.4095C117.065 29.4095 118.653 30.9387 118.653 32.8412C118.653 34.726 117.065 36.2729 115.13 36.2729Z" fill="#013D19" fill-opacity="0.79"/>
<path d="M148.225 36.2729C146.29 36.2729 144.701 34.7438 144.701 32.8412C144.701 30.9565 146.271 29.4095 148.225 29.4095C150.159 29.4095 151.748 30.9387 151.748 32.8412C151.748 34.726 150.178 36.2729 148.225 36.2729Z" fill="#013D19" fill-opacity="0.79"/>
<path d="M181.337 36.2729C179.402 36.2729 177.814 34.7438 177.814 32.8412C177.814 30.9565 179.384 29.4095 181.337 29.4095C183.29 29.4095 184.86 30.9387 184.86 32.8412C184.86 34.726 183.272 36.2729 181.337 36.2729Z" fill="#013D19" fill-opacity="0.79"/>
<path d="M15.8089 65.6651C13.874 65.6651 12.2859 64.136 12.2859 62.2334C12.2859 60.3487 13.8557 58.8018 15.8089 58.8018C17.7621 58.8018 19.332 60.3309 19.332 62.2334C19.332 64.136 17.7439 65.6651 15.8089 65.6651Z" fill="#013D19" fill-opacity="0.79"/>
<path d="M48.9212 65.6651C46.9863 65.6651 45.3982 64.136 45.3982 62.2334C45.3982 60.3487 46.968 58.8018 48.9212 58.8018C50.8562 58.8018 52.4443 60.3309 52.4443 62.2334C52.426 64.136 50.8562 65.6651 48.9212 65.6651Z" fill="#013D19" fill-opacity="0.79"/>
<path d="M82.0157 65.6651C80.0808 65.6651 78.4927 64.136 78.4927 62.2334C78.4927 60.3487 80.0625 58.8018 82.0157 58.8018C83.9506 58.8018 85.5387 60.3309 85.5387 62.2334C85.5387 64.136 83.9689 65.6651 82.0157 65.6651Z" fill="#013D19" fill-opacity="0.79"/>
<path d="M115.13 65.6651C113.195 65.6651 111.607 64.136 111.607 62.2334C111.607 60.3487 113.177 58.8018 115.13 58.8018C117.065 58.8018 118.653 60.3309 118.653 62.2334C118.653 64.136 117.065 65.6651 115.13 65.6651Z" fill="#013D19" fill-opacity="0.79"/>
<path d="M148.225 65.6651C146.29 65.6651 144.701 64.136 144.701 62.2334C144.701 60.3487 146.271 58.8018 148.225 58.8018C150.159 58.8018 151.748 60.3309 151.748 62.2334C151.748 64.136 150.178 65.6651 148.225 65.6651Z" fill="#013D19" fill-opacity="0.79"/>
<path d="M181.337 65.6651C179.402 65.6651 177.814 64.136 177.814 62.2334C177.814 60.3487 179.384 58.8018 181.337 58.8018C183.29 58.8018 184.86 60.3309 184.86 62.2334C184.86 64.136 183.272 65.6651 181.337 65.6651Z" fill="#013D19" fill-opacity="0.79"/>
<path d="M15.8089 95.0746C13.874 95.0746 12.2859 93.5454 12.2859 91.6429C12.2859 89.7581 13.8557 88.2112 15.8089 88.2112C17.7621 88.2112 19.332 89.7403 19.332 91.6429C19.332 93.5277 17.7439 95.0746 15.8089 95.0746Z" fill="#013D19" fill-opacity="0.79"/>
<path d="M48.9212 95.0746C46.9863 95.0746 45.3982 93.5454 45.3982 91.6429C45.3982 89.7581 46.968 88.2112 48.9212 88.2112C50.8562 88.2112 52.4443 89.7403 52.4443 91.6429C52.426 93.5277 50.8562 95.0746 48.9212 95.0746Z" fill="#013D19" fill-opacity="0.79"/>
<path d="M82.0157 95.0746C80.0808 95.0746 78.4927 93.5454 78.4927 91.6429C78.4927 89.7581 80.0625 88.2112 82.0157 88.2112C83.9506 88.2112 85.5387 89.7403 85.5387 91.6429C85.5387 93.5277 83.9689 95.0746 82.0157 95.0746Z" fill="#013D19" fill-opacity="0.79"/>
<path d="M115.13 95.0746C113.195 95.0746 111.607 93.5454 111.607 91.6429C111.607 89.7581 113.177 88.2112 115.13 88.2112C117.065 88.2112 118.653 89.7403 118.653 91.6429C118.653 93.5277 117.065 95.0746 115.13 95.0746Z" fill="#013D19" fill-opacity="0.79"/>
<path d="M148.225 95.0746C146.29 95.0746 144.701 93.5454 144.701 91.6429C144.701 89.7581 146.271 88.2112 148.225 88.2112C150.159 88.2112 151.748 89.7403 151.748 91.6429C151.748 93.5277 150.178 95.0746 148.225 95.0746Z" fill="#013D19" fill-opacity="0.79"/>
<path d="M181.337 95.0746C179.402 95.0746 177.814 93.5454 177.814 91.6429C177.814 89.7581 179.384 88.2112 181.337 88.2112C183.29 88.2112 184.86 89.7403 184.86 91.6429C184.86 93.5277 183.272 95.0746 181.337 95.0746Z" fill="#013D19" fill-opacity="0.79"/>
<path d="M15.8089 124.484C13.874 124.484 12.2859 122.955 12.2859 121.052C12.2859 119.168 13.8557 117.621 15.8089 117.621C17.7621 117.621 19.332 119.15 19.332 121.052C19.332 122.937 17.7439 124.484 15.8089 124.484Z" fill="#013D19" fill-opacity="0.79"/>
<path d="M48.9212 124.484C46.9863 124.484 45.3982 122.955 45.3982 121.052C45.3982 119.168 46.968 117.621 48.9212 117.621C50.8562 117.621 52.4443 119.15 52.4443 121.052C52.426 122.937 50.8562 124.484 48.9212 124.484Z" fill="#013D19" fill-opacity="0.79"/>
<path d="M82.0157 124.484C80.0808 124.484 78.4927 122.955 78.4927 121.052C78.4927 119.168 80.0625 117.621 82.0157 117.621C83.9506 117.621 85.5387 119.15 85.5387 121.052C85.5387 122.937 83.9689 124.484 82.0157 124.484Z" fill="#013D19" fill-opacity="0.79"/>
<path d="M115.13 124.484C113.195 124.484 111.607 122.955 111.607 121.052C111.607 119.168 113.177 117.621 115.13 117.621C117.065 117.621 118.653 119.15 118.653 121.052C118.653 122.937 117.065 124.484 115.13 124.484Z" fill="#013D19" fill-opacity="0.79"/>
<path d="M148.225 124.484C146.29 124.484 144.701 122.955 144.701 121.052C144.701 119.168 146.271 117.621 148.225 117.621C150.159 117.621 151.748 119.15 151.748 121.052C151.748 122.937 150.178 124.484 148.225 124.484Z" fill="#013D19" fill-opacity="0.79"/>
<path d="M181.337 124.484C179.402 124.484 177.814 122.955 177.814 121.052C177.814 119.168 179.384 117.621 181.337 117.621C183.29 117.621 184.86 119.15 184.86 121.052C184.86 122.937 183.272 124.484 181.337 124.484Z" fill="#013D19" fill-opacity="0.79"/>
<path d="M15.8089 153.875C13.874 153.875 12.2859 152.345 12.2859 150.443C12.2859 148.558 13.8557 147.011 15.8089 147.011C17.7621 147.011 19.332 148.54 19.332 150.443C19.332 152.345 17.7439 153.875 15.8089 153.875Z" fill="#013D19" fill-opacity="0.79"/>
<path d="M48.9212 153.875C46.9863 153.875 45.3982 152.345 45.3982 150.443C45.3982 148.558 46.968 147.011 48.9212 147.011C50.8562 147.011 52.4443 148.54 52.4443 150.443C52.426 152.345 50.8562 153.875 48.9212 153.875Z" fill="#013D19" fill-opacity="0.79"/>
<path d="M82.0157 153.875C80.0808 153.875 78.4927 152.345 78.4927 150.443C78.4927 148.558 80.0625 147.011 82.0157 147.011C83.9506 147.011 85.5387 148.54 85.5387 150.443C85.5387 152.345 83.9689 153.875 82.0157 153.875Z" fill="#013D19" fill-opacity="0.79"/>
<path d="M115.13 153.875C113.195 153.875 111.607 152.345 111.607 150.443C111.607 148.558 113.177 147.011 115.13 147.011C117.065 147.011 118.653 148.54 118.653 150.443C118.653 152.345 117.065 153.875 115.13 153.875Z" fill="#013D19" fill-opacity="0.79"/>
<path d="M148.225 153.875C146.29 153.875 144.701 152.345 144.701 150.443C144.701 148.558 146.271 147.011 148.225 147.011C150.159 147.011 151.748 148.54 151.748 150.443C151.748 152.345 150.178 153.875 148.225 153.875Z" fill="#013D19" fill-opacity="0.79"/>
<path d="M181.337 153.875C179.402 153.875 177.814 152.345 177.814 150.443C177.814 148.558 179.384 147.011 181.337 147.011C183.29 147.011 184.86 148.54 184.86 150.443C184.86 152.345 183.272 153.875 181.337 153.875Z" fill="#013D19" fill-opacity="0.79"/>
<path d="M155.251 176.937L0 25.7111H155.251V176.937Z" fill="#014422" fill-opacity="0.96"/>
</svg>
