<svg width="285" height="253" viewBox="0 0 285 253" fill="none" xmlns="http://www.w3.org/2000/svg">
<path d="M279.221 15.2824C279.161 15.2824 279.102 15.2884 279.043 15.2912C279.155 14.8173 279.221 14.3259 279.221 13.8185C279.221 10.1917 276.162 7.2514 272.388 7.2514C271.988 7.2514 271.598 7.29139 271.216 7.35494C269.555 4.3916 266.299 2.37659 262.552 2.37659C257.119 2.37659 252.715 6.60931 252.715 11.8309C252.715 12.221 252.747 12.6028 252.795 12.9803C251.868 12.5283 250.822 12.2676 249.711 12.2676C245.938 12.2676 242.879 15.2079 242.879 18.8347C242.879 22.4615 245.938 25.4018 249.711 25.4018C251.011 25.4018 252.222 25.0468 253.256 24.4409C254.295 26.7939 256.721 28.4441 259.548 28.4441C260.978 28.4441 262.303 28.0206 263.4 27.2996C264.742 27.9603 266.26 28.34 267.872 28.34C271.825 28.34 275.224 26.0932 276.788 22.8609C277.481 23.3162 278.318 23.5835 279.221 23.5835C281.606 23.5835 283.539 21.7252 283.539 19.433C283.54 17.1407 281.606 15.2824 279.221 15.2824Z" fill="#8FE2FF"/>
<path d="M12.8762 6.50633C12.9064 6.50633 12.9361 6.50961 12.9663 6.51071C12.9093 6.27184 12.8762 6.02421 12.8762 5.76836C12.8762 3.93962 14.4186 2.45768 16.3207 2.45768C16.5225 2.45768 16.7192 2.47795 16.9118 2.50972C17.7491 1.01572 19.3907 0 21.2803 0C24.0191 0 26.2393 2.1339 26.2393 4.76634C26.2393 4.96302 26.2233 5.15531 26.1988 5.34597C26.6662 5.11806 27.1935 4.98658 27.7532 4.98658C29.6559 4.98658 31.1977 6.46907 31.1977 8.29726C31.1977 10.126 29.6553 11.608 27.7532 11.608C27.0977 11.608 26.4878 11.4288 25.9663 11.1236C25.4424 12.3098 24.2192 13.1419 22.7942 13.1419C22.0737 13.1419 21.4051 12.9288 20.8522 12.5651C20.1751 12.8982 19.4107 13.0899 18.5979 13.0899C16.6046 13.0899 14.8912 11.9575 14.1029 10.3276C13.7534 10.5572 13.3311 10.6919 12.8756 10.6919C11.6729 10.6919 10.6982 9.75511 10.6982 8.59913C10.6988 7.44316 11.6735 6.50633 12.8762 6.50633Z" fill="#8FE2FF"/>
<path d="M203.033 75.0884C203.063 75.0884 203.093 75.0917 203.123 75.0928C203.066 74.8539 203.033 74.6058 203.033 74.3505C203.033 72.5217 204.576 71.0392 206.478 71.0392C206.68 71.0392 206.876 71.0595 207.069 71.0913C207.906 69.5973 209.548 68.5815 211.437 68.5815C214.176 68.5815 216.396 70.7154 216.396 73.3479C216.396 73.5446 216.38 73.7369 216.356 73.9275C216.823 73.6996 217.351 73.5681 217.911 73.5681C219.814 73.5681 221.355 75.0506 221.355 76.8788C221.355 78.7076 219.813 80.19 217.911 80.19C217.255 80.19 216.645 80.0109 216.124 79.7057C215.6 80.8919 214.377 81.724 212.952 81.724C212.231 81.724 211.563 81.5104 211.01 81.1472C210.333 81.4802 209.568 81.672 208.756 81.672C206.762 81.672 205.049 80.5396 204.26 78.9097C203.911 79.1393 203.489 79.274 203.034 79.274C201.831 79.274 200.856 78.3372 200.856 77.1812C200.856 76.0253 201.831 75.0884 203.033 75.0884Z" fill="#8FE2FF"/>
<path d="M71.5936 27.0268C71.0698 24.3637 68.6399 22.3481 65.7163 22.3481C64.7519 22.3481 63.8439 22.5727 63.0368 22.9622C62.3505 18.4644 58.3314 15.0079 53.4613 15.0079C48.1096 15.0079 43.7713 19.1777 43.7713 24.3215C43.7713 25.0348 43.8625 25.7267 44.0204 26.3946C43.3569 26.1217 42.6273 25.97 41.8607 25.97C38.8237 25.97 36.3613 28.3362 36.3613 31.2557C36.3613 34.1746 38.8232 36.5414 41.8607 36.5414C42.6005 36.5414 43.3051 36.3989 43.9492 36.1442C44.6446 39.0664 47.36 41.2491 50.6113 41.2491C52.5049 41.2491 54.2183 40.5089 55.4569 39.3141C56.2982 39.6253 57.2085 39.8028 58.1638 39.8028C60.8822 39.8028 63.2579 38.4178 64.5877 36.3469C65.7203 37.6491 67.4218 38.4786 69.3261 38.4786C72.7364 38.4786 75.5009 35.8215 75.5009 32.5437C75.5015 30.0361 73.881 27.8962 71.5936 27.0268Z" fill="#8FE2FF"/>
<path d="M285 79.8339V253H0V79.8339C8.9433 79.8339 16.359 86.1397 17.6928 94.374C34.1544 95.1958 47.2416 108.284 47.2416 124.314C47.2416 125.919 47.1048 127.497 46.854 129.042C48.4044 129.179 49.9206 129.42 51.3912 129.765C57.114 123.29 65.6412 119.175 75.1716 119.175C85.4772 119.175 94.6143 123.986 100.297 131.393C100.633 131.382 100.976 131.365 101.317 131.365C113.954 131.365 124.824 138.591 129.726 148.979C130.399 148.946 131.066 148.929 131.744 148.929C134.657 148.929 137.495 149.209 140.249 149.729C144.968 138.942 156.066 131.365 169.005 131.365C169.883 131.365 170.749 131.409 171.604 131.48C176.415 120.885 187.405 113.483 200.195 113.483C201.347 113.483 202.475 113.543 203.593 113.659C206.671 93.4536 224.774 77.9384 246.65 77.9384C255.97 77.9384 264.594 80.7598 271.673 85.5535C274.951 82.0418 279.705 79.8339 285 79.8339Z" fill="#8FE2FF"/>
<path d="M36.3603 62.9929C36.3603 66.4718 33.4305 69.2878 29.8167 69.2878C28.4487 69.2878 27.1776 68.8824 26.1288 68.1921C23.7576 73.0899 18.6048 76.4976 12.6141 76.4976C10.1688 76.4976 7.8717 75.9223 5.8368 74.9197C4.1724 76.0154 2.1717 76.6564 0 76.6564V37.8245C1.4364 37.3807 2.964 37.1396 4.5486 37.1396C10.2315 37.1396 15.1677 40.1967 17.6814 44.6891C18.2628 44.5905 18.8499 44.5302 19.4598 44.5302C25.1769 44.5302 29.8167 48.9898 29.8167 54.4847C29.8167 55.2517 29.7141 55.9968 29.5431 56.7145C29.6343 56.7145 29.7255 56.7036 29.8167 56.7036C33.4305 56.7036 36.3603 59.5195 36.3603 62.9929Z" fill="#8FE2FF"/>
<path d="M285 36.0768V73.8404C281.273 72.9146 278.366 70.0493 277.505 66.428C276.53 66.8114 275.464 67.0306 274.347 67.0306C269.747 67.0306 266.014 63.4476 266.014 59.0264C266.014 54.6052 269.747 51.0168 274.347 51.0168C275.504 51.0168 276.61 51.2469 277.613 51.6633C277.374 50.6497 277.237 49.6033 277.237 48.524C277.237 43.1332 280.383 38.4545 285 36.0768Z" fill="#8FE2FF"/>
<path d="M285 170.225H0V253H285V170.225Z" fill="#009245"/>
<path opacity="0.15" d="M285 209.21C279.745 210.508 274.512 211.944 269.308 213.374C270.676 214.387 271.502 216.042 271.468 217.702C261.191 220.72 250.914 223.739 240.631 226.758C246.457 226.971 252.276 227.185 258.096 227.399C243.305 229.618 228.513 231.831 213.722 234.044C220.955 234.537 228.194 235.025 235.427 235.512C221.548 237.293 207.662 239.068 193.709 240.169C154.897 243.221 115.642 240.969 77.4858 233.502C80.0907 233.206 82.6956 232.91 85.3062 232.62C67.8414 233.792 50.2854 233.622 32.8491 232.105C42.3681 230.127 51.8871 228.144 61.4061 226.166C56.1165 224.501 50.8155 222.841 45.4404 221.444C33.9321 218.452 22.0818 216.688 10.1688 216.201L10.7616 214.59C7.1763 214.573 3.591 214.606 0 214.683V170.225H54.2868C121.364 172.926 188.528 173.402 255.674 173.868C226.592 175.358 197.556 177.654 168.612 180.743C190.91 183.68 213.402 185.258 235.912 185.466C221.576 186.151 207.246 186.836 192.911 187.52C219.313 189.827 245.716 192.128 272.118 194.429C264.337 193.886 256.46 194.577 248.908 196.456C260.94 197.793 272.973 199.129 285 200.466V209.21Z" fill="#231F20"/>
<path d="M145.89 182.319C157.443 184.848 169.452 185.791 181.337 185.102C181.637 187.372 184.557 188.679 187.173 188.837C189.789 188.995 192.444 188.425 195.023 188.836C199.432 189.538 202.63 192.891 206.774 194.378C208.772 195.096 210.94 195.36 213.08 195.618C233.125 198.032 253.169 200.447 273.213 202.861C269.286 203.979 265.465 205.379 261.801 207.043C262.017 208.567 262.736 210.036 263.849 211.227C256.675 217.959 244.705 218.36 235.436 222.738C234.013 223.41 232.447 224.753 233.208 225.998C225.228 224.68 217.079 226.641 209.202 228.364C186.303 233.374 162.815 236.495 139.21 236.944C130.944 237.1 122.474 236.899 114.746 234.337C108.079 232.127 102.143 228.215 95.1618 226.933C88.8143 225.767 82.2319 226.894 75.7493 226.687C74.5278 226.648 73.2476 226.544 72.2284 225.956C71.2822 225.41 70.6837 224.516 69.8538 223.842C68.5171 222.755 66.6766 222.303 64.9096 221.895C50.5644 218.582 36.0573 215.801 21.4414 213.562C29.7172 212.498 37.9936 211.433 46.2695 210.369C49.7989 209.915 53.3557 209.455 56.7102 208.398C61.9479 206.747 66.4936 203.703 71.7393 202.07C73.284 201.589 74.9832 201.175 76.0041 200.056C76.6955 199.298 76.9799 198.306 77.669 197.546C80.3988 194.536 86.8677 197.117 89.9263 194.358C90.7922 193.576 91.1969 192.498 91.9014 191.601C95.6092 186.884 104.2 189.566 110.397 187.687C113.297 186.808 115.653 184.889 118.528 183.951C120.898 183.177 123.484 183.113 126.014 183.058C134.284 182.877 142.554 182.697 150.824 182.517" fill="#7F4C22"/>
<path opacity="0.15" d="M186.077 216.792C205.286 216.979 224.489 217.165 243.698 217.351C231.021 220.797 217.82 221.312 204.778 220.216C198.297 219.669 192.267 218.573 185.689 219.077C182.48 219.323 179.288 219.795 176.147 220.479C173.896 220.972 169.678 223.219 167.517 222.972C170.333 223.295 173.143 223.613 175.959 223.936C177.242 224.084 178.53 224.232 179.767 224.594C181.003 224.95 182.172 225.52 183.415 225.87C185.37 226.424 187.445 226.424 189.491 226.418C195.253 226.402 201.022 226.385 206.785 226.374C192.438 227.092 178.057 227.202 163.704 226.692C156.699 226.445 150.303 226.287 143.349 227.103C136.794 227.87 129.783 229.47 123.188 229.47C129.772 228.456 136.27 226.955 142.608 224.977C120.373 223.542 98.0799 222.983 75.7986 223.306C78.2838 222.523 80.655 221.383 82.7925 219.937C67.9155 219.318 53.0271 220.545 38.2185 222.068C25.4505 223.372 12.7053 224.901 0 226.648V186.682C11.1663 187.477 23.3187 185.225 34.0746 188.583C39.3015 190.216 44.0211 193.13 49.2651 194.714C53.58 196.012 58.14 196.374 62.6544 196.637C81.2193 197.716 99.8754 197.256 118.361 195.256C119.706 195.114 121.193 194.884 122.031 193.859C122.681 193.065 122.778 191.958 123.394 191.142C124.317 189.92 126.084 189.679 127.652 189.564C141.314 188.534 155.063 188.616 168.714 189.816L170.265 191.136C173.924 191.24 177.583 191.339 181.243 191.443C182.201 191.47 183.244 191.531 183.945 192.15C184.6 192.72 184.788 193.634 185.335 194.303C186.139 195.278 187.524 195.557 188.795 195.777C196.639 197.119 204.499 198.467 212.359 199.612C219.233 200.62 226.82 199.59 233.523 201.222C234.715 201.507 235.866 201.929 237.057 202.236C240.916 203.233 244.986 203.036 248.976 202.833C240.341 204.756 231.483 205.742 222.619 205.764C224.597 205.211 226.569 204.624 228.559 204.12C226.666 204.394 223.811 203.315 221.798 203.342C218.475 203.397 215.158 204.093 212.12 205.408C214.702 207.435 217.871 208.761 221.171 209.183C218.339 209.095 215.483 209.982 213.237 211.648C204.031 209.078 193.578 211.056 186.077 216.792Z" fill="#231F20"/>
<path d="M44.8051 147.943C44.8051 147.943 47.9926 149.303 43.8544 168.35C39.7162 187.398 33.7523 196.375 25.8258 195.486C17.9006 194.595 20.8058 147.091 44.8051 147.943Z" fill="#231F20"/>
<path d="M57.2333 154.289C57.2333 154.289 60.7274 154.215 56.5538 167.13C52.3803 180.046 44.2749 190.072 38.5196 190.208C38.5196 190.208 33.7362 168.187 57.2333 154.289Z" fill="#BABCBE"/>
<path d="M168.716 206.337C166.904 206.572 164.179 206.046 164.179 206.046C163.336 211.826 163.347 209.448 157.755 208.007C157.744 208.002 157.738 208.007 157.727 208.007C157.505 207.969 157.299 207.942 157.106 207.903C156.057 207.717 155.367 207.542 155.321 207.531C155.43 207.761 157.527 210.851 150.836 212.527C143.996 214.237 133.884 210.56 122.518 212.023C118.876 212.494 100.727 211.722 95.1807 211.13C80.5773 209.569 82.6578 201.422 66.8004 199.045C62.5767 198.409 5.39888 174.292 0.000976562 173.706V134.425C12.1192 140.457 75.9831 164.267 80.5773 162.957C93.864 159.188 103.947 160.799 112.657 164.097C116.254 165.461 120.512 165.236 124.262 164.486C124.701 164.404 125.129 164.311 125.55 164.212C127.916 163.664 130.002 162.952 131.501 162.377C131.946 162.207 132.339 162.048 132.67 161.911C132.675 161.905 132.675 161.905 132.675 161.905C133.451 161.582 133.889 161.369 133.889 161.369C135.012 163.105 135.309 164.793 135.183 166.288C135.143 166.787 135.052 167.269 134.938 167.724C134.927 167.746 134.921 167.773 134.915 167.8C134.249 170.238 132.67 171.915 132.55 172.035L132.544 172.041C132.544 172.041 140.325 173.931 151.81 176.194C155.8 176.982 163.45 182.817 168.466 186.937C171.31 189.265 173.305 191.051 173.305 191.051C174.69 193.758 173.265 195.368 171.971 196.207C171.954 196.212 171.943 196.223 171.926 196.234C171.247 196.667 170.603 196.886 170.432 196.941C170.404 196.952 170.387 196.957 170.387 196.957L174.399 198.924C176.081 204.359 171.931 205.92 168.716 206.337Z" fill="#D39562"/>
<path opacity="0.15" d="M168.716 206.337C166.904 206.572 164.179 206.046 164.179 206.046C163.336 211.826 163.347 209.448 157.755 208.007C157.744 208.002 157.738 208.007 157.727 208.007C157.505 207.969 157.299 207.942 157.106 207.903C156.057 207.717 155.367 207.542 155.321 207.531C155.43 207.761 157.527 210.851 150.836 212.527C143.996 214.237 133.884 210.56 122.518 212.023C118.876 212.494 100.727 211.722 95.1807 211.13C80.5773 209.569 82.6578 201.422 66.8004 199.045C62.5767 198.409 5.39888 174.292 0.000976562 173.706V146.324C14.6101 152.543 62.3715 167.904 68.043 169.214C75.168 170.857 82.008 167.844 82.008 167.844C82.008 167.844 87.3204 172.978 95.118 172.501C102.916 172.024 107.555 169.762 114.019 170.583C119.263 171.252 130.247 171.931 134.87 167.839L132.55 172.035L132.544 172.041L126.924 176.517C126.924 176.517 135.32 181.464 139.732 181.365C144.138 181.267 150.203 179.629 152.585 181.404C154.335 182.713 162.458 186.307 168.466 186.937C171.31 189.265 173.305 191.051 173.305 191.051C174.69 193.758 173.265 195.368 171.971 196.207C171.954 196.212 171.943 196.223 171.926 196.234C171.247 196.667 170.603 196.886 170.432 196.941C170.404 196.952 170.387 196.957 170.387 196.957L174.399 198.924C176.081 204.359 171.931 205.92 168.716 206.337Z" fill="#231F20"/>
<path d="M132.669 161.911C132.51 162.026 129.95 163.932 129.916 165.79C129.916 165.79 124.113 168.529 124.148 165.105C124.148 164.886 124.188 164.678 124.262 164.486C124.701 164.404 125.128 164.311 125.55 164.212C127.915 163.664 130.002 162.952 131.501 162.377C131.945 162.207 132.339 162.048 132.669 161.911Z" fill="#F9BB8A"/>
<path d="M38.5242 184.644C38.3002 186.488 38.2797 188.356 38.5191 190.209L12.8389 187.325L18.7218 138.933C18.7218 138.933 29.0252 143.587 39.2897 147.807C41.0664 148.536 42.8385 149.253 44.5577 149.932C49.7931 151.993 54.5161 153.693 57.2327 154.29C57.2327 154.29 40.4423 168.957 38.5242 184.644Z" fill="#E5E6E7"/>
<path d="M38.5242 184.644C38.3002 186.488 38.2797 188.356 38.5191 190.209L21.8232 188.334C23.4939 179.972 30.1555 149.721 39.2892 147.807C41.0659 148.536 42.838 149.253 44.5571 149.932L44.5623 149.938C44.5623 149.938 28.8354 170.731 29.8449 183.669L38.5242 184.644Z" fill="#CFD1D2"/>
<path d="M44.8049 147.943C44.8049 147.943 19.9757 172.801 25.8261 195.485L0 189.664V127.883L44.8049 147.943Z" fill="#2D2D2D"/>
<path d="M171.794 142.347C171.794 142.347 158.906 160.464 136.613 154.756C136.003 154.602 135.388 154.427 134.767 154.235C134.767 154.235 146.754 135.625 171.794 142.347Z" fill="#007233"/>
<g opacity="0.25">
<path d="M167.713 143.563C167.713 143.563 146.497 145.952 136.613 154.756C136.003 154.602 135.388 154.427 134.767 154.235C134.767 154.235 148.105 142.5 167.713 143.563Z" fill="#231F20"/>
</g>
<path d="M136.306 142.659C135.724 142.802 135.154 142.928 134.596 143.037C113.09 147.212 110.536 125.035 110.536 125.035C129.796 125.478 134.978 138.139 136.061 141.722C136.237 142.314 136.306 142.659 136.306 142.659Z" fill="#007233"/>
<g opacity="0.25">
<path d="M136.306 142.659C135.724 142.802 135.154 142.928 134.596 143.037C131.991 140.183 125.823 134.518 112.383 126.382C112.736 126.492 123.754 129.971 136.061 141.722C136.237 142.314 136.306 142.659 136.306 142.659Z" fill="#231F20"/>
</g>
<path d="M176.873 100.447C161.255 115.458 137.11 117.288 119.411 105.942C118.693 105.487 117.992 105.011 117.302 104.507C115.78 103.405 114.31 102.2 112.907 100.88C112.754 100.743 112.594 100.595 112.44 100.447C110.422 98.5076 108.632 96.4312 107.071 94.2507C105.925 92.6455 104.905 90.9855 104.01 89.2817C103.913 89.1009 103.822 88.9256 103.73 88.7448C95.397 72.3968 98.2983 52.0988 112.44 38.512C125.043 26.3989 143.192 22.8652 159.032 27.9164C161.158 28.5903 163.244 29.423 165.268 30.4037C166.807 31.1597 168.3 31.998 169.759 32.9238C169.982 33.0663 170.204 33.2087 170.426 33.3566C172.695 34.8523 174.861 36.5726 176.873 38.512C177.027 38.6599 177.181 38.8078 177.329 38.9612C178.429 40.046 179.461 41.1745 180.418 42.3415C180.646 42.6209 180.874 42.9058 181.097 43.1906C181.621 43.8535 182.117 44.5274 182.59 45.2177C194.4 62.2286 192.497 85.4303 176.873 100.447Z" fill="#E28B00"/>
<path d="M182.151 69.4767C182.151 89.3858 165.359 105.515 144.651 105.515C138.153 105.515 132.037 103.926 126.707 101.121C125.938 100.721 125.18 100.294 124.444 99.8334C122.803 98.8253 121.247 97.6968 119.793 96.4531C117.536 94.5356 115.524 92.3607 113.802 89.972C113.346 89.3365 112.913 88.69 112.497 88.0271C111.876 87.0355 111.306 86.0165 110.787 84.9646C108.456 80.2695 107.156 75.021 107.156 69.4767C107.156 49.5732 123.943 33.4388 144.651 33.4388C149.661 33.4388 154.443 34.3866 158.81 36.1014C159.471 36.3589 160.121 36.6383 160.759 36.9342C162.589 37.7614 164.327 38.7366 165.975 39.8268C166.727 40.3309 167.462 40.8568 168.175 41.4101C169.811 42.6702 171.327 44.0727 172.723 45.5793C174.012 46.9763 175.191 48.472 176.235 50.0553C176.605 50.6031 176.953 51.1619 177.289 51.7262C177.386 51.8906 177.483 52.0604 177.574 52.2303C180.498 57.3472 182.151 63.2202 182.151 69.4767Z" fill="#FFCE00"/>
<g opacity="0.25">
<path d="M152.603 70.5779L154.501 68.7535C153.942 69.4274 153.309 70.041 152.603 70.5779Z" fill="white"/>
</g>
<path d="M171.794 44.6178C165.078 38.4862 155.986 34.7345 145.999 34.7345C125.292 34.7345 108.508 50.8661 108.508 70.7691C108.508 80.4136 112.445 89.1716 118.865 95.633C111.65 89.0741 107.155 79.7792 107.155 69.4757C107.155 49.5726 123.946 33.441 144.653 33.441C155.333 33.4405 164.964 37.7291 171.794 44.6178Z" fill="#BC6F00"/>
<path opacity="0.25" d="M170.445 34.4387C170.445 34.4387 163.382 29.0374 152.602 27.1078C140.596 24.9591 124.155 26.9139 111.355 41.1954C86.655 68.7536 108.915 96.6482 113.635 99.8158C113.635 99.8158 136.31 98.3476 143.845 81.7366C151.38 65.1257 134.655 45.0303 170.445 34.4387Z" fill="white"/>
<path opacity="0.15" d="M118.195 102.738C118.195 102.738 129.007 111.275 142.599 111.562C156.19 111.85 176.716 104.747 184.315 88.1285C191.915 71.5104 188.212 56.4849 184.315 49.4132C184.315 49.4132 175.576 52.8148 170.446 64.5367C165.316 76.2586 167.406 91.9635 158.476 99.8159C149.545 107.668 133.966 109.677 118.195 102.738Z" fill="#231F20"/>
<path opacity="0.25" d="M105.085 86.1195C103.612 86.5907 101.318 74.6146 101.318 67.2859C101.318 55.49 107.32 44.6891 116.688 37.1736C127.224 28.7218 140.221 26.3841 153.57 28.2808C150.268 28.0661 146.896 29.4609 144.788 31.9126C144.291 32.4905 137.586 32.3985 136.384 32.6483C133.511 33.246 130.718 34.1867 128.076 35.4243C122.794 37.899 118.101 41.5707 114.603 46.1146C107.653 55.1411 105.094 66.7698 107.697 77.7214C107.974 78.8873 108.281 80.0734 108.74 81.1883C108.74 81.1883 109.075 84.8414 105.085 86.1195Z" fill="white"/>
<path d="M148.503 114.817C126.444 116.51 114.184 107.87 110.199 104.392C109.219 103.537 108.74 102.995 108.74 102.995C124.786 101.033 135.827 105.608 142.131 109.629C142.148 109.64 142.159 109.645 142.171 109.651C142.182 109.656 142.194 109.662 142.199 109.667C146.429 112.374 148.503 114.817 148.503 114.817Z" fill="#00843C"/>
<path d="M177.289 104.452C177.289 104.452 160.958 117.797 137.457 114.182C137.457 114.182 137.463 114.182 137.463 114.176C137.468 114.171 137.474 114.16 137.486 114.149C138.192 113.437 151.553 100.343 177.289 104.452Z" fill="#009245"/>
<path d="M146.942 177.421L144.063 180.138C141.88 178.001 140.073 175.799 138.603 173.569C128.172 157.802 134.185 140.577 137.639 133.274C142.097 123.846 140.25 119.408 140.227 119.364L143.892 117.743C143.978 117.918 144.24 118.504 144.439 119.523C144.918 122 145.026 127.029 141.31 134.88C137.708 142.489 131.05 161.867 146.942 177.421Z" fill="#007233"/>
<g opacity="0.25">
<path d="M177.289 104.452C177.289 104.452 156.415 103.455 137.463 114.176C137.469 114.171 137.474 114.16 137.486 114.149C138.192 113.437 151.553 100.343 177.289 104.452Z" fill="white"/>
</g>
<g opacity="0.25">
<path d="M142.131 109.629C141.088 109.087 128.058 102.54 110.199 104.392C109.219 103.537 108.74 102.995 108.74 102.995C124.786 101.033 135.827 105.608 142.131 109.629Z" fill="white"/>
</g>
<g opacity="0.25">
<path d="M146.942 177.421L144.063 180.138C141.88 178.001 140.073 175.799 138.603 173.569C139.235 172.643 139.851 172.019 139.851 172.019C139.851 172.019 135.884 165.308 134.766 154.235C133.649 143.163 141.299 128.19 142.131 125.035C142.963 121.879 142.131 119.786 142.131 119.786L144.439 119.523C144.918 122 145.026 127.029 141.31 134.88C137.708 142.489 131.05 161.867 146.942 177.421Z" fill="#231F20"/>
</g>
<path d="M150.835 114.664C150.835 114.664 148.048 121.156 142.599 121.156C141.214 121.156 140.005 120.739 138.968 120.115C135.913 118.28 134.362 114.664 134.362 114.664C134.362 114.664 138.518 111.273 146.971 113.398C148.173 113.7 149.462 114.116 150.835 114.664Z" fill="#007233"/>
<g opacity="0.25">
<path d="M150.835 114.664C150.835 114.664 148.048 121.156 142.599 121.156C141.214 121.156 140.005 120.74 138.968 120.115C147.404 120.115 147.107 114.505 146.971 113.398C148.173 113.7 149.461 114.116 150.835 114.664Z" fill="#231F20"/>
</g>
<path d="M200.275 208.602C200.845 211.122 195.145 211.577 193.15 212.168C191.155 212.766 182.337 214.864 183.038 215.866C183.745 216.874 182.588 219.17 177.749 218.019C172.915 216.874 167.717 220.945 167.717 220.945C167.717 220.945 165.841 220.781 163.755 220.709C161.96 220.655 159.999 220.677 158.944 220.945C157.97 221.197 156.909 221.411 155.462 221.498C153.535 221.613 150.93 221.504 146.94 220.945C139.952 219.975 132.525 225.027 128.666 223.723C124.813 222.419 127.526 221.559 117.3 218.803C107.08 216.053 103.004 216.075 101.483 216.338C101.118 216.398 99.9663 216.617 98.3817 216.847C93.3144 217.587 83.841 218.496 81.6921 215.187C78.8649 210.848 78.0099 208.602 78.0099 208.602C78.0099 208.602 65.4699 209.1 64.0449 208.602C64.0449 208.602 72.8799 209.489 74.3049 206.745C75.7299 204 81.9999 201.43 84.5649 202.165C87.1299 202.904 96.5748 200.981 96.9852 199.064C97.3899 197.152 100.24 195.508 100.24 195.508C100.24 195.508 110.563 193.591 112.381 189.482C114.205 185.373 119.238 182.825 121.205 182.792C123.171 182.754 129.829 182.179 129.851 179.938C129.88 177.703 133.22 180.174 135.54 178.53C137.461 177.166 137.78 175.758 138.966 175.413C139.217 175.336 139.502 175.309 139.849 175.342C141.85 175.511 143.873 175.889 144.005 174.191C144.005 174.191 149.699 174.98 151.238 177.067C152.783 179.155 156.026 185.767 157.377 184.852C158.728 183.937 167.95 185.565 169.005 186.567C170.065 187.564 170.384 194.1 171.792 193.574C173.2 193.043 176.609 194.412 179.037 195.508C181.465 196.604 201.985 197.245 203.695 198.297C205.405 199.343 209.965 202.526 211.105 202.165C211.105 202.165 199.705 206.087 200.275 208.602Z" fill="#603813"/>
<path opacity="0.15" d="M200.275 208.602C200.845 211.122 195.145 211.577 193.15 212.168C191.155 212.766 182.337 214.864 183.038 215.866C183.745 216.874 182.588 219.17 177.748 218.019C172.915 216.874 167.716 220.945 167.716 220.945C167.716 220.945 165.841 220.781 163.755 220.709C164.2 220.6 164.519 220.518 164.644 220.485C165.493 220.255 167.785 218.518 167.563 218.019C167.335 217.526 173.103 214.864 174.494 212.557C175.89 210.245 171.775 209.752 170.817 208.344C169.86 206.936 174.437 203.178 175.548 203.041C176.665 202.904 172.345 198.067 170.43 196.943C168.52 195.815 163.983 197.519 163.772 196.675C163.555 195.831 161.703 193.136 160.928 192.588C160.153 192.04 153.085 190.758 153.085 190.758C153.085 190.758 151.825 189.849 152.081 188.337C152.338 186.825 153.723 185.827 151.238 183.872C148.753 181.921 146.507 178.344 142.636 178.672C138.766 179.001 138.966 175.413 138.966 175.413C139.216 175.336 139.501 175.309 139.849 175.342C141.85 175.511 143.873 175.889 144.004 174.191C144.004 174.191 149.699 174.98 151.238 177.067C152.782 179.155 156.026 185.767 157.377 184.852C158.728 183.937 167.95 185.565 169.005 186.567C170.065 187.564 170.384 194.1 171.792 193.574C173.2 193.043 176.608 194.412 179.037 195.508C181.465 196.604 201.985 197.245 203.695 198.297C205.405 199.343 209.965 202.526 211.105 202.165C211.105 202.165 199.705 206.087 200.275 208.602Z" fill="#231F20"/>
<path opacity="0.25" d="M137.737 179.657C137.737 179.657 139.266 182.177 138.516 183.09C137.765 184.003 139.086 186.752 139.755 186.564C140.425 186.377 143.275 186.574 143.275 186.574L146.683 189.664C146.683 189.664 143.267 187.31 141.177 188.128C139.087 188.947 136.37 187.298 134.041 186.512C131.711 185.726 130.492 185.319 129.853 184.661C129.215 184.003 131.786 182.649 133.635 183.874C133.635 183.874 131.97 180.291 132.112 180.138C132.255 179.985 136.758 181.338 137.737 179.657Z" fill="white"/>
<path opacity="0.15" d="M162.347 206.745C161.327 207.561 159.583 208.613 160.928 209.095C162.273 209.571 162.347 211.993 162.347 211.993L160.512 215.379V218.206C160.512 218.206 156.077 219.351 155.462 221.498C153.535 221.613 150.93 221.504 146.94 220.945C139.952 219.975 132.525 225.026 128.666 223.723C124.813 222.419 127.526 221.559 117.3 218.803C107.08 216.053 103.005 216.075 101.483 216.337C101.118 216.398 99.9664 216.617 98.3818 216.847C97.5097 216.239 96.9854 215.866 96.9854 215.866L125.36 198.045L146.684 195.875C146.684 195.875 160.905 201.748 162.347 202.827C163.795 203.907 163.373 205.928 162.347 206.745Z" fill="#231F20"/>
<path d="M76.0646 97.7011L80.9091 96.9138L76.0646 96.1266L75.2456 91.4703L74.4265 96.1266L69.582 96.9138L74.4265 97.7011L75.2456 102.357L76.0646 97.7011Z" fill="white"/>
<path d="M125.789 111.499L130.634 110.712L125.789 109.925L124.97 105.269L124.151 109.925L119.307 110.712L124.151 111.499L124.97 116.156L125.789 111.499Z" fill="white"/>
<path d="M205.985 44.0234L210.829 43.2361L205.985 42.4488L205.165 37.7926L204.347 42.4488L199.502 43.2361L204.347 44.0234L205.165 48.6796L205.985 44.0234Z" fill="white"/>
<path d="M108.135 48.8451L115.742 47.6091L108.135 46.3726L106.848 39.0609L105.562 46.3726L97.9551 47.6091L105.562 48.8451L106.848 56.1567L108.135 48.8451Z" fill="white"/>
<path d="M179.582 99.5019L187.189 98.2654L179.582 97.0294L178.296 89.7178L177.01 97.0294L169.402 98.2654L177.01 99.5019L178.296 106.814L179.582 99.5019Z" fill="white"/>
<path d="M93.8106 132.953L96.6486 132.492L93.8106 132.03L93.3307 129.302L92.8513 132.03L90.0127 132.492L92.8513 132.953L93.3307 135.681L93.8106 132.953Z" fill="white"/>
<path d="M44.7794 129.764L47.6174 129.302L44.7794 128.841L44.2994 126.113L43.8195 128.841L40.9814 129.302L43.8195 129.764L44.2994 132.492L44.7794 129.764Z" fill="white"/>
<path d="M236.995 62.4483L239.833 61.9876L236.995 61.5263L236.515 58.798L236.035 61.5263L233.197 61.9876L236.035 62.4483L236.515 65.1767L236.995 62.4483Z" fill="white"/>
<path d="M50.6837 65.6379L53.5223 65.1766L50.6837 64.7153L50.2043 61.9875L49.7243 64.7153L46.8857 65.1766L49.7243 65.6379L50.2043 68.3657L50.6837 65.6379Z" fill="white"/>
<path d="M181.52 28.4824L184.358 28.0211L181.52 27.5598L181.04 24.832L180.56 27.5598L177.722 28.0211L180.56 28.4824L181.04 31.2102L181.52 28.4824Z" fill="white"/>
<path d="M160.99 141.344L163.829 140.883L160.99 140.422L160.511 137.694L160.031 140.422L157.192 140.883L160.031 141.344L160.511 144.073L160.99 141.344Z" fill="white"/>
<path d="M205.646 84.6895L208.484 84.2282L205.646 83.767L205.166 81.0392L204.686 83.767L201.848 84.2282L204.686 84.6895L205.166 87.4173L205.646 84.6895Z" fill="white"/>
<path d="M81.3887 42.1557L84.2268 41.6944L81.3887 41.2331L80.9088 38.5054L80.4289 41.2331L77.5908 41.6944L80.4289 42.1557L80.9088 44.8835L81.3887 42.1557Z" fill="white"/>
<path d="M134.673 14.5948L137.511 14.1335L134.673 13.6722L134.193 10.9445L133.713 13.6722L130.875 14.1335L133.713 14.5948L134.193 17.3226L134.673 14.5948Z" fill="white"/>
<path d="M26.9949 161.911C26.9949 161.911 30.3254 162.906 28.5151 182.286C26.7048 201.667 21.8649 211.249 13.8849 211.249C5.90489 211.249 3.05489 163.741 26.9949 161.911Z" fill="#231F20"/>
<path d="M40.1048 166.827C40.1048 166.827 43.5664 166.364 40.9809 179.658C38.3948 192.951 31.5548 203.814 25.8548 204.592C25.8548 204.592 18.4448 183.253 40.1048 166.827Z" fill="#BABCBE"/>
<path d="M158.266 209.248C159.178 214.847 154.852 215.866 151.609 215.866C149.779 215.872 147.151 215.001 147.151 215.001C145.515 220.622 140.881 220.945 135.54 218.803C135.529 218.797 135.523 218.797 135.512 218.797C135.295 218.732 135.096 218.677 134.908 218.617C133.893 218.299 133.238 218.036 133.192 218.019C133.232 218.145 133.682 219.077 133.192 220.063V220.068C133.124 220.205 133.038 220.348 132.924 220.485C132.89 220.529 132.856 220.572 132.821 220.616C132.257 221.241 131.214 221.832 129.35 222.194C128.957 222.276 128.524 222.342 128.056 222.397C121.039 223.219 111.526 218.288 100.058 218.288C96.3813 218.288 86.4462 217.192 80.8944 217.74C75.3426 218.288 59.6676 218.206 47.1048 208.602C41.9634 204.674 34.5648 202.164 0 197.623V158.84C50.2398 172.849 60.5397 170.893 64.7862 169.529C73.3362 166.789 88.7262 165.146 96.9057 169.529C100.679 171.55 105.536 171.709 109.668 171.287C112.085 171.046 114.257 170.603 115.818 170.225C117.374 169.846 118.326 169.529 118.326 169.529C119.198 171.397 119.261 173.106 118.931 174.574C118.195 177.851 115.516 179.938 115.516 179.938C115.516 179.938 122.972 182.803 134.041 186.512C140.06 188.528 158.266 201.304 158.266 201.304C159.264 204.164 157.633 205.578 156.231 206.241C156.214 206.246 156.203 206.257 156.186 206.262C155.45 206.608 154.784 206.745 154.607 206.777C154.578 206.783 154.561 206.783 154.561 206.783L158.266 209.248Z" fill="#E8A970"/>
<path opacity="0.15" d="M92.1699 174.193L115.517 179.94C115.517 179.94 118.196 177.852 118.931 174.576C113.778 179.94 97.5331 172.848 92.1699 174.193Z" fill="#231F20"/>
<path opacity="0.15" d="M108.962 189.253C111.242 190.897 126.632 194.184 130.861 194.458C135.091 194.732 154.562 206.785 154.562 206.785C154.562 206.785 154.579 206.785 154.608 206.779C154.784 206.746 155.451 206.609 156.186 206.264C156.204 206.259 156.216 206.248 156.232 206.242C156.216 206.237 156.204 206.237 156.186 206.237H156.181C149.803 204.045 135.627 193.472 131.278 192.524C126.233 191.428 117.228 187.605 112.918 186.783C108.608 185.961 106.682 187.61 108.962 189.253Z" fill="#231F20"/>
<path opacity="0.15" d="M105.553 200.21C106.699 201.854 114.376 201.306 125.491 204.593C136.606 207.88 147.151 215.002 147.151 215.002C147.151 215.002 149.779 215.874 151.609 215.868C143.207 211.923 131.983 203.224 129.196 203.224C125.491 203.224 112.096 198.293 108.585 197.745C105.068 197.197 104.402 198.567 105.553 200.21Z" fill="#231F20"/>
<path opacity="0.15" d="M96.9917 206.242C96.8036 208.724 100.309 208.894 102.122 209.233C108.084 210.357 113.425 211.957 119.649 212.745C125.304 213.457 128.279 215.649 133.192 218.021C133.238 218.037 133.893 218.3 134.908 218.618C135.096 218.678 135.296 218.733 135.513 218.799C135.524 218.799 135.53 218.799 135.541 218.805C131.922 215.315 122.58 211.863 119.507 210.817C114.269 209.037 108.865 209.135 103.547 207.546C101.637 206.976 97.2077 203.459 96.9917 206.242Z" fill="#231F20"/>
<path d="M157.696 201.715C157.696 201.715 157.696 204.592 154.846 204.592C154.846 204.592 153.393 203.83 152.692 202.827C152.242 202.176 152.099 201.425 152.857 200.713C153.404 200.198 154.026 200.055 154.636 200.11C156.203 200.253 157.696 201.715 157.696 201.715Z" fill="#F9BB8A"/>
<path d="M156.898 210.054C156.898 210.054 156.898 214.152 152.56 214.152C152.56 214.152 150.149 213.154 149.459 211.714C149.112 211.012 149.186 210.196 150.155 209.341C150.787 208.783 151.466 208.498 152.133 208.394C154.567 208.01 156.898 210.054 156.898 210.054Z" fill="#F9BB8A"/>
<path d="M144.358 214.628C144.358 214.628 144.358 218.206 140.573 218.206C140.573 218.206 138.464 217.011 137.883 215.538C137.603 214.831 137.677 214.053 138.515 213.313C139.376 212.552 140.311 212.448 141.177 212.639C142.91 213.034 144.358 214.628 144.358 214.628Z" fill="#F9BB8A"/>
<path d="M130.109 218.217C130.109 218.217 130.109 220.945 127.219 220.945C127.219 220.945 126.17 220.457 125.457 219.74C124.802 219.088 124.426 218.25 125.361 217.422C125.851 216.99 126.392 216.82 126.928 216.809C128.547 216.787 130.109 218.217 130.109 218.217Z" fill="#F9BB8A"/>
<path d="M115.516 172.131C115.613 172.947 112.894 173.101 111.093 172.4C110.437 172.148 109.907 171.775 109.668 171.287C110.198 171.233 110.722 171.172 111.224 171.101C113.014 170.855 114.598 170.52 115.818 170.225C115.619 170.816 115.448 171.534 115.516 172.131Z" fill="#F9BB8A"/>
<path opacity="0.15" d="M129.35 222.194C128.957 222.276 128.524 222.342 128.056 222.397C121.04 223.219 111.526 218.288 100.058 218.288C96.3813 218.288 86.4462 217.192 80.8944 217.74C75.3426 218.288 59.6676 218.206 47.1048 208.602C41.9634 204.674 34.5648 202.164 0 197.623V188.128C11.856 190.621 34.0518 195.333 38.3952 196.675C44.3802 198.521 59.7702 211.221 62.6202 211.993C65.4702 212.765 74.8752 212.557 74.8752 212.557C74.8752 212.557 82.8552 214.442 87.1302 214.152C91.4052 213.861 104.213 216.535 107.069 216.568C109.355 216.595 122.39 222.934 129.35 222.194Z" fill="#231F20"/>
<path opacity="0.25" d="M133.192 220.068C133.123 220.205 133.038 220.348 132.924 220.485C133.021 220.353 133.106 220.216 133.192 220.068Z" fill="#231F20"/>
<path opacity="0.15" d="M107.991 179.94C107.11 180.005 106.294 179.289 105.455 178.991C104.388 178.613 103.256 178.43 102.129 178.329C99.7825 178.117 97.4204 178.324 95.0703 178.322C92.5104 178.32 89.9603 178.044 87.4164 177.769C84.4729 177.451 81.5288 177.133 78.5853 176.814C76.1321 176.547 73.7512 176.843 71.2751 176.819C68.2034 176.79 65.1693 176.217 62.1192 175.869C59.0685 175.521 55.9193 175.405 52.9804 176.265C51.3194 176.75 49.7291 177.594 48.4739 178.737C48.4876 178.707 48.499 178.675 48.5133 178.644C48.8017 178.032 49.187 177.454 49.3495 176.8C49.4572 176.364 49.4395 175.872 49.2491 175.473C49.154 175.274 49.016 175.098 48.8285 174.965C48.6301 174.823 48.3941 174.741 48.1622 174.66C46.1626 173.966 44.244 173.525 42.1618 173.076C36.3711 171.824 30.5013 170.789 24.7637 169.332C16.9096 167.338 9.2397 164.517 1.70601 161.45C1.13487 161.284 0.56601 161.113 0 160.934V182.968C11.0751 185.011 37.7454 189.947 40.6752 190.665C40.8171 190.7 40.9796 190.755 41.1512 190.821C42.7608 190.749 43.4631 190.289 44.3323 188.909C44.8573 188.075 45.3828 187.234 45.8594 186.373C45.9135 186.954 45.9933 187.533 46.0896 188.104C46.3114 189.419 46.6015 190.73 47.1031 191.972C48.5515 195.555 51.6557 198.297 55.0044 200.399C58.7282 202.735 63.0511 205.568 67.4156 206.307C70.8117 206.883 74.2482 207.24 77.6836 207.517C78.6549 207.595 92.4044 208.344 92.169 207.326C91.7928 205.726 94.9677 204.274 95.1102 203.453C95.247 202.631 95.2527 201.398 95.1102 199.064C94.9677 196.736 100.383 196.193 100.383 194.687C100.383 193.18 98.3877 188.797 101.38 187.291C104.373 185.784 107.793 184.141 107.365 182.223C107.182 181.401 107.176 180.421 107.991 179.94Z" fill="white"/>
<path opacity="0.15" d="M132.755 186.564C136.183 187.84 134.197 190.652 131.273 190.924C126.654 191.354 121.823 188.138 118.034 186.004C117.119 185.489 116.184 184.953 115.527 184.152C115.296 183.87 115.107 183.45 115.349 183.176C115.477 183.03 115.689 182.982 115.886 182.952C116.79 182.815 117.7 182.902 118.599 183.025C120.644 183.305 122.664 183.8 124.66 184.301C127.345 184.974 130.161 185.6 132.755 186.564Z" fill="white"/>
<path opacity="0.15" d="M110.942 192.41C113.18 191.972 116.257 192.987 118.111 193.226C120.433 193.525 122.754 193.827 125.068 194.178C126.844 194.447 128.931 194.265 130.57 195.081C132.891 196.238 132.591 198.561 130.852 200.09C127.695 202.868 122.943 200.22 119.681 198.897C116.325 197.536 112.856 196.312 109.584 194.77C109.373 194.671 109.155 194.561 109.022 194.375C108.776 194.03 108.921 193.531 109.23 193.237C109.692 192.796 110.28 192.54 110.942 192.41Z" fill="white"/>
<path opacity="0.15" d="M105.142 205.254C103.739 204.269 104.028 202.694 105.764 202.32C106.429 202.176 107.122 202.255 107.799 202.334C110.784 202.684 113.77 203.034 116.755 203.383C118.286 203.563 122.921 203.491 123.611 205.309C124.466 207.561 121.704 209.235 116.388 208.603C112.842 208.182 109.242 206.907 105.929 205.672C105.665 205.574 105.392 205.43 105.142 205.254Z" fill="white"/>
<path opacity="0.15" d="M97.0437 212.243C96.1477 211.115 95.7076 209.475 97.7984 209.467C101.311 209.454 109.432 211.069 109.669 211.994C110.057 213.514 109.23 215.402 107.574 215.811C106.747 216.015 105.873 215.905 105.035 215.744C102.553 215.269 100.163 214.368 97.9967 213.111C97.6787 212.926 97.3367 212.612 97.0437 212.243Z" fill="white"/>
<path opacity="0.25" d="M111.224 171.101C111.207 171.529 111.167 171.978 111.093 172.4C110.437 172.148 109.907 171.775 109.668 171.287C110.198 171.233 110.722 171.172 111.224 171.101Z" fill="white"/>
<path opacity="0.25" d="M152.692 202.827C152.242 202.176 152.099 201.425 152.857 200.713C153.404 200.198 154.026 200.055 154.636 200.11C154.915 201.157 154.675 202.312 152.692 202.827Z" fill="white"/>
<path opacity="0.25" d="M149.459 211.714C149.112 211.012 149.186 210.196 150.155 209.341C150.787 208.783 151.466 208.498 152.133 208.394C152.395 209.572 152.116 211.062 149.459 211.714Z" fill="white"/>
<path opacity="0.25" d="M141.177 212.639C140.721 214.031 139.792 215.499 137.883 215.538C137.603 214.831 137.677 214.053 138.515 213.313C139.376 212.552 140.311 212.448 141.177 212.639Z" fill="white"/>
<path opacity="0.25" d="M126.928 216.809C126.683 217.85 126.244 219.082 125.457 219.74C124.802 219.088 124.426 218.25 125.361 217.422C125.851 216.99 126.392 216.82 126.928 216.809Z" fill="white"/>
<path opacity="0.15" d="M70.1729 170.033C70.1729 170.033 83.2828 169.074 89.8378 170.033C96.3928 170.992 100.81 172.4 100.81 172.4C100.81 172.4 97.3989 169.658 89.4103 168.252C81.4218 166.847 75.7304 167.431 70.1729 170.033Z" fill="white"/>
<path d="M25.1883 199.064C25.1883 200.921 25.3935 202.778 25.8552 204.591H0V155.871C0 155.871 10.7958 159.344 21.5004 162.39C23.3529 162.916 25.1997 163.431 26.9895 163.913C32.4387 165.376 37.335 166.537 40.1052 166.828C40.1052 166.828 25.1997 183.269 25.1883 199.064Z" fill="white"/>
<path d="M25.1883 199.064C25.1883 200.921 25.3935 202.778 25.8552 204.592H9.0459C9.6957 196.1 12.6597 165.31 21.5004 162.39C23.3529 162.916 25.1997 163.431 26.9895 163.913L26.9952 163.919C26.9952 163.919 13.8852 186.326 16.4502 199.064H25.1883Z" fill="#E5E6E7"/>
<path d="M26.9952 161.911C26.9952 161.911 5.3352 189.37 13.8852 211.248H0V153.323L26.9952 161.911Z" fill="#404041"/>
<path d="M8.14907 208.954C8.14907 209.561 7.35962 210.054 6.38606 210.054C5.4125 210.054 4.62305 209.562 4.62305 208.954C4.62305 208.347 5.4125 207.855 6.38606 207.855C7.36019 207.855 8.14907 208.347 8.14907 208.954Z" fill="#58595B"/>
<path d="M151.102 81.7444C151.539 81.3902 151.966 80.9736 152.383 80.4944C152.799 79.9944 153.174 79.4631 153.508 78.9006C153.841 78.3381 154.112 77.7652 154.32 77.1819C154.529 76.5777 154.633 75.9944 154.633 75.4319C154.633 74.9736 154.57 74.5152 154.445 74.0569C154.32 73.5986 154.122 73.1923 153.852 72.8381C153.602 72.484 153.279 72.1923 152.883 71.9631C152.487 71.734 152.018 71.6194 151.477 71.6194C150.935 71.6194 150.258 71.7652 149.445 72.0569C148.633 72.3486 147.695 72.9736 146.633 73.9319V74.0881C146.633 74.6506 146.508 75.3069 146.258 76.0569C146.008 76.7861 145.622 77.4944 145.102 78.1819C144.581 78.8694 143.924 79.4736 143.133 79.9944C142.341 80.4944 141.404 80.7861 140.32 80.8694C142.216 83.4111 144.31 85.7444 146.602 87.8694C148.914 89.9944 151.435 92.0465 154.164 94.0256L150.289 98.0569C148.018 96.4111 145.872 94.7131 143.852 92.9631C141.831 91.2131 139.956 89.4006 138.227 87.5256C136.497 85.6506 134.924 83.7027 133.508 81.6819C132.091 79.6402 130.862 77.5048 129.82 75.2756L134.945 71.3694C135.008 71.5361 135.102 71.7652 135.227 72.0569C135.352 72.3486 135.487 72.6506 135.633 72.9631C135.779 73.2756 135.914 73.5777 136.039 73.8694C136.164 74.1611 136.268 74.3798 136.352 74.5256C136.581 74.8798 136.831 75.1611 137.102 75.3694C137.372 75.5777 137.674 75.6819 138.008 75.6819C138.279 75.6819 138.518 75.5881 138.727 75.4006C138.935 75.2131 139.112 74.984 139.258 74.7131C139.404 74.4423 139.508 74.1611 139.57 73.8694C139.654 73.5777 139.695 73.3381 139.695 73.1506V61.3694H127.695V56.0256H168.414V61.3694H146.633V68.8381C147.529 68.2131 148.497 67.7131 149.539 67.3381C150.581 66.9631 151.747 66.7756 153.039 66.7756C154.372 66.7756 155.549 67.0152 156.57 67.4944C157.612 67.9736 158.477 68.609 159.164 69.4006C159.872 70.1715 160.404 71.0673 160.758 72.0881C161.112 73.0881 161.289 74.1194 161.289 75.1819C161.289 76.1611 161.102 77.1298 160.727 78.0881C160.372 79.0465 159.883 79.984 159.258 80.9006C158.633 81.7965 157.893 82.6402 157.039 83.4319C156.206 84.2236 155.299 84.9319 154.32 85.5569L151.102 81.7444Z" fill="#E28B00"/>
</svg>
