
<svg width="285" height="253" viewBox="0 0 285 253" fill="none" xmlns="http://www.w3.org/2000/svg">
<path opacity="0.2" d="M273.452 134.056C270.836 133.355 261.163 137.483 257.847 138.45C252.718 139.944 249.407 142.45 245.308 144.857C242.197 146.683 238.434 148.054 238.396 151.185C238.368 153.451 240.021 154.852 242.979 155.809C250.038 158.091 259.051 154.693 265.242 152.433C272.639 149.732 279.655 147.131 283.37 141.759C287.16 136.28 281.046 133.831 273.452 134.056Z" fill="#2087B3"/>
<path opacity="0.2" d="M8.97363 176.45L58.0108 157.167L81.4582 166.45L32.4252 185.736L8.97363 176.45Z" fill="#2087B3"/>
<path opacity="0.3" d="M198.404 253C236.667 253 267.684 240.801 267.684 225.752C267.684 210.703 236.667 198.503 198.404 198.503C160.142 198.503 129.124 210.703 129.124 225.752C129.124 240.801 160.142 253 198.404 253Z" fill="#2087B3"/>
<path opacity="0.2" d="M227.629 130.945L227.488 118.908L209.929 120.458L185.59 122.607L194.927 126.305L0 202.27L22.1265 211.026L217.053 135.06L227.724 139.283L227.629 130.945Z" fill="#2087B3"/>
<path d="M215.212 59.8707L212.104 61.5921L178.781 45.4491L175.675 47.1698L205.104 29.6244L208.341 28.3268L215.212 59.8707Z" fill="#BA353A"/>
<path d="M215.212 59.8707L212.104 61.5921L178.781 45.4491L175.675 47.1698L205.104 29.6244L208.341 28.3268L215.212 59.8707Z" fill="#960F24"/>
<path d="M203.929 55.9157L184.804 48.3444L187.533 49.404L206.657 56.9746L203.929 55.9157Z" fill="black"/>
<path d="M180.359 115.041L161.234 107.47L184.804 48.3444L203.929 55.9157L180.359 115.041Z" fill="#C9142F"/>
<path d="M95.5986 177.875L76.4746 170.304L113.981 126.056L133.105 133.626L95.5986 177.875Z" fill="#C9142F"/>
<path d="M180.363 115.044L166.475 120.504L140.782 130.609L133.105 133.625L113.983 126.052L122.711 122.616L143.521 114.436L161.231 107.471L180.363 115.044Z" fill="#FF2040"/>
<path d="M23.1992 206.351L4.07422 198.78L76.4749 170.304L95.5988 177.875L23.1992 206.351Z" fill="#FF2040"/>
<path d="M23.212 209.369L4.08696 201.797L4.07422 198.78L23.1992 206.351L23.212 209.369Z" fill="#BA353A"/>
<path d="M203.929 55.9158L206.657 56.9747L183.367 116.881L134.712 136.017L97.2137 180.263L23.212 209.369L23.1992 206.351L95.5988 177.875L133.106 133.626L180.359 115.041L203.929 55.9158Z" fill="#960F24"/>
<path d="M212.104 61.5921L175.675 47.1698L205.104 29.6244L212.104 61.5921Z" fill="#C9142F"/>
<path opacity="0.2" d="M166.475 120.504L140.781 130.609C139.571 130.724 138.308 130.797 136.98 130.84C131.098 131.014 121.469 130.37 121.447 125.473C121.447 124.511 121.914 123.549 122.711 122.616L143.521 114.436C145.453 114.06 147.47 113.619 149.456 113.611C154.414 113.611 159.192 113.865 163.142 115.912C165.339 117.047 166.613 118.761 166.475 120.504Z" fill="#2087B3"/>
<path d="M179.425 27.0306C179.425 26.5576 174.891 25.1103 173.843 26.2531L164.862 37.004C161.516 38.5027 155.687 40.6913 147.671 42.2536L148.683 46.5506L155.63 52.363C156.162 49.0836 165.677 45.6964 170.412 42.2536C174.273 37.1364 177.291 32.0611 179.425 27.0306Z" fill="#25435C"/>
<path d="M135.273 111.834C134.575 112.461 134.577 113.912 134.739 115.552C135.391 117.209 137.696 117.08 139.663 117.289C143.458 117.694 145.347 119.639 150.399 119.633C153.402 119.629 155.404 119.192 156.034 117.896C156.126 117.299 155.615 116.692 154.55 116.077C154.55 116.077 147.67 113.976 147.492 113.895C147.315 113.814 144.23 112.278 144.171 112.117C144.111 111.956 142.985 108.36 142.985 108.36H135.571L135.273 111.834Z" fill="black"/>
<path d="M131.645 119.673C130.961 121.165 130.824 121.598 131.111 122.704C131.436 123.29 131.764 123.552 132.119 124.361C132.539 125.359 132.475 127.028 134.657 128.026C137.257 129.425 142.282 129.489 143.863 127.998C143.863 127.27 143.155 125.664 141.839 124.364L139.286 121.131L139.45 118.103L132.119 117.007L131.645 119.673Z" fill="black"/>
<path d="M143.909 73.2225V93.4789C141.519 99.3512 136.913 104.865 136.18 110.734C136.18 113.206 143.531 113.748 145.389 112.159C146.119 107.615 151.758 101.449 155.182 94.273C157.448 87.0358 159.327 79.531 158.695 73.4873L143.909 73.2225Z" fill="#0B151A"/>
<path d="M158.479 74.0044C158.688 76.0686 154.546 81.4955 149.808 83.9423C149.599 88.3406 148.761 95.9662 147.671 100.935C144.245 108.111 141.126 114.986 140.399 119.527C139.165 120.585 135.474 120.998 133.16 120.413C132.973 120.368 132.83 120.331 132.697 120.278C132.653 120.263 132.598 120.24 132.543 120.225C131.728 119.918 131.188 119.437 131.188 118.769C131.244 112.997 132.797 107.166 135.188 101.288L134.472 75.213L134.45 74.4847L158.479 74.0044Z" fill="#1E354A"/>
<path opacity="0.5" d="M139.572 101.844C135.054 105.582 134.097 112.989 133.16 120.413C133.072 120.382 132.918 120.337 132.697 120.277C132.653 120.262 132.598 120.24 132.543 120.224C131.728 119.917 131.188 119.436 131.188 118.768C131.244 112.997 132.797 107.165 135.188 101.287L134.472 75.2123L138.957 77.299C136.156 83.8071 138.383 92.6789 139.572 101.844Z" fill="#162B35"/>
<path d="M158.248 77.9963C156.515 78.2053 156.1 77.4075 154.085 75.1537C152.455 78.2002 148.608 81.63 147.351 82.0206C145.787 82.6426 141.449 83.7355 138.952 82.7417C138.118 82.4134 137.3 82.0155 136.523 81.5657C134.792 80.5603 133.294 79.3003 132.46 77.8957C131.836 76.3464 133.113 71.7029 132.847 67.5875C132.496 65.798 131.998 64.0318 131.36 62.2966C129.993 59.687 128.283 57.1859 126.271 54.8258C126.965 53.5651 124.267 50.8514 125.969 50.3349C126.537 50.1628 127.083 49.9784 127.609 49.7831C131.293 48.4168 133.997 46.5297 136.329 44.6969C140.108 43.9086 143.889 43.0941 147.673 42.2551C151.089 43.314 153.729 45.7992 155.475 49.109C156.672 49.0677 160.782 69.2893 160.986 70.5609C161.34 73.8106 165.373 77.6505 158.248 77.9963Z" fill="#25435C"/>
<path d="M144.043 49.1119C141.26 49.5401 138.481 49.956 135.706 50.3574C142.172 54.3535 147.619 59.1952 151.667 64.6386C155.331 58.4676 155.314 51.7323 148.214 46.1696C146.834 47.1901 145.443 48.1709 144.043 49.1119Z" fill="#F2F2F2"/>
<path d="M143.967 49.3353C144.147 50.0282 144.312 50.7211 144.459 51.414C145.335 51.9695 146.193 52.5402 147.032 53.1246C148.577 56.0496 150.217 59.3564 150.265 61.783C150.837 62.7819 151.366 63.7952 151.85 64.823C152.395 63.7786 152.912 62.7175 153.399 61.6405C152.245 57.7587 150.003 54.4026 148.207 52.1098C147.917 51.2448 147.602 50.3833 147.258 49.5255C146.432 49.3295 145.602 49.1393 144.767 48.9563C144.501 49.0836 144.233 49.2094 143.967 49.3353Z" fill="#EB3B58"/>
<path d="M137.057 43.7284C135.959 44.7859 134.842 45.8035 133.71 46.7836C133.605 51.132 139.838 51.9594 144.213 54.1206C144.57 52.7406 144.873 51.3359 145.121 49.9074C146.993 49.8749 148.861 49.8496 150.727 49.8322C149.357 47.6465 147.8 45.5215 146.068 43.4702C143.075 43.5216 140.071 43.6069 137.057 43.7284Z" fill="white"/>
<path d="M135.008 45.6357C132.509 47.7984 135.857 50.2047 140.668 52.627C145.166 54.6638 151.837 60.5824 152.045 65.4234C149.093 60.6808 141.837 55.7559 137.951 54.7455C138.121 54.2226 138.283 53.6953 138.437 53.1637C137.726 53.351 137.017 53.5355 136.309 53.7163C133.515 52.18 131.433 50.0275 130.84 48.3401C132.17 47.2986 134.365 45.8954 135.008 45.6357Z" fill="#1E354A"/>
<path d="M142.795 43.4102C149.987 45.0665 156.468 58.9543 151.749 64.9916C155.88 61.3838 157.516 55.1318 152.597 46.4907C152.094 46.3771 151.588 46.2665 151.082 46.1572C151.086 45.818 151.087 45.4774 151.084 45.136C149.221 44.2326 147.306 43.3813 145.346 42.5835C144.497 42.8627 143.646 43.1383 142.795 43.4102Z" fill="#1E354A"/>
<path d="M146.081 48.612C145.939 49.0127 145.565 49.7454 145.121 49.9074C140.877 51.3837 135.44 48.3075 134.941 46.4639C134.827 45.0065 133.955 43.9671 133.962 43.9671C132.642 42.8793 130.345 41.7018 131.238 41.6432C133.591 41.4877 141.749 43.3639 144.093 43.2431C144.093 43.2431 143.497 43.766 143.918 44.5313C144.649 45.8245 146.515 47.4136 146.081 48.612Z" fill="#FFB294"/>
<path opacity="0.5" d="M144.499 48.0674C140.591 49.0698 135.798 44.652 135.706 44.6904C138.399 44.3388 141.859 43.5223 144.55 43.1772C145.931 45.6219 146.021 47.6775 144.499 48.0674Z" fill="#FFB294"/>
<path opacity="0.5" d="M137.353 64.5764C137.445 61.9704 132.361 56.8032 132.243 56.8806C130.3 56.1436 129.685 57.0585 127.648 56.4257C130.717 60.3784 131.849 62.3559 132.847 67.5874C133.113 71.7029 131.836 76.3464 132.46 77.8956C133.294 79.3003 134.791 80.5602 136.523 81.5656C137.3 82.0155 138.118 82.4133 138.952 82.7417C139.003 82.7409 138.684 76.0911 138.469 71.8468C138.642 70.8096 137.515 64.5503 137.353 64.5764Z" fill="#162B35"/>
<path d="M118.866 50.3342L106.037 46.1695C103.823 45.6357 102.248 48.3929 104.615 49.932C108.132 52.3558 112.359 54.4952 117.11 56.425C122.56 57.3298 128.514 56.8886 133.961 58.6237L130.293 48.62C127.79 49.9364 123.753 50.3783 118.866 50.3342Z" fill="#25435C"/>
<path d="M135.022 44.2C135.022 44.2 136.702 45.5446 138.195 45.8607C139.687 46.1775 143.731 45.6661 143.731 45.6661C145.342 45.7587 146.443 44.7418 146.074 43.8738L144.266 39.2274L143.676 38.2076C143.676 38.2076 141.521 35.4975 139.379 34.9355C137.236 34.3735 134.205 34.2975 131.819 35.5076C129.434 36.7176 127.916 38.3906 128.956 40.3977C131.499 45.3146 135.022 44.2 135.022 44.2Z" fill="#FFB294"/>
<path d="M134.689 45.3161L134.696 44.5928C134.896 44.3519 134.881 44.0554 134.658 43.8239L132.839 41.9383C133.253 41.6338 134.672 40.8447 133.707 38.0803C137.619 37.7158 140.324 35.4794 142.62 37.0612C143.545 36.3705 141.1 34.4914 139.788 34.0574C138.351 33.5815 135.704 33.4593 132.457 34.7337C129.115 36.0457 128.028 37.4908 128.257 39.9102C128.488 42.3274 133.07 45.0159 134.689 45.3161Z" fill="black"/>
<path d="M131.008 41.5932C130.837 41.8674 131.041 42.1784 131.253 42.4387C131.489 42.7288 131.743 43.0159 132.076 43.2568C132.411 43.4976 132.835 43.6915 133.312 43.7551C133.768 43.8159 134.321 43.7175 134.503 43.4275C134.641 43.2069 134.525 42.9523 134.376 42.7353C134.08 42.3042 133.613 41.7755 133.014 41.5064C132.458 41.2569 131.36 41.0305 131.008 41.5932Z" fill="#FFB294"/>
<path d="M106.876 47.7557C106.644 48.4081 104.993 49.3512 100.971 48.8999L98.0406 48.8457C96.2611 48.7429 96.5297 48.1932 97.5002 48.3278L95.8428 48.2316C94.7354 48.1405 94.3914 47.4642 95.4414 47.4808L93.7459 47.1199C92.5408 46.8921 92.4643 46.2548 93.5717 46.3149H93.9157L92.9995 45.9142C91.9876 45.4867 92.1978 44.7714 93.2352 45.0665C93.2352 45.0665 97.1742 46.5167 98.7339 45.7775C99.7585 45.2922 97.2337 43.7494 97.2337 43.7494C96.2462 43.042 97.1816 42.5212 98.0215 43.1071C98.0215 43.1071 99.8285 44.1645 101.483 44.5638C103.135 44.9638 107.296 46.5782 106.876 47.7557Z" fill="#FFB294"/>
<path d="M177.856 20.9348C177.112 21.3427 176.244 21.5373 176.135 21.5829C174.964 22.1586 174.829 22.7069 174.819 23.407L174.994 25.4467L174.583 26.2871C174.36 26.9214 177.642 28.091 178.455 27.2672C178.522 27.1992 178.698 26.9301 178.698 26.9301L180.222 26.1511L180.836 25.8372L179.507 21.802C178.954 21.5163 178.524 21.0628 177.856 20.9348Z" fill="#FFB294"/>
<path d="M180.711 11.3679C180.381 11.4236 180.017 11.3606 179.763 11.1805C179.386 10.9129 179.399 10.4876 179.791 10.2309L180.213 9.95529C181.387 9.18789 182.099 7.97132 182.387 6.23544C182.676 4.501 182.764 3.709 182.537 2.25737C182.465 1.7923 182.212 1.44078 181.893 1.36194C181.589 1.286 181.091 1.43933 180.595 1.76337C178.834 2.91483 178.992 4.71292 179.186 5.25177C179.316 5.61196 178.993 5.97578 178.464 6.06402C177.936 6.15298 177.401 5.93238 177.272 5.57218C176.987 4.78525 176.786 2.3919 179.23 0.794164C180.303 0.0925772 181.52 -0.160572 182.569 0.100534C183.636 0.365979 184.339 1.10084 184.498 2.11561C184.744 3.69381 184.647 4.5849 184.346 6.38733C184.003 8.44724 183.098 9.93142 181.578 10.9245L181.157 11.2001C181.028 11.2854 180.873 11.3411 180.711 11.3679Z" fill="#F09200"/>
<path d="M182.348 5.9331L183.024 13.7865C183.032 14.0809 183.015 14.3608 182.964 14.6342C182.748 15.9593 181.856 17.0746 180.457 17.9505C180.466 17.9628 180.475 17.978 180.484 17.9903C181.242 19.0998 180.607 20.4125 179.098 21.1271C179.081 21.1358 180.723 25.7063 180.723 25.7063C182.572 25.5985 184.853 25.9218 185.364 26.9981C185.437 27.1463 185.339 26.8968 185.669 27.8233C185.899 28.4931 185.32 29.1404 184.594 29.6026C182.77 30.7685 179.375 31.3124 177.016 30.817C176.095 30.6253 175.195 30.2282 174.967 29.5946L174.706 28.8612C174.331 27.7206 176.161 26.6704 177.94 26.167L176.302 21.5958C174.322 21.4215 173.031 20.3981 172.937 19.2719C172.937 19.2386 172.937 19.2278 172.936 19.2112C171.683 18.9703 170.503 18.5342 169.522 17.8854C169.121 17.6315 168.817 17.395 168.564 17.1469C168.291 16.8858 168.071 16.6153 167.854 16.3036C167.851 16.2985 163.161 9.10905 163.161 9.10905C160.856 5.68357 171.716 1.62883 178.979 3.41318C180.72 3.84064 182.238 4.67097 182.348 5.9331Z" fill="#FBB03B"/>
<path d="M182.965 14.6349C182.714 15.0891 182.242 15.5556 181.538 16.0026C178.861 17.7096 173.886 18.5074 170.425 17.7841C169.666 17.6264 169.047 17.4094 168.566 17.1469C168.818 17.3949 169.123 17.6315 169.524 17.8853C170.505 18.5341 171.686 18.9695 172.936 19.1945C172.94 19.227 172.94 19.2379 172.938 19.2552C172.973 19.5142 173.049 19.7572 173.179 20.0074C173.788 20.9586 174.968 21.4779 176.301 21.5943L177.943 26.1677C177.12 26.3998 176.37 26.708 175.784 27.0812C174.293 28.0316 174.309 29.102 175.65 29.7313L178.689 27.8016C178.732 27.824 178.84 27.8645 178.976 27.8927C179.589 28.0207 180.471 27.8797 180.945 27.5773C181.186 27.4233 181.275 27.2577 181.224 27.1152L181.044 26.6103L183.053 25.8082C182.333 25.6889 181.533 25.6592 180.721 25.7055L179.081 21.1336C179.76 20.8183 180.205 20.4212 180.539 19.9069C180.817 19.3898 180.907 18.9312 180.665 18.3171L180.621 18.2238C180.606 18.1935 180.583 18.1529 180.567 18.1218L180.513 18.0322C180.503 18.0177 180.491 18.0054 180.481 17.9917C180.475 17.9779 180.466 17.9627 180.457 17.9504C181.856 17.0753 182.749 15.9599 182.965 14.6349ZM180.406 18.7316C180.086 20.2403 176.857 20.4877 175.72 19.4187C177.439 19.308 179.043 18.8278 180.321 18.085C180.447 18.3656 180.433 18.6021 180.406 18.7316Z" fill="#F09200"/>
<path d="M179.491 9.20016C176.433 10.7856 171.704 11.5667 167.93 11.1234C168.112 10.9657 168.324 10.8087 168.565 10.6547C171.024 9.0866 175.595 8.35391 178.775 9.01861C179.031 9.07286 179.272 9.13217 179.491 9.20016Z" fill="#E39F35"/>
<path d="M179.491 9.20016C176.433 10.7856 171.704 11.5667 167.93 11.1234C168.112 10.9657 168.324 10.8087 168.565 10.6547C171.024 9.0866 175.595 8.35391 178.775 9.01861C179.031 9.07286 179.272 9.13217 179.491 9.20016Z" fill="#F09200"/>
<path opacity="0.5" d="M179.183 9.66093L180.85 15.8725C181.508 15.5998 182.006 15.2244 182.336 14.7398L181.564 8.15649C180.919 8.77056 180.125 9.27252 179.183 9.66093Z" fill="white"/>
<path d="M180.315 8.73005C180.058 8.89496 179.782 9.05191 179.49 9.20019C176.433 10.7856 171.704 11.5668 167.929 11.1234C167.489 11.0728 167.062 11.0033 166.654 10.9194C162.399 10.0305 161.614 7.60896 164.904 5.50854C168.196 3.41101 174.314 2.43024 178.57 3.31843C182.826 4.21024 183.607 6.63253 180.315 8.73005Z" fill="#F09200"/>
<path d="M180.315 8.73005C180.058 8.89496 179.782 9.05191 179.49 9.20019C176.433 10.7856 171.704 11.5668 167.929 11.1234C167.489 11.0728 167.062 11.0033 166.654 10.9194C162.399 10.0305 161.614 7.60896 164.904 5.50854C168.196 3.41101 174.314 2.43024 178.57 3.31843C182.826 4.21024 183.607 6.63253 180.315 8.73005Z" fill="#FFCB7A"/>
<path d="M179.347 8.52754C179.122 8.67147 178.881 8.8089 178.625 8.93837C175.952 10.3242 171.819 11.007 168.519 10.6193C168.133 10.5752 167.761 10.5144 167.404 10.4406C163.684 9.66382 162.998 7.54677 165.874 5.71035C168.751 3.87682 174.1 3.019 177.821 3.79581C181.541 4.57551 182.224 6.69329 179.347 8.52754Z" fill="#FFCB7A"/>
<path d="M179.347 8.52754C179.122 8.67147 178.881 8.8089 178.625 8.93837C175.952 10.3242 171.819 11.007 168.519 10.6193C168.133 10.5752 167.761 10.5144 167.404 10.4406C163.684 9.66382 162.998 7.54677 165.874 5.71035C168.751 3.87682 174.1 3.019 177.821 3.79581C181.541 4.57551 182.224 6.69329 179.347 8.52754Z" fill="#F09200"/>
<path d="M168.116 19.2704C166.994 19.4585 165.861 19.2133 164.805 18.5334C163.523 17.7089 162.877 17.2127 162.071 15.9173C161.144 14.4288 162.024 12.0839 163.994 10.7964C165.228 9.98924 166.272 9.97478 166.929 10.1042C168.131 10.3422 168.844 11.2174 169.088 11.8944C169.217 12.2546 168.895 12.6184 168.366 12.7066C167.837 12.7949 167.303 12.575 167.174 12.2148C167.051 11.8763 166.696 11.4561 166.379 11.3939C166.161 11.3505 165.778 11.4893 165.358 11.7649C163.864 12.7413 163.34 14.5163 163.885 15.3922C164.559 16.4728 164.992 16.8062 166.157 17.5563C166.933 18.0553 167.634 18.2188 168.737 17.4977L169.16 17.2221C169.553 16.9646 170.177 16.974 170.554 17.2416C170.931 17.5092 170.918 17.9345 170.525 18.1913L170.103 18.4669C169.456 18.89 168.788 19.1576 168.116 19.2704Z" fill="#F09200"/>
<path d="M178.773 28.4996C177.316 31.9518 176.073 33.9517 173.799 37.4365L168.033 33.2017L173.846 26.2487C174.308 25.749 175.326 26.039 176.321 26.5554C176.925 26.878 177.517 27.2809 177.967 27.644C178.453 28.0316 178.773 28.3622 178.773 28.4996Z" fill="#25435C"/>
<path d="M182.021 25.7005C182.411 24.1325 182.143 22.649 180.836 21.2986L179.099 21.1279L179.366 22.0024L178.777 22.2707L178.075 23.449V24.7429L178.777 25.9899L180.222 26.1511L182.021 25.7005Z" fill="#FFB294"/>
<path d="M176.512 22.1831L177.408 22.6757L179.425 23.4069L180.553 24.7681C180.553 24.7681 179.463 25.4741 179.49 25.3981C179.516 25.3222 178.018 24.6415 178.018 24.6415L177.186 25.989C177.186 25.989 175.95 25.3721 175.81 25.1963C175.669 25.0198 175.262 23.2051 175.299 23.1292C175.335 23.0539 176.512 22.1831 176.512 22.1831Z" fill="#FFB294"/>
<path d="M178.311 26.9105L177.968 27.6446C177.518 27.2815 176.926 26.8787 176.322 26.5561L177.731 25.5637L178.311 26.9105Z" fill="#FFB294"/>
<path d="M259.314 169.151L259.171 214.731L198.403 223.925L198.547 178.346L259.314 169.151Z" fill="#960F24"/>
<path d="M252.472 238.333H198.547V200.418L252.616 214.826L255.83 222.479L252.472 238.333Z" fill="#2087B3"/>
<path d="M263.712 200.418L263.57 224.037C263.549 229.167 259.607 234.145 252.474 238.333L252.616 214.714C259.75 210.527 263.69 205.548 263.712 200.418Z" fill="#2087B3"/>
<path d="M252.613 214.828L230.073 208.817L198.55 200.42L233.077 195.198L259.313 191.227C267.286 199.364 264.048 208.116 252.613 214.828Z" fill="#29ABE2"/>
<path opacity="0.2" d="M237.717 202.923C237.027 205.563 233.842 207.863 230.147 208.803C230.126 208.81 230.094 208.817 230.073 208.817L198.55 200.42L233.077 195.198C236.762 196.623 238.63 199.429 237.717 202.923Z" fill="#2087B3"/>
<path d="M133.234 223.816L133.377 178.236C133.364 181.328 134.776 184.475 137.771 187.536C140.577 190.395 144.521 192.942 149.335 195.132L149.192 240.712C144.378 238.522 140.435 235.975 137.629 233.116C134.633 230.055 133.222 226.908 133.234 223.816Z" fill="#960F24"/>
<path d="M244.505 160.174C245.629 160.616 246.715 161.076 247.759 161.552C252.565 163.745 256.517 166.294 259.315 169.151L198.547 178.346L149.335 195.133C144.521 192.943 140.577 190.396 137.771 187.536C129.804 179.394 133.041 170.65 144.486 163.934C151.675 159.712 162.102 156.294 175.056 154.334C178.872 153.757 182.752 153.342 186.632 153.056C207.933 151.512 229.555 154.294 244.505 160.174Z" fill="#FF2040"/>
<path d="M198.547 178.345L198.404 223.925L149.192 240.712L149.335 195.132L198.547 178.345Z" fill="#C9142F"/>
<path d="M252.615 218.836L252.473 238.333C245.276 242.552 234.849 245.976 221.903 247.933C218.071 248.51 214.199 248.929 210.311 249.211L210.454 229.715C214.343 229.433 218.215 229.014 222.046 228.437C234.991 226.479 245.418 223.055 252.615 218.836Z" fill="#E3951B"/>
<path d="M252.616 218.836C245.418 223.055 234.992 226.479 222.045 228.437C218.213 229.014 214.342 229.433 210.453 229.715L198.547 204.429L252.616 218.836Z" fill="#FBB03B"/>
<path d="M198.547 196.772L210.454 222.059C189.174 223.602 167.557 220.825 152.606 214.945C151.478 214.5 150.385 214.038 149.335 213.559L198.547 196.772Z" fill="#25435C"/>
<path d="M210.452 222.058L210.309 249.211C189.031 250.754 167.413 247.978 152.462 242.097C151.333 241.653 150.24 241.191 149.191 240.712L149.334 213.559C150.383 214.037 151.476 214.5 152.605 214.944C167.556 220.825 189.174 223.601 210.452 222.058Z" fill="#0C2030"/>
<path d="M225.052 153.508C226.091 153.457 226.376 152.16 226.239 150.166L222.395 150.534C221.576 152.026 223.026 152.851 225.052 153.508Z" fill="#D4EEFF"/>
<path d="M232.621 151.911L231.024 153.65L229.879 154.905C228.363 154.968 226.851 154.949 225.368 154.445L223.087 154.499C223.053 154.498 222.678 154.51 222.678 154.51L219.688 154.487L220.585 151.686L224.295 150.734C224.295 150.734 224.71 149.75 225.324 149.141C225.885 148.578 226.457 148.093 226.524 146.961C226.602 145.634 226.474 145.151 226.902 145.163C229.241 145.227 228.044 149.081 228.044 149.081C229.797 149.037 232.27 148.931 232.456 149.557L232.621 151.911Z" fill="#FFB294"/>
<path opacity="0.4" d="M231.552 149.867L231.023 153.65L229.879 154.905C228.363 154.967 226.851 154.949 225.368 154.445L223.087 154.499C223.105 154.487 223.156 154.477 223.208 154.467C224.936 153.97 226.093 152.821 226.185 151.549C226.386 148.93 230.024 150.163 231.552 149.867Z" fill="#FFB294"/>
<path d="M232.455 149.557C231.591 149.932 230.301 150.227 228.811 150.195C226.723 150.153 226.913 151.308 227.692 151.448C226.997 151.592 226.424 151.703 226.499 152.194C226.574 152.691 227.22 152.856 227.977 152.846C227.172 152.999 227.157 154.072 229.035 154.004C229.035 154.004 228.031 154.259 228.707 154.787C228.986 155.004 229.838 155.068 231.066 154.769L231.754 154.633C233.571 153.42 232.455 149.557 232.455 149.557Z" fill="#FFB294"/>
<path d="M224.257 150.733L206.539 148.788C205.297 145.215 201.174 136.49 196.097 136.863L192.621 143.513C195.025 147.363 197.534 152.235 201.774 154.622C204.369 155.816 222.598 154.95 224.472 154.466C223.769 154.175 222.184 152.227 224.257 150.733Z" fill="#1E3A47"/>
<path d="M203.43 191.643C202.157 192.862 201.423 194.32 201.201 196.005C201.624 196.799 202.595 197.298 203.876 197.633C205.517 199.869 207.427 201.373 209.751 202.41C211.576 203.002 213.337 203.368 215.04 203.53C217.601 203.772 217.815 201.719 216.1 200.053C214.655 198.864 213.574 197.378 212.791 195.646L212.913 190.926L204.363 189.628L203.43 191.643Z" fill="black"/>
<path d="M217.567 197.074C217.147 198.757 217.288 199.4 218.534 200.48C219.044 200.991 219.48 201.175 220.079 201.904C220.797 202.811 222.76 204.732 225.485 205.194C228.78 205.957 233.308 205.644 234.751 203.734C234.577 202.997 234.305 201.636 230.78 199.842L226.299 196.375L224.837 193.503L216.645 194.698L217.567 197.074Z" fill="black"/>
<path d="M180.389 172.105C189 174.814 200.721 178.586 208.633 179.828C210.106 184.474 213.711 191.082 217.477 197.2C220.287 199.261 227.418 197.512 226.878 195.434C224.8 188.093 221.61 181.022 219.954 176.346C219.498 175.057 218.309 173.949 216.625 173.283C209.196 170.343 196.418 166.19 186.299 163.096C178.999 163.42 174.564 164.775 175.522 168.072C176.044 169.87 177.946 171.337 180.389 172.105Z" fill="#0B151A"/>
<path d="M187.099 161.988C181.427 160.683 207.705 172.542 207.102 173.13C204.185 178.191 203.521 184.297 203.09 191.862C203.688 193.811 208.628 194.832 212.938 194.918C214.774 188.54 216.386 181.056 219.144 173.568C220.043 170.475 218.311 167.302 214.666 165.362L197.566 158.484L187.099 161.988Z" fill="#1E3A47"/>
<path d="M172.862 154.594L173.696 161.427C173.48 162.618 174.233 165.292 175.389 166.007C177.756 167.454 184.991 176.342 188.811 174.739C192.495 173.182 191.642 169.859 195.186 166.612C199.171 162.961 204.88 162.379 207.708 162.565C206.794 161.298 203.796 160.109 200.713 158.99C199.805 158.661 199.19 158.047 199.09 157.35C198.882 155.885 198.92 153.253 200.922 146.479C201.971 142.907 197.466 136.926 197.466 136.926L191.039 137.045C190.676 137.008 182.474 137.641 182.474 137.641L171.476 143.237L172.862 154.594Z" fill="#1E3A47"/>
<path opacity="0.5" d="M173.697 161.427C173.481 162.618 174.234 165.292 175.39 166.007C177.757 167.454 189.005 170.253 192.823 168.65C196.507 167.093 199.745 167.974 197.807 166.51C193.959 163.605 184.085 158.998 182.92 158.487L178.711 150.014L172.862 154.594L173.697 161.427Z" fill="#227FBC"/>
<path d="M171.473 143.244C170.501 143.942 169.677 144.836 169.005 145.931C167.997 147.573 167.656 149.369 167.77 151.146C168.047 155.491 168.98 158.702 171.539 163.042C172.403 164.676 182.975 167.397 191.645 169.858C192.848 169.976 195.288 166.994 194.894 165.367C191.181 163.491 185.796 161.344 179.323 159.496L178.757 150.601C178.42 144.6 174.707 142.008 171.473 143.244Z" fill="#1E3A47"/>
<path d="M192.823 168.65L195.387 169.613C197.119 170.07 198.672 170.165 200.406 170.241L203.747 171.319L205.226 171.687C205.828 171.843 206.229 171.394 205.53 171.019L202.014 169.719L202.223 169.414L204.212 169.887L205.936 170.445C206.825 170.699 207.06 170.164 206.304 169.673L204.286 168.751L202.636 168.228L202.832 168.08L204.573 168.561L206.371 169.359C207.354 169.649 207.752 169.215 207.072 168.744L205.345 167.906L203.216 167.127L203.429 166.897L205.164 167.304L207.353 168.186C208.281 168.444 208.462 167.974 207.692 167.454L205.589 166.356L202.022 165.408L202.17 165.283L203.356 165.287L204.812 165.613C205.718 165.838 206.219 165.399 205.13 164.93L203.199 164.38C203.199 164.38 200.217 164.159 199.46 164.413C198.439 164.756 195.796 165.721 195.796 165.721L194.955 165.574C193.537 165.2 191.411 168.163 192.823 168.65Z" fill="#FFB294"/>
<path d="M187.255 177.965L183.335 179.668L159.633 167.756L156.894 154.883L159.157 153.838L187.028 164.66L187.255 177.965Z" fill="#1A1A1A"/>
<path d="M183.335 179.668L155.703 168.8L156.893 154.883L184.526 165.751L183.335 179.668Z" fill="#333333"/>
<path d="M156.893 154.883L156.362 161.093L168.804 168.717L184.042 171.404L184.526 165.751L156.893 154.883Z" fill="#1A1A1A"/>
<path d="M167.315 166.612L166.855 169.23C166.798 169.552 167.045 169.864 167.47 170.01L168.176 170.25C168.841 170.476 169.64 170.211 169.788 169.715L170.399 167.673L167.315 166.612Z" fill="#666666"/>
<path d="M166.979 166.51L166.519 169.128C166.462 169.451 166.709 169.762 167.134 169.908L167.841 170.148C168.505 170.374 169.304 170.109 169.452 169.613L170.063 167.571L166.979 166.51Z" fill="#808080"/>
<path d="M170.938 168.742L166.114 166.845L166.307 165.572L171.131 167.469L170.938 168.742Z" fill="#4D4D4D"/>
<path d="M175.608 158.415L174.108 157.86L170.873 156.567C169.942 156.28 168.644 156.712 167.968 157.456C167.644 158.034 168.817 158.386 169.124 157.981L169.919 157.49L170.868 157.634C172.12 158.21 174.443 159.091 174.627 159.148C175.562 159.572 175.511 160.104 175.768 160.939C176.219 161.42 177.193 161.199 177.193 160.862C176.909 159.701 176.699 158.832 175.608 158.415Z" fill="#1A1A1A"/>
<path d="M189.603 142.577L181.088 142.568L194.587 158.964C198.423 152.76 199.272 146.864 194.699 140.38L189.603 142.577Z" fill="#F2F2F2"/>
<path d="M189.447 142.792L189.203 144.982L191.243 147.045C191.963 150.191 193.198 153.618 193.135 156.066L194.791 159.15L196.477 156.023C195.397 152.18 193.82 148.676 192.696 146.166L192.568 143.479L190.36 142.533L189.447 142.792Z" fill="#EB3B58"/>
<path d="M185.514 135.769L180.89 138.275C178.577 143.093 184.365 145.071 188.142 147.753L190.359 143.545L195.846 144.274L193.828 137.418L185.514 135.769Z" fill="white"/>
<path d="M182.669 137.311C179.259 139.087 181.089 142.569 185.063 145.756C188.645 148.629 194.395 155.035 195.024 159.751C191.463 155.132 185.125 149.397 181.658 147.754L182.669 146.057L180.361 146.41C178.126 144.34 177.074 142.173 177.37 140.129L182.669 137.311Z" fill="#0B151A"/>
<path d="M190.864 136.691C195.846 139.956 198.741 153.412 194.687 159.319C199.145 155.651 200.548 150.111 198.747 141.417L197.423 140.859L197.806 139.914L193.576 136.434L190.864 136.691Z" fill="#0B151A"/>
<path d="M192.085 143.165C191.728 143.512 191.299 143.745 190.792 143.795C185.926 144.278 182.862 140.275 183.845 138.19C184.744 136.033 185.247 134.862 185.247 134.862L193.957 137.259C193.957 137.259 193.934 137.844 193.816 138.665C193.617 140.058 193.152 142.128 192.085 143.165Z" fill="#FFB294"/>
<path opacity="0.5" d="M192.085 143.165C191.593 143.329 191.074 143.406 190.536 143.354C186.27 142.938 186.058 137.328 186.058 137.328L193.817 138.665C193.617 140.058 193.152 142.128 192.085 143.165Z" fill="#FFB294"/>
<path d="M185.73 135.999C185.73 135.999 186.149 138.756 187.657 140.077C189.165 141.398 191.83 142.244 192.884 142.384C193.937 142.525 194.786 142.544 195.591 142.06C196.396 141.576 197.884 136.551 197.884 136.551C198.274 134.592 198.351 133.996 198.238 132.874C198.073 131.22 197.114 127.496 190.113 127.468C186.735 127.454 184.341 128.899 183.492 130.844C182.818 132.39 184.083 135.381 184.083 135.381L185.73 135.999Z" fill="#FFB294"/>
<path d="M183.937 135.701L186.949 137.204L187.474 135.899C187.594 135.262 188.487 134.83 189.406 134.968C190.953 135.2 193.369 135.378 195.83 134.833C198.17 134.314 198.759 133.353 198.759 133.353C200.467 130.577 195.356 127.807 191.133 127.493C186.003 127.112 183.446 129.245 183.005 131.304C182.604 133.177 183.937 135.701 183.937 135.701Z" fill="black"/>
<path d="M185.042 133.976C184.624 133.777 183.995 133.738 183.634 133.984C183.431 134.121 183.347 134.324 183.35 134.518C183.352 134.713 183.433 134.903 183.521 135.088C183.675 135.41 183.853 135.726 184.055 136.035C184.219 136.286 184.432 136.553 184.807 136.653C185.192 136.757 185.631 136.99 185.896 136.774C186.16 136.558 186.273 135.913 186.25 135.631C186.204 135.034 185.786 134.328 185.042 133.976Z" fill="#FFB294"/>
<path d="M55.3455 222.997L36.54 215.552L36.5538 218.849L55.3593 226.293L55.3455 222.997Z" fill="#7DA651"/>
<path d="M99.728 205.541L80.9216 198.096L36.54 215.552L55.3455 222.997L99.728 205.541Z" fill="#95CA62"/>
<path d="M93.8122 205.535L80.9174 200.43L42.4551 215.558L55.3498 220.663L93.8122 205.535Z" fill="#A2D96A"/>
<path d="M55.3457 222.997L55.3595 226.293L99.7421 208.838L99.7283 205.541L55.3457 222.997Z" fill="#5F7D3D"/>
<path d="M61.3129 206.706C58.1754 207.94 59.3423 210.4 63.9194 212.2C68.4966 214.001 74.7512 214.46 77.8886 213.225C81.0261 211.991 79.8592 209.531 75.2821 207.731C70.705 205.931 64.4503 205.472 61.3129 206.706Z" fill="#95CA62"/>
<path d="M55.7637 207.988L74.5723 215.431L80.7505 213.003L81.6424 212.652C81.6466 212.652 83.4356 211.946 83.4356 211.946L64.627 204.5L62.8338 205.205L61.9419 205.557L55.7637 207.988Z" fill="#F6F6F6"/>
<path d="M74.5723 215.431L74.5861 218.73L80.7505 216.305L81.6466 215.95L83.4494 215.242L83.4356 211.946L81.6466 212.651C81.6424 212.651 80.7505 213.003 80.7505 213.003L74.5723 215.431Z" fill="#C6C6C6"/>
<path d="M62.4932 205.34L81.3018 212.786V216.088L82.1989 215.734V212.435C82.1947 212.435 63.3861 204.988 63.3861 204.988L62.4932 205.34Z" fill="#F50D1B"/>
<path d="M81.3008 212.787V216.089L82.1979 215.734V212.435C82.1937 212.435 81.3008 212.787 81.3008 212.787Z" fill="#C00A15"/>
<path d="M57.1221 207.453L75.9307 214.899V218.201L76.8278 217.846V214.547C76.8236 214.547 58.015 207.101 58.015 207.101L57.1221 207.453Z" fill="#F50D1B"/>
<path d="M75.9297 214.899V218.201L76.8269 217.847V214.548C76.8226 214.548 75.9297 214.899 75.9297 214.899Z" fill="#C00A15"/>
<path d="M53.8596 212.605C52.8085 213.019 52.8085 213.69 53.8596 214.103C54.9107 214.517 56.6159 214.517 57.667 214.103C58.7181 213.69 58.7181 213.019 57.667 212.605C56.6159 212.192 54.9118 212.192 53.8596 212.605Z" fill="#95CA62"/>
<path d="M77.1077 204.81C76.0566 205.223 76.0566 205.894 77.1077 206.308C78.1588 206.721 79.8639 206.721 80.915 206.308C81.9662 205.894 81.9662 205.223 80.915 204.81C79.8639 204.397 78.1588 204.397 77.1077 204.81Z" fill="#95CA62"/>
<path d="M64.2439 213.21L55.1002 216.806L53.6807 216.247L62.8243 212.652L64.2439 213.21Z" fill="#95CA62"/>
<path d="M65.4482 214.234L58.2411 217.069L57.1221 216.628L64.3291 213.794L65.4482 214.234Z" fill="#95CA62"/>
<path d="M54.1785 219.678L35.373 212.234L35.3868 215.53L54.1923 222.975L54.1785 219.678Z" fill="#7DA651"/>
<path d="M98.561 202.222L79.7546 194.778L35.373 212.233L54.1785 219.678L98.561 202.222Z" fill="#95CA62"/>
<path d="M92.6452 202.217L79.7504 197.112L41.2881 212.239L54.1828 217.344L92.6452 202.217Z" fill="#A2D96A"/>
<path d="M54.1787 219.678L54.1925 222.975L98.5751 205.519L98.5613 202.223L54.1787 219.678Z" fill="#5F7D3D"/>
<path d="M60.1459 203.387C57.0085 204.621 58.1753 207.081 62.7524 208.881C67.3296 210.681 73.5842 211.141 76.7217 209.906C79.8591 208.672 78.6922 206.212 74.1151 204.412C69.538 202.612 63.2833 202.153 60.1459 203.387Z" fill="#95CA62"/>
<path d="M54.5967 204.669L73.4053 212.113L79.5835 209.685L80.4754 209.333C80.4796 209.333 82.2686 208.628 82.2686 208.628L63.46 201.182L61.6668 201.887L60.7749 202.238L54.5967 204.669Z" fill="#F6F6F6"/>
<path d="M73.4053 212.113L73.4191 215.412L79.5835 212.986L80.4807 212.632L82.2835 211.923L82.2697 208.628L80.4807 209.333C80.4764 209.333 79.5835 209.685 79.5835 209.685L73.4053 212.113Z" fill="#C6C6C6"/>
<path d="M61.3252 202.021L80.1338 209.468V212.769L81.031 212.415V209.116C81.0267 209.116 62.2181 201.67 62.2181 201.67L61.3252 202.021Z" fill="#F50D1B"/>
<path d="M80.1338 209.468V212.77L81.031 212.416V209.117C81.0267 209.117 80.1338 209.468 80.1338 209.468Z" fill="#C00A15"/>
<path d="M55.9541 204.134L74.7627 211.58V214.882L75.6599 214.528V211.229C75.6556 211.229 56.847 203.783 56.847 203.783L55.9541 204.134Z" fill="#F50D1B"/>
<path d="M74.7627 211.58V214.882L75.6599 214.528V211.229C75.6556 211.229 74.7627 211.58 74.7627 211.58Z" fill="#C00A15"/>
<path d="M52.6926 209.287C51.6415 209.701 51.6415 210.371 52.6926 210.785C53.7437 211.199 55.4489 211.199 56.5 210.785C57.5511 210.371 57.5511 209.701 56.5 209.287C55.4489 208.873 53.7437 208.873 52.6926 209.287Z" fill="#95CA62"/>
<path d="M75.9407 201.491C74.8896 201.905 74.8896 202.576 75.9407 202.989C76.9918 203.403 78.6969 203.403 79.7481 202.989C80.7992 202.576 80.7992 201.905 79.7481 201.491C78.6969 201.078 76.9918 201.078 75.9407 201.491Z" fill="#95CA62"/>
<path d="M63.0769 209.891L53.9332 213.488L52.5137 212.929L61.6573 209.332L63.0769 209.891Z" fill="#95CA62"/>
<path d="M64.2813 210.916L57.0742 213.75L55.9541 213.31L63.1622 210.475L64.2813 210.916Z" fill="#95CA62"/>
<path d="M55.3445 215.392L36.5391 207.947L36.5529 211.244L55.3583 218.689L55.3445 215.392Z" fill="#7DA651"/>
<path d="M99.7251 197.936L55.3447 215.393L36.5371 207.946L65.876 196.409L80.9218 190.492L83.4222 191.483L85.5871 192.34L87.2827 193.011L99.7251 197.936Z" fill="#95CA62"/>
<path d="M93.8112 197.931L80.9165 192.825L42.4541 207.953L55.3489 213.058L93.8112 197.931Z" fill="#D0F6A8"/>
<path d="M55.3447 215.392L55.3585 218.689L99.7411 201.233L99.7273 197.936L55.3447 215.392Z" fill="#5F7D3D"/>
<path d="M61.3119 199.101C58.1745 200.335 59.3413 202.795 63.9184 204.595C68.4956 206.395 74.7502 206.854 77.8877 205.62C81.0251 204.386 79.8582 201.926 75.2811 200.126C70.704 198.326 64.4493 197.867 61.3119 199.101Z" fill="#95CA62"/>
<path d="M55.7627 200.383L74.5713 207.827L80.7495 205.398L81.6414 205.047C81.6456 205.047 83.4346 204.342 83.4346 204.342L64.626 196.896L62.8328 197.601L61.9409 197.952L55.7627 200.383Z" fill="#F6F6F6"/>
<path d="M74.5713 207.826L74.5851 211.125L80.7495 208.7L81.6456 208.346L83.4484 207.637L83.4346 204.342L81.6456 205.047C81.6414 205.047 80.7495 205.398 80.7495 205.398L74.5713 207.826Z" fill="#C6C6C6"/>
<path d="M62.4922 197.735L81.3008 205.182V208.483L82.198 208.129V204.83C82.1937 204.83 63.3851 197.384 63.3851 197.384L62.4922 197.735Z" fill="#F50D1B"/>
<path d="M81.2998 205.182V208.483L82.197 208.129V204.83C82.1927 204.831 81.2998 205.182 81.2998 205.182Z" fill="#C00A15"/>
<path d="M57.1211 199.848L75.9297 207.294V210.596L76.8269 210.242V206.943C76.8226 206.943 58.014 199.496 58.014 199.496L57.1211 199.848Z" fill="#F50D1B"/>
<path d="M75.9287 207.294V210.596L76.8259 210.242V206.943C76.8216 206.943 75.9287 207.294 75.9287 207.294Z" fill="#C00A15"/>
<path d="M53.8596 205C52.8085 205.414 52.8085 206.084 53.8596 206.497C54.9107 206.911 56.6159 206.911 57.667 206.497C58.7181 206.083 58.7181 205.413 57.667 205C56.6159 204.587 54.9118 204.587 53.8596 205Z" fill="#95CA62"/>
<path d="M77.1067 197.205C76.0556 197.619 76.0556 198.289 77.1067 198.703C78.1578 199.117 79.863 199.117 80.9141 198.703C81.9652 198.289 81.9652 197.619 80.9141 197.205C79.863 196.791 78.1578 196.791 77.1067 197.205Z" fill="#95CA62"/>
<path d="M64.2429 205.605L55.0992 209.201L53.6797 208.642L62.8233 205.046L64.2429 205.605Z" fill="#95CA62"/>
<path d="M65.4472 206.629L58.2402 209.464L57.1211 209.024L64.3281 206.189L65.4472 206.629Z" fill="#95CA62"/>
<path d="M81.2478 231.68L62.4424 224.235L62.4562 227.532L81.2616 234.976L81.2478 231.68Z" fill="#7DA651"/>
<path d="M125.628 214.224L81.248 231.68L62.4404 224.233L91.7793 212.696L106.825 206.78L109.326 207.771L111.49 208.627L113.186 209.298L125.628 214.224Z" fill="#95CA62"/>
<path d="M119.716 214.218L106.82 209.113L68.3574 224.241L81.2532 229.346L119.716 214.218Z" fill="#D0F6A8"/>
<path d="M81.248 231.68L81.2618 234.976L125.644 217.521L125.631 214.224L81.248 231.68Z" fill="#5F7D3D"/>
<path d="M87.2152 215.388C84.0778 216.622 85.2446 219.082 89.8218 220.882C94.3989 222.683 100.654 223.142 103.791 221.907C106.928 220.673 105.762 218.214 101.184 216.413C96.6073 214.613 90.3537 214.154 87.2152 215.388Z" fill="#95CA62"/>
<path d="M81.666 216.671L100.475 224.114L106.653 221.686L107.545 221.335C107.549 221.335 109.338 220.629 109.338 220.629L90.5294 213.183L88.7361 213.888L87.8442 214.24L81.666 216.671Z" fill="#F6F6F6"/>
<path d="M100.475 224.114L100.488 227.413L106.653 224.988L107.55 224.633L109.353 223.925L109.339 220.629L107.55 221.334C107.546 221.334 106.653 221.686 106.653 221.686L100.475 224.114Z" fill="#C6C6C6"/>
<path d="M88.3955 214.023L107.204 221.469V224.771L108.1 224.416V221.118C108.096 221.118 89.2874 213.671 89.2874 213.671L88.3955 214.023Z" fill="#F50D1B"/>
<path d="M107.204 221.469V224.771L108.1 224.417V221.118C108.096 221.118 107.204 221.469 107.204 221.469Z" fill="#C00A15"/>
<path d="M83.0244 216.136L101.833 223.582V226.884L102.73 226.529V223.23C102.726 223.23 83.9173 215.784 83.9173 215.784L83.0244 216.136Z" fill="#F50D1B"/>
<path d="M101.832 223.582V226.884L102.729 226.529V223.23C102.725 223.231 101.832 223.582 101.832 223.582Z" fill="#C00A15"/>
<path d="M79.7629 221.288C78.7118 221.701 78.7118 222.372 79.7629 222.785C80.8141 223.198 82.5192 223.198 83.5703 222.785C84.6214 222.371 84.6214 221.701 83.5703 221.288C82.5192 220.875 80.8151 220.875 79.7629 221.288Z" fill="#95CA62"/>
<path d="M103.01 213.493C101.959 213.906 101.959 214.577 103.01 214.991C104.061 215.404 105.766 215.404 106.817 214.991C107.869 214.577 107.869 213.906 106.817 213.493C105.766 213.079 104.061 213.079 103.01 213.493Z" fill="#95CA62"/>
<path d="M90.1473 221.892L81.0036 225.488L79.583 224.93L88.7267 221.334L90.1473 221.892Z" fill="#95CA62"/>
<path d="M91.3505 222.916L84.1435 225.752L83.0244 225.311L90.2315 222.477L91.3505 222.916Z" fill="#95CA62"/>
<path d="M78.3962 226.962L59.5908 219.518L59.6046 222.814L78.41 230.26L78.3962 226.962Z" fill="#7DA651"/>
<path d="M122.777 209.507L78.3964 226.963L59.5889 219.517L88.9277 207.98L103.974 202.063L106.474 203.054L108.639 203.911L110.334 204.582L122.777 209.507Z" fill="#95CA62"/>
<path d="M116.864 209.501L103.968 204.396L65.5059 219.524L78.4017 224.629L116.864 209.501Z" fill="#D0F6A8"/>
<path d="M78.3965 226.962L78.4103 230.26L122.793 212.803L122.779 209.507L78.3965 226.962Z" fill="#5F7D3D"/>
<path d="M84.3636 210.672C81.2262 211.906 82.3931 214.366 86.9702 216.166C91.5473 217.966 97.802 218.425 100.939 217.191C104.077 215.957 102.91 213.497 98.3329 211.697C93.7557 209.896 87.5021 209.438 84.3636 210.672Z" fill="#95CA62"/>
<path d="M78.8145 211.953L97.6231 219.397L103.801 216.969L104.693 216.617C104.697 216.617 106.486 215.911 106.486 215.911L87.6778 208.465L85.8845 209.17L84.9927 209.522L78.8145 211.953Z" fill="#F6F6F6"/>
<path d="M97.623 219.397L97.6368 222.696L103.801 220.271L104.697 219.916L106.5 219.207L106.486 215.911L104.697 216.617C104.693 216.617 103.801 216.969 103.801 216.969L97.623 219.397Z" fill="#C6C6C6"/>
<path d="M85.5439 209.306L104.353 216.753V220.054L105.249 219.7V216.401C105.244 216.401 86.4358 208.955 86.4358 208.955L85.5439 209.306Z" fill="#F50D1B"/>
<path d="M104.352 216.753V220.054L105.248 219.7V216.401C105.244 216.401 104.352 216.753 104.352 216.753Z" fill="#C00A15"/>
<path d="M80.1729 211.418L98.9815 218.864V222.166L99.8786 221.812V218.513C99.8744 218.513 81.0658 211.067 81.0658 211.067L80.1729 211.418Z" fill="#F50D1B"/>
<path d="M98.9805 218.865V222.167L99.8776 221.813V218.514C99.8734 218.514 98.9805 218.865 98.9805 218.865Z" fill="#C00A15"/>
<path d="M76.9114 216.571C75.8603 216.985 75.8603 217.655 76.9114 218.069C77.9625 218.483 79.6676 218.483 80.7188 218.069C81.7699 217.655 81.7699 216.985 80.7188 216.571C79.6676 216.157 77.9636 216.157 76.9114 216.571Z" fill="#95CA62"/>
<path d="M100.158 208.776C99.1073 209.19 99.1073 209.86 100.158 210.274C101.21 210.688 102.915 210.688 103.966 210.274C105.017 209.86 105.017 209.19 103.966 208.776C102.915 208.362 101.21 208.362 100.158 208.776Z" fill="#95CA62"/>
<path d="M87.2946 217.176L78.152 220.772L76.7314 220.213L85.8751 216.617L87.2946 217.176Z" fill="#95CA62"/>
<path d="M88.499 218.2L81.2919 221.034L80.1729 220.595L87.3799 217.759L88.499 218.2Z" fill="#95CA62"/>
<path d="M33.4138 180.436L14.6084 172.99L14.6222 176.288L33.4276 183.732L33.4138 180.436Z" fill="#7DA651"/>
<path d="M77.7944 162.98L33.414 180.436L14.6064 172.989L43.9453 161.452L58.9911 155.536L61.4915 156.527L63.6564 157.383L65.352 158.054L77.7944 162.98Z" fill="#95CA62"/>
<path d="M71.8805 162.974L58.9858 157.869L20.5234 172.996L33.4182 178.102L71.8805 162.974Z" fill="#D0F6A8"/>
<path d="M33.4141 180.436L33.4279 183.732L77.8104 166.277L77.7966 162.979L33.4141 180.436Z" fill="#5F7D3D"/>
<path d="M39.3812 164.144C36.2438 165.378 37.4107 167.838 41.9878 169.638C46.5649 171.439 52.8196 171.897 55.957 170.663C59.0944 169.429 57.9276 166.97 53.3505 165.169C48.7733 163.369 42.5187 162.91 39.3812 164.144Z" fill="#95CA62"/>
<path d="M33.832 165.426L52.6406 172.869L58.8189 170.441L59.7107 170.09C59.715 170.09 61.504 169.385 61.504 169.385L42.6954 161.938L40.9021 162.644L40.0103 162.996L33.832 165.426Z" fill="#F6F6F6"/>
<path d="M52.6406 172.869L52.6544 176.168L58.8189 173.743L59.715 173.389L61.5178 172.68L61.504 169.385L59.715 170.09C59.7107 170.09 58.8189 170.441 58.8189 170.441L52.6406 172.869Z" fill="#C6C6C6"/>
<path d="M40.5605 162.779L59.3692 170.225V173.527L60.2663 173.172V169.874C60.2621 169.874 41.4535 162.427 41.4535 162.427L40.5605 162.779Z" fill="#F50D1B"/>
<path d="M59.3691 170.225V173.527L60.2663 173.172V169.874C60.2621 169.874 59.3691 170.225 59.3691 170.225Z" fill="#C00A15"/>
<path d="M35.1895 164.892L53.9981 172.338V175.64L54.8952 175.285V171.986C54.891 171.986 36.0824 164.54 36.0824 164.54L35.1895 164.892Z" fill="#F50D1B"/>
<path d="M53.998 172.338V175.64L54.8952 175.285V171.986C54.891 171.986 53.998 172.338 53.998 172.338Z" fill="#C00A15"/>
<path d="M31.929 170.044C30.8778 170.457 30.8778 171.128 31.929 171.541C32.9801 171.954 34.6852 171.954 35.7363 171.541C36.7875 171.127 36.7875 170.457 35.7363 170.044C34.6852 169.63 32.9801 169.63 31.929 170.044Z" fill="#95CA62"/>
<path d="M55.176 162.249C54.1249 162.662 54.1249 163.333 55.176 163.747C56.2271 164.16 57.9323 164.16 58.9834 163.747C60.0345 163.333 60.0345 162.662 58.9834 162.249C57.9312 161.835 56.2271 161.835 55.176 162.249Z" fill="#95CA62"/>
<path d="M42.3122 170.648L33.1686 174.244L31.749 173.686L40.8927 170.09L42.3122 170.648Z" fill="#95CA62"/>
<path d="M43.5166 171.672L36.3096 174.507L35.1895 174.067L42.3976 171.233L43.5166 171.672Z" fill="#95CA62"/>
<path d="M30.5623 175.718L11.7568 168.274L11.7706 171.57L30.5761 179.015L30.5623 175.718Z" fill="#7DA651"/>
<path d="M74.9429 158.263L30.5624 175.719L11.7549 168.272L41.0938 156.736L56.1396 150.819L58.64 151.81L60.8048 152.666L62.5004 153.338L74.9429 158.263Z" fill="#95CA62"/>
<path d="M69.029 158.257L56.1342 153.152L17.6719 168.279L30.5666 173.385L69.029 158.257Z" fill="#D0F6A8"/>
<path d="M30.5625 175.718L30.5763 179.015L74.9589 161.559L74.9451 158.263L30.5625 175.718Z" fill="#5F7D3D"/>
<path d="M54.7592 164.621C55.5591 162.72 51.7558 160.309 46.2643 159.237C40.7729 158.165 35.6728 158.837 34.873 160.739C34.0732 162.64 37.8765 165.05 43.3679 166.122C48.8594 167.194 53.9594 166.522 54.7592 164.621Z" fill="#95CA62"/>
<path d="M30.9805 160.71L49.7891 168.153L55.9673 165.725L56.8592 165.373C56.8634 165.373 58.6524 164.668 58.6524 164.668L39.8438 157.222L38.0506 157.927L37.1587 158.279L30.9805 160.71Z" fill="#F6F6F6"/>
<path d="M49.7891 168.153L49.8029 171.452L55.9673 169.027L56.8634 168.672L58.6662 167.963L58.6524 164.667L56.8634 165.373C56.8591 165.373 55.9673 165.724 55.9673 165.724L49.7891 168.153Z" fill="#C6C6C6"/>
<path d="M37.71 158.062L56.5186 165.509V168.81L57.4147 168.456V165.157C57.4104 165.157 38.6018 157.711 38.6018 157.711L37.71 158.062Z" fill="#F50D1B"/>
<path d="M56.5176 165.508V168.81L57.4137 168.456V165.157C57.4105 165.157 56.5176 165.508 56.5176 165.508Z" fill="#C00A15"/>
<path d="M32.3389 160.174L51.1475 167.62V170.922L52.0446 170.568V167.269C52.0404 167.269 33.2318 159.823 33.2318 159.823L32.3389 160.174Z" fill="#F50D1B"/>
<path d="M51.1465 167.621V170.923L52.0436 170.569V167.27C52.0394 167.27 51.1465 167.621 51.1465 167.621Z" fill="#C00A15"/>
<path d="M29.0774 165.327C28.0263 165.741 28.0263 166.411 29.0774 166.825C30.1285 167.239 31.8337 167.239 32.8848 166.825C33.9359 166.411 33.9359 165.741 32.8848 165.327C31.8337 164.913 30.1296 164.913 29.0774 165.327Z" fill="#95CA62"/>
<path d="M52.3245 157.531C51.2734 157.945 51.2734 158.616 52.3245 159.029C53.3756 159.443 55.0807 159.443 56.1318 159.029C57.183 158.616 57.183 157.945 56.1318 157.531C55.0807 157.118 53.3756 157.118 52.3245 157.531Z" fill="#95CA62"/>
<path d="M39.4606 165.932L30.317 169.528L28.8975 168.969L38.0411 165.373L39.4606 165.932Z" fill="#95CA62"/>
<path d="M40.665 166.956L33.4579 169.79L32.3389 169.35L39.5459 166.515L40.665 166.956Z" fill="#95CA62"/>
<path d="M38.0692 170.563L19.2627 163.118L19.2765 166.415L38.083 173.86L38.0692 170.563Z" fill="#7DA651"/>
<path d="M82.4497 153.108L38.0682 170.564L19.2617 163.117L48.5995 151.58L63.6464 145.664L66.1468 146.655L68.3117 147.51L70.0073 148.182L82.4497 153.108Z" fill="#95CA62"/>
<path d="M76.5359 153.101L63.6401 147.996L25.1777 163.124L38.0735 168.23L76.5359 153.101Z" fill="#D0F6A8"/>
<path d="M38.0693 170.563L38.0831 173.86L82.4657 156.404L82.4509 153.107L38.0693 170.563Z" fill="#5F7D3D"/>
<path d="M44.0365 154.272C40.8991 155.506 42.0659 157.966 46.6431 159.766C51.2202 161.567 57.4749 162.026 60.6123 160.791C63.7497 159.557 62.5829 157.098 58.0057 155.297C53.4286 153.497 47.1739 153.038 44.0365 154.272Z" fill="#95CA62"/>
<path d="M38.4873 155.554L57.2959 162.997L63.4741 160.569L64.366 160.218C64.3702 160.218 66.1593 159.513 66.1593 159.513L47.3507 152.066L45.5574 152.772L44.6655 153.124L38.4873 155.554Z" fill="#F6F6F6"/>
<path d="M57.2959 162.997L57.3097 166.296L63.4741 163.871L64.3702 163.517L66.1731 162.808L66.1592 159.512L64.3702 160.217C64.366 160.217 63.4741 160.568 63.4741 160.568L57.2959 162.997Z" fill="#C6C6C6"/>
<path d="M45.2158 152.907L64.0244 160.353V163.655L64.9216 163.3V160.002C64.9174 160.002 46.1087 152.555 46.1087 152.555L45.2158 152.907Z" fill="#F50D1B"/>
<path d="M64.0244 160.353V163.655L64.9216 163.3V160.001C64.9163 160.001 64.0244 160.353 64.0244 160.353Z" fill="#C00A15"/>
<path d="M39.8447 155.019L58.6533 162.465V165.767L59.5505 165.412V162.113C59.5463 162.113 40.7376 154.667 40.7376 154.667L39.8447 155.019Z" fill="#F50D1B"/>
<path d="M58.6533 162.466V165.767L59.5505 165.413V162.114C59.5452 162.114 58.6533 162.466 58.6533 162.466Z" fill="#C00A15"/>
<path d="M36.5842 160.171C35.5331 160.585 35.5331 161.256 36.5842 161.669C37.6354 162.083 39.3405 162.083 40.3916 161.669C41.4427 161.256 41.4427 160.585 40.3916 160.171C39.3405 159.758 37.6354 159.758 36.5842 160.171Z" fill="#95CA62"/>
<path d="M59.8303 152.376C58.7792 152.79 58.7792 153.46 59.8303 153.874C60.8814 154.288 62.5866 154.288 63.6377 153.874C64.6888 153.46 64.6888 152.79 63.6377 152.376C62.5866 151.963 60.8814 151.963 59.8303 152.376Z" fill="#95CA62"/>
<path d="M46.9675 160.776L37.8238 164.372L36.4043 163.814L45.5479 160.218L46.9675 160.776Z" fill="#95CA62"/>
<path d="M48.1719 161.8L40.9638 164.635L39.8447 164.194L47.0528 161.36L48.1719 161.8Z" fill="#95CA62"/>
<path opacity="0.3" d="M244.686 26.1041L237.753 22.9646V9.40271L244.686 12.5422V26.1041ZM253.877 20.1751L246.943 17.0357V27.1263L253.877 30.2657V20.1751ZM263.067 14.2457L256.134 11.1062V31.2874L263.067 34.4268V14.2457ZM272.258 21.1518L265.324 18.0124V35.4491L272.258 38.5885V21.1518ZM281.448 20.2679L274.515 17.1284V39.6107L281.448 42.7502V20.2679ZM235.099 22.96V23.5844L285 46.1794V45.555L235.099 22.96ZM260.861 38.4115L238.158 28.1314V29.3801L260.861 39.6608V38.4115ZM238.158 32.165L255.818 40.1617V38.9129L238.158 30.9163V32.165ZM238.158 34.9482L269.596 49.1834V47.9341L238.158 33.6989V34.9482Z" fill="#2087B3"/>
<path opacity="0.3" d="M34.8781 56.2028L28.6107 54.3982L21.29 57.2776V56.7127L28.9547 53.6981L35.307 55.5273C38.884 50.1041 45.3648 44.8653 52.7503 41.9606C52.7927 41.944 52.8373 41.9266 52.8798 41.91L51.9348 55.9583L39.3586 71.5473C34.9015 70.6418 32.3629 67.8701 32.3629 63.8667C32.3629 61.4488 33.2759 58.8153 34.8781 56.2028ZM32.3629 80.1797L48.2082 73.9479V72.8181L32.3629 79.0499V80.1797ZM32.3629 82.6982L65.1035 69.8215V68.6918L32.3629 81.5691V82.6982ZM32.3629 85.216L65.1035 72.3386V71.2088L32.3629 84.0862V85.216ZM74.0869 33.0469L67.2588 40.3846C63.9643 39.406 59.5241 39.6439 54.5361 41.3126L54.0042 49.2137L53.6188 54.9414L73.1207 47.271C72.9232 43.9721 70.9526 41.6829 67.8269 40.5719L74.4309 33.4758L81.4128 30.7302V30.1653L74.0869 33.0469ZM64.544 62.5294C69.5288 58.1513 72.8584 52.9386 73.1196 48.4022L53.1463 56.2571L40.6253 71.778C44.2171 72.1795 48.5851 71.3744 52.7492 69.7362C56.8401 68.1276 60.6517 65.8023 63.8475 63.1268L70.2859 64.9806L79.4762 61.3656V60.8007L70.6288 64.2805L64.544 62.5294Z" fill="#2087B3"/>
<path opacity="0.3" d="M112.221 100.398L112.725 99.3916L54.6092 122.249V124.616L53.7311 124.961V122.594L49.9736 124.072V123.473L53.7311 121.996V101.297L52.5441 102.108L54.1696 98.8426L55.7951 100.829L54.6081 100.952V114.641L61.4552 108.032C61.3597 107.928 61.3034 107.793 61.3034 107.627C61.3034 107.008 62.0402 106.216 62.9501 105.858C63.859 105.5 64.5969 105.712 64.5969 106.332C64.5937 106.356 73.8531 104.606 73.8531 104.606C74.1451 104.176 74.6568 103.765 75.2429 103.534C75.5795 103.401 75.8927 103.348 76.1539 103.364L84.721 94.9333C84.6191 94.8277 84.5575 94.6902 84.5575 94.5181C84.5575 93.899 85.2943 93.107 86.2042 92.749C87.1131 92.3909 87.851 92.6036 87.851 93.2227C87.851 93.2531 87.8414 93.2856 87.8382 93.3167L95.8639 92.1616C96.1622 91.7609 96.6474 91.3834 97.1995 91.1664C97.4225 91.0789 97.6348 91.0261 97.8281 91.0044L105.339 81.4917C105.136 81.3854 105.011 81.2053 105.011 80.9551C105.011 80.3359 105.748 79.5432 106.657 79.1859C107.567 78.8286 108.304 79.0405 108.304 79.6597C108.304 80.2274 107.682 80.937 106.877 81.3276V81.4172L106.438 81.5901V81.5004C106.295 81.5438 106.156 81.5764 106.028 81.5908L98.5171 91.1035C98.7199 91.2105 98.8452 91.3899 98.8452 91.6402C98.8452 92.2087 98.223 92.9175 97.4182 93.308V93.3977L96.9798 93.5706V93.4809C96.175 93.7232 95.5528 93.5041 95.5528 92.9356C95.5528 92.9052 95.5623 92.8726 95.5655 92.8415L87.5399 93.9973C87.2819 94.3438 86.8837 94.6686 86.424 94.8913V94.981L85.9844 95.1539V95.0642C85.7318 95.1401 85.496 95.1756 85.2933 95.1633L76.7251 103.594C76.827 103.699 76.8886 103.837 76.8886 104.009C76.8886 104.578 76.2664 105.286 75.4616 105.677V105.767L75.022 105.94V105.85C74.2173 106.092 73.5951 105.873 73.5951 105.304C73.5983 105.28 64.3378 107.03 64.3378 107.03C64.0841 107.405 63.6604 107.761 63.1678 108.001V108.091L62.7282 108.263V108.174C62.467 108.253 62.2239 108.287 62.0158 108.271L54.606 115.423V121.652L62.7282 118.457V117.834L63.1678 117.661V118.285L85.9834 109.311V108.314L86.4229 108.141V109.139L96.9776 104.987V104.936L97.4161 104.763V104.814L106.436 101.266V100.134L106.875 99.9615V101.093L112.723 98.7934L112.219 98.183L116.073 97.7751L112.221 100.398ZM63.1699 114.071L62.7304 114.244V115.441L63.1699 115.268V114.071ZM62.7304 117.235L63.1699 117.062V115.866L62.7304 116.039V117.235ZM63.1699 110.482L62.7304 110.655V111.852L63.1699 111.679V110.482ZM63.1699 108.688L62.7304 108.861V110.057L63.1699 109.884V108.688ZM63.1699 112.277L62.7304 112.45V113.646L63.1699 113.473V112.277ZM75.4627 109.953L75.0231 110.126V111.322L75.4627 111.149V109.953ZM75.0242 113.117L75.4637 112.944V111.747L75.0242 111.92V113.117ZM75.4627 108.159L75.0231 108.331V109.528L75.4627 109.355V108.159ZM75.4627 106.364L75.0231 106.537V107.733L75.4627 107.56V106.364ZM85.9855 107.715L86.4251 107.542V106.346L85.9855 106.519V107.715ZM86.424 102.757L85.9844 102.93V104.126L86.424 103.953V102.757ZM86.424 104.552L85.9844 104.724V105.921L86.424 105.748V104.552ZM86.424 95.5792L85.9844 95.752V96.9483L86.424 96.7755V95.5792ZM86.424 97.3729L85.9844 97.5458V98.7421L86.424 98.5692V97.3729ZM86.424 100.963L85.9844 101.135V102.332L86.424 102.159V100.963ZM86.424 99.1681L85.9844 99.341V100.537L86.424 100.364V99.1681ZM96.9787 104.338L97.4172 104.165V102.969L96.9787 103.142V104.338ZM97.4182 101.175L96.9798 101.347V102.544L97.4182 102.371V101.175ZM97.4182 97.5856L96.9798 97.7584V98.9547L97.4182 98.7819V97.5856ZM97.4182 99.38L96.9798 99.5529V100.749L97.4182 100.576V99.38ZM97.4182 93.9959L96.9798 94.1688V95.3651L97.4182 95.1922V93.9959ZM97.4182 95.7911L96.9787 95.9632V97.1595L97.4172 96.9867L97.4182 95.7911ZM106.877 92.7829L106.438 92.9558V94.1521L106.877 93.9793V92.7829ZM106.877 94.5774L106.438 94.7503V95.9466L106.877 95.7737V94.5774ZM106.877 96.3726L106.438 96.5455V97.7418L106.877 97.5689V96.3726ZM106.877 90.9885L106.438 91.1613V92.3577L106.877 92.1848V90.9885ZM106.438 99.5355L106.877 99.3627V98.1664L106.438 98.3392V99.5355ZM106.877 83.8106L106.438 83.9835V85.1798L106.877 85.0069V83.8106ZM106.877 82.0161L106.438 82.189V83.3853L106.877 83.2124V82.0161ZM106.877 89.194L106.438 89.3669V90.5632L106.877 90.3903V89.194ZM106.877 87.3995L106.438 87.5724V88.7687L106.877 88.5958V87.3995ZM106.877 85.6051L106.438 85.7779V86.9743L106.877 86.8014V85.6051Z" fill="#2087B3"/>
<path opacity="0.2" d="M273.452 134.057C273.334 133.976 273.216 133.896 273.099 133.816L273.452 134.057Z" fill="#2087B3"/>
</svg>
