<svg width="285" height="253" viewBox="0 0 285 253" fill="none" xmlns="http://www.w3.org/2000/svg">
<path d="M250.351 206.812C232.328 206.812 217.718 210.235 217.718 214.457C217.718 214.548 217.734 214.638 217.748 214.729C216.331 214.614 214.863 214.552 213.354 214.552C211.011 214.552 208.761 214.7 206.664 214.968C206.768 214.799 206.826 214.629 206.826 214.457C206.826 210.235 175.091 206.812 135.947 206.812C96.7988 206.812 65.0646 210.235 65.0646 214.457C65.0646 217.691 83.6853 220.457 109.995 221.574C108.013 222.354 106.277 223.202 104.821 224.108C98.9714 220.88 79.6279 218.509 56.6515 218.509C29.0402 218.509 6.65625 221.932 6.65625 226.154C6.65625 230.376 29.0402 233.799 56.6515 233.799C75.0662 233.799 91.1449 232.276 99.8196 230.009C99.7679 230.296 99.7339 230.586 99.7339 230.879C99.7339 233.482 101.824 235.922 105.465 238.033C92.0461 238.977 82.2668 241.898 82.2668 245.354C82.2668 249.577 96.8485 253 114.836 253C128.067 253 139.448 251.147 144.546 248.487C149.643 251.147 161.023 253 174.256 253C188.466 253 200.541 250.864 204.992 247.885C207.802 250.863 215.426 253 224.4 253C235.757 253 244.964 249.577 244.964 245.354C244.964 241.132 235.757 237.71 224.4 237.71C215.426 237.71 207.802 239.846 204.992 242.824C201.361 240.394 192.651 238.527 181.847 237.921C185.368 235.835 187.383 233.435 187.383 230.879C187.383 226.976 182.695 223.435 175.09 220.831C183.035 220.263 189.854 219.526 195.114 218.666C193.631 219.724 192.789 220.923 192.789 222.197C192.789 226.42 201.996 229.842 213.354 229.842C224.711 229.842 233.918 226.42 233.918 222.197C233.918 221.8 233.838 221.41 233.68 221.029C238.56 221.71 244.259 222.102 250.351 222.102C268.373 222.102 282.983 218.679 282.983 214.457C282.983 210.235 268.373 206.812 250.351 206.812Z" fill="#2196B3"/>
<path d="M257.403 166.193V139.753H239.479V166.193L222.255 205.139V214.156H274.625V205.139L257.403 166.193Z" fill="#B1DDE8"/>
<path d="M262.822 137.556H234.059V145.049H262.822V137.556Z" fill="#B1DDE8"/>
<path d="M232.908 191.709L227.944 203.657V208.962H268.935V203.773L263.8 191.709H232.908Z" fill="#03658C"/>
<path d="M263.8 191.709C263.8 193.041 256.883 194.122 248.353 194.122C239.823 194.122 232.908 193.041 232.908 191.709C232.908 190.378 239.823 189.298 248.353 189.298C256.882 189.298 263.8 190.378 263.8 191.709Z" fill="#025272"/>
<path d="M57.8976 148.798L44.673 153.469C39.2487 155.385 33.413 152.107 31.6649 146.161L15.2455 90.3275C13.4967 84.3819 16.4887 77.9876 21.9124 76.0712L25.9181 74.6564C26.372 74.4959 26.8593 74.7697 27.0051 75.2671C27.1516 75.7652 26.9018 76.2984 26.4485 76.4596L22.4434 77.8737C17.9256 79.4697 15.4345 84.7947 16.8909 89.7463L33.3097 145.58C34.7662 150.532 39.626 153.262 44.1439 151.666L57.3685 146.995C61.8863 145.4 64.3787 140.074 62.9223 135.122L46.5035 79.2891C45.0471 74.3368 40.1859 71.6077 35.6687 73.2037L31.6636 74.6185C31.209 74.7783 30.7218 74.5045 30.576 74.0064C30.4295 73.5098 30.6793 72.9758 31.1332 72.8153L35.1376 71.4005C40.5619 69.4848 46.3976 72.7623 48.1464 78.7079L64.5658 134.541C66.3133 140.488 63.3225 146.883 57.8976 148.798Z" fill="#F1F1F1"/>
<path d="M58.1181 149.549L44.8935 154.219C39.0912 156.268 32.8494 152.762 30.9796 146.403L21.9256 115.616C21.6568 114.703 22.1146 113.726 22.9478 113.431C23.779 113.137 24.6724 113.638 24.9399 114.551L33.9939 145.339C35.3281 149.875 39.7825 152.378 43.9223 150.916L57.1469 146.245C61.2868 144.784 63.5692 139.901 62.2351 135.365L53.1189 104.365C52.8508 103.453 53.3086 102.475 54.1411 102.181C54.9737 101.887 55.8657 102.387 56.1339 103.301L65.2494 134.3C67.1205 140.66 63.9211 147.5 58.1181 149.549Z" fill="#1D3356"/>
<path d="M26.5148 73.5833L22.4238 75.0278L23.4125 78.3901L27.5034 76.9455L26.5148 73.5833Z" fill="#1D3356"/>
<path d="M34.1903 70.8712L30.1006 72.3148L31.0887 75.6764L35.1784 74.2328L34.1903 70.8712Z" fill="#1D3356"/>
<path d="M29.6013 74.3496C30.0637 75.9199 29.2769 77.6048 27.844 78.1108C26.4097 78.6168 24.8741 77.7532 24.4124 76.1829C23.9507 74.612 24.7375 72.9285 26.1717 72.4232C27.604 71.9172 29.1402 72.7801 29.6013 74.3496Z" fill="#1D3356"/>
<path d="M33.1956 73.0812C33.6574 74.6508 32.8693 76.3357 31.437 76.8417C30.0028 77.3477 28.4659 76.4848 28.0042 74.9145C27.5424 73.3443 28.3299 71.66 29.7634 71.1541C31.197 70.6474 32.7333 71.511 33.1956 73.0812Z" fill="#1D3356"/>
<path d="M93.052 184.141C92.3764 184.38 91.6779 184.58 90.9585 184.744C83.2517 186.482 73.8904 185.292 67.6662 181.781C56.9164 175.718 52.8132 164.294 49.2351 152.125C48.9663 151.214 49.4248 150.235 50.2573 149.942C51.0892 149.648 51.9826 150.149 52.2501 151.061C55.6169 162.508 59.4395 173.236 69.1155 178.694C74.7451 181.869 83.2661 182.934 90.3189 181.342C94.4522 180.409 97.6065 178.071 99.6966 174.389C101.468 171.267 102.333 167.235 102.184 163.189C99.8824 165.223 97.1068 166.672 94.0611 167.424C87.2327 169.103 78.8549 166.973 76.0531 159.652C74.7347 156.205 74.9662 152.456 76.7032 149.094C78.6234 145.377 82.0464 142.797 85.8632 142.195C94.1259 140.885 101.358 147.898 104.046 155.725C105.725 152.666 105.844 149.64 105.424 145.274C104.872 139.509 103.115 133.79 101.417 128.262C100.997 126.896 100.564 125.485 100.155 124.096C99.8863 123.183 100.344 122.205 101.177 121.91C102.009 121.617 102.903 122.117 103.171 123.031C103.572 124.399 104.003 125.798 104.419 127.154C106.173 132.861 107.986 138.763 108.575 144.911C109.152 150.924 108.735 155.309 105.079 160.052C105.93 165.769 104.969 171.672 102.386 176.224C100.224 180.032 97.0237 182.738 93.052 184.141ZM84.8658 146C82.6252 146.792 80.6312 148.538 79.4611 150.804C78.2172 153.212 78.0459 155.876 78.9765 158.311C81.104 163.872 87.8258 165.4 93.3679 164.037C96.4528 163.277 99.1937 161.679 101.297 159.414C101.421 159.281 101.542 159.148 101.66 159.015C101.632 158.889 101.604 158.763 101.574 158.638C99.8752 151.488 93.5595 144.483 86.3171 145.63C85.8252 145.709 85.3406 145.833 84.8658 146Z" fill="#1D3356"/>
<path d="M106.715 108.428C108.236 113.597 105.644 119.138 100.926 120.804C96.2087 122.471 91.1513 119.631 89.6314 114.461C88.1108 109.291 90.7033 103.75 95.4213 102.083C100.139 100.417 105.195 103.258 106.715 108.428Z" fill="#CACACA"/>
<path d="M101.099 113.226L96.7607 114.758L99.9237 125.515L104.262 123.983L101.099 113.226Z" fill="#B1B1B1"/>
<path d="M102.759 109.825C103.575 112.6 102.184 115.575 99.6509 116.469C97.1186 117.363 94.4038 115.839 93.5883 113.064C92.7714 110.288 94.1638 107.314 96.6954 106.419C99.2284 105.524 101.943 107.049 102.759 109.825Z" fill="#979797"/>
<path d="M99.6574 110.921C99.9216 111.818 99.471 112.782 98.6522 113.071C97.8334 113.36 96.9544 112.866 96.6908 111.969C96.4266 111.071 96.8772 110.108 97.696 109.819C98.5148 109.53 99.3932 110.022 99.6574 110.921Z" fill="#1D3356"/>
<path d="M193.012 203.44C193.012 209.524 188.511 214.457 182.957 214.457H83.219C77.6665 214.457 73.165 209.524 73.165 203.44V40.6934C73.165 34.6087 77.6665 29.6765 83.219 29.6765H182.957C188.511 29.6765 193.012 34.6087 193.012 40.6934V203.44Z" fill="#025272"/>
<path d="M193.012 199.785C193.012 205.87 188.511 210.803 182.957 210.803H83.219C77.6665 210.803 73.165 205.87 73.165 199.785V37.039C73.165 30.9543 77.6665 26.0214 83.219 26.0214H182.957C188.511 26.0214 193.012 30.9543 193.012 37.039V199.785Z" fill="#03658C"/>
<path d="M183.185 29.1985H82.9951V199.684H183.185V29.1985Z" fill="#F1F1F1"/>
<path d="M113.285 60.7147H89.6299V84.0901H113.285V60.7147Z" fill="#A6C9D6"/>
<path d="M176.152 69.601H116.481V71.6098H176.152V69.601Z" fill="#91B0BB"/>
<path d="M176.152 75.9995H116.481V78.0091H176.152V75.9995Z" fill="#91B0BB"/>
<path d="M176.152 82.3988H116.481V84.407H176.152V82.3988Z" fill="#91B0BB"/>
<path d="M176.152 88.7966H89.6299V90.8062H176.152V88.7966Z" fill="#91B0BB"/>
<path d="M176.152 95.1945H89.6299V97.2048H176.152V95.1945Z" fill="#91B0BB"/>
<path d="M176.152 101.593H89.6299V103.603H176.152V101.593Z" fill="#91B0BB"/>
<path d="M176.152 107.992H89.6299V110.003H176.152V107.992Z" fill="#91B0BB"/>
<path d="M176.152 114.391H89.6299V116.401H176.152V114.391Z" fill="#91B0BB"/>
<path d="M176.152 120.79H89.6299V122.799H176.152V120.79Z" fill="#91B0BB"/>
<path d="M176.152 127.189H89.6299V129.198H176.152V127.189Z" fill="#91B0BB"/>
<path d="M176.152 133.587H89.6299V135.598H176.152V133.587Z" fill="#91B0BB"/>
<path d="M176.152 139.986H89.6299V141.995H176.152V139.986Z" fill="#91B0BB"/>
<path d="M176.152 146.384H89.6299V148.393H176.152V146.384Z" fill="#91B0BB"/>
<path d="M176.152 152.783H89.6299V154.793H176.152V152.783Z" fill="#91B0BB"/>
<path d="M176.152 159.181H89.6299V161.192H176.152V159.181Z" fill="#91B0BB"/>
<path d="M176.152 165.58H89.6299V167.589H176.152V165.58Z" fill="#91B0BB"/>
<path d="M176.152 171.979H89.6299V173.988H176.152V171.979Z" fill="#91B0BB"/>
<path d="M176.152 178.377H89.6299V180.388H176.152V178.377Z" fill="#91B0BB"/>
<path d="M176.152 184.777H89.6299V186.785H176.152V184.777Z" fill="#91B0BB"/>
<path d="M133.089 0C127.04 0 122.138 5.37299 122.138 12.0009C122.138 18.6302 127.04 24.0025 133.089 24.0025C139.137 24.0025 144.042 18.6302 144.042 12.0009C144.041 5.37299 139.136 0 133.089 0ZM133.089 19.0115C129.556 19.0115 126.692 15.8739 126.692 12.0016C126.692 8.1308 129.556 4.99243 133.089 4.99243C136.622 4.99243 139.486 8.1308 139.486 12.0016C139.486 15.8739 136.622 19.0115 133.089 19.0115Z" fill="#FF931E"/>
<path d="M106.235 68.3941C106.235 65.503 104.096 63.1587 101.458 63.1587C98.82 63.1587 96.6808 65.503 96.6808 68.3941C96.6808 70.0733 97.4048 71.564 98.527 72.5222C95.5899 74.7181 93.3055 79.8195 92.4814 84.0909H110.434C109.61 79.8195 107.327 74.7188 104.388 72.5222C105.51 71.564 106.235 70.0733 106.235 68.3941Z" fill="#91B0BB"/>
<path d="M165.517 22.7168H100.662C95.2387 22.7168 90.8418 27.5358 90.8418 33.4778H175.335C175.336 27.5358 170.939 22.7168 165.517 22.7168Z" fill="#FF931E"/>
<path d="M176.152 54.104C176.152 59.6168 172.073 64.086 167.043 64.086C162.011 64.086 157.931 59.6175 157.931 54.104C157.931 48.5898 162.01 44.1199 167.043 44.1199C172.073 44.1206 176.152 48.5898 176.152 54.104Z" fill="#FF213D"/>
<path d="M173.074 52.2127H169.181V47.9448H164.902V52.2127H161.009V56.8998H164.902V61.1677H169.181V56.8998H173.074V52.2127Z" fill="white"/>
<path d="M175.335 33.4778H90.8418V39.1045H175.335V33.4778Z" fill="#CF7718"/>
<path d="M131.624 49.5203C131.606 49.5203 131.584 49.5234 131.559 49.5296C131.54 49.5359 131.515 49.5421 131.484 49.5483L131.214 49.595V54.4931L131.484 54.5397C131.515 54.546 131.54 54.5522 131.559 54.5584C131.584 54.5646 131.606 54.5677 131.624 54.5677L131.68 54.5771C131.836 54.6144 131.914 54.7108 131.914 54.8663V55.4167H129.245V54.8663C129.245 54.7108 129.323 54.6144 129.478 54.5771L129.534 54.5677L129.674 54.5397L129.945 54.4931V52.4685H126.782V54.4931L127.062 54.5397C127.093 54.546 127.118 54.5522 127.137 54.5584C127.162 54.5646 127.183 54.5677 127.202 54.5677L127.258 54.5771C127.413 54.6144 127.491 54.7108 127.491 54.8663V55.4167H124.814V54.8663C124.814 54.7108 124.891 54.6144 125.047 54.5771L125.103 54.5677C125.121 54.5677 125.14 54.5646 125.159 54.5584C125.184 54.5522 125.212 54.546 125.243 54.5397L125.523 54.4931V49.595L125.243 49.5483C125.212 49.5421 125.184 49.5359 125.159 49.5296C125.14 49.5234 125.121 49.5203 125.103 49.5203L125.047 49.511C124.891 49.4737 124.814 49.3773 124.814 49.2218V48.6713H127.491V49.2218C127.491 49.3773 127.413 49.4737 127.258 49.511L127.202 49.5203C127.183 49.5203 127.162 49.5234 127.137 49.5296C127.118 49.5359 127.093 49.5421 127.062 49.5483L126.782 49.595V51.5729H129.945V49.595L129.674 49.5483L129.534 49.5203L129.478 49.511C129.323 49.4737 129.245 49.3773 129.245 49.2218V48.6713H131.914V49.2218C131.914 49.3773 131.836 49.4737 131.68 49.511L131.624 49.5203ZM137.248 50.444H136.707C136.595 50.444 136.524 50.3849 136.492 50.2667C136.461 50.0241 136.44 49.8251 136.427 49.6696H134.253V51.5356H136.539V52.5059H134.253V54.4091H136.427C136.44 54.2536 136.461 54.0546 136.492 53.812C136.524 53.6938 136.595 53.6348 136.707 53.6348H137.248V55.4167H132.285V54.8663C132.285 54.7108 132.362 54.6144 132.518 54.5771L132.574 54.5677C132.593 54.5677 132.611 54.5646 132.63 54.5584C132.655 54.5522 132.683 54.546 132.714 54.5397L132.994 54.4931V49.595L132.714 49.5483C132.683 49.5421 132.655 49.5359 132.63 49.5296C132.611 49.5234 132.593 49.5203 132.574 49.5203L132.518 49.511C132.362 49.4737 132.285 49.3773 132.285 49.2218V48.6713H137.248V50.444ZM144.677 54.6984C144.795 54.7419 144.854 54.8228 144.854 54.9409V55.4167H142.577V54.9409C142.577 54.8352 142.64 54.7543 142.764 54.6984L142.951 54.6237L142.577 53.6068H139.891L139.517 54.6237L139.704 54.6984C139.828 54.7543 139.891 54.8352 139.891 54.9409V55.4167H137.614V54.9409C137.614 54.8352 137.676 54.7543 137.801 54.6984L138.314 54.4838L140.59 48.6713H141.878L144.164 54.4838L144.677 54.6984ZM142.26 52.7204L141.486 50.6212C141.411 50.416 141.327 50.1516 141.234 49.8282L141.15 50.1174C141.1 50.2854 141.044 50.4564 140.982 50.6306L140.217 52.7204H142.26ZM129.702 66.4167H124.814V65.8663C124.814 65.7108 124.891 65.6144 125.047 65.5771L125.103 65.5677L125.243 65.5397L125.523 65.4931V60.595L125.243 60.5483C125.212 60.5421 125.184 60.5359 125.159 60.5296C125.14 60.5234 125.121 60.5203 125.103 60.5203L125.047 60.511C124.891 60.4737 124.814 60.3773 124.814 60.2218V59.6713H127.482V60.2218C127.482 60.3773 127.404 60.4737 127.249 60.511L127.193 60.5203L127.053 60.5483L126.773 60.595V65.3811H128.947C128.965 65.1323 128.978 64.9986 128.984 64.98C129.015 64.8618 129.087 64.8027 129.199 64.8027H129.702V66.4167ZM135.659 61.2667H135.127C135.009 61.2667 134.934 61.2076 134.903 61.0894C134.884 60.9837 134.869 60.8562 134.856 60.7069H133.485V65.4931L133.756 65.5397C133.787 65.546 133.811 65.5522 133.83 65.5584C133.855 65.5646 133.877 65.5677 133.895 65.5677L133.951 65.5771C134.113 65.6144 134.194 65.7108 134.194 65.8663V66.4167H131.526V65.8663C131.526 65.7108 131.603 65.6144 131.759 65.5771L131.815 65.5677C131.834 65.5677 131.852 65.5646 131.871 65.5584C131.896 65.5522 131.924 65.546 131.955 65.5397L132.225 65.4931V60.6976H130.854C130.841 60.8593 130.826 60.9899 130.807 61.0894C130.776 61.2076 130.705 61.2667 130.593 61.2667H130.052V59.6713H135.659V61.2667ZM142.804 60.5203C142.785 60.5203 142.763 60.5234 142.738 60.5296C142.72 60.5359 142.695 60.5421 142.664 60.5483L142.393 60.595V65.4931L142.664 65.5397C142.695 65.546 142.72 65.5522 142.738 65.5584C142.763 65.5646 142.785 65.5677 142.804 65.5677L142.86 65.5771C143.015 65.6144 143.093 65.7108 143.093 65.8663V66.4167H140.425V65.8663C140.425 65.7108 140.502 65.6144 140.658 65.5771L140.714 65.5677L140.854 65.5397L141.124 65.4931V63.4685H137.961V65.4931L138.241 65.5397C138.272 65.546 138.297 65.5522 138.316 65.5584C138.341 65.5646 138.363 65.5677 138.381 65.5677L138.437 65.5771C138.593 65.6144 138.671 65.7108 138.671 65.8663V66.4167H135.993V65.8663C135.993 65.7108 136.071 65.6144 136.226 65.5771L136.282 65.5677C136.301 65.5677 136.319 65.5646 136.338 65.5584C136.363 65.5522 136.391 65.546 136.422 65.5397L136.702 65.4931V60.595L136.422 60.5483C136.391 60.5421 136.363 60.5359 136.338 60.5296C136.319 60.5234 136.301 60.5203 136.282 60.5203L136.226 60.511C136.071 60.4737 135.993 60.3773 135.993 60.2218V59.6713H138.671V60.2218C138.671 60.3773 138.593 60.4737 138.437 60.511L138.381 60.5203C138.363 60.5203 138.341 60.5234 138.316 60.5296C138.297 60.5359 138.272 60.5421 138.241 60.5483L137.961 60.595V62.5729H141.124V60.595L140.854 60.5483L140.714 60.5203L140.658 60.511C140.502 60.4737 140.425 60.3773 140.425 60.2218V59.6713H143.093V60.2218C143.093 60.3773 143.015 60.4737 142.86 60.511L142.804 60.5203Z" fill="#025272"/>
<path d="M121.93 58.3935C121.911 58.3935 121.89 58.3966 121.865 58.4028C121.846 58.409 121.821 58.4153 121.79 58.4215L121.519 58.4681V63.3663L121.79 63.4129C121.821 63.4191 121.846 63.4254 121.865 63.4316C121.89 63.4378 121.911 63.4409 121.93 63.4409L121.986 63.4502C122.141 63.4876 122.219 63.584 122.219 63.7395V64.2899H119.551V63.7395C119.551 63.584 119.629 63.4876 119.784 63.4502L119.84 63.4409L119.98 63.4129L120.26 63.3663V58.4681L119.98 58.4215C119.949 58.4153 119.921 58.409 119.896 58.4028C119.877 58.3966 119.859 58.3935 119.84 58.3935L119.784 58.3842C119.629 58.3468 119.551 58.2504 119.551 58.0949V57.5445H122.219V58.0949C122.219 58.2504 122.141 58.3468 121.986 58.3842L121.93 58.3935ZM129.694 58.0949C129.694 58.2504 129.616 58.3468 129.461 58.3842L129.405 58.3935C129.386 58.3935 129.364 58.3966 129.339 58.4028C129.321 58.409 129.296 58.4153 129.265 58.4215L128.994 58.4681V64.2899H128.341C128.254 64.2899 128.173 64.2744 128.099 64.2433C128.036 64.2184 127.971 64.1624 127.903 64.0753L124.376 59.5877C124.388 59.7245 124.395 59.8209 124.395 59.8769L124.404 60.1475V63.3663L125.01 63.4502C125.166 63.4876 125.244 63.584 125.244 63.7395V64.2899H122.594V63.7395C122.594 63.584 122.672 63.4876 122.827 63.4502L122.883 63.4409L123.023 63.4129L123.303 63.3663V58.4681L123.023 58.4215C122.992 58.4153 122.964 58.409 122.939 58.4028C122.921 58.3966 122.902 58.3935 122.883 58.3935L122.827 58.3842C122.672 58.3468 122.594 58.2504 122.594 58.0949V57.5445H123.956L124.096 57.5538C124.14 57.5538 124.174 57.5631 124.199 57.5818C124.224 57.588 124.252 57.6067 124.283 57.6378L124.376 57.7497L127.921 62.256L127.893 61.9388C127.887 61.8704 127.884 61.7709 127.884 61.6403V58.4681L127.278 58.3842C127.122 58.3468 127.044 58.2504 127.044 58.0949V57.5445H129.694V58.0949ZM134.283 61.463C134.37 61.6434 134.414 61.8828 134.414 62.1814C134.414 62.4675 134.361 62.7505 134.255 63.0304C134.15 63.3041 133.997 63.5373 133.798 63.7301C133.599 63.9292 133.353 64.0847 133.061 64.1966C132.775 64.3086 132.445 64.3646 132.072 64.3646H131.932C131.341 64.3646 130.698 64.2464 130.001 64.01V62.2747H130.533C130.651 62.2747 130.722 62.3307 130.747 62.4426C130.766 62.5235 130.794 62.7816 130.831 63.217C131.092 63.2978 131.519 63.3383 132.109 63.3383C132.464 63.3383 132.741 63.2543 132.94 63.0864C133.133 62.9184 133.229 62.6759 133.229 62.3586C133.229 62.1845 133.185 62.0383 133.098 61.9201C133.018 61.8082 132.899 61.7149 132.744 61.6403C132.588 61.5594 132.424 61.4941 132.249 61.4443L132.044 61.3883L131.68 61.2764C131.494 61.2142 131.304 61.1396 131.111 61.0525C130.937 60.9716 130.769 60.8566 130.607 60.7073C130.458 60.5704 130.343 60.3963 130.262 60.1848C130.169 59.9547 130.122 59.6965 130.122 59.4104C130.122 59.1554 130.172 58.916 130.271 58.692C130.365 58.4557 130.508 58.2473 130.701 58.0669C130.881 57.899 131.111 57.7559 131.391 57.6378C131.665 57.5258 131.979 57.4698 132.333 57.4698C132.986 57.4698 133.63 57.5973 134.265 57.8524V59.5784H133.733C133.621 59.5784 133.549 59.5193 133.518 59.4011C133.5 59.314 133.472 59.0621 133.434 58.6454C133.21 58.5459 132.846 58.4961 132.343 58.4961C132.175 58.4961 132.025 58.5148 131.895 58.5521C131.752 58.6018 131.643 58.6609 131.568 58.7294C131.475 58.8102 131.407 58.9004 131.363 58.9999C131.319 59.0932 131.298 59.2083 131.298 59.3451C131.298 59.4944 131.344 59.625 131.438 59.737C131.531 59.8489 131.646 59.9391 131.783 60.0075C131.963 60.0946 132.131 60.163 132.287 60.2128C132.349 60.2315 132.539 60.2937 132.856 60.3994C132.986 60.4429 133.176 60.5207 133.425 60.6326C133.612 60.7135 133.779 60.8255 133.929 60.9685C134.09 61.1178 134.209 61.2826 134.283 61.463ZM141.69 58.0949C141.69 58.2504 141.612 58.3468 141.457 58.3842L141.401 58.3935C141.382 58.3935 141.36 58.3966 141.335 58.4028C141.317 58.409 141.292 58.4153 141.261 58.4215L140.981 58.4681V61.5843C140.981 61.9886 140.916 62.3586 140.785 62.6945C140.648 63.0491 140.465 63.3445 140.235 63.5809C139.992 63.8234 139.697 64.0162 139.348 64.1593C139.012 64.2961 138.624 64.3646 138.182 64.3646C137.74 64.3646 137.352 64.2961 137.016 64.1593C136.68 64.0225 136.388 63.8296 136.139 63.5809C135.896 63.3321 135.71 63.0366 135.579 62.6945C135.455 62.3773 135.392 62.0072 135.392 61.5843V58.4681L135.113 58.4215C135.081 58.4153 135.053 58.409 135.029 58.4028C135.01 58.3966 134.991 58.3935 134.973 58.3935L134.917 58.3842C134.761 58.3468 134.683 58.2504 134.683 58.0949V57.5445H137.389V58.0949C137.389 58.2504 137.311 58.3468 137.156 58.3842L137.09 58.3935C137.072 58.3935 137.05 58.3966 137.025 58.4028C137 58.409 136.969 58.4153 136.932 58.4215L136.643 58.4681V61.5749C136.643 61.8548 136.677 62.0881 136.745 62.2747C136.807 62.4737 136.91 62.6541 137.053 62.8158C137.171 62.9526 137.33 63.0646 137.529 63.1517C137.709 63.2325 137.927 63.273 138.182 63.273C138.437 63.273 138.655 63.2325 138.835 63.1517C139.047 63.0584 139.208 62.9464 139.32 62.8158C139.438 62.679 139.538 62.5017 139.619 62.284C139.693 62.0477 139.731 61.8144 139.731 61.5843V58.4681L139.442 58.4215C139.404 58.4153 139.373 58.409 139.348 58.4028C139.323 58.3966 139.302 58.3935 139.283 58.3935L139.218 58.3842C139.062 58.3468 138.984 58.2504 138.984 58.0949V57.5445H141.69V58.0949ZM147.822 63.4502C147.978 63.4876 148.055 63.584 148.055 63.7395V64.2899H146.796C146.678 64.2899 146.584 64.2681 146.516 64.2246C146.447 64.1811 146.385 64.1189 146.329 64.038L144.911 61.8735C144.861 61.7989 144.802 61.7429 144.734 61.7056C144.665 61.6682 144.572 61.6496 144.454 61.6496H143.978V63.3663L144.258 63.4129C144.289 63.4191 144.314 63.4254 144.333 63.4316C144.358 63.4378 144.379 63.4409 144.398 63.4409L144.454 63.4502C144.609 63.4876 144.687 63.584 144.687 63.7395V64.2899H142.019V63.7395C142.019 63.584 142.097 63.4876 142.252 63.4502L142.308 63.4409L142.448 63.4129L142.728 63.3663V58.4681L142.448 58.4215C142.417 58.4153 142.389 58.409 142.364 58.4028C142.345 58.3966 142.327 58.3935 142.308 58.3935L142.252 58.3842C142.097 58.3468 142.019 58.2504 142.019 58.0949V57.5445H144.715C145.175 57.5445 145.57 57.5911 145.9 57.6844C146.217 57.7777 146.485 57.9114 146.702 58.0856C146.92 58.266 147.076 58.4712 147.169 58.7014C147.268 58.9377 147.318 59.199 147.318 59.4851C147.318 59.6965 147.284 59.9111 147.216 60.1288C147.16 60.3092 147.063 60.4927 146.926 60.6793C146.814 60.8348 146.659 60.9778 146.46 61.1085C146.267 61.2329 146.056 61.3324 145.825 61.407C145.987 61.5003 146.124 61.6309 146.236 61.7989L147.3 63.3663L147.589 63.4129C147.62 63.4191 147.648 63.4254 147.673 63.4316C147.704 63.4378 147.729 63.4409 147.747 63.4409L147.822 63.4502ZM145.312 60.6606C145.486 60.6046 145.633 60.5238 145.751 60.418C145.857 60.3185 145.941 60.1941 146.003 60.0449C146.059 59.9018 146.087 59.7463 146.087 59.5784C146.087 59.2363 145.975 58.9719 145.751 58.7853C145.533 58.605 145.188 58.5148 144.715 58.5148H143.978V60.7539H144.697C144.908 60.7539 145.113 60.7228 145.312 60.6606ZM155.44 63.5715C155.559 63.6151 155.618 63.6959 155.618 63.8141V64.2899H153.341V63.8141C153.341 63.7084 153.403 63.6275 153.528 63.5715L153.714 63.4969L153.341 62.4799H150.654L150.281 63.4969L150.468 63.5715C150.592 63.6275 150.654 63.7084 150.654 63.8141V64.2899H148.378V63.8141C148.378 63.7084 148.44 63.6275 148.564 63.5715L149.078 63.3569L151.354 57.5445H152.642L154.927 63.3569L155.44 63.5715ZM153.024 61.5936L152.25 59.4944C152.175 59.2891 152.091 59.0248 151.998 58.7014L151.914 58.9906C151.864 59.1585 151.808 59.3296 151.746 59.5037L150.981 61.5936H153.024ZM126.651 69.0949C126.651 69.2504 126.573 69.3468 126.418 69.3842L126.362 69.3935C126.343 69.3935 126.321 69.3966 126.296 69.4028C126.278 69.409 126.253 69.4153 126.222 69.4215L125.951 69.4681V75.2899H125.298C125.211 75.2899 125.13 75.2744 125.055 75.2433C124.993 75.2184 124.928 75.1624 124.86 75.0753L121.333 70.5877C121.345 70.7245 121.352 70.8209 121.352 70.8769L121.361 71.1475V74.3663L121.967 74.4502C122.123 74.4876 122.201 74.584 122.201 74.7395V75.2899H119.551V74.7395C119.551 74.584 119.629 74.4876 119.784 74.4502L119.84 74.4409L119.98 74.4129L120.26 74.3663V69.4681L119.98 69.4215C119.949 69.4153 119.921 69.409 119.896 69.4028C119.877 69.3966 119.859 69.3935 119.84 69.3935L119.784 69.3842C119.629 69.3468 119.551 69.2504 119.551 69.0949V68.5445H120.913L121.053 68.5538C121.096 68.5538 121.131 68.5631 121.156 68.5818C121.18 68.588 121.208 68.6067 121.24 68.6378L121.333 68.7497L124.878 73.256L124.85 72.9388C124.844 72.8704 124.841 72.7709 124.841 72.6403V69.4681L124.234 69.3842C124.079 69.3468 124.001 69.2504 124.001 69.0949V68.5445H126.651V69.0949ZM131.959 70.6717C131.847 70.6717 131.775 70.6157 131.744 70.5037C131.725 70.4229 131.697 70.1741 131.66 69.7573C131.169 69.6143 130.739 69.5428 130.372 69.5428C130.043 69.5428 129.75 69.5956 129.495 69.7014C129.228 69.8133 129.001 69.9719 128.814 70.1772C128.622 70.3887 128.472 70.6375 128.367 70.9236C128.255 71.2221 128.199 71.5549 128.199 71.9219C128.199 72.2951 128.255 72.6309 128.367 72.9295C128.485 73.2405 128.628 73.4893 128.796 73.6759C128.976 73.8749 129.194 74.0304 129.449 74.1424C129.685 74.2481 129.953 74.301 130.251 74.301C130.425 74.301 130.581 74.2916 130.718 74.273C130.861 74.2543 130.988 74.2263 131.1 74.189C131.206 74.1517 131.315 74.0988 131.427 74.0304C131.52 73.9744 131.623 73.8936 131.735 73.7878C131.753 73.7692 131.787 73.7474 131.837 73.7225C131.862 73.7101 131.899 73.7039 131.949 73.7039C132.024 73.7039 132.083 73.7287 132.126 73.7785L132.621 74.3196C132.347 74.6617 132.011 74.9198 131.613 75.094C131.203 75.2744 130.721 75.3646 130.167 75.3646C129.688 75.3646 129.24 75.2775 128.824 75.1033C128.413 74.9292 128.071 74.6928 127.797 74.3943C127.505 74.077 127.287 73.7132 127.144 73.3027C126.995 72.8797 126.92 72.4194 126.92 71.9219C126.92 71.4056 127.004 70.9391 127.172 70.5224C127.34 70.1057 127.577 69.7449 127.881 69.4401C128.199 69.1229 128.562 68.8835 128.973 68.7217C129.396 68.5538 129.866 68.4698 130.382 68.4698C130.954 68.4698 131.66 68.6315 132.5 68.955V70.6717H131.959ZM137.88 70.3171H137.339C137.227 70.3171 137.156 70.258 137.125 70.1399C137.094 69.8973 137.072 69.6983 137.059 69.5428H134.885V71.4087H137.171V72.379H134.885V74.2823H137.059C137.072 74.1268 137.094 73.9278 137.125 73.6852C137.156 73.567 137.227 73.5079 137.339 73.5079H137.88V75.2899H132.917V74.7395C132.917 74.584 132.995 74.4876 133.15 74.4502L133.206 74.4409C133.225 74.4409 133.243 74.4378 133.262 74.4316C133.287 74.4254 133.315 74.4191 133.346 74.4129L133.626 74.3663V69.4681L133.346 69.4215C133.315 69.4153 133.287 69.409 133.262 69.4028C133.243 69.3966 133.225 69.3935 133.206 69.3935L133.15 69.3842C132.995 69.3468 132.917 69.2504 132.917 69.0949V68.5445H137.88V70.3171Z" fill="#025272"/>
<path d="M224.519 221.866C222.369 224.222 218.885 224.222 216.735 221.866L175.866 177.081C173.718 174.726 173.718 170.906 175.866 168.551L202.917 138.908C205.067 136.552 208.551 136.552 210.701 138.908L251.57 183.693C253.719 186.048 253.719 189.868 251.569 192.224L224.519 221.866Z" fill="#8CBEB2"/>
<path d="M206.133 162.111C204.88 163.484 202.847 163.483 201.594 162.111C200.341 160.738 200.341 158.511 201.594 157.137L210.364 147.527C211.617 146.153 213.649 146.153 214.902 147.527C216.154 148.9 216.155 151.126 214.902 152.499L206.133 162.111Z" fill="#F1F1F1"/>
<path d="M205.978 152.332L201.593 157.137C200.34 158.51 200.34 160.738 201.593 162.111C202.846 163.483 204.879 163.484 206.132 162.111L210.516 157.305L205.978 152.332Z" fill="#FF213D"/>
<path d="M213.334 170.001C212.081 171.375 210.048 171.374 208.795 170.001C207.542 168.628 207.542 166.401 208.795 165.028L217.566 155.418C218.818 154.044 220.85 154.044 222.104 155.418C223.356 156.791 223.357 159.017 222.104 160.391L213.334 170.001Z" fill="#F1F1F1"/>
<path d="M213.179 160.223L208.794 165.028C207.541 166.401 207.541 168.628 208.794 170.001C210.047 171.374 212.08 171.375 213.333 170.001L217.717 165.196L213.179 160.223Z" fill="#FF213D"/>
<path d="M220.533 177.893C219.279 179.265 217.247 179.265 215.995 177.893C214.741 176.52 214.741 174.292 215.995 172.919L224.765 163.307C226.018 161.934 228.049 161.935 229.303 163.308C230.556 164.681 230.556 166.907 229.304 168.281L220.533 177.893Z" fill="#F1F1F1"/>
<path d="M220.38 168.114L215.996 172.92C214.742 174.293 214.742 176.52 215.996 177.893C217.248 179.266 219.28 179.266 220.534 177.893L224.919 173.088L220.38 168.114Z" fill="#FF213D"/>
<path d="M227.733 185.783C226.48 187.156 224.448 187.156 223.194 185.783C221.942 184.41 221.942 182.183 223.194 180.809L231.965 171.197C233.218 169.825 235.251 169.826 236.503 171.198C237.756 172.572 237.756 174.798 236.503 176.171L227.733 185.783Z" fill="#F1F1F1"/>
<path d="M227.58 176.004L223.195 180.809C221.943 182.182 221.943 184.409 223.195 185.783C224.448 187.156 226.481 187.156 227.734 185.783L232.119 180.977L227.58 176.004Z" fill="#FF213D"/>
<path d="M234.933 193.673C233.68 195.047 231.65 195.047 230.396 193.673C229.143 192.301 229.143 190.074 230.396 188.701L239.166 179.09C240.419 177.717 242.452 177.718 243.704 179.09C244.957 180.463 244.957 182.69 243.705 184.063L234.933 193.673Z" fill="#F1F1F1"/>
<path d="M234.78 183.895L230.396 188.7C229.143 190.073 229.143 192.3 230.396 193.673C231.65 195.047 233.68 195.047 234.933 193.673L239.319 188.868L234.78 183.895Z" fill="#FF213D"/>
<path d="M188.269 181.685C187.016 183.058 184.984 183.058 183.73 181.685C182.478 180.312 182.478 178.085 183.73 176.712L192.501 167.099C193.754 165.728 195.786 165.728 197.039 167.1C198.292 168.473 198.292 170.7 197.04 172.073L188.269 181.685Z" fill="#F1F1F1"/>
<path d="M188.117 171.906L183.731 176.712C182.479 178.084 182.479 180.312 183.731 181.685C184.985 183.058 187.017 183.058 188.27 181.685L192.656 176.879L188.117 171.906Z" fill="#FF213D"/>
<path d="M195.469 189.575C194.216 190.949 192.184 190.949 190.932 189.575C189.679 188.202 189.679 185.976 190.932 184.602L199.702 174.992C200.955 173.619 202.987 173.619 204.241 174.992C205.493 176.365 205.493 178.592 204.241 179.965L195.469 189.575Z" fill="#F1F1F1"/>
<path d="M195.316 179.797L190.932 184.602C189.679 185.975 189.679 188.201 190.932 189.575C192.184 190.948 194.216 190.949 195.469 189.575L199.855 184.77L195.316 179.797Z" fill="#FF213D"/>
<path d="M202.67 197.467C201.419 198.841 199.385 198.839 198.132 197.467C196.879 196.094 196.879 193.867 198.132 192.494L206.904 182.882C208.155 181.51 210.188 181.51 211.442 182.883C212.694 184.255 212.695 186.483 211.442 187.856L202.67 197.467Z" fill="#F1F1F1"/>
<path d="M202.518 187.688L198.132 192.493C196.879 193.867 196.879 196.093 198.132 197.466C199.385 198.839 201.418 198.84 202.67 197.466L207.056 192.661L202.518 187.688Z" fill="#FF213D"/>
<path d="M209.871 205.357C208.617 206.729 206.585 206.729 205.332 205.357C204.079 203.984 204.079 201.756 205.332 200.383L214.103 190.772C215.356 189.399 217.388 189.4 218.641 190.772C219.895 192.145 219.895 194.371 218.641 195.745L209.871 205.357Z" fill="#F1F1F1"/>
<path d="M209.718 195.578L205.332 200.384C204.079 201.756 204.079 203.984 205.332 205.358C206.585 206.73 208.617 206.73 209.871 205.358L214.256 200.551L209.718 195.578Z" fill="#FF213D"/>
<path d="M217.072 213.248C215.819 214.621 213.786 214.621 212.533 213.248C211.281 211.875 211.28 209.648 212.533 208.274L221.304 198.664C222.556 197.291 224.588 197.291 225.842 198.664C227.095 200.037 227.095 202.264 225.842 203.638L217.072 213.248Z" fill="#F1F1F1"/>
<path d="M216.919 203.469L212.533 208.275C211.28 209.648 211.281 211.875 212.533 213.248C213.786 214.621 215.819 214.621 217.072 213.248L221.456 208.442L216.919 203.469Z" fill="#FF213D"/>
<path d="M232.4 201.713L194.257 159.914C194.042 159.679 194.042 159.297 194.257 159.06C194.471 158.825 194.82 158.825 195.035 159.06L233.179 200.86C233.394 201.095 233.394 201.477 233.179 201.713C232.964 201.948 232.616 201.948 232.4 201.713Z" fill="#7BA69C"/>
<path d="M29.3082 181.146L25.8472 198.561L17.6133 216.196V222.01H45.1128V208.527V204.332V181.146H29.3082Z" fill="white"/>
<path d="M95.687 222.01V173.269C95.687 170.399 93.5641 168.073 90.9455 168.073H45.1123V222.01H90.9455H95.687Z" fill="#FF213D"/>
<path d="M45.1123 216.196V222.01H90.9455H95.687V216.196H45.1123Z" fill="#C6C6C6"/>
<path d="M45.1128 216.196H17.6133V222.009H45.1128V216.196Z" fill="#E2E2E2"/>
<path d="M30.5521 213.347C26.1859 213.347 22.6465 217.225 22.6465 222.01H38.4583C38.4583 217.225 34.9188 213.347 30.5521 213.347Z" fill="#959595"/>
<path d="M77.4238 213.347C73.057 213.347 69.5176 217.225 69.5176 222.01H85.3301C85.3301 217.225 81.7906 213.347 77.4238 213.347Z" fill="#959595"/>
<path d="M36.8579 222.01C36.8579 225.826 34.0346 228.921 30.552 228.921C27.0694 228.921 24.2461 225.827 24.2461 222.01C24.2461 218.194 27.0694 215.099 30.552 215.099C34.0346 215.099 36.8579 218.193 36.8579 222.01Z" fill="#1D3356"/>
<path d="M83.7299 222.01C83.7299 225.826 80.9073 228.921 77.4241 228.921C73.9408 228.921 71.1182 225.827 71.1182 222.01C71.1182 218.194 73.9408 215.099 77.4241 215.099C80.9073 215.099 83.7299 218.193 83.7299 222.01Z" fill="#1D3356"/>
<path d="M42.7427 183.745H31.2186L28.0977 199.445H42.7427V183.745Z" fill="#23A0BF"/>
<path d="M33.7053 222.009C33.7053 223.918 32.2933 225.465 30.5517 225.465C28.8108 225.465 27.3994 223.918 27.3994 222.009C27.3994 220.101 28.8108 218.555 30.5517 218.555C32.2933 218.555 33.7053 220.101 33.7053 222.009Z" fill="white"/>
<path d="M32.1279 222.009C32.1279 222.964 31.4222 223.737 30.5517 223.737C29.6806 223.737 28.9756 222.964 28.9756 222.009C28.9756 221.056 29.6813 220.283 30.5517 220.283C31.4222 220.282 32.1279 221.056 32.1279 222.009Z" fill="#959595"/>
<path d="M80.5764 222.009C80.5764 223.918 79.1651 225.465 77.4235 225.465C75.6818 225.465 74.2705 223.918 74.2705 222.009C74.2705 220.101 75.6818 218.555 77.4235 218.555C79.1651 218.555 80.5764 220.101 80.5764 222.009Z" fill="white"/>
<path d="M79.0006 222.009C79.0006 222.964 78.2943 223.737 77.4245 223.737C76.554 223.737 75.8477 222.964 75.8477 222.009C75.8477 221.056 76.554 220.283 77.4245 220.283C78.2943 220.282 79.0006 221.056 79.0006 222.009Z" fill="#959595"/>
<path d="M84.3155 189.814C84.3155 197.8 78.4066 204.275 71.119 204.275C63.8301 204.275 57.9199 197.801 57.9199 189.814C57.9199 181.827 63.8308 175.351 71.119 175.351C78.4066 175.351 84.3155 181.827 84.3155 189.814Z" fill="#E2E2E2"/>
<path d="M79.8562 187.074H74.216V180.891H68.0181V187.074H62.3779V193.863H68.0181V200.047H74.216V193.863H79.8562V187.074Z" fill="#FF213D"/>
<path d="M39.08 176.512H34.3601C32.5263 176.512 31.0391 178.14 31.0391 180.151H42.4011C42.4011 178.141 40.9145 176.512 39.08 176.512Z" fill="#FF213D"/>
<path d="M32.9034 180.151H32.373V181.146H32.9034V180.151Z" fill="#1D3356"/>
<path d="M41.0685 180.151H40.5381V181.146H41.0685V180.151Z" fill="#1D3356"/>
<path d="M100.455 205.98V197.235C100.455 195.15 101.998 193.459 103.901 193.459H125.769C127.672 193.459 129.215 195.149 129.215 197.235V205.98" stroke="#1D3356" stroke-width="3" stroke-miterlimit="10"/>
<path d="M103.929 203.476C103.929 204.294 103.324 204.956 102.579 204.956H98.3316C97.5867 204.956 96.9824 204.293 96.9824 203.476C96.9824 202.659 97.5867 201.997 98.3316 201.997H102.579C103.324 201.998 103.929 202.66 103.929 203.476Z" fill="#F5AE4A"/>
<path d="M132.688 203.476C132.688 204.294 132.084 204.956 131.339 204.956H127.091C126.346 204.956 125.742 204.293 125.742 203.476C125.742 202.659 126.346 201.997 127.091 201.997H131.339C132.083 201.998 132.688 202.66 132.688 203.476Z" fill="#F5AE4A"/>
<path d="M140.817 237.194C140.817 241.365 137.73 244.747 133.925 244.747H95.7451C91.9388 244.747 88.8525 241.365 88.8525 237.194V210.979C88.8525 206.808 91.9388 203.426 95.7451 203.426H133.925C137.73 203.426 140.817 206.808 140.817 210.979V237.194Z" fill="white"/>
<path d="M128.033 224.087C128.033 232.073 122.123 238.548 114.836 238.548C107.548 238.548 101.637 232.074 101.637 224.087C101.637 216.099 107.548 209.625 114.836 209.625C122.123 209.625 128.033 216.1 128.033 224.087Z" fill="#FF213D"/>
<path d="M123.573 221.347H117.932V215.163H111.734V221.347H106.094V228.137H111.734V234.32H117.932V228.137H123.573V221.347Z" fill="white"/>
<path d="M95.6228 208.396C95.6228 209.074 95.1205 209.625 94.5018 209.625C93.8825 209.625 93.3809 209.074 93.3809 208.396C93.3809 207.718 93.8831 207.167 94.5018 207.167C95.1212 207.167 95.6228 207.717 95.6228 208.396Z" fill="#C6C6C6"/>
<path d="M136.289 208.396C136.289 209.074 135.787 209.625 135.168 209.625C134.548 209.625 134.047 209.074 134.047 208.396C134.047 207.718 134.549 207.167 135.168 207.167C135.787 207.167 136.289 207.717 136.289 208.396Z" fill="#C6C6C6"/>
<path d="M95.6228 238.548C95.6228 239.227 95.1205 239.777 94.5018 239.777C93.8825 239.777 93.3809 239.227 93.3809 238.548C93.3809 237.87 93.8831 237.32 94.5018 237.32C95.1212 237.32 95.6228 237.87 95.6228 238.548Z" fill="#C6C6C6"/>
<path d="M136.289 238.548C136.289 239.227 135.787 239.777 135.168 239.777C134.548 239.777 134.047 239.227 134.047 238.548C134.047 237.87 134.549 237.32 135.168 237.32C135.787 237.32 136.289 237.87 136.289 238.548Z" fill="#C6C6C6"/>
<path d="M235.469 241.284C235.469 243.533 230.511 245.355 224.397 245.355C218.283 245.355 213.326 243.533 213.326 241.284V238.795H235.468V241.284H235.469Z" fill="#D18F1A"/>
<path d="M235.469 238.795C235.469 241.043 230.511 242.866 224.397 242.866C218.283 242.866 213.326 241.043 213.326 238.795C213.326 236.546 218.283 234.724 224.397 234.724C230.511 234.724 235.469 236.547 235.469 238.795Z" fill="#FFDA13"/>
<path d="M224.398 235.256C218.527 235.256 213.727 236.938 213.353 239.063C213.727 241.187 218.527 242.867 224.398 242.867C230.27 242.867 235.069 241.187 235.443 239.063C235.069 236.938 230.269 235.256 224.398 235.256ZM231.866 241.027C229.888 241.754 227.237 242.156 224.398 242.156C221.56 242.156 218.909 241.754 216.931 241.027C215.067 240.342 214.462 239.586 214.462 239.328C214.462 239.07 215.067 238.315 216.931 237.629C218.909 236.902 221.56 236.502 224.398 236.502C227.237 236.502 229.888 236.903 231.866 237.629C233.73 238.315 234.333 239.07 234.333 239.328C234.333 239.586 233.73 240.342 231.866 241.027Z" fill="#D18F1A"/>
<path d="M224.398 235.968C227.237 235.968 229.888 236.369 231.866 237.095C233.73 237.781 234.333 238.538 234.333 238.795C234.333 239.052 233.73 239.808 231.866 240.494C229.888 241.221 227.237 241.622 224.398 241.622C221.56 241.622 218.909 241.221 216.931 240.494C215.067 239.808 214.462 239.052 214.462 238.795C214.462 238.538 215.067 237.781 216.931 237.095C218.908 236.369 221.56 235.968 224.398 235.968ZM224.398 234.724C218.284 234.724 213.327 236.547 213.327 238.795C213.327 241.044 218.284 242.867 224.398 242.867C230.512 242.867 235.47 241.044 235.47 238.795C235.469 236.547 230.511 234.724 224.398 234.724Z" fill="#FFAF20"/>
<path d="M224.398 237.212C228.537 237.212 231.424 238.085 232.68 238.794C231.424 239.505 228.537 240.378 224.398 240.378C220.259 240.378 217.373 239.505 216.116 238.794C217.372 238.085 220.258 237.212 224.398 237.212Z" fill="#FFAF20"/>
<path d="M235.469 237.146C235.469 239.395 230.511 241.218 224.397 241.218C218.283 241.218 213.326 239.395 213.326 237.146V234.656H235.468V237.146H235.469Z" fill="#D18F1A"/>
<path d="M235.469 234.656C235.469 236.905 230.511 238.729 224.397 238.729C218.283 238.729 213.326 236.905 213.326 234.656C213.326 232.408 218.283 230.585 224.397 230.585C230.511 230.585 235.469 232.408 235.469 234.656Z" fill="#FFDA13"/>
<path d="M224.398 231.119C218.527 231.119 213.727 232.8 213.353 234.924C213.727 237.049 218.527 238.73 224.398 238.73C230.27 238.73 235.069 237.049 235.443 234.924C235.069 232.8 230.269 231.119 224.398 231.119ZM231.866 236.889C229.888 237.616 227.237 238.017 224.398 238.017C221.56 238.017 218.909 237.616 216.931 236.889C215.067 236.203 214.462 235.448 214.462 235.189C214.462 234.932 215.067 234.177 216.931 233.49C218.909 232.764 221.56 232.363 224.398 232.363C227.237 232.363 229.888 232.764 231.866 233.49C233.73 234.177 234.333 234.932 234.333 235.189C234.333 235.448 233.73 236.203 231.866 236.889Z" fill="#D18F1A"/>
<path d="M224.398 231.83C227.237 231.83 229.888 232.231 231.866 232.957C233.73 233.643 234.333 234.399 234.333 234.656C234.333 234.914 233.73 235.67 231.866 236.356C229.888 237.082 227.237 237.484 224.398 237.484C221.56 237.484 218.909 237.082 216.931 236.356C215.067 235.67 214.462 234.914 214.462 234.656C214.462 234.399 215.067 233.643 216.931 232.957C218.908 232.23 221.56 231.83 224.398 231.83ZM224.398 230.585C218.284 230.585 213.327 232.408 213.327 234.656C213.327 236.905 218.284 238.729 224.398 238.729C230.512 238.729 235.47 236.905 235.47 234.656C235.469 232.408 230.511 230.585 224.398 230.585Z" fill="#FFAF20"/>
<path d="M224.398 233.075C228.537 233.075 231.424 233.947 232.68 234.656C231.424 235.367 228.537 236.24 224.398 236.24C220.259 236.24 217.373 235.367 216.116 234.656C217.372 233.947 220.258 233.075 224.398 233.075Z" fill="#FFAF20"/>
<path d="M235.469 233.007C235.469 235.256 230.511 237.079 224.397 237.079C218.283 237.079 213.326 235.256 213.326 233.007V230.518H235.468V233.007H235.469Z" fill="#D18F1A"/>
<path d="M235.469 230.518C235.469 232.767 230.511 234.591 224.397 234.591C218.283 234.591 213.326 232.767 213.326 230.518C213.326 228.27 218.283 226.447 224.397 226.447C230.511 226.447 235.469 228.27 235.469 230.518Z" fill="#FFDA13"/>
<path d="M224.398 226.98C218.527 226.98 213.727 228.661 213.353 230.786C213.727 232.91 218.527 234.591 224.398 234.591C230.27 234.591 235.069 232.91 235.443 230.786C235.069 228.661 230.269 226.98 224.398 226.98ZM231.866 232.751C229.888 233.478 227.237 233.88 224.398 233.88C221.56 233.88 218.909 233.478 216.931 232.751C215.067 232.065 214.462 231.309 214.462 231.051C214.462 230.794 215.067 230.038 216.931 229.352C218.909 228.625 221.56 228.226 224.398 228.226C227.237 228.226 229.888 228.625 231.866 229.352C233.73 230.038 234.333 230.794 234.333 231.051C234.333 231.309 233.73 232.065 231.866 232.751Z" fill="#D18F1A"/>
<path d="M224.398 227.691C227.237 227.691 229.888 228.092 231.866 228.819C233.73 229.505 234.333 230.261 234.333 230.518C234.333 230.776 233.73 231.531 231.866 232.218C229.888 232.944 227.237 233.345 224.398 233.345C221.56 233.345 218.909 232.944 216.931 232.218C215.067 231.531 214.462 230.776 214.462 230.518C214.462 230.261 215.067 229.505 216.931 228.819C218.908 228.092 221.56 227.691 224.398 227.691ZM224.398 226.447C218.284 226.447 213.327 228.27 213.327 230.518C213.327 232.767 218.284 234.591 224.398 234.591C230.512 234.591 235.47 232.767 235.47 230.518C235.469 228.27 230.511 226.447 224.398 226.447Z" fill="#FFAF20"/>
<path d="M224.398 228.937C228.537 228.937 231.424 229.809 232.68 230.518C231.424 231.229 228.537 232.101 224.398 232.101C220.259 232.101 217.373 231.229 216.116 230.518C217.372 229.809 220.258 228.937 224.398 228.937Z" fill="#FFAF20"/>
<path d="M235.469 228.869C235.469 231.118 230.511 232.941 224.397 232.941C218.283 232.941 213.326 231.118 213.326 228.869V226.38H235.468V228.869H235.469Z" fill="#D18F1A"/>
<path d="M235.469 226.38C235.469 228.628 230.511 230.452 224.397 230.452C218.283 230.452 213.326 228.628 213.326 226.38C213.326 224.131 218.283 222.309 224.397 222.309C230.511 222.309 235.469 224.132 235.469 226.38Z" fill="#FFDA13"/>
<path d="M224.398 222.842C218.527 222.842 213.727 224.523 213.353 226.647C213.727 228.772 218.527 230.452 224.398 230.452C230.27 230.452 235.069 228.772 235.443 226.647C235.069 224.522 230.269 222.842 224.398 222.842ZM231.866 228.613C229.888 229.339 227.237 229.74 224.398 229.74C221.56 229.74 218.909 229.339 216.931 228.613C215.067 227.927 214.462 227.171 214.462 226.913C214.462 226.655 215.067 225.899 216.931 225.214C218.909 224.487 221.56 224.087 224.398 224.087C227.237 224.087 229.888 224.487 231.866 225.214C233.73 225.899 234.333 226.655 234.333 226.913C234.333 227.171 233.73 227.927 231.866 228.613Z" fill="#D18F1A"/>
<path d="M224.398 223.554C227.237 223.554 229.888 223.954 231.866 224.681C233.73 225.367 234.333 226.123 234.333 226.38C234.333 226.637 233.73 227.393 231.866 228.079C229.888 228.806 227.237 229.207 224.398 229.207C221.56 229.207 218.909 228.805 216.931 228.079C215.067 227.393 214.462 226.637 214.462 226.38C214.462 226.123 215.067 225.367 216.931 224.681C218.908 223.953 221.56 223.554 224.398 223.554ZM224.398 222.309C218.284 222.309 213.327 224.132 213.327 226.381C213.327 228.629 218.284 230.452 224.398 230.452C230.512 230.452 235.47 228.629 235.47 226.381C235.469 224.132 230.511 222.309 224.398 222.309Z" fill="#FFAF20"/>
<path d="M224.398 224.798C228.537 224.798 231.424 225.671 232.68 226.38C231.424 227.09 228.537 227.963 224.398 227.963C220.259 227.963 217.373 227.09 216.116 226.38C217.372 225.671 220.258 224.798 224.398 224.798Z" fill="#FFAF20"/>
<path d="M239.285 224.731C239.285 226.98 234.327 228.803 228.213 228.803C222.099 228.803 217.141 226.98 217.141 224.731V222.241H239.284V224.731H239.285Z" fill="#D18F1A"/>
<path d="M239.285 222.241C239.285 224.49 234.327 226.314 228.213 226.314C222.099 226.314 217.141 224.49 217.141 222.241C217.141 219.994 222.099 218.171 228.213 218.171C234.327 218.171 239.285 219.994 239.285 222.241Z" fill="#FFDA13"/>
<path d="M228.213 218.704C222.341 218.704 217.541 220.384 217.168 222.509C217.541 224.633 222.341 226.313 228.213 226.313C234.084 226.313 238.885 224.633 239.258 222.509C238.885 220.384 234.084 218.704 228.213 218.704ZM235.68 224.474C233.703 225.202 231.051 225.602 228.213 225.602C225.374 225.602 222.724 225.201 220.747 224.474C218.881 223.788 218.277 223.033 218.277 222.775C218.277 222.517 218.881 221.762 220.747 221.075C222.724 220.349 225.374 219.949 228.213 219.949C231.051 219.949 233.702 220.349 235.68 221.075C237.546 221.762 238.147 222.517 238.147 222.775C238.147 223.033 237.545 223.788 235.68 224.474Z" fill="#D18F1A"/>
<path d="M228.214 219.415C231.052 219.415 233.703 219.816 235.681 220.543C237.546 221.229 238.148 221.985 238.148 222.241C238.148 222.499 237.546 223.255 235.681 223.941C233.704 224.668 231.052 225.069 228.214 225.069C225.375 225.069 222.724 224.667 220.747 223.941C218.881 223.255 218.277 222.499 218.277 222.241C218.277 221.985 218.881 221.229 220.747 220.543C222.724 219.815 225.375 219.415 228.214 219.415ZM228.214 218.171C222.1 218.171 217.142 219.994 217.142 222.241C217.142 224.49 222.1 226.314 228.214 226.314C234.328 226.314 239.285 224.49 239.285 222.241C239.285 219.994 234.327 218.171 228.214 218.171Z" fill="#FFAF20"/>
<path d="M228.214 220.66C232.353 220.66 235.24 221.531 236.496 222.241C235.24 222.953 232.353 223.825 228.214 223.825C224.074 223.825 221.187 222.953 219.931 222.241C221.186 221.531 224.074 220.66 228.214 220.66Z" fill="#FFAF20"/>
<path d="M242.075 219.415C242.075 221.664 237.119 223.487 231.003 223.487C224.889 223.487 219.931 221.664 219.931 219.415V216.925H242.074L242.075 219.415Z" fill="#D18F1A"/>
<path d="M242.075 216.925C242.075 219.174 237.119 220.998 231.003 220.998C224.889 220.998 219.931 219.174 219.931 216.925C219.931 214.677 224.889 212.854 231.003 212.854C237.119 212.854 242.075 214.677 242.075 216.925Z" fill="#FFDA13"/>
<path d="M231.003 213.387C225.132 213.387 220.332 215.068 219.958 217.192C220.331 219.316 225.132 220.998 231.003 220.998C236.874 220.998 241.674 219.316 242.048 217.192C241.675 215.068 236.874 213.387 231.003 213.387ZM238.471 219.157C236.493 219.886 233.841 220.285 231.003 220.285C228.165 220.285 225.514 219.885 223.536 219.157C221.67 218.472 221.067 217.716 221.067 217.458C221.067 217.201 221.67 216.445 223.536 215.759C225.513 215.032 228.165 214.632 231.003 214.632C233.841 214.632 236.493 215.033 238.471 215.759C240.335 216.445 240.938 217.201 240.938 217.458C240.938 217.716 240.335 218.472 238.471 219.157Z" fill="#D18F1A"/>
<path d="M231.003 214.099C233.841 214.099 236.493 214.5 238.471 215.226C240.336 215.912 240.938 216.668 240.938 216.925C240.938 217.183 240.335 217.939 238.471 218.625C236.493 219.352 233.841 219.753 231.003 219.753C228.165 219.753 225.514 219.351 223.536 218.625C221.67 217.939 221.067 217.183 221.067 216.925C221.067 216.668 221.67 215.912 223.536 215.226C225.514 214.499 228.165 214.099 231.003 214.099ZM231.003 212.854C224.889 212.854 219.931 214.677 219.931 216.925C219.931 219.174 224.889 220.998 231.003 220.998C237.119 220.998 242.075 219.174 242.075 216.925C242.075 214.677 237.119 212.854 231.003 212.854Z" fill="#FFAF20"/>
<path d="M231.003 215.343C235.142 215.343 238.029 216.215 239.285 216.925C238.029 217.637 235.142 218.509 231.003 218.509C226.863 218.509 223.977 217.637 222.722 216.925C223.977 216.215 226.863 215.343 231.003 215.343Z" fill="#FFAF20"/>
<path d="M189.767 163.896L147.952 195.022L160.279 214.909L202.094 183.783L189.767 163.896Z" fill="#779324"/>
<path d="M189.176 167.029L199.214 183.222L160.878 211.761L150.84 195.568L189.176 167.029ZM189.456 165.421L149.373 195.261L160.598 213.37L200.681 183.529L189.456 165.421Z" fill="#FFA52B"/>
<path d="M189.176 167.029L199.214 183.222L160.878 211.761L150.84 195.568L189.176 167.029ZM189.456 165.421L149.373 195.261L160.598 213.37L200.681 183.529L189.456 165.421Z" fill="#61771D"/>
<path d="M191.067 168.021L189.455 165.421L187.082 167.186C187.973 168.622 189.757 168.997 191.067 168.021Z" fill="#61771D"/>
<path d="M150.985 197.86C152.294 196.886 152.635 194.93 151.744 193.494L149.373 195.26L150.985 197.86Z" fill="#61771D"/>
<path d="M158.985 210.768L160.598 213.369L162.97 211.603C162.079 210.167 160.297 209.793 158.985 210.768Z" fill="#FFA52B"/>
<path d="M198.307 185.295L200.68 183.528L199.069 180.929C197.758 181.905 197.418 183.859 198.307 185.295Z" fill="#61771D"/>
<path d="M184.038 182.686C185.926 185.73 183.422 191.202 178.444 194.907C173.468 198.614 167.903 199.148 166.013 196.104C164.126 193.059 166.631 187.586 171.61 183.881C176.586 180.178 182.151 179.64 184.038 182.686Z" fill="#61771D"/>
<path d="M161.857 199.201C162.393 200.066 162.19 201.245 161.398 201.834C160.606 202.423 159.531 202.198 158.992 201.331C158.457 200.465 158.663 199.286 159.453 198.696C160.243 198.108 161.319 198.332 161.857 199.201Z" fill="#23A0BF"/>
<path d="M191.06 177.458C191.597 178.326 191.391 179.504 190.6 180.093C189.81 180.682 188.735 180.457 188.197 179.591C187.66 178.724 187.864 177.545 188.654 176.956C189.446 176.366 190.523 176.593 191.06 177.458Z" fill="#61771D"/>
<path d="M196.053 181.921L148.081 199.387L154.998 222.2L202.97 204.734L196.053 181.921Z" fill="#9DC02E"/>
<path d="M194.698 184.762L200.332 203.339L156.352 219.352L150.719 200.776L194.698 184.762ZM195.369 183.298L149.382 200.041L155.682 220.816L201.667 204.072L195.369 183.298Z" fill="#FFA52B"/>
<path d="M194.698 184.762L200.332 203.339L156.352 219.352L150.719 200.776L194.698 184.762ZM195.369 183.298L149.382 200.041L155.682 220.816L201.667 204.072L195.369 183.298Z" fill="#779324"/>
<path d="M196.271 186.281L195.368 183.298L192.647 184.289C193.145 185.936 194.769 186.828 196.271 186.281Z" fill="#779324"/>
<path d="M150.287 203.023C151.79 202.476 152.602 200.697 152.103 199.051L149.381 200.041L150.287 203.023Z" fill="#779324"/>
<path d="M154.776 217.834L155.681 220.817L158.403 219.825C157.904 218.178 156.28 217.287 154.776 217.834Z" fill="#FFA52B"/>
<path d="M198.945 205.064L201.667 204.072L200.762 201.09C199.258 201.637 198.445 203.415 198.945 205.064Z" fill="#779324"/>
<path d="M185.864 198.293C186.923 201.785 183.153 206.303 177.442 208.381C171.733 210.461 166.245 209.315 165.185 205.821C164.126 202.329 167.898 197.811 173.608 195.733C179.316 193.653 184.805 194.799 185.864 198.293Z" fill="#779324"/>
<path d="M160.416 207.559C160.716 208.553 160.226 209.627 159.319 209.957C158.411 210.287 157.431 209.749 157.131 208.755C156.829 207.76 157.319 206.687 158.227 206.357C159.134 206.027 160.114 206.565 160.416 207.559Z" fill="#23A0BF"/>
<path d="M193.919 195.358C194.22 196.353 193.729 197.427 192.82 197.757C191.914 198.088 190.936 197.549 190.634 196.555C190.332 195.561 190.824 194.488 191.731 194.158C192.639 193.827 193.619 194.366 193.919 195.358Z" fill="#779324"/>
<path d="M203.216 241.133C203.216 243.083 201.712 244.664 199.858 244.664H150.138C148.283 244.664 146.779 243.083 146.779 241.133V209.138C146.779 207.188 148.283 205.608 150.138 205.608H199.858C201.712 205.608 203.216 207.188 203.216 209.138V241.133Z" fill="#D96C0F"/>
<path d="M203.216 241.133V209.138C203.216 207.188 201.712 205.608 199.858 205.608H178.821C176.965 205.608 175.462 207.188 175.462 209.138V241.133C175.462 243.083 176.965 244.664 178.821 244.664H199.858C201.712 244.664 203.216 243.083 203.216 241.133Z" fill="#BE5F0D"/>
<path d="M199.871 211.798C199.871 212.878 199.073 213.753 198.088 213.753H189.027C188.042 213.753 187.243 212.878 187.243 211.798C187.243 210.718 188.042 209.842 189.027 209.842H198.088C199.073 209.842 199.871 210.718 199.871 211.798Z" fill="#025272"/>
<path d="M206.991 226.77C206.991 228.719 205.549 230.3 203.769 230.3H183.221C181.441 230.3 179.998 228.719 179.998 226.77V223.501C179.998 221.552 181.441 219.972 183.221 219.972H203.769C205.549 219.972 206.991 221.552 206.991 223.501V226.77Z" fill="#F5AE4A"/>
<path d="M187.479 225.136C187.479 226.837 186.22 228.216 184.668 228.216C183.116 228.216 181.857 226.837 181.857 225.136C181.857 223.435 183.116 222.056 184.668 222.056C186.22 222.056 187.479 223.435 187.479 225.136Z" fill="#025272"/>
<path d="M204.394 123.543L205.571 125.9L207.722 127.189L205.571 128.479L204.394 130.836L203.217 128.479L201.066 127.189L203.217 125.9L204.394 123.543Z" fill="#FFDA13"/>
<path d="M65.0639 85.1501L66.2404 87.5073L68.3915 88.7966L66.2404 90.086L65.0639 92.4431L63.8873 90.086L61.7363 88.7966L63.8873 87.5073L65.0639 85.1501Z" fill="#FFDA13"/>
<path d="M30.5994 161.981L31.7759 164.338L33.9269 165.627L31.7759 166.917L30.5994 169.274L29.4235 166.917L27.2725 165.627L29.4235 164.338L30.5994 161.981Z" fill="white"/>
<path d="M277.953 174.413L279.13 176.771L281.281 178.06L279.13 179.349L277.953 181.706L276.776 179.349L274.625 178.06L276.776 176.771L277.953 174.413Z" fill="#FFDA13"/>
<path d="M3.32757 201.417L4.50412 203.774L6.65513 205.064L4.50412 206.353L3.32757 208.71L2.15102 206.353L0 205.064L2.15102 203.774L3.32757 201.417Z" fill="white"/>
<path d="M263.8 102.517L264.976 104.874L267.127 106.163L264.976 107.453L263.8 109.81L262.624 107.453L260.473 106.163L262.624 104.874L263.8 102.517Z" fill="#FFDA13"/>
<path d="M9.97007 124.901L10.6829 126.33L11.987 127.111L10.6829 127.893L9.97007 129.321L9.25721 127.893L7.95312 127.111L9.25721 126.33L9.97007 124.901Z" fill="white"/>
<path d="M3.32781 168.822L4.04133 170.25L5.34541 171.031L4.04133 171.813L3.32781 173.242L2.61495 171.813L1.31152 171.031L2.61495 170.25L3.32781 168.822Z" fill="#FFDA13"/>
<path d="M203.217 90.2322L203.93 91.662L205.234 92.4431L203.93 93.2243L203.217 94.6534L202.504 93.2243L201.199 92.4431L202.504 91.662L203.217 90.2322Z" fill="white"/>
<path d="M224.918 127.112L225.631 128.54L226.935 129.321L225.631 130.103L224.918 131.532L224.205 130.103L222.901 129.321L224.205 128.54L224.918 127.112Z" fill="white"/>
<path d="M35.4203 52.3453L36.1331 53.7744L37.4372 54.5556L36.1331 55.3375L35.4203 56.7659L34.7068 55.3375L33.4033 54.5556L34.7068 53.7744L35.4203 52.3453Z" fill="white"/>
<path d="M274.627 142.84L275.339 144.268L276.643 145.049L275.339 145.831L274.627 147.26L273.914 145.831L272.608 145.049L273.914 144.268L274.627 142.84Z" fill="white"/>
<path d="M282.983 196.841L283.696 198.27L285 199.051L283.696 199.833L282.983 201.261L282.27 199.833L280.966 199.051L282.27 198.27L282.983 196.841Z" fill="white"/>
</svg>
