<svg width="285" height="253" viewBox="0 0 285 253" fill="none" xmlns="http://www.w3.org/2000/svg">
<path d="M142.178 74.1738C143.279 65.553 136.382 62.3204 133.104 55.6601C135.394 55.2697 137.601 54.7017 139.539 56.5883C140.19 48.1558 148.73 51.3508 152.456 55.0802C150.736 45.744 172.25 45.7491 174.788 52.8516C165.142 56.5496 159.341 69.4286 159.641 78.7267" fill="#D0B26C"/>
<path d="M77.099 161.382L72.0137 162.72L83.6747 206.984L88.76 205.646L77.099 161.382Z" fill="#F0AA00"/>
<path d="M92.916 180.892C96.1368 193.115 94.2804 204.2 88.7716 205.65C83.2616 207.1 76.9236 198.171 73.7028 185.948C70.482 173.724 71.5993 162.834 77.1087 161.385C82.6175 159.935 89.6952 168.668 92.916 180.892Z" fill="#F0AA00"/>
<path d="M88.1888 182.136C91.4096 194.359 89.5583 205.442 84.0546 206.891C78.5508 208.339 71.4783 199.604 68.2575 187.38C65.0367 175.157 66.888 164.074 72.3917 162.625C77.896 161.177 84.968 169.912 88.1888 182.136Z" fill="#FFCC00"/>
<path d="M84.0459 182.787C86.5213 192.182 86.7024 200.254 83.005 201.227C79.0803 202.26 73.1318 195.705 70.6565 186.311C68.1811 176.917 69.1725 168.512 72.8688 167.54C73.7759 167.301 74.7628 167.041 76.7763 168.171C79.955 169.955 82.1781 175.698 84.0459 182.787Z" fill="#DA8100"/>
<path d="M85.681 182.796C88.0966 191.964 87.0574 200.184 83.3605 201.157C79.6636 202.13 74.7077 195.487 72.2921 186.319C69.8765 177.151 70.9163 168.931 74.6132 167.958C78.3101 166.985 83.2654 173.628 85.681 182.796Z" fill="#F0AA00"/>
<path d="M79.1327 164.14L80.4208 165.5L82.2396 165.951L80.8786 167.238L80.4276 169.056L79.1395 167.696L77.3213 167.245L78.6817 165.958L79.1327 164.14Z" fill="#FBFCE6"/>
<path d="M87.3057 178.918L88.0926 179.749L89.2042 180.025L88.3728 180.811L88.0972 181.922L87.3102 181.091L86.1992 180.815L87.0306 180.029L87.3057 178.918Z" fill="#FBFCE6"/>
<path d="M91.9373 158.914L92.8473 159.875L94.132 160.193L93.1708 161.102L92.8524 162.387L91.9425 161.426L90.6572 161.107L91.6185 160.198L91.9373 158.914Z" fill="#FBFCE6"/>
<path d="M105.82 181.22L106.161 181.58L106.643 181.7L106.282 182.041L106.163 182.521L105.822 182.162L105.341 182.042L105.701 181.701L105.82 181.22Z" fill="#FBFCE6"/>
<path d="M56.8393 179.902L57.7794 180.894L59.1062 181.223L58.1131 182.162L57.7846 183.489L56.8444 182.496L55.5176 182.167L56.5107 181.228L56.8393 179.902Z" fill="#FBFCE6"/>
<path d="M77.3955 211.89L78.0771 212.61L79.04 212.848L78.3197 213.53L78.0811 214.492L77.3989 213.772L76.4365 213.534L77.1569 212.852L77.3955 211.89Z" fill="#FBFCE6"/>
<path d="M245.189 153.848L230.763 182.468L234.051 184.124L248.477 155.503L245.189 153.848Z" fill="#F0AA00"/>
<path d="M247.712 173.071C243.728 180.974 237.611 185.926 234.049 184.133C230.486 182.339 231.306 174.719 235.29 166.816C239.274 158.913 244.913 153.72 248.475 155.513C252.038 157.306 251.696 165.167 247.712 173.071Z" fill="#F0AA00"/>
<path d="M244.656 171.532C240.672 179.435 234.558 184.389 231 182.598C227.441 180.806 227.786 172.947 231.77 165.044C235.753 157.14 241.868 152.186 245.426 153.978C248.985 155.77 248.641 163.629 244.656 171.532Z" fill="#FFCC00"/>
<path d="M242.182 169.953C239.12 176.027 235.469 180.345 233.078 179.14C230.54 177.863 230.463 171.669 233.524 165.594C236.586 159.52 241.006 155.572 243.396 156.776C243.983 157.071 244.621 157.392 245.152 158.919C245.992 161.327 244.492 165.37 242.182 169.953Z" fill="#DA8100"/>
<path d="M243.035 170.716C240.047 176.643 235.687 180.473 233.297 179.269C230.907 178.065 231.391 172.285 234.378 166.357C237.366 160.43 241.727 156.601 244.117 157.804C246.508 159.008 246.023 164.788 243.035 170.716Z" fill="#F0AA00"/>
<path d="M248.259 157.897L248.303 159.207L249.048 160.286L247.737 160.331L246.657 161.075L246.612 159.765L245.868 158.685L247.179 158.641L248.259 157.897Z" fill="#FBFCE6"/>
<path d="M245.686 169.435L245.714 170.235L246.169 170.895L245.367 170.922L244.708 171.377L244.681 170.576L244.226 169.917L245.027 169.89L245.686 169.435Z" fill="#FBFCE6"/>
<path d="M257.399 161.092L257.43 162.018L257.956 162.78L257.031 162.811L256.267 163.337L256.236 162.411L255.71 161.649L256.636 161.617L257.399 161.092Z" fill="#FBFCE6"/>
<path d="M254.328 179.225L254.339 179.571L254.537 179.857L254.189 179.869L253.903 180.066L253.892 179.719L253.694 179.433L254.042 179.422L254.328 179.225Z" fill="#FBFCE6"/>
<path d="M229.253 155.829L229.284 156.785L229.828 157.573L228.872 157.605L228.084 158.148L228.051 157.192L227.508 156.404L228.464 156.373L229.253 155.829Z" fill="#FBFCE6"/>
<path d="M225.188 182.133L225.211 182.826L225.606 183.398L224.912 183.421L224.34 183.815L224.316 183.121L223.922 182.55L224.616 182.527L225.188 182.133Z" fill="#FBFCE6"/>
<path d="M208.745 56.7457L205.457 58.4012L219.883 87.022L223.172 85.3665L208.745 56.7457Z" fill="#F0AA00"/>
<path d="M206.216 75.9535C210.2 83.8567 216.317 88.8091 219.879 87.0158C223.442 85.2225 222.622 77.6022 218.639 69.6989C214.655 61.7957 209.015 56.6026 205.453 58.3959C201.89 60.1897 202.232 68.0502 206.216 75.9535Z" fill="#F0AA00"/>
<path d="M209.272 74.4145C213.256 82.3178 219.37 87.2719 222.928 85.4803C226.487 83.6887 226.142 75.8293 222.158 67.9267C218.174 60.0235 212.06 55.0694 208.502 56.8609C204.943 58.6525 205.288 66.5113 209.272 74.4145Z" fill="#FFCC00"/>
<path d="M211.747 72.8359C214.809 78.91 218.46 83.2272 220.851 82.0236C223.389 80.7459 223.466 74.5517 220.405 68.4776C217.343 62.4035 212.923 58.4556 210.533 59.6593C209.946 59.9546 209.308 60.2756 208.777 61.802C207.937 64.2099 209.437 68.2522 211.747 72.8359Z" fill="#DA8100"/>
<path d="M210.893 73.5985C213.881 79.5258 218.241 83.3553 220.631 82.1516C223.022 80.948 222.538 75.1675 219.55 69.2397C216.562 63.3124 212.202 59.4829 209.811 60.6865C207.421 61.8902 207.905 67.6712 210.893 73.5985Z" fill="#F0AA00"/>
<path d="M205.67 60.7798L205.626 62.0899L204.881 63.1695L206.192 63.2139L207.272 63.9577L207.316 62.6476L208.061 61.5686L206.75 61.5242L205.67 60.7798Z" fill="#FBFCE6"/>
<path d="M208.242 72.3179L208.215 73.1186L207.76 73.7776L208.56 73.805L209.22 74.2597L209.248 73.4589L209.703 72.7999L208.902 72.7726L208.242 72.3179Z" fill="#FBFCE6"/>
<path d="M196.529 63.9742L196.497 64.9002L195.972 65.6628L196.898 65.6941L197.661 66.2199L197.692 65.294L198.218 64.5314L197.292 64.5001L196.529 63.9742Z" fill="#FBFCE6"/>
<path d="M199.601 82.1072L199.589 82.4543L199.392 82.74L199.739 82.752L200.025 82.9489L200.036 82.6017L200.233 82.316L199.886 82.3047L199.601 82.1072Z" fill="#FBFCE6"/>
<path d="M224.675 58.7123L224.643 59.6684L224.1 60.4555L225.056 60.4879L225.844 61.0308L225.877 60.0753L226.42 59.2877L225.463 59.2552L224.675 58.7123Z" fill="#FBFCE6"/>
<path d="M228.74 85.0154L228.716 85.7091L228.322 86.2805L229.016 86.3038L229.588 86.6982L229.612 86.0045L230.006 85.4331L229.312 85.4098L228.74 85.0154Z" fill="#FBFCE6"/>
<path d="M99.9611 218.238L160.845 248.481C163.621 249.86 166.86 249.963 169.719 248.764L203.096 234.75L225.185 240.062V211.574H205.233C205.233 211.574 193.298 198.359 183.426 202.121L155.925 215.368C155.925 215.368 145.552 208.159 133.738 211.954C133.738 211.954 116.99 204.366 110.916 209.297C110.916 209.297 108.638 211.194 117.749 213.471C117.749 213.471 102.987 208.381 99.0779 215.597C98.5591 216.554 98.9862 217.754 99.9611 218.238Z" fill="#FDD3A1"/>
<path d="M220.077 204.398H211.588V246.859H220.077V204.398Z" fill="#FBFCE6"/>
<path d="M285 198.874H220.077V253H285V198.874Z" fill="#2A425C"/>
<path d="M285 198.874H220.077V213.59H285V198.874Z" fill="#20354A"/>
<path d="M230.862 245.176C230.862 246.744 229.591 248.014 228.023 248.014C226.455 248.014 225.184 246.744 225.184 245.176C225.184 243.609 226.455 242.339 228.023 242.339C229.591 242.339 230.862 243.609 230.862 245.176Z" fill="#20354A"/>
<path d="M244.347 245.176C244.347 246.744 243.076 248.014 241.508 248.014C239.94 248.014 238.669 246.744 238.669 245.176C238.669 243.609 239.94 242.339 241.508 242.339C243.076 242.339 244.347 243.609 244.347 245.176Z" fill="#20354A"/>
<path d="M188.36 208.539C182.243 208.544 177.457 208.266 171.676 211.14C167.281 213.325 160.889 217.073 157.885 221.055C156.422 221.273 156.775 221.243 155.283 222.109C150.613 219.221 143.978 219.747 140.288 223.676C141.535 219.541 144.964 218.149 148.879 217.265C152.152 216.526 154.137 215.392 157.147 213.766C162.555 210.844 175.299 204.975 181.148 208.918" fill="#F1C085"/>
<path d="M145.461 233.58C149.756 233.874 153.018 233.296 157.304 234.614C161.872 236.019 165.125 237.182 169.757 235.844C172.992 234.911 189.031 226.825 189.128 234.347C189.186 238.918 176.017 238.388 172.383 239.608C165.23 242.009 162.831 242.277 156.376 238.228C153.282 236.287 144.646 237.753 145.461 233.58Z" fill="#F1C085"/>
<path d="M110.915 212.713C116.491 211.868 120.655 215.497 124.109 219.781C128.732 218.784 133.244 220.762 137.129 222.917C137.619 221.664 138.118 220.457 138.591 219.238C135.294 218.868 133.044 215.925 129.703 215.355C126.232 214.762 125.816 214.532 122.697 212.871C120.973 211.952 110.689 209.315 110.915 212.713Z" fill="#F1C085"/>
<path d="M146.923 233.195H143.175C141.587 233.195 140.287 231.896 140.287 230.308V226.563C140.287 224.975 141.587 223.677 143.175 223.677H146.923C148.511 223.677 149.811 224.975 149.811 226.563V230.308C149.811 231.896 148.512 233.195 146.923 233.195Z" fill="#FDE7D2"/>
<path d="M151.057 215.298C127.615 215.298 108.435 196.129 108.435 172.701V161.52C108.435 138.092 127.614 118.924 151.057 118.924C174.499 118.924 193.679 138.092 193.679 161.52V172.701C193.679 196.129 174.499 215.298 151.057 215.298Z" fill="#D0B26C"/>
<path d="M151.056 117.216C149.927 117.216 148.811 117.274 147.702 117.361C154.899 120.367 160.711 125.836 164.219 133.605C169.106 144.426 169.74 157.185 168.214 168.816C166.86 179.14 163.076 188.947 156.249 196.898C151.047 202.956 144.627 207.617 137.595 211.386C141.832 212.807 146.356 213.589 151.056 213.589C174.498 213.589 193.679 194.421 193.679 170.992V159.812C193.679 136.385 174.498 117.216 151.056 117.216Z" fill="#C5A35C"/>
<path d="M220.64 149.7C220.64 161.278 211.249 170.664 199.664 170.664C188.078 170.664 178.688 161.278 178.688 149.7C178.688 138.121 188.078 128.736 199.664 128.736C211.249 128.736 220.64 138.121 220.64 149.7Z" fill="#FFCC00"/>
<path d="M202.089 170.52C206.901 169.965 211.219 167.788 214.474 164.544C211.199 166.118 207.931 167.709 204.661 169.29C203.805 169.703 202.945 170.109 202.089 170.52Z" fill="#FCDC59"/>
<path d="M215.278 149.367C215.278 158.169 208.139 165.304 199.332 165.304C190.524 165.304 183.386 158.169 183.386 149.367C183.386 140.566 190.524 133.431 199.332 133.431C208.139 133.431 215.278 140.566 215.278 149.367Z" fill="#DA8100"/>
<path d="M215.728 150.032C215.728 158.715 208.685 165.754 199.996 165.754C191.307 165.754 184.264 158.715 184.264 150.032C184.264 141.348 191.307 134.309 199.996 134.309C208.685 134.309 215.728 141.348 215.728 150.032Z" fill="#F0AA00"/>
<path d="M177.746 149.036L178.674 150.732L180.371 151.66L178.674 152.587L177.746 154.283L176.818 152.587L175.121 151.66L176.818 150.732L177.746 149.036Z" fill="#FBFCE6"/>
<path d="M180.372 132.095L180.845 132.958L181.709 133.431L180.845 133.903L180.372 134.766L179.9 133.903L179.036 133.431L179.9 132.958L180.372 132.095Z" fill="#FBFCE6"/>
<path d="M212.572 129.512L213.486 131.182L215.157 132.095L213.486 133.008L212.572 134.678L211.658 133.008L209.987 132.095L211.658 131.182L212.572 129.512Z" fill="#FBFCE6"/>
<path d="M211.931 163.429L212.594 164.641L213.808 165.304L212.594 165.967L211.931 167.18L211.268 165.967L210.055 165.304L211.268 164.641L211.931 163.429Z" fill="#FBFCE6"/>
<path d="M224.032 150.417L224.471 151.22L225.275 151.66L224.471 152.099L224.032 152.903L223.592 152.099L222.788 151.66L223.592 151.22L224.032 150.417Z" fill="#FBFCE6"/>
<path d="M224.032 141.411L224.182 141.687L224.459 141.838L224.182 141.989L224.032 142.265L223.881 141.989L223.604 141.838L223.881 141.687L224.032 141.411Z" fill="#FBFCE6"/>
<path d="M175.121 141.411L175.273 141.687L175.549 141.838L175.273 141.989L175.121 142.265L174.971 141.989L174.694 141.838L174.971 141.687L175.121 141.411Z" fill="#FBFCE6"/>
<path d="M90.6573 125.287L92.1521 128.018L94.8849 129.512L92.1521 131.006L90.6573 133.737L89.1625 131.006L86.4297 129.512L89.1625 128.018L90.6573 125.287Z" fill="#FBFCE6"/>
<path d="M60.6881 139.148L62.6003 142.642L66.0973 144.554L62.6003 146.465L60.6881 149.96L58.7753 146.465L55.2783 144.554L58.7753 142.642L60.6881 139.148Z" fill="#FBFCE6"/>
<path d="M202.99 99.2396L204.498 101.995L207.256 103.502L204.498 105.009L202.99 107.765L201.482 105.009L198.725 103.502L201.482 101.995L202.99 99.2396Z" fill="#FBFCE6"/>
<path d="M238.1 118.116L239.978 121.549L243.412 123.426L239.978 125.303L238.1 128.736L236.221 125.303L232.787 123.426L236.221 121.549L238.1 118.116Z" fill="#FBFCE6"/>
<path d="M190.771 43.5255L192.274 46.2715L195.021 47.7733L192.274 49.2747L190.771 52.0206L189.268 49.2747L186.521 47.7733L189.268 46.2715L190.771 43.5255Z" fill="#FBFCE6"/>
<path d="M105.156 94.3561C105.156 88.0196 110.232 82.8356 116.437 82.8356H146.877C153.082 82.8356 158.158 88.0202 158.158 94.3561C158.158 100.693 153.082 105.877 146.877 105.877H116.437C110.233 105.877 105.156 100.693 105.156 94.3561Z" fill="#F1C085"/>
<path d="M128.903 66.4452C128.83 67.1315 128.372 67.8076 127.524 67.9004C125.991 68.0677 124.508 68.4519 123.041 68.9043V120.502C129.712 121.618 136.411 122.558 143.083 123.67C143.152 123.668 143.222 123.663 143.292 123.662C143.576 123.658 143.811 123.722 144.009 123.825C144.386 123.888 144.763 123.949 145.14 124.014C145.403 124.06 145.611 124.185 145.773 124.355C148.004 124.319 151.056 123.957 153.03 125.133H176.659V66.4452H128.903Z" fill="#A56B3F"/>
<path d="M162.918 109.03H84.1617C74.53 109.03 66.6494 101.154 66.6494 91.5282V91.1475C66.6494 81.5215 74.53 73.6456 84.1617 73.6456H162.918C172.549 73.6456 180.43 81.5215 180.43 91.1475V91.5282C180.43 101.154 172.549 109.03 162.918 109.03Z" fill="#A56B3F"/>
<path d="M160.589 105.785C160.589 109.649 163.311 112.811 166.638 112.811H180.249C183.576 112.811 186.298 109.649 186.298 105.785C186.298 101.922 183.576 98.7604 180.249 98.7604H166.638C163.311 98.7604 160.589 101.922 160.589 105.785Z" fill="#CE915F"/>
<path d="M178.605 125.133C180.12 124.181 181.155 122.318 181.155 120.187C181.155 117.097 178.978 114.567 176.316 114.567H165.427C162.765 114.567 160.587 117.097 160.587 120.187C160.587 122.318 161.622 124.181 163.137 125.133H178.605Z" fill="#CE915F"/>
<path d="M185.8 96.653C189.9 96.653 193.255 93.4125 193.255 89.452C193.255 85.4916 189.9 82.2511 185.8 82.2511H160.891V96.6524H185.8V96.653Z" fill="#CE915F"/>
<path d="M175.786 80.8466C179.738 80.8466 182.97 77.6061 182.97 73.6456C182.97 69.6852 179.737 66.4447 175.786 66.4447H160.891V80.846L175.786 80.8466Z" fill="#CE915F"/>
<path d="M158.441 125.134C156.65 122.552 155.783 119.549 156.595 116.374C149.151 125.674 140.522 119.05 139.091 109.052C139.145 107.286 139.148 105.479 139.067 103.731C139.054 103.73 139.039 103.73 139.026 103.729C139.039 103.613 139.051 103.497 139.067 103.38C138.94 104.335 126.82 101.666 125.531 101.153C121.46 99.5333 115.801 95.9558 114.257 90.9158C114.739 91.4804 115.347 92.0017 116.035 92.4581C120.36 97.7059 129.495 102.003 138.116 99.4041C139.527 99.2686 140.879 98.8822 142.138 98.2807V108.068C142.138 112.994 145.609 117.025 149.851 117.025C154.093 117.025 157.564 112.994 157.564 108.068V73.8755C157.913 72.6286 158.088 71.302 158.038 69.8946C158.009 69.0944 157.921 68.3586 157.783 67.6791C154.189 60.3262 144.322 59.7679 139.188 62.4119C133.461 65.3616 113.04 71.3401 106.947 72.9593L58.959 72.6366V110.703H93.4402C96.8689 111.115 101.26 111.038 104.481 112.459C105.082 112.724 105.651 113.043 106.202 113.396C106.393 113.486 106.586 113.573 106.777 113.669C112.875 116.742 118.451 120.583 124.934 122.643C128.336 123.723 131.827 124.429 135.353 124.632C137.607 124.761 139.929 124.567 142.149 125.133H158.441V125.134Z" fill="#CE915F"/>
<path d="M141.533 106.754C141.062 103.181 143.673 101.727 144.258 98.8799C144.659 96.9319 143.601 94.7482 143.65 92.6994C143.692 90.9255 144.016 89.567 144.52 88.0208C141.378 91.4314 142.848 94.895 141.847 98.889C141.522 100.184 140.334 101.263 139.866 102.581C139.126 104.668 139.416 107.244 141.533 106.754Z" fill="#A56B3F"/>
<path d="M145.883 113.094V109.052C145.883 106.939 147.613 105.209 149.728 105.209H150.996C153.111 105.209 154.841 106.938 154.841 109.052V113.094C154.841 115.208 153.111 116.937 150.996 116.937H149.728C147.613 116.937 145.883 115.208 145.883 113.094Z" fill="#FDD3A1"/>
<path d="M72.5105 114.562H81.9912V67.1376H72.5105V114.562Z" fill="#FBFCE6"/>
<path d="M-0.000396729 121.419L72.5098 121.419L72.5098 60.9673L-0.000396729 60.9673L-0.000396729 121.419Z" fill="#2A425C"/>
<path d="M-0.000396729 75.4586L72.5098 75.4586V59.7831L-0.000396729 59.7831V75.4586Z" fill="#20354A"/>
<path d="M60.6884 114.401C62.3587 114.401 63.7127 113.048 63.7127 111.379C63.7127 109.709 62.3587 108.356 60.6884 108.356C59.0181 108.356 57.6641 109.709 57.6641 111.379C57.6641 113.048 59.0181 114.401 60.6884 114.401Z" fill="#20354A"/>
<path d="M43.3008 111.379C43.3008 113.048 44.6549 114.401 46.3251 114.401C47.9953 114.401 49.3495 113.048 49.3495 111.379C49.3495 109.71 47.9953 108.356 46.3251 108.356C44.6544 108.356 43.3008 109.71 43.3008 111.379Z" fill="#20354A"/>
<path d="M127.207 240.39L128.282 242.355L130.249 243.43L128.282 244.505L127.207 246.471L126.131 244.505L124.164 243.43L126.131 242.355L127.207 240.39Z" fill="#FBFCE6"/>
<path d="M152.889 177.846C153.299 177.514 153.699 177.123 154.09 176.674C154.48 176.205 154.832 175.707 155.145 175.18C155.457 174.652 155.711 174.115 155.906 173.568C156.102 173.002 156.199 172.455 156.199 171.928C156.199 171.498 156.141 171.068 156.023 170.639C155.906 170.209 155.721 169.828 155.467 169.496C155.232 169.164 154.93 168.891 154.559 168.676C154.188 168.461 153.748 168.354 153.24 168.354C152.732 168.354 152.098 168.49 151.336 168.764C150.574 169.037 149.695 169.623 148.699 170.521V170.668C148.699 171.195 148.582 171.811 148.348 172.514C148.113 173.197 147.752 173.861 147.264 174.506C146.775 175.15 146.16 175.717 145.418 176.205C144.676 176.674 143.797 176.947 142.781 177.025C144.559 179.408 146.521 181.596 148.67 183.588C150.838 185.58 153.201 187.504 155.76 189.359L152.127 193.139C149.998 191.596 147.986 190.004 146.092 188.363C144.197 186.723 142.439 185.023 140.818 183.266C139.197 181.508 137.723 179.682 136.395 177.787C135.066 175.873 133.914 173.871 132.938 171.781L137.742 168.119C137.801 168.275 137.889 168.49 138.006 168.764C138.123 169.037 138.25 169.32 138.387 169.613C138.523 169.906 138.65 170.189 138.768 170.463C138.885 170.736 138.982 170.941 139.061 171.078C139.275 171.41 139.51 171.674 139.764 171.869C140.018 172.064 140.301 172.162 140.613 172.162C140.867 172.162 141.092 172.074 141.287 171.898C141.482 171.723 141.648 171.508 141.785 171.254C141.922 171 142.02 170.736 142.078 170.463C142.156 170.189 142.195 169.965 142.195 169.789V158.744H130.945V153.734H169.119V158.744H148.699V165.746C149.539 165.16 150.447 164.691 151.424 164.34C152.4 163.988 153.494 163.812 154.705 163.812C155.955 163.812 157.059 164.037 158.016 164.486C158.992 164.936 159.803 165.531 160.447 166.273C161.111 166.996 161.609 167.836 161.941 168.793C162.273 169.73 162.439 170.697 162.439 171.693C162.439 172.611 162.264 173.52 161.912 174.418C161.58 175.316 161.121 176.195 160.535 177.055C159.949 177.895 159.256 178.686 158.455 179.428C157.674 180.17 156.824 180.834 155.906 181.42L152.889 177.846Z" fill="#8E794C"/>
<path d="M203.045 154.741C203.264 154.564 203.477 154.356 203.686 154.116C203.894 153.866 204.081 153.601 204.248 153.319C204.415 153.038 204.55 152.752 204.654 152.46C204.758 152.158 204.811 151.866 204.811 151.585C204.811 151.356 204.779 151.127 204.717 150.898C204.654 150.668 204.555 150.465 204.42 150.288C204.295 150.111 204.133 149.965 203.936 149.851C203.738 149.736 203.503 149.679 203.232 149.679C202.962 149.679 202.623 149.752 202.217 149.898C201.811 150.043 201.342 150.356 200.811 150.835V150.913C200.811 151.194 200.748 151.523 200.623 151.898C200.498 152.262 200.305 152.616 200.045 152.96C199.785 153.304 199.456 153.606 199.061 153.866C198.665 154.116 198.196 154.262 197.654 154.304C198.602 155.575 199.649 156.741 200.795 157.804C201.951 158.866 203.212 159.892 204.576 160.882L202.639 162.898C201.503 162.075 200.43 161.226 199.42 160.351C198.41 159.476 197.472 158.569 196.607 157.632C195.743 156.694 194.956 155.72 194.248 154.71C193.54 153.689 192.925 152.622 192.404 151.507L194.967 149.554C194.998 149.637 195.045 149.752 195.107 149.898C195.17 150.043 195.238 150.194 195.311 150.351C195.383 150.507 195.451 150.658 195.514 150.804C195.576 150.95 195.628 151.059 195.67 151.132C195.785 151.309 195.91 151.45 196.045 151.554C196.18 151.658 196.331 151.71 196.498 151.71C196.633 151.71 196.753 151.663 196.857 151.569C196.962 151.476 197.05 151.361 197.123 151.226C197.196 151.09 197.248 150.95 197.279 150.804C197.321 150.658 197.342 150.538 197.342 150.444V144.554H191.342V141.882H211.701V144.554H200.811V148.288C201.258 147.976 201.743 147.726 202.264 147.538C202.785 147.351 203.368 147.257 204.014 147.257C204.68 147.257 205.269 147.377 205.779 147.616C206.3 147.856 206.732 148.174 207.076 148.569C207.43 148.955 207.696 149.403 207.873 149.913C208.05 150.413 208.139 150.929 208.139 151.46C208.139 151.95 208.045 152.434 207.857 152.913C207.68 153.392 207.436 153.861 207.123 154.319C206.811 154.767 206.441 155.189 206.014 155.585C205.597 155.981 205.144 156.335 204.654 156.648L203.045 154.741Z" fill="#FFCC00"/>
</svg>
