<svg width="271" height="293" viewBox="0 0 271 293" fill="none" xmlns="http://www.w3.org/2000/svg">
<path d="M-224 80.021L-220.924 79.6118C-213.687 132.643 -189.57 180.739 -151.211 218.684C-91.7863 277.468 -7.21082 301.989 75.0124 284.244L75.6845 287.261C-7.57269 305.236 -93.2079 280.408 -153.383 220.883C-192.258 182.426 -216.659 133.717 -224 80.021Z" fill="#41B670"/>
<path d="M-153.409 -127.067C-56.4519 -222.978 101.326 -222.978 198.282 -127.067C295.239 -31.1559 295.239 124.92 198.282 220.831L196.085 218.657C291.827 123.948 291.827 -30.1842 196.085 -124.893C100.344 -219.602 -55.4697 -219.602 -151.212 -124.893C-180.136 -96.2811 -201.538 -60.7653 -213.041 -22.2066L-216.013 -23.076C-204.356 -62.1205 -182.721 -98.071 -153.409 -127.067Z" fill="#41B670"/>
<path d="M-105.383 222.186C-63.793 251.949 -12.5359 266.217 38.9538 262.381C90.9863 258.495 139.969 236.25 176.906 199.711C206.709 170.229 227.155 133.179 235.969 92.5749C246.257 45.2715 240.156 -4.63998 218.78 -47.9546L224.363 -50.6649C246.36 -6.123 252.641 45.1948 242.043 93.8534C232.971 135.608 211.956 173.707 181.274 204.032C143.277 241.619 92.899 264.504 39.3673 268.492C-13.5699 272.43 -66.3003 257.753 -109.079 227.147L-105.383 222.186Z" fill="#41B670"/>
<path d="M-92.3036 -66.6215C-29.0271 -129.215 73.9264 -129.215 137.203 -66.6215C162.818 -41.2822 178.793 -9.16694 183.394 26.2723L177.216 27.0649C172.77 -7.01911 157.416 -37.8814 132.783 -62.249C71.9361 -122.439 -27.0627 -122.439 -87.9094 -62.249C-98.714 -51.561 -107.813 -39.4667 -114.998 -26.2984L-120.478 -29.2134C-113.008 -42.9442 -103.548 -55.4988 -92.3036 -66.6215Z" fill="#41B670"/>
<path d="M40.1695 200.272C75.5299 196.283 107.556 180.993 132.784 156.063C154.884 134.201 169.721 106.637 175.64 76.3882L181.74 77.5644C175.588 109.015 160.183 137.678 137.178 160.409C110.942 186.362 77.6494 202.241 40.8674 206.383L40.1695 200.272Z" fill="#41B670"/>
<path d="M22.4117 -86.0522C58.3149 -86.0522 92.0727 -72.2192 117.482 -47.1101C169.876 4.71912 169.876 89.0727 117.482 140.902C65.0871 192.731 -20.1862 192.731 -72.5806 140.902L-70.3835 138.728C-19.204 189.356 64.1049 189.356 115.284 138.728C166.464 88.101 166.464 5.69077 115.284 -44.9367C90.4701 -69.4833 57.5136 -82.984 22.4375 -82.984V-86.0522H22.4117Z" fill="#41B670"/>
<path d="M-36.6781 -11.5704C-4.08342 -43.8134 48.9572 -43.8134 81.5518 -11.5704C114.146 20.6726 114.146 73.1411 81.5518 105.384L77.1576 101.037C107.322 71.1978 107.322 22.6414 77.1576 -7.22366C46.9927 -37.0632 -2.09311 -37.0632 -32.258 -7.22366C-62.4229 22.6158 -62.4229 71.1722 -32.258 101.012L-36.6522 105.359C-69.2727 73.1155 -69.2727 20.6726 -36.6781 -11.5704Z" fill="#41B670"/>
<path d="M-6.95159 17.8341C9.25525 1.80205 35.6204 1.80205 51.8014 17.8341L49.6043 20.0074C34.6124 5.17715 10.2375 5.17715 -4.7545 20.0074C-19.7465 34.8377 -19.7465 58.9497 -4.7545 73.78C10.2375 88.6102 34.6124 88.6102 49.6043 73.78C57.9275 65.5466 61.934 54.1938 60.6157 42.6108L63.7175 42.2528C65.1391 54.7563 60.7966 67.0551 51.8014 75.9533C35.5946 91.9853 9.2294 91.9853 -6.95159 75.9533C-23.1326 59.9213 -23.1326 33.8661 -6.95159 17.8341Z" fill="#41B670"/>
</svg>
