<svg width="481" height="481" viewBox="0 0 481 481" fill="none" xmlns="http://www.w3.org/2000/svg">
<path d="M360.746 360.746C427.158 294.334 427.158 186.66 360.746 120.248C294.335 53.8368 186.66 53.8368 120.249 120.248C53.8372 186.66 53.8372 294.334 120.249 360.746C186.66 427.157 294.335 427.157 360.746 360.746Z" fill="#EEE6D4"/>
<path d="M240.501 426.185C190.902 426.185 144.271 406.87 109.2 371.798C74.1275 336.726 54.8125 290.096 54.8125 240.497C54.8125 190.898 74.1275 144.268 109.2 109.197C144.271 74.1246 190.902 54.8096 240.501 54.8096C290.1 54.8096 336.729 74.1246 371.801 109.197C406.872 144.269 426.189 190.898 426.189 240.497C426.189 290.096 406.874 336.726 371.801 371.798C336.729 406.87 290.1 426.185 240.501 426.185ZM240.501 57.7596C139.739 57.7596 57.7635 139.737 57.7635 240.497C57.7635 341.258 139.739 423.234 240.501 423.234C341.263 423.234 423.237 341.257 423.237 240.497C423.237 139.737 341.263 57.7596 240.501 57.7596Z" fill="#EEE6D4"/>
<path d="M346.632 455.145C346.632 458.599 343.832 461.399 340.378 461.399H154.886C151.432 461.399 148.632 458.599 148.632 455.145V454.653C148.632 451.199 151.432 448.399 154.886 448.399H340.378C343.832 448.399 346.632 451.199 346.632 454.653V455.145Z" fill="#BBC8DD"/>
<path d="M260.632 310.399H241.632V349.399H260.632V310.399Z" fill="#6F7174"/>
<path d="M260.632 310.399V324.146C253.632 323.856 246.632 323.567 241.632 323.328V310.399H260.632Z" fill="#4D4E50"/>
<path d="M319.632 297.043C319.632 306.076 312.309 313.399 303.276 313.399H198.988C189.955 313.399 182.632 306.076 182.632 297.043V296.756C182.632 287.723 189.955 280.4 198.988 280.4H303.275C312.308 280.4 319.631 287.723 319.631 296.756V297.043H319.632Z" fill="#303043"/>
<path d="M184.632 424.399H176.632V406.653C176.632 402.745 177.532 399.335 180.199 396.79C182.831 394.28 186.347 393.102 191.152 392.337C194.243 391.843 196.523 392.4 197.051 392.4H242.632V397.4H196.822C194.489 397.4 189.677 398.16 186.382 401.316C185.073 402.57 184.632 404.607 184.632 406.654V424.399Z" fill="#303043"/>
<path d="M223.632 397.399H214.632V444.399H223.632V397.399Z" fill="#303043"/>
<path d="M223.305 441.323C223.305 441.896 223.268 442.464 223.2 443.018C222.365 449.708 216.658 454.887 209.738 454.887C202.82 454.887 197.114 449.708 196.278 443.018C196.211 442.463 196.173 441.896 196.173 441.323C196.173 433.832 202.247 427.757 209.737 427.757C217.23 427.757 223.305 433.832 223.305 441.323Z" fill="#727272"/>
<path d="M223.305 441.513C223.305 442.087 223.268 442.4 223.2 443.4H196.279C196.212 442.4 196.174 442.087 196.174 441.513C196.174 434.023 202.248 427.947 209.738 427.947C217.23 427.947 223.305 434.023 223.305 441.513Z" fill="#303043"/>
<path d="M184.632 402.399H176.632V444.399H184.632V402.399Z" fill="#303043"/>
<path d="M185.183 441.323C185.183 441.896 185.146 442.464 185.079 443.018C184.244 449.708 178.536 454.887 171.618 454.887C164.699 454.887 158.993 449.708 158.157 443.018C158.09 442.463 158.053 441.896 158.053 441.323C158.053 433.832 164.126 427.757 171.617 427.757C179.109 427.757 185.183 433.832 185.183 441.323Z" fill="#727272"/>
<path d="M185.183 441.513C185.183 442.087 185.146 442.4 185.079 443.4H158.157C158.09 442.4 158.053 442.087 158.053 441.513C158.053 434.023 164.126 427.947 171.617 427.947C179.109 427.947 185.183 434.023 185.183 441.513Z" fill="#303043"/>
<path d="M288.632 397.399H279.632V444.399H288.632V397.399Z" fill="#303043"/>
<path d="M288.828 441.323C288.828 441.896 288.79 442.464 288.723 443.018C287.888 449.708 282.18 454.887 275.262 454.887C268.343 454.887 262.637 449.708 261.802 443.018C261.734 442.463 261.698 441.896 261.698 441.323C261.698 433.832 267.771 427.757 275.262 427.757C282.752 427.757 288.828 433.832 288.828 441.323Z" fill="#727272"/>
<path d="M288.828 441.513C288.828 442.087 288.79 442.4 288.723 443.4H261.802C261.734 442.4 261.698 442.087 261.698 441.513C261.698 434.023 267.771 427.947 275.262 427.947C282.752 427.947 288.828 434.023 288.828 441.513Z" fill="#303043"/>
<path d="M315.632 424.399H324.632V406.653C324.632 402.745 323.507 399.335 320.841 396.79C318.208 394.28 314.579 393.102 309.775 392.337C306.683 391.843 304.292 392.4 303.764 392.4H258.632V397.4H303.993C306.325 397.4 310.862 398.16 314.157 401.316C315.466 402.57 315.632 404.607 315.632 406.654V424.399Z" fill="#303043"/>
<path d="M324.632 402.399H315.632V444.399H324.632V402.399Z" fill="#303043"/>
<path d="M296.841 441.322C296.841 441.895 296.878 442.463 296.945 443.017C297.78 449.707 303.488 454.886 310.406 454.886C317.324 454.886 323.031 449.707 323.867 443.017C323.933 442.462 323.97 441.895 323.97 441.322C323.97 433.831 317.897 427.756 310.406 427.756C302.915 427.756 296.841 433.831 296.841 441.322Z" fill="#727272"/>
<path d="M296.841 441.512C296.841 442.086 296.878 442.399 296.945 443.399H323.867C323.933 442.399 323.97 442.086 323.97 441.512C323.97 434.022 317.897 427.946 310.406 427.946C302.915 427.946 296.841 434.022 296.841 441.512Z" fill="#303043"/>
<path d="M264.632 342.399H237.632V402.399H264.632V342.399Z" fill="#303043"/>
<path d="M250.632 342.399H242.632V402.399H250.632V342.399Z" fill="#595981"/>
<path d="M271.632 305.399H231.632V318.399H271.632V305.399Z" fill="#303043"/>
<path d="M231.048 335.399C231.048 337.156 229.848 338.399 228.368 338.399H181.906C180.425 338.399 179.226 337.156 179.226 335.399C179.226 333.64 180.426 332.399 181.906 332.399H228.368C229.848 332.399 231.048 333.64 231.048 335.399Z" fill="#303043"/>
<path d="M225.757 337.435C225.279 337.435 224.798 337.271 224.406 336.936C223.53 336.19 223.424 334.875 224.171 333.999L244.72 309.876C245.467 308.998 246.783 308.892 247.659 309.64C248.535 310.386 248.641 311.701 247.893 312.578L227.344 336.702C226.933 337.186 226.347 337.435 225.757 337.435Z" fill="#303043"/>
<path d="M103.355 174.234C103.01 174.234 102.659 174.158 102.327 173.999C101.14 173.43 100.639 172.007 101.208 170.82L132.479 105.599C133.047 104.412 134.47 103.911 135.658 104.481C136.845 105.05 137.346 106.473 136.776 107.659L105.506 172.881C105.096 173.735 104.243 174.234 103.355 174.234Z" fill="#303043"/>
<path d="M378.417 266.012C373.627 260.962 366.725 259.173 357.141 257.92C346.263 256.499 329.383 255.63 306.971 255.335C292.996 255.149 260.236 253.355 255.824 235.347C254.354 229.344 254.963 221.975 254.609 215.79C254.288 210.155 254.008 204.517 253.758 198.878C253.297 188.504 252.851 178.13 252.263 167.763C251.185 148.77 250.241 129.771 249.161 110.779C248.948 107.03 248.537 103.239 248.537 99.4812C248.537 88.6612 240.253 74.5702 226.056 72.6782C199.252 69.1052 142.072 62.8502 136.712 72.6782C136.712 72.6782 149.627 235.078 152.953 247.936C156.279 260.795 201.018 272.006 206.198 274.267C209.612 275.758 228.711 276.323 243.923 276.254C252.915 287.376 257.748 298.772 276.983 300.506C281.421 300.906 361.477 295.28 364.341 295.474C374.189 296.123 382.677 288.858 383.3 279.245C383.61 274.434 381.831 269.61 378.417 266.012Z" fill="#DF9B30"/>
<path d="M204.093 298.277C179.819 296.088 160.898 288.736 147.724 276.346C134.643 264.043 132.189 251.147 131.83 248.686C131.744 248.092 131.687 247.494 131.661 246.894L124.575 86.4859C124.14 76.6269 131.779 68.2809 141.639 67.8449C151.5 67.4089 159.844 75.0499 160.28 84.9089C160.932 99.6769 161.573 114.449 162.209 129.219C163.349 155.663 164.169 182.164 165.74 208.584C166.075 214.203 166.278 219.784 166.353 225.409C166.474 234.471 165.698 246.225 174.24 251.911C181.211 256.551 188.001 259.753 196.34 261.185C203.513 262.416 211.065 263.137 218.343 263.22C240.76 263.473 257.639 264.328 268.517 265.76C278.1 267.022 285 268.84 289.781 274C293.188 277.679 294.957 282.615 294.636 287.543C293.991 297.392 287.725 302.042 277.877 301.398C275.013 301.206 252.973 302.704 217.941 298.958C213.174 298.449 208.53 298.676 204.093 298.277Z" fill="#A36233"/>
<path d="M239.086 116.57C228.813 115.645 218.351 116.162 208.047 116.164C202.874 116.165 197.7 116.167 192.527 116.168C187.393 116.169 182.117 115.843 177.007 116.402C176.145 116.496 176.145 117.723 177.007 117.817C182.117 118.376 187.393 118.05 192.527 118.051C197.7 118.052 202.874 118.054 208.047 118.055C218.351 118.057 228.813 118.574 239.086 117.65C239.745 117.59 239.745 116.629 239.086 116.57Z" fill="#A36233"/>
<path d="M239.086 162.435C228.813 161.511 218.351 162.027 208.047 162.03C202.874 162.031 197.7 162.032 192.527 162.034C187.393 162.035 182.117 161.709 177.007 162.268C176.145 162.362 176.145 163.588 177.007 163.683C182.117 164.242 187.393 163.916 192.527 163.917C197.7 163.918 202.874 163.919 208.047 163.92C218.351 163.922 228.813 164.44 239.086 163.515C239.745 163.456 239.745 162.494 239.086 162.435Z" fill="#A36233"/>
<path d="M240.335 189.666C230.071 188.514 219.418 189.305 209.102 189.31L193.449 189.319C187.918 189.321 182.241 189.017 176.751 189.75C176.23 189.82 176.23 190.536 176.751 190.605C181.878 191.29 187.167 191.034 192.333 191.036L207.984 191.045C213.202 191.048 218.42 191.055 223.637 191.051C229.191 191.046 234.806 191.31 240.335 190.689C240.959 190.619 240.959 189.736 240.335 189.666Z" fill="#A36233"/>
<path d="M240.335 138.438C230.071 137.286 219.418 138.077 209.102 138.082L193.449 138.09C187.918 138.093 182.241 137.788 176.751 138.521C176.23 138.591 176.23 139.308 176.751 139.377C181.878 140.062 187.167 139.805 192.333 139.808L207.984 139.816C213.202 139.818 218.42 139.827 223.637 139.823C229.191 139.819 234.806 140.082 240.335 139.461C240.959 139.391 240.959 138.508 240.335 138.438Z" fill="#A36233"/>
<path d="M220.397 146.537C219.393 146.537 218.459 145.898 218.132 144.891C218.007 144.508 205.558 106.33 197.643 86.982C190.293 69.014 171.448 68.807 171.258 68.807C169.942 68.807 168.875 67.74 168.875 66.425C168.875 65.109 169.942 64.042 171.258 64.042C171.48 64.042 193.506 64.284 202.054 85.178C210.035 104.689 222.538 143.032 222.663 143.416C223.07 144.667 222.386 146.012 221.135 146.419C220.89 146.5 220.642 146.537 220.397 146.537Z" fill="#303043"/>
<path d="M231.752 135L92 170.359L108.577 235.875L248.329 200.516L231.752 135Z" fill="white"/>
<path d="M113.245 177.982C112.921 177.137 112.331 176.566 111.475 176.27C110.619 175.974 109.658 175.961 108.591 176.23C107.811 176.428 107.16 176.727 106.639 177.127C106.124 177.526 105.758 177.988 105.543 178.512C105.334 179.035 105.3 179.578 105.442 180.14C105.561 180.61 105.775 180.986 106.085 181.268C106.398 181.543 106.761 181.747 107.173 181.88C107.584 182.008 108.003 182.095 108.429 182.139C108.854 182.178 109.241 182.2 109.589 182.203L111.501 182.232C111.99 182.236 112.543 182.273 113.158 182.343C113.78 182.412 114.395 182.564 115.004 182.801C115.618 183.03 116.166 183.386 116.648 183.868C117.13 184.35 117.475 185.005 117.684 185.83C117.925 186.783 117.893 187.706 117.589 188.601C117.29 189.494 116.722 190.288 115.884 190.982C115.053 191.675 113.96 192.192 112.606 192.535C111.344 192.854 110.2 192.927 109.174 192.753C108.153 192.578 107.287 192.193 106.575 191.598C105.868 191.002 105.359 190.231 105.046 189.284L107.249 188.727C107.474 189.378 107.837 189.872 108.338 190.209C108.842 190.539 109.423 190.734 110.079 190.794C110.739 190.847 111.419 190.785 112.119 190.607C112.933 190.401 113.631 190.084 114.212 189.657C114.792 189.223 115.211 188.72 115.469 188.148C115.726 187.571 115.773 186.961 115.611 186.318C115.463 185.733 115.179 185.299 114.759 185.014C114.339 184.73 113.833 184.541 113.242 184.446C112.65 184.352 112.023 184.297 111.36 184.281L109.035 184.211C107.559 184.163 106.326 183.874 105.337 183.343C104.348 182.812 103.704 181.953 103.403 180.765C103.154 179.779 103.203 178.851 103.55 177.982C103.902 177.105 104.48 176.349 105.283 175.713C106.091 175.069 107.057 174.605 108.181 174.32C109.316 174.033 110.377 173.981 111.364 174.165C112.349 174.343 113.188 174.716 113.881 175.286C114.58 175.853 115.056 176.578 115.31 177.46L113.245 177.982ZM123.125 189.544L120.888 190.11L122.9 170.852L125.103 170.295L136.031 186.278L133.794 186.844L124.776 173.344L124.638 173.379L123.125 189.544ZM122.21 182.452L131.226 180.17L131.705 182.063L122.689 184.345L122.21 182.452ZM131.774 170.621L131.295 168.728L144.51 165.385L144.989 167.277L139.448 168.679L143.428 184.407L141.294 184.947L137.315 169.219L131.774 170.621ZM150.926 182.51L148.689 183.076L150.701 163.818L152.903 163.261L163.831 179.244L161.594 179.81L152.576 166.31L152.438 166.345L150.926 182.51ZM150.01 175.418L159.027 173.136L159.506 175.029L150.489 177.311L150.01 175.418ZM166.576 178.55L162.118 160.93L164.251 160.39L168.231 176.117L176.421 174.045L176.9 175.938L166.576 178.55ZM192.156 162.704C192.626 164.562 192.697 166.253 192.368 167.776C192.04 169.3 191.383 170.577 190.399 171.607C189.414 172.637 188.171 173.342 186.668 173.723C185.165 174.103 183.736 174.074 182.38 173.636C181.024 173.198 179.84 172.387 178.826 171.203C177.813 170.019 177.071 168.498 176.6 166.639C176.13 164.781 176.059 163.09 176.388 161.567C176.717 160.043 177.373 158.766 178.357 157.736C179.342 156.706 180.585 156.001 182.088 155.62C183.591 155.24 185.02 155.269 186.376 155.707C187.732 156.145 188.917 156.956 189.93 158.14C190.944 159.324 191.686 160.845 192.156 162.704ZM190.091 163.226C189.705 161.7 189.124 160.477 188.348 159.557C187.577 158.635 186.691 158.014 185.689 157.694C184.692 157.372 183.66 157.347 182.593 157.617C181.526 157.886 180.628 158.401 179.898 159.159C179.174 159.916 178.69 160.884 178.445 162.062C178.206 163.24 178.279 164.591 178.665 166.117C179.051 167.643 179.629 168.866 180.4 169.788C181.176 170.709 182.062 171.33 183.059 171.651C184.062 171.971 185.096 171.996 186.163 171.726C187.23 171.457 188.125 170.943 188.849 170.186C189.579 169.428 190.063 168.46 190.303 167.283C190.547 166.104 190.477 164.752 190.091 163.226ZM197.973 170.606L193.514 152.986L195.648 152.446L197.86 161.187L198.066 161.135L203.77 150.391L206.557 149.686L201.17 159.507L211.016 167.306L208.435 167.959L200.236 161.318L198.661 164.353L200.106 170.066L197.973 170.606ZM210.833 148.604L211.225 150.152C211.344 150.623 211.385 151.146 211.348 151.723C211.315 152.293 211.199 152.869 210.998 153.451C210.802 154.025 210.52 154.554 210.154 155.037L208.827 154.421C209.057 153.813 209.234 153.198 209.357 152.575C209.485 151.945 209.468 151.311 209.307 150.674L208.906 149.091L210.833 148.604ZM224.542 149.822C224.218 148.977 223.628 148.406 222.772 148.11C221.916 147.814 220.954 147.801 219.887 148.071C219.107 148.268 218.457 148.567 217.935 148.967C217.42 149.366 217.055 149.828 216.839 150.352C216.63 150.875 216.596 151.418 216.739 151.98C216.858 152.45 217.072 152.826 217.381 153.108C217.695 153.383 218.058 153.587 218.47 153.72C218.881 153.848 219.299 153.935 219.725 153.98C220.15 154.019 220.537 154.04 220.886 154.043L222.797 154.072C223.287 154.076 223.839 154.114 224.455 154.184C225.076 154.252 225.692 154.405 226.301 154.641C226.914 154.87 227.462 155.226 227.944 155.708C228.426 156.191 228.772 156.845 228.981 157.671C229.222 158.623 229.19 159.546 228.885 160.441C228.586 161.334 228.018 162.128 227.181 162.822C226.349 163.515 225.256 164.032 223.903 164.375C222.641 164.694 221.497 164.767 220.47 164.593C219.449 164.418 218.583 164.033 217.871 163.438C217.165 162.842 216.655 162.071 216.343 161.125L218.545 160.567C218.771 161.218 219.134 161.712 219.634 162.049C220.139 162.379 220.719 162.574 221.375 162.634C222.035 162.687 222.715 162.625 223.415 162.448C224.23 162.241 224.927 161.925 225.509 161.497C226.089 161.063 226.508 160.56 226.766 159.989C227.023 159.411 227.07 158.801 226.907 158.159C226.759 157.574 226.475 157.139 226.055 156.854C225.636 156.57 225.13 156.381 224.538 156.286C223.947 156.192 223.32 156.137 222.657 156.122L220.332 156.051C218.855 156.003 217.622 155.714 216.634 155.183C215.645 154.652 215 153.793 214.7 152.605C214.45 151.619 214.499 150.691 214.847 149.822C215.199 148.946 215.776 148.189 216.58 147.553C217.387 146.909 218.353 146.445 219.477 146.16C220.613 145.873 221.674 145.821 222.66 146.005C223.645 146.183 224.484 146.557 225.178 147.126C225.877 147.693 226.353 148.418 226.606 149.3L224.542 149.822ZM115.758 203.606L124.742 217.116L124.948 217.063L126.426 200.907L128.663 200.341L126.651 219.598L124.449 220.156L113.521 204.172L115.758 203.606ZM135.074 217.467L132.837 218.033L134.849 198.776L137.052 198.219L147.98 214.202L145.743 214.768L136.725 201.268L136.587 201.302L135.074 217.467ZM134.159 210.375L143.175 208.094L143.654 209.987L134.638 212.268L134.159 210.375ZM161.01 198.016L158.876 198.556C158.595 197.974 158.238 197.49 157.805 197.106C157.377 196.719 156.9 196.425 156.373 196.223C155.85 196.013 155.299 195.897 154.719 195.872C154.139 195.848 153.557 195.91 152.972 196.058C151.905 196.328 151.006 196.842 150.277 197.601C149.553 198.357 149.068 199.325 148.823 200.504C148.584 201.681 148.658 203.033 149.044 204.559C149.43 206.084 150.008 207.308 150.778 208.23C151.554 209.151 152.441 209.772 153.438 210.093C154.44 210.413 155.475 210.438 156.542 210.168C157.127 210.02 157.668 209.798 158.167 209.501C158.665 209.204 159.096 208.841 159.457 208.414C159.824 207.98 160.103 207.491 160.295 206.948C160.491 206.398 160.576 205.803 160.548 205.163L162.682 204.623C162.749 205.564 162.66 206.444 162.416 207.263C162.172 208.082 161.797 208.82 161.292 209.479C160.786 210.132 160.173 210.687 159.452 211.144C158.738 211.599 157.936 211.939 157.047 212.164C155.544 212.544 154.115 212.515 152.759 212.077C151.403 211.639 150.218 210.828 149.205 209.644C148.191 208.461 147.449 206.939 146.979 205.081C146.509 203.223 146.438 201.532 146.766 200.008C147.095 198.485 147.752 197.208 148.736 196.178C149.72 195.148 150.964 194.442 152.467 194.062C153.356 193.837 154.223 193.755 155.068 193.816C155.919 193.875 156.723 194.075 157.481 194.414C158.236 194.748 158.916 195.216 159.521 195.82C160.124 196.418 160.62 197.15 161.01 198.016ZM168.246 209.074L166.009 209.64L168.02 190.383L170.223 189.826L181.151 205.809L178.914 206.375L169.896 192.875L169.758 192.909L168.246 209.074ZM167.33 201.982L176.347 199.701L176.826 201.594L167.809 203.875L167.33 201.982ZM193.41 183.959L197.868 201.579L195.803 202.102L182.701 190.697L182.529 190.74L186.029 204.575L183.896 205.115L179.437 187.494L181.502 186.972L194.647 198.403L194.82 198.359L191.31 184.49L193.41 183.959ZM213.251 184.798L211.118 185.338C210.836 184.756 210.479 184.273 210.046 183.888C209.619 183.502 209.141 183.207 208.614 183.005C208.091 182.796 207.54 182.679 206.96 182.655C206.38 182.63 205.798 182.692 205.213 182.84C204.146 183.11 203.248 183.624 202.518 184.383C201.794 185.14 201.31 186.107 201.065 187.286C200.826 188.463 200.899 189.815 201.285 191.341C201.671 192.866 202.249 194.09 203.019 195.012C203.796 195.933 204.682 196.554 205.679 196.875C206.681 197.195 207.716 197.22 208.783 196.95C209.368 196.802 209.91 196.58 210.408 196.283C210.907 195.986 211.337 195.624 211.699 195.196C212.065 194.762 212.344 194.273 212.536 193.73C212.733 193.18 212.817 192.585 212.789 191.945L214.923 191.405C214.99 192.346 214.902 193.226 214.657 194.045C214.413 194.864 214.038 195.602 213.533 196.261C213.027 196.914 212.414 197.469 211.694 197.926C210.979 198.381 210.177 198.721 209.288 198.946C207.785 199.327 206.356 199.298 205 198.859C203.644 198.421 202.459 197.61 201.446 196.427C200.432 195.243 199.69 193.722 199.22 191.863C198.75 190.005 198.679 188.314 199.008 186.79C199.336 185.267 199.993 183.99 200.977 182.96C201.961 181.93 203.205 181.225 204.708 180.844C205.597 180.619 206.464 180.537 207.309 180.598C208.16 180.657 208.965 180.857 209.722 181.196C210.478 181.53 211.158 181.998 211.762 182.602C212.365 183.2 212.861 183.932 213.251 184.798ZM213.792 178.802L216.235 178.184L223.203 185.173L223.41 185.12L226.215 175.659L228.659 175.041L224.913 187.01L226.75 194.272L224.617 194.812L222.779 187.55L213.792 178.802Z" fill="#7E8A17"/>
<path d="M289.966 171.799C289.966 171.799 315.165 168.199 317.565 143C317.565 143 321.165 170.001 343.964 169.4C342.764 171.2 319.362 172.398 318.164 195.798C318.164 195.798 318.765 169.999 289.966 171.799Z" fill="white"/>
<path d="M324.773 214.571C324.773 214.571 337.086 212.812 338.258 200.499C338.258 200.499 340.017 213.693 351.157 213.399C350.571 214.278 339.136 214.864 338.55 226.298C338.55 226.298 338.845 213.691 324.773 214.571Z" fill="white"/>
<path d="M279.841 228.298C279.841 228.298 289.29 226.948 290.19 217.499C290.19 217.499 291.54 227.625 300.089 227.399C299.64 228.074 290.864 228.523 290.414 237.298C290.414 237.298 290.64 227.623 279.841 228.298Z" fill="white"/>
</svg>
