<svg width="428" height="110" viewBox="0 0 428 110" fill="none" xmlns="http://www.w3.org/2000/svg">
<path d="M391.742 64.7846L355.33 101.02L318.895 64.7846L282.483 101.02L246.071 64.7846L213.955 96.745L181.818 64.7846L145.406 101.02L108.971 64.7846L72.5588 101.02L36.1465 64.7846L0 100.754L4.03104 104.785L36.1465 72.8245L72.5588 109.06L108.971 72.8245L145.406 109.06L181.818 72.8245L213.955 104.807L246.071 72.8245L282.483 109.06L318.895 72.8245L355.33 109.06L391.742 72.8245L423.88 104.785L427.889 100.754L391.742 64.7846Z" fill="#0B315E"/>
<path d="M391.742 0L355.33 36.2351L318.895 0L282.483 36.2351L246.071 0L217.189 28.7489L217.167 36.811L246.071 8.03993L282.483 44.275L318.895 8.03993L355.33 44.275L391.742 8.03993L423.88 40.0004L427.889 35.9472L391.742 0Z" fill="#FF9D00"/>
</svg>
