<svg width="152" height="265" viewBox="0 0 152 265" fill="none" xmlns="http://www.w3.org/2000/svg">
<path d="M144.586 250.423C148.62 250.423 151.875 253.711 151.875 257.711C151.875 261.745 148.587 265 144.586 265C140.586 265 137.298 261.712 137.298 257.711C137.298 253.677 140.552 250.423 144.586 250.423Z" fill="#0B315E"/>
<path d="M144.586 187.808C148.62 187.808 151.875 191.096 151.875 195.097C151.875 199.131 148.587 202.385 144.586 202.385C140.586 202.385 137.298 199.097 137.298 195.097C137.298 191.096 140.552 187.808 144.586 187.808Z" fill="#0B315E"/>
<path d="M75.9379 187.808C79.972 187.808 83.2266 191.096 83.2266 195.097C83.2266 199.131 79.9381 202.385 75.9379 202.385C71.9037 202.385 68.6494 199.097 68.6494 195.097C68.6155 191.096 71.9037 187.808 75.9379 187.808Z" fill="#0B315E"/>
<path d="M144.586 125.195C148.62 125.195 151.875 128.483 151.875 132.484C151.875 136.518 148.587 139.772 144.586 139.772C140.586 139.772 137.298 136.484 137.298 132.484C137.298 128.483 140.552 125.195 144.586 125.195Z" fill="#0B315E"/>
<path d="M75.9379 125.195C79.972 125.195 83.2266 128.483 83.2266 132.484C83.2266 136.518 79.9381 139.772 75.9379 139.772C71.9037 139.772 68.6494 136.484 68.6494 132.484C68.6155 128.483 71.9037 125.195 75.9379 125.195Z" fill="#0B315E"/>
<path d="M7.28945 125.195C11.3236 125.195 14.5781 128.483 14.5781 132.484C14.5781 136.518 11.2897 139.772 7.28945 139.772C3.2553 139.772 0.000985433 136.484 0.000985783 132.484C-0.0329141 128.483 3.2553 125.195 7.28945 125.195Z" fill="#0B315E"/>
<path d="M144.586 62.615C148.62 62.615 151.875 65.9033 151.875 69.9036C151.875 73.9377 148.587 77.1921 144.586 77.1921C140.586 77.1921 137.298 73.9038 137.298 69.9036C137.298 65.8694 140.552 62.615 144.586 62.615Z" fill="#0B315E"/>
<path d="M75.9379 62.615C79.972 62.615 83.2266 65.9033 83.2266 69.9036C83.2266 73.9377 79.9381 77.1921 75.9379 77.1921C71.9037 77.1921 68.6494 73.9038 68.6494 69.9036C68.6155 65.8694 71.9037 62.615 75.9379 62.615Z" fill="#0B315E"/>
<path d="M144.586 0.000150043C140.561 0.000149691 137.298 3.26334 137.298 7.28872C137.298 11.3141 140.561 14.5774 144.586 14.5774C148.612 14.5774 151.875 11.3141 151.875 7.28872C151.875 3.26334 148.612 0.000150395 144.586 0.000150043Z" fill="#0B315E"/>
</svg>
