<svg width="152" height="265" viewBox="0 0 152 265" fill="none" xmlns="http://www.w3.org/2000/svg">
<path d="M7.28867 14.5772C3.25452 14.5772 0 11.2889 0 7.28867C0 3.25452 3.28842 0 7.28867 0C11.2889 0 14.5771 3.28842 14.5771 7.28867C14.5771 11.3228 11.3228 14.5772 7.28867 14.5772Z" fill="#0B315E"/>
<path d="M7.28867 77.192C3.25452 77.192 0 73.9036 0 69.9033C0 65.8692 3.28842 62.6147 7.28867 62.6147C11.2889 62.6147 14.5771 65.9031 14.5771 69.9033C14.5771 73.9036 11.3228 77.192 7.28867 77.192Z" fill="#0B315E"/>
<path d="M75.9371 77.192C71.903 77.192 68.6484 73.9036 68.6484 69.9033C68.6484 65.8692 71.9369 62.6147 75.9371 62.6147C79.9713 62.6147 83.2256 65.9031 83.2256 69.9033C83.2595 73.9036 79.9713 77.192 75.9371 77.192Z" fill="#0B315E"/>
<path d="M7.28867 139.805C3.25452 139.805 0 136.517 0 132.516C0 128.482 3.28842 125.228 7.28867 125.228C11.2889 125.228 14.5771 128.516 14.5771 132.516C14.5771 136.517 11.3228 139.805 7.28867 139.805Z" fill="#0B315E"/>
<path d="M75.9371 139.805C71.903 139.805 68.6484 136.517 68.6484 132.516C68.6484 128.482 71.9369 125.228 75.9371 125.228C79.9713 125.228 83.2256 128.516 83.2256 132.516C83.2595 136.517 79.9713 139.805 75.9371 139.805Z" fill="#0B315E"/>
<path d="M144.586 139.805C140.551 139.805 137.297 136.517 137.297 132.516C137.297 128.482 140.585 125.228 144.586 125.228C148.62 125.228 151.874 128.516 151.874 132.516C151.908 136.517 148.62 139.805 144.586 139.805Z" fill="#0B315E"/>
<path d="M7.28867 202.385C3.25452 202.385 0 199.097 0 195.096C0 191.062 3.28842 187.808 7.28867 187.808C11.2889 187.808 14.5771 191.096 14.5771 195.096C14.5771 199.131 11.3228 202.385 7.28867 202.385Z" fill="#0B315E"/>
<path d="M75.9371 202.385C71.903 202.385 68.6484 199.097 68.6484 195.096C68.6484 191.062 71.9369 187.808 75.9371 187.808C79.9713 187.808 83.2256 191.096 83.2256 195.096C83.2595 199.131 79.9713 202.385 75.9371 202.385Z" fill="#0B315E"/>
<path d="M7.28867 265C11.314 265 14.5771 261.737 14.5771 257.711C14.5771 253.686 11.314 250.423 7.28867 250.423C3.2633 250.423 0 253.686 0 257.711C0 261.737 3.2633 265 7.28867 265Z" fill="#0B315E"/>
</svg>
