<svg width="62" height="224" viewBox="0 0 62 224" fill="none" xmlns="http://www.w3.org/2000/svg">
<path d="M8.36498 16.6891C12.9736 16.6891 16.7096 12.9531 16.7096 8.34454C16.7096 3.73594 12.9736 -6.10352e-05 8.36498 -6.10352e-05C3.75639 -6.10352e-05 0.0204468 3.73594 0.0204468 8.34454C0.0204468 12.9531 3.75639 16.6891 8.36498 16.6891Z" fill="#FFE031"/>
<path d="M61.4139 8.34454C61.4139 12.9413 57.6868 16.6891 53.0693 16.6891C48.4726 16.6891 44.7247 12.962 44.7247 8.34454C44.7247 3.74776 48.4518 -6.10352e-05 53.0693 -6.10352e-05C57.6868 -6.10352e-05 61.4139 3.72705 61.4139 8.34454Z" fill="#FFE031"/>
<path d="M8.3648 51.2265C12.9734 51.2265 16.7095 47.4905 16.7095 42.8819C16.7095 38.2733 12.9734 34.5373 8.3648 34.5373C3.7562 34.5373 0.0202637 38.2733 0.0202637 42.8819C0.0202637 47.4905 3.7562 51.2265 8.3648 51.2265Z" fill="#FFE031"/>
<path d="M61.4139 42.8819C61.4139 47.4787 57.6868 51.2265 53.0693 51.2265C48.4726 51.2265 44.7247 47.4994 44.7247 42.8819C44.7247 38.2644 48.4518 34.5373 53.0693 34.5373C57.6868 34.558 61.4139 38.2851 61.4139 42.8819Z" stroke="#FFE031" stroke-miterlimit="10"/>
<path d="M8.3648 85.786C12.9734 85.786 16.7095 82.05 16.7095 77.4414C16.7095 72.8328 12.9734 69.0968 8.3648 69.0968C3.7562 69.0968 0.0202637 72.8328 0.0202637 77.4414C0.0202637 82.05 3.7562 85.786 8.3648 85.786Z" fill="#1D262D"/>
<path d="M61.4139 77.4414C61.4139 82.0382 57.6868 85.786 53.0693 85.786C48.4726 85.786 44.7247 82.0589 44.7247 77.4414C44.7247 72.8239 48.4518 69.0968 53.0693 69.0968C57.6868 69.0968 61.4139 72.8446 61.4139 77.4414Z" stroke="#FFE031" stroke-miterlimit="10"/>
<path d="M8.3648 120.343C12.9734 120.343 16.7095 116.607 16.7095 111.999C16.7095 107.39 12.9734 103.654 8.3648 103.654C3.7562 103.654 0.0202637 107.39 0.0202637 111.999C0.0202637 116.607 3.7562 120.343 8.3648 120.343Z" fill="#1D262D"/>
<path d="M61.4139 111.999C61.4139 116.596 57.6868 120.343 53.0693 120.343C48.4726 120.343 44.7247 116.616 44.7247 111.999C44.7247 107.402 48.4518 103.654 53.0693 103.654C57.6868 103.654 61.4139 107.381 61.4139 111.999Z" stroke="#FFE031" stroke-miterlimit="10"/>
<path d="M16.6893 146.558C16.6893 151.155 12.9621 154.903 8.3446 154.903C3.74782 154.903 6.10352e-05 151.176 6.10352e-05 146.558C6.10352e-05 141.962 3.72711 138.214 8.3446 138.214C12.9621 138.214 16.6893 141.941 16.6893 146.558Z" fill="#1D262D"/>
<path d="M61.4139 146.558C61.4139 151.155 57.6868 154.903 53.0693 154.903C48.4726 154.903 44.7247 151.176 44.7247 146.558C44.7247 141.962 48.4518 138.214 53.0693 138.214C57.6868 138.214 61.4139 141.941 61.4139 146.558Z" stroke="#FFE031" stroke-miterlimit="10"/>
<path d="M16.6893 181.096C16.6893 185.693 12.9621 189.44 8.3446 189.44C3.74782 189.44 6.10352e-05 185.713 6.10352e-05 181.096C6.10352e-05 176.499 3.72711 172.751 8.3446 172.751C12.9621 172.751 16.6893 176.499 16.6893 181.096Z" fill="#FFE031"/>
<path d="M61.4139 181.096C61.4139 185.693 57.6868 189.44 53.0693 189.44C48.4726 189.44 44.7247 185.713 44.7247 181.096C44.7247 176.499 48.4518 172.751 53.0693 172.751C57.6868 172.751 61.4139 176.499 61.4139 181.096Z" stroke="#FFE031" stroke-miterlimit="10"/>
<path d="M16.6893 215.655C16.6893 220.252 12.9621 224 8.3446 224C3.74782 224 6.10352e-05 220.273 6.10352e-05 215.655C6.10352e-05 211.059 3.72711 207.311 8.3446 207.311C12.9621 207.311 16.6893 211.038 16.6893 215.655Z" fill="#FFE031"/>
<path d="M61.4139 215.655C61.4139 220.252 57.6868 224 53.0693 224C48.4726 224 44.7247 220.273 44.7247 215.655C44.7247 211.059 48.4518 207.311 53.0693 207.311C57.6868 207.311 61.4139 211.038 61.4139 215.655Z" fill="#FFE031"/>
</svg>
