<svg width="120" height="121" viewBox="0 0 120 121" fill="none" xmlns="http://www.w3.org/2000/svg">
<path d="M33.4 0.802734C38.2502 0.802734 42.9017 2.72945 46.3312 6.15902C49.7608 9.58859 51.6875 14.2401 51.6875 19.0902C51.6875 23.9404 49.7608 28.5919 46.3312 32.0215C42.9017 35.451 38.2502 37.3777 33.4 37.3777C28.5499 37.3777 23.8984 35.451 20.4688 32.0215C17.0392 28.5919 15.1125 23.9404 15.1125 19.0902C15.1125 14.2401 17.0392 9.58859 20.4688 6.15902C23.8984 2.72945 28.5499 0.802734 33.4 0.802734ZM33.4 7.45273C30.3136 7.45273 27.3535 8.67883 25.1711 10.8613C22.9886 13.0437 21.7625 16.0038 21.7625 19.0902C21.7625 22.1767 22.9886 25.1367 25.1711 27.3192C27.3535 29.5016 30.3136 30.7277 33.4 30.7277C36.4865 30.7277 39.4465 29.5016 41.629 27.3192C43.8114 25.1367 45.0375 22.1767 45.0375 19.0902C45.0375 16.0038 43.8114 13.0437 41.629 10.8613C39.4465 8.67883 36.4865 7.45273 33.4 7.45273ZM37.942 44.0277H10.125C7.47949 44.0277 4.94231 45.0787 3.07163 46.9493C1.20096 48.82 0.150024 51.3572 0.150024 54.0027V57.3277C0.150024 67.8813 8.16992 78.6875 22.1948 82.4913C23.4583 80.2237 25.2471 78.2752 27.3884 76.8189C14.115 74.7108 6.80002 65.7001 6.80002 57.3277V54.0027C6.80002 53.1209 7.15034 52.2752 7.77389 51.6516C8.39745 51.028 9.24318 50.6777 10.125 50.6777H35.5613C36.0401 48.3236 36.8514 46.0892 37.942 44.0277ZM60 37.3777C56.0176 37.3708 52.1422 38.6669 48.9651 41.0683C45.7881 43.4696 43.4839 46.8444 42.4041 50.6777C41.6943 53.189 41.5298 55.8231 41.9216 58.4032C42.3134 60.9833 43.2526 63.4497 44.6759 65.6371C46.0993 67.8244 47.974 69.682 50.1743 71.0853C52.3746 72.4885 54.8495 73.405 57.4331 73.7732C58.6612 71.3969 60.1264 69.1913 61.8288 67.1564C59.6111 67.5062 57.3396 67.2107 55.2852 66.3052C53.2297 65.3934 51.4825 63.9055 50.2547 62.0216C49.027 60.1377 48.3713 57.9385 48.367 55.6899C48.3627 53.4412 49.0099 51.2395 50.2305 49.3509C51.451 47.4624 53.1925 45.9678 55.2445 45.0481C57.2964 44.1283 59.5709 43.8228 61.7928 44.1683C64.0147 44.5139 66.089 45.4957 67.7647 46.9952C69.4404 48.4946 70.6458 50.4475 71.2352 52.6175C71.8245 54.7875 71.7726 57.0819 71.0856 59.223C73.3586 57.8568 75.7734 56.7419 78.2875 55.898V55.6652C78.2869 51.418 76.808 47.3035 74.1047 44.0277C70.7531 39.9712 65.6791 37.3777 60 37.3777ZM117.702 66.784C116.141 64.9597 114.403 63.2936 112.515 61.8098C112.967 60.3202 113.196 58.8262 113.2 57.3277V54.0027C113.2 53.1209 112.85 52.2752 112.226 51.6516C111.603 51.028 110.757 50.6777 109.875 50.6777H84.4388C83.9713 48.3585 83.1717 46.1187 82.0647 44.0277H109.875C112.521 44.0277 115.058 45.0787 116.928 46.9493C118.799 48.82 119.85 51.3572 119.85 54.0027V57.3277C119.85 60.5197 119.119 63.7383 117.702 66.784ZM54.7266 80.6027H36.725C35.4141 80.5992 34.1154 80.8548 32.9036 81.3549C31.6918 81.8549 30.5908 82.5895 29.6638 83.5165C28.7368 84.4435 28.0022 85.5445 27.5022 86.7563C27.0021 87.9681 26.7465 89.2668 26.75 90.5777V93.9027C26.75 107.01 39.119 120.503 60 120.503C62.8019 120.494 65.4486 120.261 67.9401 119.804C65.6246 118.064 63.524 116.055 61.6825 113.819C61.122 113.842 60.561 113.853 60 113.853C42.9228 113.853 33.4 103.465 33.4 93.9027V90.5777C33.4 89.6959 33.7503 88.8502 34.3739 88.2266C34.9975 87.603 35.8432 87.2527 36.725 87.2527H53.4963C53.7002 85.0028 54.112 82.7766 54.7266 80.6027ZM104.888 19.0902C104.888 14.2401 102.961 9.58859 99.5312 6.15902C96.1017 2.72945 91.4502 0.802734 86.6 0.802734C81.7499 0.802734 77.0984 2.72945 73.6688 6.15902C70.2392 9.58859 68.3125 14.2401 68.3125 19.0902C68.3125 23.9404 70.2392 28.5919 73.6688 32.0215C77.0984 35.451 81.7499 37.3777 86.6 37.3777C91.4502 37.3777 96.1017 35.451 99.5312 32.0215C102.961 28.5919 104.888 23.9404 104.888 19.0902ZM74.9625 19.0902C74.9625 16.0038 76.1886 13.0437 78.3711 10.8613C80.5535 8.67883 83.5136 7.45273 86.6 7.45273C89.6865 7.45273 92.6465 8.67883 94.829 10.8613C97.0114 13.0437 98.2375 16.0038 98.2375 19.0902C98.2375 22.1767 97.0114 25.1367 94.829 27.3192C92.6465 29.5016 89.6865 30.7277 86.6 30.7277C83.5136 30.7277 80.5535 29.5016 78.3711 27.3192C76.1886 25.1367 74.9625 22.1767 74.9625 19.0902ZM89.925 120.503C97.8616 120.503 105.473 117.35 111.085 111.738C116.697 106.126 119.85 98.5143 119.85 90.5777C119.85 82.6411 116.697 75.0296 111.085 69.4176C105.473 63.8055 97.8616 60.6527 89.925 60.6527C81.9884 60.6527 74.3769 63.8055 68.7649 69.4176C63.1528 75.0296 60 82.6411 60 90.5777C60 98.5143 63.1528 106.126 68.7649 111.738C74.3769 117.35 81.9884 120.503 89.925 120.503ZM89.925 73.9527C90.8069 73.9527 91.6526 74.303 92.2762 74.9266C92.8997 75.5502 93.25 76.3959 93.25 77.2777V87.2527H103.225C104.107 87.2527 104.953 87.603 105.576 88.2266C106.2 88.8502 106.55 89.6959 106.55 90.5777C106.55 91.4596 106.2 92.3053 105.576 92.9289C104.953 93.5524 104.107 93.9027 103.225 93.9027H93.25V103.878C93.25 104.76 92.8997 105.605 92.2762 106.229C91.6526 106.852 90.8069 107.203 89.925 107.203C89.0432 107.203 88.1974 106.852 87.5739 106.229C86.9503 105.605 86.6 104.76 86.6 103.878V93.9027H76.625C75.7432 93.9027 74.8974 93.5524 74.2739 92.9289C73.6503 92.3053 73.3 91.4596 73.3 90.5777C73.3 89.6959 73.6503 88.8502 74.2739 88.2266C74.8974 87.603 75.7432 87.2527 76.625 87.2527H86.6V77.2777C86.6 76.3959 86.9503 75.5502 87.5739 74.9266C88.1974 74.303 89.0432 73.9527 89.925 73.9527Z" fill="#1E4B85"/>
</svg>
