<svg width="124" height="124" viewBox="0 0 124 124" fill="none" xmlns="http://www.w3.org/2000/svg">
<path d="M113.255 61.6533C113.255 33.3428 90.3056 10.3931 62.0002 10.3931C33.6897 10.3931 10.74 33.3428 10.74 61.6533C10.74 89.9587 33.6897 112.903 62.0002 112.903C64.7609 112.9 67.4652 112.686 70.1131 112.263C68.3697 109.535 67.3534 106.407 67.1611 103.176C65.4904 104.503 63.7479 105.216 62.0002 105.216C56.086 105.216 50.2794 97.0773 46.9327 84.7056H80.5886C78.9945 82.4137 77.9574 79.7813 77.5597 77.0181H45.2825C43.9236 68.5442 43.691 59.9279 44.5906 51.3931H79.4099C79.8974 56.0158 80.0532 60.6675 79.8762 65.3126C81.6884 62.2518 84.3696 59.799 87.5791 58.2657C87.507 55.9742 87.3617 53.6855 87.1435 51.4033H104.353C105.006 54.0888 105.397 56.8597 105.527 59.7161C108.998 62.1202 111.51 65.6719 112.62 69.7457C113.04 67.108 113.252 64.4123 113.255 61.6584M25.0234 84.7158H38.9787L39.4964 86.7402C41.121 92.7364 43.3299 97.9947 46.0051 102.192C37.3246 98.7564 29.9718 92.6321 25.0234 84.7158ZM19.6421 51.3982H36.8519C36.5267 54.8052 36.3642 58.2257 36.365 61.6482C36.3509 66.794 36.7244 71.9335 37.4822 77.0232H21.2206C19.3705 72.1084 18.4242 66.8996 18.4275 61.6482C18.4275 58.1529 18.8375 54.7448 19.6216 51.4853L19.6421 51.3982ZM45.8975 21.1504L46.0154 21.1094C42.31 26.9109 39.5066 34.7317 37.9025 43.7107H22.2815C26.9145 33.4607 35.4015 25.3273 45.8975 21.1504ZM61.4057 18.1062L62.0002 18.0806L62.646 18.1113C69.1086 18.7571 75.3509 29.0019 78.2516 43.7107H45.7437C48.6547 28.9609 54.9175 18.7007 61.4057 18.1062ZM78.5335 22.0012L77.9902 21.1094L79.4765 21.7296C89.3482 26.0647 97.2697 33.895 101.719 43.7158H86.0877C84.5656 35.1827 81.9672 27.7002 78.5335 22.0012ZM108.125 74.4607C108.125 77.8588 106.775 81.1177 104.373 83.5205C101.97 85.9233 98.7108 87.2732 95.3127 87.2732C91.9146 87.2732 88.6557 85.9233 86.2529 83.5205C83.8501 81.1177 82.5002 77.8588 82.5002 74.4607C82.5002 71.0626 83.8501 67.8037 86.2529 65.4009C88.6557 62.9981 91.9146 61.6482 95.3127 61.6482C98.7108 61.6482 101.97 62.9981 104.373 65.4009C106.775 67.8037 108.125 71.0626 108.125 74.4607ZM118.375 102.008C118.375 109.987 111.784 118.028 95.3127 118.028C78.841 118.028 72.2502 110.018 72.2502 102.008V101.48C72.2502 96.4623 76.3195 92.3982 81.3369 92.3982H109.289C114.311 92.3982 118.375 96.4623 118.375 101.48V102.008Z" fill="#1E4B85"/>
</svg>
