<svg width="148" height="168" viewBox="0 0 148 168" fill="none" xmlns="http://www.w3.org/2000/svg">
<path d="M57.4726 109.439C56.5911 109.436 55.7178 109.608 54.9026 109.943C54.0874 110.278 53.3462 110.771 52.7214 111.393L41.7157 122.399V142.993H71.9249L103.084 135.203L122.041 127.112C122.579 126.817 123.014 126.363 123.284 125.812C123.555 125.262 123.649 124.64 123.553 124.034C123.457 123.428 123.176 122.866 122.749 122.425C122.322 121.984 121.769 121.686 121.166 121.572C120.715 121.493 120.252 121.511 119.808 121.626L119.7 121.652L85.2767 129.571H65.8745V118.834H82.6515C83.8973 118.834 85.0922 118.339 85.9731 117.458C86.8541 116.577 87.349 115.382 87.349 114.136C87.349 112.89 86.8541 111.696 85.9731 110.815C85.0922 109.934 83.8973 109.439 82.6515 109.439H57.4726ZM98.0165 115.623L117.086 111.237C120.369 110.369 123.857 110.749 126.877 112.304C129.896 113.858 132.231 116.477 133.431 119.654C134.631 122.831 134.611 126.34 133.374 129.503C132.136 132.665 129.77 135.257 126.733 136.776L126.588 136.846L106.51 145.414L73.2456 153.73H12.1882V114.807H34.1244L45.1409 103.791C46.764 102.173 48.6899 100.891 50.8086 100.018C52.9272 99.1447 55.1971 98.6974 57.4887 98.7015H82.6515C84.804 98.7012 86.9327 99.1511 88.901 100.022C90.8693 100.894 92.6336 102.167 94.0806 103.761C95.5275 105.354 96.6252 107.233 97.303 109.276C97.9809 111.319 98.2239 113.481 98.0165 115.623ZM30.9784 125.545H22.9255V142.993H30.9784V125.545Z" fill="#1E4B85"/>
<path d="M53.9764 23.0808L85.3333 13.9292L116.659 23.0808V41.8472C116.659 51.465 113.632 60.8388 108.008 68.6407C102.384 76.4427 94.4474 82.2771 85.3228 85.3174C76.1955 82.2775 68.2563 76.4423 62.6303 68.6386C57.0042 60.835 53.9766 51.4588 53.9764 41.8385V23.0808Z" stroke="#1E4B85" stroke-width="9" stroke-linejoin="round"/>
<path d="M69.647 47.0115L81.8353 59.1998L102.729 38.3057" stroke="#1E4B85" stroke-width="6.96471" stroke-linecap="round" stroke-linejoin="round"/>
</svg>
