<svg width="397" height="79" viewBox="0 0 397 79" fill="none" xmlns="http://www.w3.org/2000/svg">
<path d="M39.2776 60.8865C51.1034 55.9532 56.6909 42.3672 51.7576 30.5414C46.8243 18.7156 33.2383 13.1281 21.4125 18.0614C9.58668 22.9947 3.99923 36.5806 8.93253 48.4064C13.8658 60.2323 27.4517 65.8198 39.2776 60.8865Z" fill="#FF9D00"/>
<path d="M283.295 -0.00012207C261.512 -0.00012207 243.844 17.6683 243.844 39.4515C243.844 61.2347 261.512 78.9031 283.295 78.9031C305.079 78.9031 322.747 61.2347 322.747 39.4515C322.747 17.6683 305.079 -0.00012207 283.295 -0.00012207ZM283.295 58.2823C272.904 58.2823 264.488 49.8666 264.488 39.4748C264.488 29.083 272.904 20.6672 283.295 20.6672C293.687 20.6672 302.103 29.083 302.103 39.4748C302.103 49.8666 293.687 58.2823 283.295 58.2823Z" fill="#FF9D00"/>
<path d="M374.101 16.5527C361.454 16.5527 351.202 26.805 351.202 39.4519C351.202 52.0987 361.454 62.351 374.101 62.351C386.748 62.351 397 52.0987 397 39.4519C397 26.805 386.748 16.5527 374.101 16.5527ZM374.101 45.6358C370.684 45.6358 367.917 42.8693 367.917 39.4519C367.917 36.0344 370.684 33.2679 374.101 33.2679C377.519 33.2679 380.285 36.0344 380.285 39.4519C380.285 42.8693 377.519 45.6358 374.101 45.6358Z" fill="#114A82"/>
<path d="M195.626 19.1567C184.398 19.1567 175.308 28.2467 175.308 39.4754C175.308 50.7041 184.398 59.794 195.626 59.794C206.855 59.794 215.945 50.7041 215.945 39.4754C215.945 28.2467 206.855 19.1567 195.626 19.1567ZM195.626 49.1465C190.279 49.1465 185.932 44.7991 185.932 39.4521C185.932 34.1051 190.279 29.7578 195.626 29.7578C200.973 29.7578 205.321 34.1051 205.321 39.4521C205.321 44.7991 200.973 49.1465 195.626 49.1465Z" fill="#FFC200"/>
</svg>
