<svg width="265" height="449" viewBox="0 0 265 449" fill="none" xmlns="http://www.w3.org/2000/svg">
<path opacity="0.56" d="M233.267 388.037C209.286 395.012 189.555 368.326 170.582 358.926C150.244 348.918 132.03 344.066 114.576 343.915C79.9701 343.763 55.8372 371.055 35.8023 395.77C13.4908 423.214 -10.6421 448.08 -48.8904 448.99C-57.2383 449.142 -68.9253 447.626 -76.5142 439.135C-89.8708 424.275 -84.5585 403.503 -80.4605 386.369C-68.0146 333.149 -56.9347 250.059 -122.2 226.406C-132.217 222.767 -142.538 218.977 -148.913 210.789C-180.179 170.305 -139.047 140.587 -103.076 127.699C-67.1039 114.811 -26.7307 106.926 6.50896 85.8508C41.8735 63.4104 57.355 16.8618 98.4872 2.45757C110.326 -1.63628 121.709 -0.574907 129.754 5.33843C139.923 12.768 144.78 25.9593 147.512 35.0567C159.654 75.3887 126.566 115.266 141.137 155.295C150.547 181.222 174.984 198.962 197.599 213.063C235.088 236.262 264.23 261.583 264.989 309.344C265.292 332.998 259.373 356.348 247.99 375.301C244.347 381.366 240.401 385.308 235.695 387.128C234.937 387.431 234.026 387.734 233.267 388.037Z" fill="#7FACD6"/>
</svg>
