<svg width="99" height="135" viewBox="0 0 99 135" fill="none" xmlns="http://www.w3.org/2000/svg">
<path d="M23.5753 52.7527L41.8168 70.9675L47.1773 65.607L23.5753 42.0051L0.00012207 65.607L5.36058 70.9675L23.5753 52.7527Z" fill="#FF9D00"/>
<path d="M23.5753 84.5691L41.8168 102.784L47.1773 97.4234L23.5753 73.8215L0.00012207 97.4234L5.36058 102.784L23.5753 84.5691Z" fill="#FF9D00"/>
<path d="M23.5753 116.759L41.8168 135L47.1773 129.613L23.5753 106.038L0.00012207 129.613L5.36058 135L23.5753 116.759Z" fill="#FF9D00"/>
<path d="M88.2148 23.5751L70 41.8167L75.3605 47.1771L98.9624 23.5751L75.3605 -1.03167e-06L70 5.36046L88.2148 23.5751Z" fill="#FF9D00"/>
<path d="M59.3581 23.6858L41.0326 41.816L46.3602 47.209L70.1055 23.7512L46.6475 0.0327836L41.2546 5.3605L59.3581 23.6858Z" fill="#FF9D00"/>
</svg>
