<svg width="31" height="224" viewBox="0 0 31 224" fill="none" xmlns="http://www.w3.org/2000/svg">
<path d="M8.36498 16.6892C12.9736 16.6892 16.7096 12.9532 16.7096 8.34456C16.7096 3.73596 12.9736 -4.19617e-05 8.36498 -4.19617e-05C3.75639 -4.19617e-05 0.0204468 3.73596 0.0204468 8.34456C0.0204468 12.9532 3.75639 16.6892 8.36498 16.6892Z" fill="#FFE031"/>
<path d="M8.3648 51.2265C12.9734 51.2265 16.7095 47.4905 16.7095 42.8819C16.7095 38.2733 12.9734 34.5373 8.3648 34.5373C3.7562 34.5373 0.0202637 38.2733 0.0202637 42.8819C0.0202637 47.4905 3.7562 51.2265 8.3648 51.2265Z" fill="#FFE031"/>
<path d="M8.3648 85.786C12.9734 85.786 16.7095 82.05 16.7095 77.4414C16.7095 72.8328 12.9734 69.0968 8.3648 69.0968C3.7562 69.0968 0.0202637 72.8328 0.0202637 77.4414C0.0202637 82.05 3.7562 85.786 8.3648 85.786Z" fill="#1D262D"/>
<path d="M8.3648 120.344C12.9734 120.344 16.7095 116.608 16.7095 111.999C16.7095 107.39 12.9734 103.654 8.3648 103.654C3.7562 103.654 0.0202637 107.39 0.0202637 111.999C0.0202637 116.608 3.7562 120.344 8.3648 120.344Z" fill="#1D262D"/>
<path d="M16.6893 146.558C16.6893 151.155 12.9621 154.903 8.3446 154.903C3.74782 154.903 6.10352e-05 151.176 6.10352e-05 146.558C6.10352e-05 141.962 3.72711 138.214 8.3446 138.214C12.9621 138.214 16.6893 141.941 16.6893 146.558Z" fill="#1D262D"/>
<path d="M16.6893 181.096C16.6893 185.693 12.9621 189.44 8.3446 189.44C3.74782 189.44 6.10352e-05 185.713 6.10352e-05 181.096C6.10352e-05 176.499 3.72711 172.751 8.3446 172.751C12.9621 172.751 16.6893 176.499 16.6893 181.096Z" fill="#FFE031"/>
<path d="M16.6893 215.655C16.6893 220.252 12.9621 224 8.3446 224C3.74782 224 6.10352e-05 220.273 6.10352e-05 215.655C6.10352e-05 211.059 3.72711 207.311 8.3446 207.311C12.9621 207.311 16.6893 211.038 16.6893 215.655Z" fill="#FFE031"/>
</svg>
