<svg width="183" height="58" viewBox="0 0 183 58" fill="none" xmlns="http://www.w3.org/2000/svg">
<path d="M158.82 5.98302C158.945 5.70327 159.141 5.46104 159.388 5.28035C159.635 5.09967 159.926 4.98681 160.23 4.95302C167.41 3.31302 174.59 1.6697 181.77 0.0230288C181.953 -0.0189854 182.145 -0.00505779 182.32 0.063022C182.58 0.173022 182.63 0.483029 182.47 0.773029C182.04 1.58303 181.61 2.39303 181.18 3.19303L173.26 18.013C173.119 18.3632 172.856 18.6508 172.52 18.8234C172.184 18.996 171.797 19.042 171.43 18.953C171.145 18.8773 170.882 18.7371 170.66 18.543C168.78 16.743 166.91 14.933 165.01 13.093C170.36 9.12302 175.707 5.15969 181.05 1.20302C181.04 1.192 181.033 1.17807 181.03 1.16303C175.13 4.59303 169.227 8.01969 163.32 11.443C161.93 10.093 160.54 8.76303 159.18 7.40303C159.018 7.18689 158.89 6.94751 158.8 6.69303C158.774 6.62485 158.754 6.55459 158.74 6.48302C158.77 6.33302 158.8 6.16302 158.82 5.98302Z" fill="#ED1C24"/>
<path d="M163.95 18.5731C163.781 18.6692 163.589 18.7188 163.394 18.7169C163.199 18.7149 163.008 18.6615 162.841 18.562C162.673 18.4625 162.535 18.3204 162.44 18.1503C162.345 17.9801 162.297 17.7879 162.3 17.5931C162.22 16.0431 162.17 14.4931 162.1 12.9431C162.09 12.7831 162.09 12.6231 162.08 12.4031C163.73 13.9731 165.34 15.5131 166.98 17.0831C166.83 17.1631 166.72 17.2431 166.61 17.2931" fill="#ED1C24"/>
<path d="M100.56 57.1531V27.6431C100.499 26.6972 100.637 25.749 100.966 24.86C101.295 23.9711 101.808 23.1613 102.47 22.4831C103.921 21.2114 105.814 20.5613 107.74 20.6731H116.39C117.977 20.5706 119.556 20.9732 120.9 21.8231C121.772 22.4452 122.477 23.2724 122.953 24.2316C123.429 25.1909 123.662 26.2527 123.63 27.3231V40.5331C123.715 42.3841 123.097 44.1986 121.9 45.6131C121.26 46.4077 120.452 47.0505 119.534 47.4949C118.616 47.9393 117.61 48.1744 116.59 48.1831H105.13V57.1431H100.56V57.1531ZM105.17 40.8931C105.183 41.6185 105.464 42.3133 105.96 42.8431C106.416 43.293 107.013 43.572 107.65 43.6331H116.47C116.579 43.6371 116.687 43.6201 116.79 43.5831C117.343 43.5088 117.857 43.2587 118.257 42.8698C118.656 42.4809 118.921 41.9737 119.01 41.4231C119.049 41.2494 119.066 41.0712 119.06 40.8931V27.3831C119.056 26.8367 118.881 26.3051 118.56 25.8631C118.133 25.5099 117.611 25.2907 117.06 25.2331H108.4C106.22 25.2331 105.13 26.1631 105.13 28.0231V40.3731C105.113 40.5475 105.127 40.7234 105.17 40.8931Z" fill="#ED1C24"/>
<path d="M125.82 40.7931V37.4931C125.715 35.3773 126.286 33.2831 127.45 31.5131C128.064 30.6655 128.881 29.9859 129.826 29.5368C130.772 29.0877 131.815 28.8836 132.86 28.9431H144.22V27.0831C144.221 26.8422 144.175 26.6033 144.084 26.3802C143.993 26.1571 143.859 25.9542 143.69 25.7831C143.539 25.6093 143.354 25.4695 143.145 25.373C142.936 25.2765 142.71 25.2254 142.48 25.2231H125.81V20.6631H142.11C145.71 20.6631 147.893 22.3597 148.66 25.7531C148.718 26.1708 148.751 26.5915 148.76 27.0131V41.1631C148.767 42.4043 148.42 43.6219 147.76 44.6731C146.29 47.0131 144.386 48.1831 142.05 48.1831H132.88C131.434 48.1557 130.037 47.6571 128.9 46.7631C127.696 45.9328 126.767 44.7632 126.23 43.4031C125.944 42.5631 125.806 41.6802 125.82 40.7931ZM131.6 43.2031C132.42 43.5366 133.306 43.6802 134.19 43.6231H140.42C142.95 43.6231 144.216 42.7131 144.22 40.8931V36.4331C144.22 34.6831 143.146 33.7031 141 33.4931H133.66C131.48 33.7331 130.39 34.7131 130.39 36.4331V40.8931C130.341 41.3545 130.43 41.8201 130.645 42.2311C130.861 42.6422 131.193 42.9803 131.6 43.2031Z" fill="#ED1C24"/>
<path d="M150.99 57.1531V52.5931H166.92C168.43 52.3531 169.18 51.3731 169.18 49.6531V48.1831H157.67C156.787 48.195 155.91 48.0294 155.092 47.696C154.275 47.3626 153.532 46.8683 152.909 46.2425C152.286 45.6166 151.795 44.8719 151.465 44.0526C151.136 43.2333 150.974 42.3561 150.99 41.4731V20.6631H155.55V40.2131C155.55 42.4831 156.643 43.6197 158.83 43.6231H166.01C168.12 43.6231 169.176 42.6431 169.18 40.6831V20.6531L173.76 20.6631L173.74 49.3831C173.858 51.4086 173.225 53.4065 171.96 54.9931C171.262 55.7255 170.413 56.2971 169.472 56.6684C168.531 57.0397 167.52 57.2017 166.51 57.1431H150.99V57.1531Z" fill="#ED1C24"/>
<path fill-rule="evenodd" clip-rule="evenodd" d="M0 20.7031H16.15V24.1931H13.43C13.0086 24.1915 12.6037 24.3568 12.3039 24.6529C12.0041 24.949 11.8337 25.3518 11.83 25.7731V43.0431C11.8337 43.4645 12.0041 43.8672 12.3039 44.1633C12.6037 44.4594 13.0086 44.6247 13.43 44.6231H16.15V48.1231H0V44.6231H3.12C3.54029 44.6242 3.94381 44.4584 4.24194 44.1621C4.54007 43.8659 4.70841 43.4634 4.71 43.0431V25.7731C4.70683 25.3533 4.53798 24.9518 4.2402 24.6559C3.94242 24.36 3.53981 24.1936 3.12 24.1931H0V20.7031Z" fill="#ED1C24"/>
<path fill-rule="evenodd" clip-rule="evenodd" d="M18.8901 20.7031H33.1701L36.8101 29.1131L40.4201 37.5231L44.0301 29.1131L47.6501 20.7031H61.3001V24.1931H58.2501C57.8267 24.1934 57.4203 24.3603 57.119 24.6579C56.8177 24.9554 56.6457 25.3597 56.6401 25.7831V43.1731C56.6414 43.3832 56.6841 43.591 56.7657 43.7847C56.8474 43.9783 56.9663 44.1539 57.1158 44.3016C57.2653 44.4492 57.4425 44.566 57.6371 44.6452C57.8317 44.7244 58.04 44.7645 58.2501 44.7631H61.3001V48.1231H44.9801L44.9601 44.7131H47.2101C47.2101 44.7131 49.2101 45.0231 49.3301 43.1131L49.4101 27.0431L40.3601 48.1031V48.1331H37.1001V48.1031L28.0501 27.0431L28.1301 43.1131C28.2501 45.0231 30.2501 44.7131 30.2501 44.7131H32.5001L32.4801 48.1231H18.8901V44.7631H21.9301C22.3528 44.7631 22.7582 44.5959 23.058 44.298C23.3578 44.0002 23.5275 43.5957 23.5301 43.1731V25.7831C23.5275 25.3605 23.3578 24.9561 23.058 24.6582C22.7582 24.3603 22.3528 24.1931 21.9301 24.1931H18.8901V20.7031Z" fill="#ED1C24"/>
<path fill-rule="evenodd" clip-rule="evenodd" d="M93.8301 48.1231H64.0801V44.7431H67.0901C67.5127 44.7431 67.9182 44.5759 68.2179 44.278C68.5177 43.9801 68.6874 43.5757 68.6901 43.1531V25.7631C68.6874 25.3405 68.5177 24.9361 68.2179 24.6382C67.9182 24.3403 67.5127 24.1731 67.0901 24.1731H64.0801V20.6731H93.8301V31.4231H89.8401C89.7139 29.6419 89.3472 27.886 88.7501 26.2031C87.8701 24.1731 83.8801 24.3231 83.8801 24.3231H75.9001L75.8501 32.1831C81.0801 32.3031 82.4801 32.5731 82.1201 27.5831L86.0701 27.5631L86.0801 40.5331H82.1101C82.1101 40.5331 82.1101 39.8331 82.0401 37.6231C81.9701 35.2331 78.2301 35.7731 75.8801 35.8331V44.5131L84.4901 44.5431C87.8701 44.3131 88.8401 42.6331 89.3801 40.9931C89.7328 39.4796 89.8841 37.9262 89.8301 36.3731L93.8101 36.3831V48.1231H93.8301Z" fill="#ED1C24"/>
</svg>
